<svg xmlns="http://www.w3.org/2000/svg" width="237.416" height="109.821" viewBox="0 0 237.416 109.821">
  <g id="Grupo_390" data-name="Grupo 390" transform="translate(-1375.321 -539.674)">
    <path id="Trazado_16955" data-name="Trazado 16955" d="M1375.445,648.061v-2.548c.05-20.854,7.837-33.694,17.93-48.368,9.364-13.635,12.427-17.433,12.427-29.125,0-7.905-.816-11.338-5.6-11.338-4.305,0-5.823,3.451-5.823,10.593v6.347h-19.057v-5.8c0-12.759,3.889-28.151,25.882-28.151,19.711,0,25.49,12.076,25.49,28.523,0,16.617-5.711,23.92-15.761,37.977-5.3,7.039-11.282,16.62-12.107,23.923h29.786l-2.529,17.964Z" transform="translate(0 0)" fill="#ffc800"/>
    <path id="Trazado_16956" data-name="Trazado 16956" d="M1451.836,568.69v50.662c0,16.645-5.965,30.143-27.753,30.143-21.118,0-26.543-13.973-26.543-30.034V569.606c0-19.289,9.488-29.932,27.244-29.932C1442.615,539.674,1451.836,550.391,1451.836,568.69Zm-33.622-1.682v54.876c0,6.211,1.735,9.749,6.415,9.749s6.307-3.8,6.307-10.072V566.685c0-5.335-1.465-9.15-6.307-9.15C1420.057,557.536,1418.214,561.089,1418.214,567.008Z" transform="translate(46.742 0)" fill="#ffc800"/>
    <path id="Trazado_16957" data-name="Trazado 16957" d="M1420.263,648.061v-2.548c.05-20.854,7.837-33.694,17.93-48.368,9.361-13.635,12.427-17.433,12.427-29.125,0-7.905-.816-11.338-5.6-11.338-4.308,0-5.822,3.451-5.822,10.593v6.347h-19.06v-5.8c0-12.759,3.889-28.151,25.879-28.151,19.717,0,25.493,12.076,25.493,28.523,0,16.617-5.711,23.92-15.76,37.977-5.3,7.039-11.285,16.62-12.11,23.923h29.789l-2.53,17.964Z" transform="translate(94.283 0)" fill="#ffc800"/>
    <path id="Trazado_16958" data-name="Trazado 16958" d="M1451.206,647.423V563.016a80.6,80.6,0,0,1-9.168-.677V547.165c6.8-.553,11.558-3.455,14.461-7.188h15.888V647.423Z" transform="translate(140.351 0.637)" fill="#ffc800"/>
  </g>
</svg>
