<svg xmlns="http://www.w3.org/2000/svg" width="1925.872" height="1568.054" viewBox="0 0 1925.872 1568.054">
  <g id="Grupo_716" data-name="Grupo 716" transform="translate(0 -2655.186)" opacity="0.079">
    <g id="Grupo_714" data-name="Grupo 714" transform="translate(764.742 3001.462)">
      <g id="Grupo_678" data-name="Grupo 678" transform="translate(0 9.945)">
        <path id="Trazado_17263" data-name="Trazado 17263" d="M563.765,565.659,958.2,799.512V310.7L563.765,77.308Z" transform="translate(-563.765 167.238)" fill="#368700"/>
        <path id="Trazado_17264" data-name="Trazado 17264" d="M585.036,810.063l766.7-244.451V76.707l-766.7,244.544Z" transform="translate(-190.602 156.687)" fill="#308d00"/>
        <path id="Trazado_17265" data-name="Trazado 17265" d="M958.2,542.058l766.7-244.544L1330.441,64.12,563.765,308.666Z" transform="translate(-563.765 -64.12)" fill="#6bbd00"/>
      </g>
      <g id="Grupo_680" data-name="Grupo 680" transform="translate(764.74 125.927)">
        <rect id="Rectángulo_261" data-name="Rectángulo 261" width="223.891" height="67.322" transform="translate(0 50.266)" fill="#308d00"/>
        <g id="Grupo_679" data-name="Grupo 679" transform="translate(0.008)">
          <path id="Trazado_17266" data-name="Trazado 17266" d="M605.006,124.258c0,27.759,50.1,50.271,111.946,50.271,61.823,0,111.945-22.511,111.945-50.271S778.775,74.006,716.952,74.006C655.11,74.006,605.006,96.5,605.006,124.258Z" transform="translate(-605.006 -6.676)" fill="#308d00"/>
          <path id="Trazado_17267" data-name="Trazado 17267" d="M605.006,120.646c0,27.759,50.1,50.252,111.946,50.252,61.823,0,111.945-22.493,111.945-50.252S778.775,70.375,716.952,70.375C655.11,70.375,605.006,92.886,605.006,120.646Z" transform="translate(-605.006 -70.375)" fill="#6bbd00"/>
        </g>
      </g>
      <g id="Grupo_682" data-name="Grupo 682" transform="translate(563.342)">
        <rect id="Rectángulo_262" data-name="Rectángulo 262" width="223.889" height="67.322" transform="translate(0 50.256)" fill="#308d00"/>
        <g id="Grupo_681" data-name="Grupo 681">
          <ellipse id="Elipse_8" data-name="Elipse 8" cx="111.945" cy="50.26" rx="111.945" ry="50.26" transform="translate(0 67.317)" fill="#308d00"/>
          <path id="Trazado_17268" data-name="Trazado 17268" d="M594.145,113.836c0,27.759,50.1,50.27,111.927,50.27,61.841,0,111.945-22.511,111.945-50.27s-50.1-50.252-111.945-50.252C644.248,63.584,594.145,86.077,594.145,113.836Z" transform="translate(-594.136 -63.584)" fill="#6bbd00"/>
        </g>
      </g>
      <g id="Grupo_684" data-name="Grupo 684" transform="translate(355.547 259.771)">
        <rect id="Rectángulo_263" data-name="Rectángulo 263" width="223.891" height="67.324" transform="translate(0 50.251)" fill="#368700"/>
        <g id="Grupo_683" data-name="Grupo 683" transform="translate(0.009)">
          <path id="Trazado_17269" data-name="Trazado 17269" d="M582.939,131.494c0,27.759,50.1,50.252,111.946,50.252,61.822,0,111.944-22.493,111.944-50.252S756.707,81.223,694.885,81.223C633.043,81.223,582.939,103.734,582.939,131.494Z" transform="translate(-582.939 -13.911)" fill="#368700"/>
          <path id="Trazado_17270" data-name="Trazado 17270" d="M582.939,127.845c0,27.759,50.1,50.27,111.946,50.27,61.822,0,111.944-22.511,111.944-50.27S756.707,77.593,694.885,77.593C633.043,77.593,582.939,100.086,582.939,127.845Z" transform="translate(-582.939 -77.593)" fill="#90dd5f"/>
        </g>
      </g>
      <g id="Grupo_686" data-name="Grupo 686" transform="translate(161.519 142.523)">
        <rect id="Rectángulo_264" data-name="Rectángulo 264" width="223.891" height="67.322" transform="translate(0.001 50.271)" fill="#368700"/>
        <g id="Grupo_685" data-name="Grupo 685">
          <path id="Trazado_17271" data-name="Trazado 17271" d="M572.475,125.172c0,27.741,50.123,50.252,111.946,50.252s111.945-22.511,111.945-50.252c0-27.759-50.122-50.271-111.945-50.271S572.475,97.412,572.475,125.172Z" transform="translate(-572.475 -7.571)" fill="#368700"/>
          <path id="Trazado_17272" data-name="Trazado 17272" d="M572.475,121.541c0,27.759,50.123,50.252,111.946,50.252S796.366,149.3,796.366,121.541,746.244,71.27,684.421,71.27,572.475,93.782,572.475,121.541Z" transform="translate(-572.475 -71.27)" fill="#90dd5f"/>
        </g>
      </g>
    </g>
    <g id="Grupo_715" data-name="Grupo 715" transform="translate(0 3246.546)">
      <g id="Grupo_688" data-name="Grupo 688" transform="translate(0 9.946)">
        <path id="Trazado_17273" data-name="Trazado 17273" d="M522.523,578.876,916.958,812.729V323.917L522.523,90.525Z" transform="translate(-522.523 154.019)" fill="#ffa600"/>
        <path id="Trazado_17274" data-name="Trazado 17274" d="M543.795,823.28l766.7-244.451V89.924l-766.7,244.544Z" transform="translate(-149.36 143.468)" fill="#ff8f00"/>
        <path id="Trazado_17275" data-name="Trazado 17275" d="M916.958,555.273l766.7-244.544L1289.2,77.337,522.523,321.881Z" transform="translate(-522.523 -77.337)" fill="#ffd000"/>
      </g>
      <g id="Grupo_690" data-name="Grupo 690" transform="translate(764.742 125.927)">
        <rect id="Rectángulo_265" data-name="Rectángulo 265" width="223.891" height="67.322" transform="translate(0 50.265)" fill="#e09400"/>
        <g id="Grupo_689" data-name="Grupo 689" transform="translate(0.009)">
          <path id="Trazado_17276" data-name="Trazado 17276" d="M563.765,137.475c0,27.759,50.1,50.271,111.926,50.271,61.841,0,111.964-22.512,111.964-50.271S737.533,87.223,675.691,87.223C613.868,87.223,563.765,109.716,563.765,137.475Z" transform="translate(-563.765 -19.893)" fill="#e09400"/>
          <path id="Trazado_17277" data-name="Trazado 17277" d="M563.765,133.863c0,27.759,50.1,50.252,111.926,50.252,61.841,0,111.964-22.493,111.964-50.252S737.533,83.592,675.691,83.592C613.868,83.592,563.765,106.1,563.765,133.863Z" transform="translate(-563.765 -83.592)" fill="#ffd46d"/>
        </g>
      </g>
      <g id="Grupo_692" data-name="Grupo 692" transform="translate(563.335)">
        <rect id="Rectángulo_266" data-name="Rectángulo 266" width="223.891" height="67.322" transform="translate(0.007 50.254)" fill="#e09400"/>
        <g id="Grupo_691" data-name="Grupo 691">
          <path id="Trazado_17278" data-name="Trazado 17278" d="M552.9,130.7c0,27.759,50.122,50.252,111.945,50.252,61.842,0,111.945-22.493,111.945-50.252s-50.1-50.271-111.945-50.271C603.025,80.431,552.9,102.942,552.9,130.7Z" transform="translate(-552.903 -13.119)" fill="#e09400"/>
          <path id="Trazado_17279" data-name="Trazado 17279" d="M552.9,127.053c0,27.759,50.122,50.271,111.945,50.271,61.842,0,111.945-22.512,111.945-50.271S726.69,76.8,664.848,76.8C603.025,76.8,552.9,99.294,552.9,127.053Z" transform="translate(-552.903 -76.801)" fill="#ffd46d"/>
        </g>
      </g>
      <g id="Grupo_694" data-name="Grupo 694" transform="translate(355.54 259.753)">
        <rect id="Rectángulo_267" data-name="Rectángulo 267" width="223.891" height="67.324" transform="translate(0.007 50.269)" fill="#ff8f00"/>
        <g id="Grupo_693" data-name="Grupo 693">
          <path id="Trazado_17280" data-name="Trazado 17280" d="M541.7,144.711c0,27.741,50.123,50.252,111.945,50.252,61.841,0,111.945-22.511,111.945-50.252,0-27.759-50.1-50.271-111.945-50.271C591.82,94.44,541.7,116.951,541.7,144.711Z" transform="translate(-541.697 -27.11)" fill="#ff8f00"/>
          <path id="Trazado_17281" data-name="Trazado 17281" d="M541.7,141.08c0,27.759,50.123,50.252,111.945,50.252,61.841,0,111.945-22.493,111.945-50.252s-50.1-50.271-111.945-50.271C591.82,90.809,541.7,113.321,541.7,141.08Z" transform="translate(-541.697 -90.809)" fill="#ffd000"/>
        </g>
      </g>
      <g id="Grupo_696" data-name="Grupo 696" transform="translate(161.521 142.523)">
        <rect id="Rectángulo_268" data-name="Rectángulo 268" width="223.891" height="67.322" transform="translate(0 50.269)" fill="#ff8f00"/>
        <g id="Grupo_695" data-name="Grupo 695" transform="translate(0.002)">
          <path id="Trazado_17282" data-name="Trazado 17282" d="M531.234,138.37c0,27.759,50.122,50.271,111.945,50.271s111.945-22.511,111.945-50.271c0-27.741-50.122-50.252-111.945-50.252S531.234,110.629,531.234,138.37Z" transform="translate(-531.234 -20.788)" fill="#ff8f00"/>
          <path id="Trazado_17283" data-name="Trazado 17283" d="M531.234,134.758c0,27.759,50.122,50.252,111.945,50.252s111.945-22.493,111.945-50.252S705,84.487,643.179,84.487,531.234,107,531.234,134.758Z" transform="translate(-531.234 -84.487)" fill="#ffd000"/>
        </g>
      </g>
    </g>
    <g id="Grupo_713" data-name="Grupo 713" transform="translate(328.474 2655.186)">
      <g id="Grupo_698" data-name="Grupo 698" transform="translate(0 9.947)">
        <path id="Trazado_17284" data-name="Trazado 17284" d="M540.237,546.985,934.672,780.84V292.026L540.237,58.634Z" transform="translate(-540.237 185.91)" fill="#32a0ff"/>
        <path id="Trazado_17285" data-name="Trazado 17285" d="M561.509,791.39l766.7-244.453V58.033l-766.7,244.544Z" transform="translate(-167.074 175.359)" fill="#1a8bff"/>
        <path id="Trazado_17286" data-name="Trazado 17286" d="M934.672,523.382l766.7-244.544L1306.914,45.446,540.237,289.99Z" transform="translate(-540.237 -45.446)" fill="#51bcff"/>
      </g>
      <g id="Grupo_700" data-name="Grupo 700" transform="translate(764.733 125.927)">
        <rect id="Rectángulo_269" data-name="Rectángulo 269" width="223.891" height="67.322" transform="translate(0.007 50.266)" fill="#0086b9"/>
        <g id="Grupo_699" data-name="Grupo 699">
          <path id="Trazado_17287" data-name="Trazado 17287" d="M581.478,105.584c0,27.759,50.122,50.271,111.944,50.271,61.842,0,111.946-22.511,111.946-50.271s-50.1-50.252-111.946-50.252C631.6,55.332,581.478,77.825,581.478,105.584Z" transform="translate(-581.478 11.998)" fill="#1a8bff"/>
          <path id="Trazado_17288" data-name="Trazado 17288" d="M581.478,101.971c0,27.759,50.122,50.252,111.944,50.252,61.842,0,111.946-22.493,111.946-50.252S755.264,51.7,693.422,51.7C631.6,51.7,581.478,74.212,581.478,101.971Z" transform="translate(-581.478 -51.701)" fill="#51bcff"/>
        </g>
      </g>
      <g id="Grupo_702" data-name="Grupo 702" transform="translate(563.335)">
        <rect id="Rectángulo_270" data-name="Rectángulo 270" width="223.889" height="67.322" transform="translate(0.007 50.255)" fill="#0086b9"/>
        <g id="Grupo_701" data-name="Grupo 701">
          <path id="Trazado_17289" data-name="Trazado 17289" d="M570.617,98.811c0,27.759,50.122,50.252,111.945,50.252S794.507,126.57,794.507,98.811,744.384,48.54,682.562,48.54,570.617,71.051,570.617,98.811Z" transform="translate(-570.617 18.772)" fill="#1a8bff"/>
          <path id="Trazado_17290" data-name="Trazado 17290" d="M570.617,95.162c0,27.759,50.122,50.271,111.945,50.271s111.945-22.511,111.945-50.271S744.384,44.91,682.562,44.91,570.617,67.4,570.617,95.162Z" transform="translate(-570.617 -44.91)" fill="#51bcff"/>
        </g>
      </g>
      <g id="Grupo_704" data-name="Grupo 704" transform="translate(355.54 259.753)">
        <rect id="Rectángulo_271" data-name="Rectángulo 271" width="223.891" height="67.322" transform="translate(0.007 50.271)" fill="#0086b9"/>
        <g id="Grupo_703" data-name="Grupo 703">
          <path id="Trazado_17291" data-name="Trazado 17291" d="M559.411,112.82c0,27.759,50.122,50.252,111.945,50.252,61.842,0,111.946-22.493,111.946-50.252S733.2,62.549,671.356,62.549C609.534,62.549,559.411,85.06,559.411,112.82Z" transform="translate(-559.411 4.781)" fill="#1a8bff"/>
          <path id="Trazado_17292" data-name="Trazado 17292" d="M559.411,109.189c0,27.759,50.122,50.252,111.945,50.252,61.842,0,111.946-22.493,111.946-50.252S733.2,58.918,671.356,58.918C609.534,58.918,559.411,81.429,559.411,109.189Z" transform="translate(-559.411 -58.918)" fill="#51bcff"/>
        </g>
      </g>
      <g id="Grupo_706" data-name="Grupo 706" transform="translate(161.521 142.541)">
        <rect id="Rectángulo_272" data-name="Rectángulo 272" width="223.891" height="67.322" transform="translate(0 50.251)" fill="#0086b9"/>
        <g id="Grupo_705" data-name="Grupo 705" transform="translate(0.002)">
          <path id="Trazado_17293" data-name="Trazado 17293" d="M548.948,106.5c0,27.741,50.122,50.252,111.945,50.252S772.838,134.238,772.838,106.5c0-27.759-50.123-50.271-111.945-50.271S548.948,78.738,548.948,106.5Z" transform="translate(-548.948 11.085)" fill="#1a8bff"/>
          <path id="Trazado_17294" data-name="Trazado 17294" d="M548.948,102.849c0,27.759,50.122,50.252,111.945,50.252s111.945-22.493,111.945-50.252S722.715,52.6,660.893,52.6,548.948,75.09,548.948,102.849Z" transform="translate(-548.948 -52.597)" fill="#51bcff"/>
        </g>
      </g>
    </g>
  </g>
</svg>
