<svg width="126" height="54" viewBox="0 0 126 54" fill="none" xmlns="http://www.w3.org/2000/svg">
<path d="M26.1003 12.6C29.5797 12.6 32.4003 9.77937 32.4003 6.29997C32.4003 2.82058 29.5797 -3.05176e-05 26.1003 -3.05176e-05C22.6209 -3.05176e-05 19.8003 2.82058 19.8003 6.29997C19.8003 9.77937 22.6209 12.6 26.1003 12.6Z" fill="#E82119"/>
<path d="M9.90007 12.6C13.3795 12.6 16.2001 9.7794 16.2001 6.3C16.2001 2.82061 13.3795 0 9.90007 0C6.42067 0 3.60007 2.82061 3.60007 6.3C3.60007 9.7794 6.42067 12.6 9.90007 12.6Z" fill="#E82119"/>
<path fill-rule="evenodd" clip-rule="evenodd" d="M26.1 13.5C22.9505 13.5 19.8984 14.8986 18 17.1C16.1017 14.8986 13.0495 13.5 9.90001 13.5C4.24809 13.5 0 17.7885 0 23.4V31.5108C0 32.7626 0.591959 33.9842 1.8 34.2V48.7036C1.8 51.0777 3.88392 53.1 6.3 53.1H13.0823C12.7608 52.6608 12.6 52.0608 12.6 51.3V45C11.7 45 10.8 44.0201 10.8 43.2V36C10.8 32.4 14.419 29.7 18 29.7C21.581 29.7 25.2 32.4 25.2 36V43.2C25.2 44.1 24.3 45 23.4 45V51.3C23.4 52.0608 23.2392 52.6608 22.9177 53.1H29.7C32.073 53.1 34.2 50.9741 34.2 48.6V34.2C35.4081 33.9842 36 32.7518 36 31.5V23.4C36 17.7453 31.7519 13.5 26.1 13.5ZM18 28.8C20.4853 28.8 22.5 26.7853 22.5 24.3C22.5 21.8147 20.4853 19.8 18 19.8C15.5147 19.8 13.5 21.8147 13.5 24.3C13.5 26.7853 15.5147 28.8 18 28.8Z" fill="#E82119"/>
<path d="M49.6038 17.6132H53.5818C56.5221 17.6132 57.5166 19.1316 57.5166 20.9537C57.5166 22.0382 56.9113 23.1662 55.787 23.6C57.214 23.9904 57.9058 25.3353 57.9058 26.6801C57.9058 28.6323 56.8248 30.2375 53.6683 30.2375H49.5605V17.6132H49.6038ZM56.1762 20.9537C56.1762 19.8257 55.787 18.7412 53.6683 18.7412H50.8145V23.1662H53.8413C55.7006 23.1228 56.1762 22.0382 56.1762 20.9537ZM50.7713 29.1529H53.7548C56.133 29.1529 56.5654 27.9382 56.5654 26.7235C56.5654 25.0316 55.8303 24.2941 53.7548 24.2941H50.728V29.1529H50.7713Z" fill="#575756"/>
<path d="M62.7054 22.689C61.5811 22.689 60.8461 22.9059 60.1975 23.1228V22.125C60.9325 21.8213 61.9271 21.6912 62.7054 21.6912C65.2133 21.6912 65.8619 22.8191 65.8619 24.511V30.2809H65.2133L64.9538 29.5868C64.2188 30.1507 63.3107 30.411 62.4459 30.411C60.2407 30.411 59.4624 29.1095 59.4624 27.6779C59.4624 26.4198 59.938 25.2485 62.4027 25.0316L64.6512 24.9015V24.4243C64.6944 23.2529 64.262 22.689 62.7054 22.689ZM62.3595 25.986C60.9325 26.1162 60.6731 26.897 60.6731 27.7213C60.6731 28.4588 60.8893 29.3698 62.4892 29.3698C63.3972 29.3698 63.9593 29.1095 64.6944 28.6757V25.7257L62.3595 25.986Z" fill="#575756"/>
<path d="M72.6937 22.8191C72.4343 22.7324 72.0884 22.689 71.6992 22.689C70.575 22.689 69.8832 22.8625 69.2778 23.2096V30.2375H68.1104V21.8213H68.7589L69.0184 22.5154C69.7967 21.9081 70.7912 21.6478 71.7425 21.6478C72.1316 21.6478 72.4343 21.6912 72.737 21.7346V22.8191H72.6937Z" fill="#575756"/>
<path d="M79.3093 24.1206C79.3093 23.036 78.6607 22.689 77.623 22.689C76.542 22.689 75.9799 22.8625 75.3745 23.2096V30.2375H74.207V21.8213H74.8556L75.1151 22.5154C75.8934 21.9081 76.7582 21.6478 77.6662 21.6478C79.6552 21.6478 80.52 22.5588 80.52 24.164V30.2375H79.3525V24.1206H79.3093Z" fill="#575756"/>
<path d="M85.9685 21.6478C88.8223 21.6478 89.1682 23.6 89.1682 26.0294V26.55H83.6336C83.72 28.025 84.066 29.3699 85.9685 29.3699C87.1792 29.3699 87.9143 29.2397 88.7358 28.8927V29.8904C87.7846 30.3243 86.79 30.411 85.9685 30.411C83.1147 30.411 82.4229 28.4588 82.4229 26.0294C82.4229 23.6 83.1147 21.6478 85.9685 21.6478ZM83.5903 25.5956H87.9575C87.9575 24.0772 87.871 22.689 85.9253 22.689C83.9795 22.689 83.6336 24.0772 83.5903 25.5956Z" fill="#575756"/>
<path d="M94.0538 25.2919L98.1183 30.2375H96.6482L93.3187 25.9426L92.281 26.9404V30.1941H91.1567V17.6132H92.281V25.5956L96.0861 21.8213H97.6859L94.0538 25.2919Z" fill="#575756"/>
<path d="M104.172 22.8191C103.913 22.7324 103.567 22.689 103.178 22.689C102.054 22.689 101.362 22.8625 100.756 23.2096V30.2375H99.5889V21.8213H100.237L100.497 22.5154C101.275 21.9081 102.27 21.6478 103.221 21.6478C103.61 21.6478 103.913 21.6912 104.216 21.7346V22.8191H104.172Z" fill="#575756"/>
<path d="M108.885 21.6478C111.739 21.6478 112.085 23.6 112.085 26.0294V26.55H106.551C106.637 28.025 106.983 29.3699 108.885 29.3699C110.096 29.3699 110.831 29.2397 111.653 28.8927V29.8904C110.702 30.3243 109.707 30.411 108.885 30.411C106.032 30.411 105.34 28.4588 105.34 26.0294C105.34 23.6 106.032 21.6478 108.885 21.6478ZM106.507 25.5956H110.874C110.874 24.0772 110.788 22.689 108.842 22.689C106.94 22.689 106.594 24.0772 106.507 25.5956Z" fill="#575756"/>
<path d="M119.133 18.611C118.787 18.5243 118.484 18.4809 117.966 18.4809C116.885 18.4809 116.063 18.8713 116.063 19.9559V21.8213H118.701V22.7323H116.063V30.2375H114.939V22.7323H113.252V22.2118L114.939 21.7346V19.9559C114.939 18.3507 115.847 17.4397 117.966 17.4397C118.311 17.4397 118.787 17.4831 119.133 17.5698V18.611Z" fill="#575756"/>
<path d="M124.754 30.3677C124.538 30.411 124.322 30.411 124.106 30.411C122.722 30.4978 121.382 29.8471 121.295 28.1985V22.7324H119.609V22.2118L121.295 21.7346V19.4787L122.463 19.1316V21.8213H125.057V22.7324H122.463V28.1552C122.549 29.1963 123.068 29.4566 124.063 29.4566C124.279 29.4566 124.495 29.4566 124.711 29.4132V30.3677H124.754Z" fill="#575756"/>
<path d="M54.5764 35.4868C54.2305 35.4 53.9278 35.3566 53.4089 35.3566C52.3279 35.3566 51.5064 35.747 51.5064 36.8316V38.697H54.144V39.6081H51.5064V47.1132H50.3821V39.6081H48.6958V39.0875L50.3821 38.6103V36.8316C50.3821 35.2265 51.2902 34.3154 53.4089 34.3154C53.7548 34.3154 54.2305 34.3588 54.5764 34.4456V35.4868Z" fill="#868686"/>
<path d="M59.1164 47.2868C56.2626 47.2868 55.5708 45.4647 55.5708 42.9051C55.5708 40.3456 56.2194 38.5235 59.1164 38.5235C62.0135 38.5235 62.6621 40.3456 62.6621 42.9051C62.6621 45.4647 62.0135 47.2868 59.1164 47.2868ZM59.1164 39.5647C56.9112 39.5647 56.7815 40.9963 56.7815 42.9051C56.7815 44.814 56.9112 46.2456 59.1164 46.2456C61.3217 46.2456 61.4514 44.814 61.4514 42.9051C61.4946 40.9963 61.3217 39.5647 59.1164 39.5647Z" fill="#868686"/>
<path d="M69.2777 39.6949C69.0183 39.6081 68.6724 39.5647 68.2832 39.5647C67.159 39.5647 66.4672 39.7382 65.8618 40.0853V47.1132H64.6943V38.6971H65.3429L65.6024 39.3912C66.3807 38.7838 67.3752 38.5235 68.3265 38.5235C68.7156 38.5235 69.0183 38.5669 69.321 38.6103V39.6949H69.2777Z" fill="#868686"/>
<path d="M74.1208 38.5235C76.9746 38.5235 77.3206 40.4757 77.3206 42.9051V43.4257H71.7859C71.8724 44.9007 72.2183 46.2456 74.1208 46.2456C75.3315 46.2456 76.0666 46.1154 76.8882 45.7684V46.7662C75.9369 47.2 74.9424 47.2868 74.1208 47.2868C71.267 47.2868 70.5752 45.3346 70.5752 42.9051C70.6184 40.4757 71.3103 38.5235 74.1208 38.5235ZM71.7859 42.4713H76.1531C76.1531 40.9529 76.0666 39.5647 74.1208 39.5647C72.1751 39.5647 71.8291 40.9529 71.7859 42.4713Z" fill="#868686"/>
<path d="M84.4548 40.9963C84.4548 39.9118 83.8062 39.5647 82.7685 39.5647C81.6875 39.5647 81.1254 39.7382 80.52 40.0853V47.1132H79.3525V38.6971H80.0011L80.2606 39.3912C81.0389 38.7838 81.9037 38.5235 82.8117 38.5235C84.8007 38.5235 85.6655 39.4346 85.6655 41.0397V47.1132H84.498V40.9963H84.4548Z" fill="#868686"/>
<path d="M88.6058 34.6191C89.1247 34.6191 89.5139 35.0096 89.5139 35.5301C89.5139 36.0507 89.1247 36.4412 88.6058 36.4412C88.087 36.4412 87.6978 36.0507 87.6978 35.5301C87.6546 35.0529 88.087 34.6191 88.6058 34.6191ZM88.0005 45.4213V38.6971H89.1247V45.5515C89.1247 46.1588 89.2977 46.3324 89.8166 46.3324V47.2868C88.6491 47.2868 88.0005 46.7662 88.0005 45.4213Z" fill="#868686"/>
<path d="M96.9079 40.9963C96.9079 39.9118 96.2593 39.5647 95.2216 39.5647C94.1406 39.5647 93.5785 39.7382 92.9731 40.0853V47.1132H91.8057V38.6971H92.4543L92.7137 39.3912C93.492 38.7838 94.3568 38.5235 95.2648 38.5235C97.2538 38.5235 98.1186 39.4346 98.1186 41.0397V47.1132H96.9512V40.9963H96.9079Z" fill="#868686"/>
<path d="M102.054 44.7272C101.881 44.9007 101.751 45.161 101.751 45.3345C101.751 45.7684 101.967 45.9419 102.4 45.9853L105.253 46.3323C106.853 46.5059 107.545 47.1132 107.545 48.5882C107.545 50.6272 105.513 51.4515 103.178 51.4515C100.843 51.4515 99.416 50.714 99.416 48.8485C99.416 47.7206 100.238 47.0698 101.146 46.6794C100.843 46.4625 100.627 46.1154 100.627 45.5515C100.627 45.0743 100.929 44.6838 101.275 44.4235C100.281 43.8595 99.9349 42.8184 99.9349 41.647C99.9349 39.9118 100.67 38.4801 103.221 38.4801C103.74 38.4801 104.172 38.5669 104.562 38.6537H107.415V39.3044L105.988 39.6948C106.334 40.2154 106.464 40.9095 106.464 41.647C106.464 43.3823 105.729 44.814 103.178 44.814C102.745 44.8573 102.356 44.814 102.054 44.7272ZM102.529 47.0265C101.492 47.3301 100.54 47.8073 100.54 48.8919C100.54 50.15 101.405 50.4537 103.135 50.4537C104.821 50.4537 106.334 50.0632 106.334 48.6316C106.334 47.764 105.988 47.4169 104.994 47.3301L102.529 47.0265ZM105.34 41.6904C105.34 40.5625 105.124 39.5647 103.135 39.5647C101.146 39.5647 100.929 40.5625 100.929 41.6904C100.929 42.8184 101.146 43.8162 103.135 43.8162C105.124 43.8162 105.34 42.775 105.34 41.6904Z" fill="#868686"/>
<path d="M112.128 38.5235C114.982 38.5235 115.328 40.4757 115.328 42.9051V43.4257H109.793C109.88 44.9007 110.226 46.2456 112.128 46.2456C113.339 46.2456 114.074 46.1154 114.895 45.7684V46.7662C113.944 47.2 112.95 47.2868 112.128 47.2868C109.274 47.2868 108.583 45.3346 108.583 42.9051C108.583 40.4757 109.274 38.5235 112.128 38.5235ZM109.75 42.4713H114.117C114.117 40.9529 114.031 39.5647 112.085 39.5647C110.182 39.5647 109.793 40.9529 109.75 42.4713Z" fill="#868686"/>
<path d="M122.463 40.9963C122.463 39.9118 121.814 39.5647 120.776 39.5647C119.695 39.5647 119.133 39.7382 118.528 40.0853V47.1132H117.36V38.6971H118.009L118.268 39.3912C119.047 38.7838 119.911 38.5235 120.82 38.5235C122.809 38.5235 123.673 39.4346 123.673 41.0397V47.1132H122.506V40.9963H122.463Z" fill="#868686"/>
</svg>
