<svg xmlns="http://www.w3.org/2000/svg" width="495.398" height="918.231" viewBox="0 0 495.398 918.231">
  <g id="Grupo_708" data-name="Grupo 708" transform="translate(-2375 -118)">
    <g id="Grupo_467" data-name="Grupo 467" transform="translate(2375 782.746)">
      <g id="Grupo_458" data-name="Grupo 458" transform="translate(0 1.723)">
        <path id="Trazado_17021" data-name="Trazado 17021" d="M327.726,344.541,259.481,385V300.427l68.245-40.382Z" transform="translate(-126.827 -217.735)" fill="#0086b9"/>
        <path id="Trazado_17022" data-name="Trazado 17022" d="M350.789,386.331l-132.654-42.3V259.444l132.654,42.311Z" transform="translate(-218.134 -219.063)" fill="#32a0ff"/>
        <path id="Trazado_17023" data-name="Trazado 17023" d="M350.789,329.551,218.134,287.24l68.249-40.382,132.651,42.311Z" transform="translate(-218.134 -246.858)" fill="#51bcff"/>
      </g>
      <g id="Grupo_460" data-name="Grupo 460" transform="translate(29.846 21.791)">
        <rect id="Rectángulo_173" data-name="Rectángulo 173" width="38.737" height="11.648" transform="translate(0 8.696)" fill="#1a8bff"/>
        <g id="Grupo_459" data-name="Grupo 459" transform="translate(0)">
          <path id="Trazado_17024" data-name="Trazado 17024" d="M266.175,265.441c0,4.8-8.672,8.7-19.369,8.7s-19.369-3.9-19.369-8.7,8.672-8.7,19.369-8.7S266.175,260.638,266.175,265.441Z" transform="translate(-227.437 -245.097)" fill="#1a8bff"/>
          <path id="Trazado_17025" data-name="Trazado 17025" d="M266.175,261.808c0,4.8-8.672,8.7-19.369,8.7s-19.369-3.895-19.369-8.7,8.672-8.695,19.369-8.695S266.175,257,266.175,261.808Z" transform="translate(-227.437 -253.113)" fill="#51bcff"/>
        </g>
      </g>
      <g id="Grupo_462" data-name="Grupo 462" transform="translate(64.692)">
        <rect id="Rectángulo_174" data-name="Rectángulo 174" width="38.738" height="11.648" transform="translate(0 8.697)" fill="#0086b9"/>
        <g id="Grupo_461" data-name="Grupo 461" transform="translate(0)">
          <path id="Trazado_17026" data-name="Trazado 17026" d="M277.036,258.647c0,4.8-8.672,8.7-19.369,8.7s-19.369-3.895-19.369-8.7,8.672-8.695,19.369-8.695S277.036,253.844,277.036,258.647Z" transform="translate(-238.298 -238.302)" fill="#0086b9"/>
          <path id="Trazado_17027" data-name="Trazado 17027" d="M277.036,255.019c0,4.8-8.672,8.695-19.369,8.695s-19.369-3.892-19.369-8.695,8.672-8.7,19.369-8.7S277.036,250.216,277.036,255.019Z" transform="translate(-238.298 -246.321)" fill="#32ccf5"/>
        </g>
      </g>
      <g id="Grupo_464" data-name="Grupo 464" transform="translate(100.645 44.946)">
        <rect id="Rectángulo_175" data-name="Rectángulo 175" width="38.738" height="11.648" transform="translate(0 8.697)" fill="#0086b9"/>
        <g id="Grupo_463" data-name="Grupo 463" transform="translate(0)">
          <path id="Trazado_17028" data-name="Trazado 17028" d="M288.242,272.656c0,4.8-8.672,8.7-19.369,8.7s-19.369-3.895-19.369-8.7,8.672-8.695,19.369-8.695S288.242,267.853,288.242,272.656Z" transform="translate(-249.504 -252.311)" fill="#0086b9"/>
          <path id="Trazado_17029" data-name="Trazado 17029" d="M288.242,269.028c0,4.8-8.672,8.695-19.369,8.695s-19.369-3.892-19.369-8.695,8.672-8.7,19.369-8.7S288.242,264.225,288.242,269.028Z" transform="translate(-249.504 -260.33)" fill="#32ccf5"/>
        </g>
      </g>
      <g id="Grupo_466" data-name="Grupo 466" transform="translate(134.214 24.663)">
        <rect id="Rectángulo_176" data-name="Rectángulo 176" width="38.738" height="11.648" transform="translate(0.001 8.697)" fill="#0086b9"/>
        <g id="Grupo_465" data-name="Grupo 465">
          <path id="Trazado_17030" data-name="Trazado 17030" d="M298.7,266.334c0,4.8-8.669,8.7-19.369,8.7s-19.369-3.895-19.369-8.7,8.672-8.695,19.369-8.695S298.7,261.531,298.7,266.334Z" transform="translate(-259.967 -245.989)" fill="#0086b9"/>
          <path id="Trazado_17031" data-name="Trazado 17031" d="M298.7,262.706c0,4.8-8.669,8.695-19.369,8.695s-19.369-3.892-19.369-8.695,8.672-8.7,19.369-8.7S298.7,257.9,298.7,262.706Z" transform="translate(-259.967 -254.008)" fill="#32ccf5"/>
        </g>
      </g>
    </g>
    <g id="Grupo_477" data-name="Grupo 477" transform="translate(2507.654 825.105)">
      <g id="Grupo_468" data-name="Grupo 468" transform="translate(0 1.724)">
        <path id="Trazado_17032" data-name="Trazado 17032" d="M369.073,357.744l-68.245,40.461V313.631l68.245-40.382Z" transform="translate(-168.173 -230.938)" fill="#c32141"/>
        <path id="Trazado_17033" data-name="Trazado 17033" d="M392.135,399.534l-132.654-42.3V272.648l132.654,42.311Z" transform="translate(-259.481 -232.266)" fill="#e11415"/>
        <path id="Trazado_17034" data-name="Trazado 17034" d="M392.135,342.754,259.481,300.443l68.249-40.382L460.38,302.373Z" transform="translate(-259.481 -260.061)" fill="#ff2121"/>
      </g>
      <g id="Grupo_470" data-name="Grupo 470" transform="translate(29.845 21.791)">
        <rect id="Rectángulo_177" data-name="Rectángulo 177" width="38.738" height="11.648" transform="translate(0.001 8.697)" fill="#b5142e"/>
        <g id="Grupo_469" data-name="Grupo 469">
          <path id="Trazado_17035" data-name="Trazado 17035" d="M307.521,278.642c0,4.8-8.672,8.7-19.369,8.7s-19.369-3.9-19.369-8.7,8.672-8.695,19.369-8.695S307.521,273.839,307.521,278.642Z" transform="translate(-268.783 -258.297)" fill="#b5142e"/>
          <path id="Trazado_17036" data-name="Trazado 17036" d="M307.521,275.014c0,4.8-8.672,8.695-19.369,8.695s-19.369-3.892-19.369-8.695,8.672-8.7,19.369-8.7S307.521,270.211,307.521,275.014Z" transform="translate(-268.783 -266.316)" fill="#ff4b67"/>
        </g>
      </g>
      <g id="Grupo_472" data-name="Grupo 472" transform="translate(64.691)">
        <rect id="Rectángulo_178" data-name="Rectángulo 178" width="38.738" height="11.648" transform="translate(0.001 8.698)" fill="#b5142e"/>
        <g id="Grupo_471" data-name="Grupo 471">
          <path id="Trazado_17037" data-name="Trazado 17037" d="M318.382,271.853c0,4.8-8.669,8.695-19.366,8.695s-19.372-3.892-19.372-8.695,8.672-8.7,19.372-8.7S318.382,267.05,318.382,271.853Z" transform="translate(-279.644 -251.505)" fill="#b5142e"/>
          <path id="Trazado_17038" data-name="Trazado 17038" d="M318.382,268.222c0,4.8-8.669,8.695-19.366,8.695s-19.372-3.892-19.372-8.695,8.672-8.7,19.372-8.7S318.382,263.419,318.382,268.222Z" transform="translate(-279.644 -259.524)" fill="#ff4b67"/>
        </g>
      </g>
      <g id="Grupo_474" data-name="Grupo 474" transform="translate(100.643 44.946)">
        <rect id="Rectángulo_179" data-name="Rectángulo 179" width="38.738" height="11.648" transform="translate(0.001 8.697)" fill="#b00a0b"/>
        <g id="Grupo_473" data-name="Grupo 473">
          <path id="Trazado_17039" data-name="Trazado 17039" d="M329.588,285.859c0,4.8-8.669,8.7-19.369,8.7s-19.369-3.895-19.369-8.7,8.672-8.695,19.369-8.695S329.588,281.056,329.588,285.859Z" transform="translate(-290.85 -265.514)" fill="#b00a0b"/>
          <path id="Trazado_17040" data-name="Trazado 17040" d="M329.588,282.231c0,4.8-8.669,8.695-19.369,8.695s-19.369-3.892-19.369-8.695,8.672-8.7,19.369-8.7S329.588,277.428,329.588,282.231Z" transform="translate(-290.85 -273.533)" fill="#ff2121"/>
        </g>
      </g>
      <g id="Grupo_476" data-name="Grupo 476" transform="translate(134.215 24.663)">
        <rect id="Rectángulo_180" data-name="Rectángulo 180" width="38.738" height="11.648" transform="translate(0 8.697)" fill="#b00a0b"/>
        <g id="Grupo_475" data-name="Grupo 475" transform="translate(0)">
          <path id="Trazado_17041" data-name="Trazado 17041" d="M340.052,279.537c0,4.8-8.672,8.7-19.369,8.7s-19.369-3.895-19.369-8.7,8.672-8.695,19.369-8.695S340.052,274.734,340.052,279.537Z" transform="translate(-301.314 -259.192)" fill="#b00a0b"/>
          <path id="Trazado_17042" data-name="Trazado 17042" d="M340.052,275.909c0,4.8-8.672,8.695-19.369,8.695s-19.369-3.892-19.369-8.695,8.672-8.7,19.369-8.7S340.052,271.106,340.052,275.909Z" transform="translate(-301.314 -267.211)" fill="#ff2121"/>
        </g>
      </g>
    </g>
    <g id="Grupo_487" data-name="Grupo 487" transform="translate(2439.943 718.675)">
      <g id="Grupo_478" data-name="Grupo 478" transform="translate(0 1.723)">
        <path id="Trazado_17043" data-name="Trazado 17043" d="M347.968,324.571l-68.245,40.461V280.457l68.245-40.382Z" transform="translate(-147.068 -197.764)" fill="#b00a0b"/>
        <path id="Trazado_17044" data-name="Trazado 17044" d="M371.031,366.36l-132.654-42.3V239.474l132.654,42.311Z" transform="translate(-238.376 -199.092)" fill="#e11415"/>
        <path id="Trazado_17045" data-name="Trazado 17045" d="M371.031,309.581,238.376,267.27l68.249-40.382L439.276,269.2Z" transform="translate(-238.376 -226.888)" fill="#ff4b67"/>
      </g>
      <g id="Grupo_480" data-name="Grupo 480" transform="translate(29.846 21.791)">
        <rect id="Rectángulo_181" data-name="Rectángulo 181" width="38.738" height="11.648" transform="translate(0 8.696)" fill="#b5142e"/>
        <g id="Grupo_479" data-name="Grupo 479" transform="translate(0.001)">
          <path id="Trazado_17046" data-name="Trazado 17046" d="M286.417,245.471c0,4.8-8.672,8.695-19.369,8.695s-19.369-3.892-19.369-8.695,8.672-8.7,19.369-8.7S286.417,240.668,286.417,245.471Z" transform="translate(-247.679 -225.127)" fill="#b5142e"/>
          <path id="Trazado_17047" data-name="Trazado 17047" d="M286.417,241.838c0,4.8-8.672,8.7-19.369,8.7s-19.369-3.895-19.369-8.7,8.672-8.695,19.369-8.695S286.417,237.035,286.417,241.838Z" transform="translate(-247.679 -233.143)" fill="#ff4b67"/>
        </g>
      </g>
      <g id="Grupo_482" data-name="Grupo 482" transform="translate(64.692)">
        <rect id="Rectángulo_182" data-name="Rectángulo 182" width="38.738" height="11.648" transform="translate(0 8.697)" fill="#b5142e"/>
        <g id="Grupo_481" data-name="Grupo 481" transform="translate(0)">
          <path id="Trazado_17048" data-name="Trazado 17048" d="M297.278,238.677c0,4.8-8.672,8.7-19.369,8.7s-19.369-3.895-19.369-8.7,8.672-8.695,19.369-8.695S297.278,233.874,297.278,238.677Z" transform="translate(-258.54 -218.333)" fill="#b5142e"/>
          <path id="Trazado_17049" data-name="Trazado 17049" d="M297.278,235.049c0,4.8-8.672,8.695-19.369,8.695s-19.369-3.892-19.369-8.695,8.672-8.7,19.369-8.7S297.278,230.246,297.278,235.049Z" transform="translate(-258.54 -226.351)" fill="#ff4b67"/>
        </g>
      </g>
      <g id="Grupo_484" data-name="Grupo 484" transform="translate(100.645 44.946)">
        <rect id="Rectángulo_183" data-name="Rectángulo 183" width="38.738" height="11.648" transform="translate(0 8.696)" fill="#b5142e"/>
        <g id="Grupo_483" data-name="Grupo 483" transform="translate(0.001)">
          <path id="Trazado_17050" data-name="Trazado 17050" d="M308.484,252.686c0,4.8-8.672,8.7-19.369,8.7s-19.369-3.895-19.369-8.7,8.672-8.695,19.369-8.695S308.484,247.883,308.484,252.686Z" transform="translate(-269.746 -232.341)" fill="#b5142e"/>
          <path id="Trazado_17051" data-name="Trazado 17051" d="M308.484,249.058c0,4.8-8.672,8.695-19.369,8.695s-19.369-3.892-19.369-8.695,8.672-8.7,19.369-8.7S308.484,244.255,308.484,249.058Z" transform="translate(-269.746 -240.36)" fill="#ff4b67"/>
        </g>
      </g>
      <g id="Grupo_486" data-name="Grupo 486" transform="translate(134.214 24.663)">
        <rect id="Rectángulo_184" data-name="Rectángulo 184" width="38.738" height="11.648" transform="translate(0.001 8.697)" fill="#b5142e"/>
        <g id="Grupo_485" data-name="Grupo 485">
          <path id="Trazado_17052" data-name="Trazado 17052" d="M318.947,246.364c0,4.8-8.669,8.7-19.369,8.7s-19.369-3.895-19.369-8.7,8.672-8.695,19.369-8.695S318.947,241.561,318.947,246.364Z" transform="translate(-280.209 -226.019)" fill="#b5142e"/>
          <path id="Trazado_17053" data-name="Trazado 17053" d="M318.947,242.736c0,4.8-8.669,8.695-19.369,8.695s-19.369-3.892-19.369-8.695,8.672-8.7,19.369-8.7S318.947,237.933,318.947,242.736Z" transform="translate(-280.209 -234.038)" fill="#ff4b67"/>
        </g>
      </g>
    </g>
    <g id="Grupo_497" data-name="Grupo 497" transform="translate(2439.943 635.498)">
      <g id="Grupo_488" data-name="Grupo 488" transform="translate(0 1.721)">
        <path id="Trazado_17054" data-name="Trazado 17054" d="M347.968,298.645l-68.245,40.462V254.532l68.245-40.382Z" transform="translate(-147.068 -171.839)" fill="#ff8f00"/>
        <path id="Trazado_17055" data-name="Trazado 17055" d="M371.031,340.435l-132.654-42.3V213.549L371.031,255.86Z" transform="translate(-238.376 -173.167)" fill="#ffa600"/>
        <path id="Trazado_17056" data-name="Trazado 17056" d="M371.031,283.655,238.376,241.344l68.249-40.382,132.651,42.311Z" transform="translate(-238.376 -200.962)" fill="#ffd46d"/>
      </g>
      <g id="Grupo_490" data-name="Grupo 490" transform="translate(29.846 21.788)">
        <rect id="Rectángulo_185" data-name="Rectángulo 185" width="38.738" height="11.648" transform="translate(0 8.697)" fill="#e09400"/>
        <g id="Grupo_489" data-name="Grupo 489" transform="translate(0.001)">
          <path id="Trazado_17057" data-name="Trazado 17057" d="M286.417,219.543c0,4.8-8.672,8.7-19.369,8.7s-19.369-3.895-19.369-8.7,8.672-8.695,19.369-8.695S286.417,214.74,286.417,219.543Z" transform="translate(-247.679 -199.198)" fill="#e09400"/>
          <path id="Trazado_17058" data-name="Trazado 17058" d="M286.417,215.915c0,4.8-8.672,8.695-19.369,8.695s-19.369-3.892-19.369-8.695,8.672-8.7,19.369-8.7S286.417,211.112,286.417,215.915Z" transform="translate(-247.679 -207.217)" fill="#ffd46d"/>
        </g>
      </g>
      <g id="Grupo_492" data-name="Grupo 492" transform="translate(64.692)">
        <rect id="Rectángulo_186" data-name="Rectángulo 186" width="38.738" height="11.648" transform="translate(0 8.695)" fill="#e09400"/>
        <g id="Grupo_491" data-name="Grupo 491" transform="translate(0)">
          <path id="Trazado_17059" data-name="Trazado 17059" d="M297.278,212.754c0,4.8-8.672,8.695-19.369,8.695s-19.369-3.892-19.369-8.695,8.672-8.7,19.369-8.7S297.278,207.951,297.278,212.754Z" transform="translate(-258.54 -192.41)" fill="#e09400"/>
          <path id="Trazado_17060" data-name="Trazado 17060" d="M297.278,209.121c0,4.8-8.672,8.7-19.369,8.7s-19.369-3.895-19.369-8.7,8.672-8.695,19.369-8.695S297.278,204.318,297.278,209.121Z" transform="translate(-258.54 -200.426)" fill="#ffd46d"/>
        </g>
      </g>
      <g id="Grupo_494" data-name="Grupo 494" transform="translate(100.645 44.943)">
        <rect id="Rectángulo_187" data-name="Rectángulo 187" width="38.738" height="11.648" transform="translate(0 8.698)" fill="#e09400"/>
        <g id="Grupo_493" data-name="Grupo 493" transform="translate(0.001)">
          <path id="Trazado_17061" data-name="Trazado 17061" d="M308.484,226.763c0,4.8-8.672,8.695-19.369,8.695s-19.369-3.892-19.369-8.695,8.672-8.7,19.369-8.7S308.484,221.96,308.484,226.763Z" transform="translate(-269.746 -206.415)" fill="#e09400"/>
          <path id="Trazado_17062" data-name="Trazado 17062" d="M308.484,223.132c0,4.8-8.672,8.695-19.369,8.695s-19.369-3.892-19.369-8.695,8.672-8.7,19.369-8.7S308.484,218.329,308.484,223.132Z" transform="translate(-269.746 -214.434)" fill="#ffd46d"/>
        </g>
      </g>
      <g id="Grupo_496" data-name="Grupo 496" transform="translate(134.214 24.663)">
        <rect id="Rectángulo_188" data-name="Rectángulo 188" width="38.738" height="11.648" transform="translate(0.001 8.694)" fill="#e09400"/>
        <g id="Grupo_495" data-name="Grupo 495">
          <path id="Trazado_17063" data-name="Trazado 17063" d="M318.947,220.441c0,4.8-8.669,8.695-19.369,8.695s-19.369-3.895-19.369-8.695,8.672-8.7,19.369-8.7S318.947,215.638,318.947,220.441Z" transform="translate(-280.209 -200.097)" fill="#e09400"/>
          <path id="Trazado_17064" data-name="Trazado 17064" d="M318.947,216.808c0,4.8-8.669,8.695-19.369,8.695s-19.369-3.892-19.369-8.695,8.672-8.695,19.369-8.695S318.947,212,318.947,216.808Z" transform="translate(-280.209 -208.113)" fill="#ffd46d"/>
        </g>
      </g>
    </g>
    <g id="Grupo_507" data-name="Grupo 507" transform="translate(2440.041 551.115)">
      <g id="Grupo_498" data-name="Grupo 498" transform="translate(0 1.722)">
        <path id="Trazado_17065" data-name="Trazado 17065" d="M348,272.344l-68.245,40.461V228.231L348,187.85Z" transform="translate(-147.099 -145.538)" fill="#1a8bff"/>
        <path id="Trazado_17066" data-name="Trazado 17066" d="M371.061,314.134l-132.654-42.3V187.248l132.654,42.311Z" transform="translate(-238.407 -146.866)" fill="#32a0ff"/>
        <path id="Trazado_17067" data-name="Trazado 17067" d="M371.061,257.355,238.407,215.044l68.249-40.382,132.651,42.312Z" transform="translate(-238.407 -174.662)" fill="#32ccf5"/>
      </g>
      <g id="Grupo_500" data-name="Grupo 500" transform="translate(29.845 21.791)">
        <rect id="Rectángulo_189" data-name="Rectángulo 189" width="38.738" height="11.648" transform="translate(0.001 8.695)" fill="#0086b9"/>
        <g id="Grupo_499" data-name="Grupo 499">
          <path id="Trazado_17068" data-name="Trazado 17068" d="M286.447,193.245c0,4.8-8.672,8.695-19.369,8.695s-19.369-3.892-19.369-8.695,8.672-8.7,19.369-8.7S286.447,188.442,286.447,193.245Z" transform="translate(-247.709 -172.901)" fill="#0086b9"/>
          <path id="Trazado_17069" data-name="Trazado 17069" d="M286.447,189.612c0,4.8-8.672,8.7-19.369,8.7s-19.369-3.895-19.369-8.7,8.672-8.695,19.369-8.695S286.447,184.809,286.447,189.612Z" transform="translate(-247.709 -180.917)" fill="#32ccf5"/>
        </g>
      </g>
      <g id="Grupo_502" data-name="Grupo 502" transform="translate(64.691)">
        <rect id="Rectángulo_190" data-name="Rectángulo 190" width="38.738" height="11.648" transform="translate(0.001 8.696)" fill="#0086b9"/>
        <g id="Grupo_501" data-name="Grupo 501">
          <path id="Trazado_17070" data-name="Trazado 17070" d="M297.308,186.451c0,4.8-8.669,8.7-19.369,8.7s-19.369-3.895-19.369-8.7,8.672-8.695,19.369-8.695S297.308,181.648,297.308,186.451Z" transform="translate(-258.57 -166.106)" fill="#0086b9"/>
          <path id="Trazado_17071" data-name="Trazado 17071" d="M297.308,182.823c0,4.8-8.669,8.695-19.369,8.695s-19.369-3.895-19.369-8.695,8.672-8.7,19.369-8.7S297.308,178.02,297.308,182.823Z" transform="translate(-258.57 -174.125)" fill="#32ccf5"/>
        </g>
      </g>
      <g id="Grupo_504" data-name="Grupo 504" transform="translate(100.644 44.946)">
        <rect id="Rectángulo_191" data-name="Rectángulo 191" width="38.738" height="11.648" transform="translate(0.001 8.696)" fill="#0086b9"/>
        <g id="Grupo_503" data-name="Grupo 503">
          <path id="Trazado_17072" data-name="Trazado 17072" d="M308.514,200.462c0,4.8-8.672,8.695-19.369,8.695s-19.369-3.892-19.369-8.695,8.672-8.7,19.369-8.7S308.514,195.659,308.514,200.462Z" transform="translate(-269.776 -180.118)" fill="#0086b9"/>
          <path id="Trazado_17073" data-name="Trazado 17073" d="M308.514,196.829c0,4.8-8.672,8.7-19.369,8.7s-19.369-3.895-19.369-8.7,8.672-8.695,19.369-8.695S308.514,192.026,308.514,196.829Z" transform="translate(-269.776 -188.134)" fill="#32ccf5"/>
        </g>
      </g>
      <g id="Grupo_506" data-name="Grupo 506" transform="translate(134.215 24.663)">
        <rect id="Rectángulo_192" data-name="Rectángulo 192" width="38.738" height="11.648" transform="translate(0 8.696)" fill="#0086b9"/>
        <g id="Grupo_505" data-name="Grupo 505" transform="translate(0.001)">
          <path id="Trazado_17074" data-name="Trazado 17074" d="M318.978,194.14c0,4.8-8.672,8.695-19.369,8.695s-19.369-3.892-19.369-8.695,8.672-8.7,19.369-8.7S318.978,189.337,318.978,194.14Z" transform="translate(-280.24 -173.796)" fill="#0086b9"/>
          <path id="Trazado_17075" data-name="Trazado 17075" d="M318.978,190.507c0,4.8-8.672,8.7-19.369,8.7s-19.369-3.895-19.369-8.7,8.672-8.695,19.369-8.695S318.978,185.7,318.978,190.507Z" transform="translate(-280.24 -181.812)" fill="#32ccf5"/>
        </g>
      </g>
    </g>
    <g id="Grupo_517" data-name="Grupo 517" transform="translate(2440.236 466.62)">
      <g id="Grupo_508" data-name="Grupo 508" transform="translate(0 1.723)">
        <path id="Trazado_17076" data-name="Trazado 17076" d="M348.059,246.009,279.814,286.47V201.9l68.245-40.382Z" transform="translate(-147.16 -119.202)" fill="#308d00"/>
        <path id="Trazado_17077" data-name="Trazado 17077" d="M371.122,287.8,238.467,245.5V160.912l132.654,42.311Z" transform="translate(-238.467 -120.531)" fill="#50a700"/>
        <path id="Trazado_17078" data-name="Trazado 17078" d="M371.122,231.019,238.467,188.708l68.249-40.382,132.651,42.311Z" transform="translate(-238.467 -148.326)" fill="#90dd5f"/>
      </g>
      <g id="Grupo_510" data-name="Grupo 510" transform="translate(29.846 21.791)">
        <rect id="Rectángulo_193" data-name="Rectángulo 193" width="38.738" height="11.648" transform="translate(0 8.695)" fill="#368700"/>
        <g id="Grupo_509" data-name="Grupo 509" transform="translate(0)">
          <path id="Trazado_17079" data-name="Trazado 17079" d="M286.508,166.909c0,4.8-8.672,8.695-19.369,8.695s-19.369-3.892-19.369-8.695,8.672-8.7,19.369-8.7S286.508,162.106,286.508,166.909Z" transform="translate(-247.77 -146.565)" fill="#368700"/>
          <path id="Trazado_17080" data-name="Trazado 17080" d="M286.508,163.276c0,4.8-8.672,8.7-19.369,8.7s-19.369-3.895-19.369-8.7,8.672-8.695,19.369-8.695S286.508,158.473,286.508,163.276Z" transform="translate(-247.77 -154.581)" fill="#90dd5f"/>
        </g>
      </g>
      <g id="Grupo_512" data-name="Grupo 512" transform="translate(64.692)">
        <rect id="Rectángulo_194" data-name="Rectángulo 194" width="38.738" height="11.648" transform="translate(0 8.697)" fill="#368700"/>
        <g id="Grupo_511" data-name="Grupo 511">
          <path id="Trazado_17081" data-name="Trazado 17081" d="M297.369,160.115c0,4.8-8.672,8.7-19.369,8.7s-19.369-3.895-19.369-8.7S267.3,151.42,278,151.42,297.369,155.312,297.369,160.115Z" transform="translate(-258.631 -139.77)" fill="#368700"/>
          <path id="Trazado_17082" data-name="Trazado 17082" d="M297.369,156.487c0,4.8-8.672,8.695-19.369,8.695s-19.369-3.892-19.369-8.695,8.672-8.7,19.369-8.7S297.369,151.684,297.369,156.487Z" transform="translate(-258.631 -147.789)" fill="#90dd5f"/>
        </g>
      </g>
      <g id="Grupo_514" data-name="Grupo 514" transform="translate(100.645 44.946)">
        <rect id="Rectángulo_195" data-name="Rectángulo 195" width="38.738" height="11.648" transform="translate(0 8.696)" fill="#368700"/>
        <g id="Grupo_513" data-name="Grupo 513" transform="translate(0)">
          <path id="Trazado_17083" data-name="Trazado 17083" d="M308.575,174.124c0,4.8-8.672,8.7-19.369,8.7s-19.369-3.895-19.369-8.7,8.672-8.695,19.369-8.695S308.575,169.321,308.575,174.124Z" transform="translate(-269.837 -153.779)" fill="#368700"/>
          <path id="Trazado_17084" data-name="Trazado 17084" d="M308.575,170.493c0,4.8-8.672,8.7-19.369,8.7s-19.369-3.895-19.369-8.7,8.672-8.695,19.369-8.695S308.575,165.69,308.575,170.493Z" transform="translate(-269.837 -161.798)" fill="#90dd5f"/>
        </g>
      </g>
      <g id="Grupo_516" data-name="Grupo 516" transform="translate(134.214 24.663)">
        <rect id="Rectángulo_196" data-name="Rectángulo 196" width="38.738" height="11.648" transform="translate(0.001 8.696)" fill="#368700"/>
        <g id="Grupo_515" data-name="Grupo 515">
          <path id="Trazado_17085" data-name="Trazado 17085" d="M319.038,167.8c0,4.8-8.669,8.695-19.366,8.695S280.3,172.6,280.3,167.8s8.672-8.695,19.372-8.695S319.038,163,319.038,167.8Z" transform="translate(-280.3 -147.457)" fill="#368700"/>
          <path id="Trazado_17086" data-name="Trazado 17086" d="M319.038,164.171c0,4.8-8.669,8.7-19.366,8.7s-19.372-3.895-19.372-8.7,8.672-8.695,19.372-8.695S319.038,159.371,319.038,164.171Z" transform="translate(-280.3 -155.476)" fill="#90dd5f"/>
        </g>
      </g>
    </g>
    <g id="Grupo_527" data-name="Grupo 527" transform="translate(2440.236 382.012)">
      <g id="Grupo_518" data-name="Grupo 518" transform="translate(0 1.722)">
        <path id="Trazado_17087" data-name="Trazado 17087" d="M348.059,219.637,279.814,260.1V175.524l68.245-40.382Z" transform="translate(-147.16 -92.831)" fill="#e6d7da"/>
        <path id="Trazado_17088" data-name="Trazado 17088" d="M371.122,261.427l-132.654-42.3V134.541l132.654,42.311Z" transform="translate(-238.467 -94.159)" fill="#faedef"/>
        <path id="Trazado_17089" data-name="Trazado 17089" d="M371.122,204.648,238.467,162.336l68.249-40.382,132.651,42.311Z" transform="translate(-238.467 -121.955)" fill="#fff"/>
      </g>
      <g id="Grupo_520" data-name="Grupo 520" transform="translate(29.846 21.791)">
        <rect id="Rectángulo_197" data-name="Rectángulo 197" width="38.738" height="11.648" transform="translate(0 8.695)" fill="#e6d7da"/>
        <g id="Grupo_519" data-name="Grupo 519" transform="translate(0)">
          <path id="Trazado_17090" data-name="Trazado 17090" d="M286.508,140.538c0,4.8-8.672,8.695-19.369,8.695s-19.369-3.892-19.369-8.695,8.672-8.7,19.369-8.7S286.508,135.735,286.508,140.538Z" transform="translate(-247.77 -120.194)" fill="#e6d7da"/>
          <path id="Trazado_17091" data-name="Trazado 17091" d="M286.508,136.9c0,4.8-8.672,8.7-19.369,8.7s-19.369-3.895-19.369-8.7,8.672-8.695,19.369-8.695S286.508,132.1,286.508,136.9Z" transform="translate(-247.77 -128.21)" fill="#fff"/>
        </g>
      </g>
      <g id="Grupo_522" data-name="Grupo 522" transform="translate(64.692)">
        <rect id="Rectángulo_198" data-name="Rectángulo 198" width="38.738" height="11.648" transform="translate(0 8.696)" fill="#e6d7da"/>
        <g id="Grupo_521" data-name="Grupo 521">
          <path id="Trazado_17092" data-name="Trazado 17092" d="M297.369,133.744c0,4.8-8.672,8.7-19.369,8.7s-19.369-3.895-19.369-8.7,8.672-8.695,19.369-8.695S297.369,128.941,297.369,133.744Z" transform="translate(-258.631 -113.399)" fill="#e6d7da"/>
          <path id="Trazado_17093" data-name="Trazado 17093" d="M297.369,130.113c0,4.8-8.672,8.7-19.369,8.7s-19.369-3.895-19.369-8.7,8.672-8.695,19.369-8.695S297.369,125.313,297.369,130.113Z" transform="translate(-258.631 -121.418)" fill="#fff"/>
        </g>
      </g>
      <g id="Grupo_524" data-name="Grupo 524" transform="translate(100.645 44.946)">
        <rect id="Rectángulo_199" data-name="Rectángulo 199" width="38.738" height="11.648" transform="translate(0 8.696)" fill="#e6d7da"/>
        <g id="Grupo_523" data-name="Grupo 523" transform="translate(0)">
          <path id="Trazado_17094" data-name="Trazado 17094" d="M308.575,147.755c0,4.8-8.672,8.695-19.369,8.695s-19.369-3.892-19.369-8.695,8.672-8.7,19.369-8.7S308.575,142.952,308.575,147.755Z" transform="translate(-269.837 -127.411)" fill="#e6d7da"/>
          <path id="Trazado_17095" data-name="Trazado 17095" d="M308.575,144.122c0,4.8-8.672,8.7-19.369,8.7s-19.369-3.895-19.369-8.7,8.672-8.695,19.369-8.695S308.575,139.319,308.575,144.122Z" transform="translate(-269.837 -135.427)" fill="#fff"/>
        </g>
      </g>
      <g id="Grupo_526" data-name="Grupo 526" transform="translate(134.214 24.663)">
        <rect id="Rectángulo_200" data-name="Rectángulo 200" width="38.738" height="11.648" transform="translate(0.001 8.696)" fill="#e6d7da"/>
        <g id="Grupo_525" data-name="Grupo 525">
          <path id="Trazado_17096" data-name="Trazado 17096" d="M319.038,141.433c0,4.8-8.669,8.695-19.366,8.695s-19.372-3.892-19.372-8.695,8.672-8.7,19.372-8.7S319.038,136.63,319.038,141.433Z" transform="translate(-280.3 -121.089)" fill="#e6d7da"/>
          <path id="Trazado_17097" data-name="Trazado 17097" d="M319.038,137.8c0,4.8-8.669,8.7-19.366,8.7S280.3,142.6,280.3,137.8s8.672-8.695,19.372-8.695S319.038,133,319.038,137.8Z" transform="translate(-280.3 -129.105)" fill="#fff"/>
        </g>
      </g>
    </g>
    <g id="Grupo_537" data-name="Grupo 537" transform="translate(2440.236 297.517)">
      <g id="Grupo_528" data-name="Grupo 528" transform="translate(0 1.722)">
        <path id="Trazado_17098" data-name="Trazado 17098" d="M348.059,193.3l-68.245,40.462V149.188l68.245-40.382Z" transform="translate(-147.16 -66.496)" fill="#b00a0b"/>
        <path id="Trazado_17099" data-name="Trazado 17099" d="M371.122,235.091,238.467,192.8V108.205l132.654,42.311Z" transform="translate(-238.467 -67.824)" fill="#e11415"/>
        <path id="Trazado_17100" data-name="Trazado 17100" d="M371.122,178.312,238.467,136l68.249-40.382L439.367,137.93Z" transform="translate(-238.467 -95.619)" fill="#ff4b67"/>
      </g>
      <g id="Grupo_530" data-name="Grupo 530" transform="translate(29.846 21.791)">
        <rect id="Rectángulo_201" data-name="Rectángulo 201" width="38.738" height="11.648" transform="translate(0 8.695)" fill="#b5142e"/>
        <g id="Grupo_529" data-name="Grupo 529" transform="translate(0)">
          <path id="Trazado_17101" data-name="Trazado 17101" d="M286.508,114.2c0,4.8-8.672,8.695-19.369,8.695S247.77,119,247.77,114.2s8.672-8.7,19.369-8.7S286.508,109.4,286.508,114.2Z" transform="translate(-247.77 -93.858)" fill="#b5142e"/>
          <path id="Trazado_17102" data-name="Trazado 17102" d="M286.508,110.569c0,4.8-8.672,8.7-19.369,8.7s-19.369-3.895-19.369-8.7,8.672-8.695,19.369-8.695S286.508,105.766,286.508,110.569Z" transform="translate(-247.77 -101.874)" fill="#ff4b67"/>
        </g>
      </g>
      <g id="Grupo_532" data-name="Grupo 532" transform="translate(64.692)">
        <rect id="Rectángulo_202" data-name="Rectángulo 202" width="38.738" height="11.648" transform="translate(0 8.697)" fill="#b5142e"/>
        <g id="Grupo_531" data-name="Grupo 531">
          <path id="Trazado_17103" data-name="Trazado 17103" d="M297.369,107.408c0,4.8-8.672,8.7-19.369,8.7s-19.369-3.895-19.369-8.7S267.3,98.713,278,98.713,297.369,102.6,297.369,107.408Z" transform="translate(-258.631 -87.063)" fill="#b5142e"/>
          <path id="Trazado_17104" data-name="Trazado 17104" d="M297.369,103.78c0,4.8-8.672,8.695-19.369,8.695s-19.369-3.892-19.369-8.695,8.672-8.7,19.369-8.7S297.369,98.977,297.369,103.78Z" transform="translate(-258.631 -95.082)" fill="#ff4b67"/>
        </g>
      </g>
      <g id="Grupo_534" data-name="Grupo 534" transform="translate(100.645 44.946)">
        <rect id="Rectángulo_203" data-name="Rectángulo 203" width="38.738" height="11.648" transform="translate(0 8.696)" fill="#b5142e"/>
        <g id="Grupo_533" data-name="Grupo 533" transform="translate(0)">
          <path id="Trazado_17105" data-name="Trazado 17105" d="M308.575,121.417c0,4.8-8.672,8.695-19.369,8.695s-19.369-3.892-19.369-8.695,8.672-8.695,19.369-8.695S308.575,116.614,308.575,121.417Z" transform="translate(-269.837 -101.072)" fill="#b5142e"/>
          <path id="Trazado_17106" data-name="Trazado 17106" d="M308.575,117.786c0,4.8-8.672,8.7-19.369,8.7s-19.369-3.895-19.369-8.7,8.672-8.695,19.369-8.695S308.575,112.986,308.575,117.786Z" transform="translate(-269.837 -109.091)" fill="#ff4b67"/>
        </g>
      </g>
      <g id="Grupo_536" data-name="Grupo 536" transform="translate(134.214 24.663)">
        <rect id="Rectángulo_204" data-name="Rectángulo 204" width="38.738" height="11.648" transform="translate(0.001 8.696)" fill="#b5142e"/>
        <g id="Grupo_535" data-name="Grupo 535">
          <path id="Trazado_17107" data-name="Trazado 17107" d="M319.038,115.095c0,4.8-8.669,8.7-19.366,8.7s-19.372-3.895-19.372-8.7,8.672-8.695,19.372-8.695S319.038,110.292,319.038,115.095Z" transform="translate(-280.3 -94.75)" fill="#b5142e"/>
          <path id="Trazado_17108" data-name="Trazado 17108" d="M319.038,111.464c0,4.8-8.669,8.7-19.366,8.7s-19.372-3.895-19.372-8.7,8.672-8.695,19.372-8.695S319.038,106.661,319.038,111.464Z" transform="translate(-280.3 -102.769)" fill="#ff4b67"/>
        </g>
      </g>
    </g>
    <g id="Grupo_547" data-name="Grupo 547" transform="translate(2379.792 193.499)">
      <g id="Grupo_538" data-name="Grupo 538" transform="translate(0 1.723)">
        <path id="Trazado_17109" data-name="Trazado 17109" d="M329.22,160.881l-68.246,40.462V116.768L329.22,76.386Z" transform="translate(-128.32 -34.075)" fill="#c32141"/>
        <path id="Trazado_17110" data-name="Trazado 17110" d="M352.282,202.671l-132.654-42.3V75.785L352.282,118.1Z" transform="translate(-219.628 -35.403)" fill="#e11415"/>
        <path id="Trazado_17111" data-name="Trazado 17111" d="M352.282,145.891,219.628,103.58,287.877,63.2l132.651,42.311Z" transform="translate(-219.628 -63.198)" fill="#ff2121"/>
      </g>
      <g id="Grupo_540" data-name="Grupo 540" transform="translate(29.846 21.791)">
        <rect id="Rectángulo_205" data-name="Rectángulo 205" width="38.738" height="11.648" transform="translate(0 8.696)" fill="#b00a0b"/>
        <g id="Grupo_539" data-name="Grupo 539" transform="translate(0.001)">
          <path id="Trazado_17112" data-name="Trazado 17112" d="M267.669,81.779c0,4.8-8.672,8.7-19.369,8.7s-19.369-3.895-19.369-8.7,8.669-8.695,19.369-8.695S267.669,76.976,267.669,81.779Z" transform="translate(-228.931 -61.434)" fill="#b00a0b"/>
          <path id="Trazado_17113" data-name="Trazado 17113" d="M267.669,78.148c0,4.8-8.672,8.7-19.369,8.7s-19.369-3.895-19.369-8.7,8.669-8.695,19.369-8.695S267.669,73.348,267.669,78.148Z" transform="translate(-228.931 -69.453)" fill="#ff2121"/>
        </g>
      </g>
      <g id="Grupo_542" data-name="Grupo 542" transform="translate(64.692)">
        <rect id="Rectángulo_206" data-name="Rectángulo 206" width="38.738" height="11.648" transform="translate(0 8.698)" fill="#b00a0b"/>
        <g id="Grupo_541" data-name="Grupo 541" transform="translate(0.001)">
          <path id="Trazado_17114" data-name="Trazado 17114" d="M278.53,74.987c0,4.8-8.672,8.7-19.369,8.7s-19.369-3.895-19.369-8.7,8.672-8.695,19.369-8.695S278.53,70.187,278.53,74.987Z" transform="translate(-239.792 -54.642)" fill="#b00a0b"/>
          <path id="Trazado_17115" data-name="Trazado 17115" d="M278.53,71.359c0,4.8-8.672,8.695-19.369,8.695s-19.369-3.892-19.369-8.695,8.672-8.7,19.369-8.7S278.53,66.556,278.53,71.359Z" transform="translate(-239.792 -62.661)" fill="#ff2121"/>
        </g>
      </g>
      <g id="Grupo_544" data-name="Grupo 544" transform="translate(100.645 44.946)">
        <rect id="Rectángulo_207" data-name="Rectángulo 207" width="38.738" height="11.648" transform="translate(0 8.697)" fill="#b00a0b"/>
        <g id="Grupo_543" data-name="Grupo 543" transform="translate(0.001)">
          <path id="Trazado_17116" data-name="Trazado 17116" d="M289.736,89c0,4.8-8.672,8.7-19.369,8.7S251,93.8,251,89,259.67,80.3,270.367,80.3,289.736,84.193,289.736,89Z" transform="translate(-250.998 -68.651)" fill="#b00a0b"/>
          <path id="Trazado_17117" data-name="Trazado 17117" d="M289.736,85.368c0,4.8-8.672,8.695-19.369,8.695S251,90.171,251,85.368s8.672-8.7,19.369-8.7S289.736,80.565,289.736,85.368Z" transform="translate(-250.998 -76.67)" fill="#ff2121"/>
        </g>
      </g>
      <g id="Grupo_546" data-name="Grupo 546" transform="translate(134.215 24.663)">
        <rect id="Rectángulo_208" data-name="Rectángulo 208" width="38.738" height="11.648" transform="translate(0 8.697)" fill="#b00a0b"/>
        <g id="Grupo_545" data-name="Grupo 545">
          <path id="Trazado_17118" data-name="Trazado 17118" d="M300.2,82.674c0,4.8-8.672,8.7-19.369,8.7s-19.369-3.895-19.369-8.7,8.672-8.695,19.369-8.695S300.2,77.871,300.2,82.674Z" transform="translate(-261.461 -62.329)" fill="#b00a0b"/>
          <path id="Trazado_17119" data-name="Trazado 17119" d="M300.2,79.046c0,4.8-8.672,8.695-19.369,8.695s-19.369-3.892-19.369-8.695,8.672-8.7,19.369-8.7S300.2,74.243,300.2,79.046Z" transform="translate(-261.461 -70.348)" fill="#ff2121"/>
        </g>
      </g>
    </g>
    <g id="Grupo_557" data-name="Grupo 557" transform="translate(2512.934 235.942)">
      <g id="Grupo_548" data-name="Grupo 548" transform="translate(0 1.72)">
        <path id="Trazado_17120" data-name="Trazado 17120" d="M370.718,174.109l-68.245,40.462V130l68.245-40.382Z" transform="translate(-169.819 -47.303)" fill="#ff8f00"/>
        <path id="Trazado_17121" data-name="Trazado 17121" d="M393.781,215.9,261.126,173.6V89.013l132.654,42.311Z" transform="translate(-261.126 -48.631)" fill="#ffa600"/>
        <path id="Trazado_17122" data-name="Trazado 17122" d="M393.781,159.119,261.126,116.808l68.249-40.382,132.651,42.311Z" transform="translate(-261.126 -76.426)" fill="#ffd000"/>
      </g>
      <g id="Grupo_550" data-name="Grupo 550" transform="translate(29.846 21.788)">
        <rect id="Rectángulo_209" data-name="Rectángulo 209" width="38.738" height="11.648" transform="translate(0 8.696)" fill="#ff8f00"/>
        <g id="Grupo_549" data-name="Grupo 549" transform="translate(0)">
          <path id="Trazado_17123" data-name="Trazado 17123" d="M309.167,95.007c0,4.8-8.672,8.7-19.369,8.7s-19.369-3.895-19.369-8.7,8.672-8.695,19.369-8.695S309.167,90.2,309.167,95.007Z" transform="translate(-270.429 -74.662)" fill="#ff8f00"/>
          <path id="Trazado_17124" data-name="Trazado 17124" d="M309.167,91.379c0,4.8-8.672,8.695-19.369,8.695s-19.369-3.892-19.369-8.695,8.672-8.7,19.369-8.7S309.167,86.576,309.167,91.379Z" transform="translate(-270.429 -82.681)" fill="#ffd000"/>
        </g>
      </g>
      <g id="Grupo_552" data-name="Grupo 552" transform="translate(64.692)">
        <rect id="Rectángulo_210" data-name="Rectángulo 210" width="38.737" height="11.648" transform="translate(0 8.695)" fill="#ff8f00"/>
        <g id="Grupo_551" data-name="Grupo 551">
          <path id="Trazado_17125" data-name="Trazado 17125" d="M320.028,88.218c0,4.8-8.672,8.695-19.369,8.695s-19.369-3.892-19.369-8.695,8.672-8.7,19.369-8.7S320.028,83.415,320.028,88.218Z" transform="translate(-281.29 -67.874)" fill="#ff8f00"/>
          <path id="Trazado_17126" data-name="Trazado 17126" d="M320.028,84.585c0,4.8-8.672,8.7-19.369,8.7s-19.369-3.895-19.369-8.7,8.672-8.695,19.369-8.695S320.028,79.782,320.028,84.585Z" transform="translate(-281.29 -75.89)" fill="#ffd000"/>
        </g>
      </g>
      <g id="Grupo_554" data-name="Grupo 554" transform="translate(100.645 44.943)">
        <rect id="Rectángulo_211" data-name="Rectángulo 211" width="38.738" height="11.648" transform="translate(0 8.697)" fill="#e09400"/>
        <g id="Grupo_553" data-name="Grupo 553" transform="translate(0)">
          <path id="Trazado_17127" data-name="Trazado 17127" d="M331.234,102.224c0,4.8-8.672,8.7-19.369,8.7s-19.369-3.895-19.369-8.7,8.672-8.695,19.369-8.695S331.234,97.421,331.234,102.224Z" transform="translate(-292.496 -81.879)" fill="#e09400"/>
          <path id="Trazado_17128" data-name="Trazado 17128" d="M331.234,98.6c0,4.8-8.672,8.695-19.369,8.695S292.5,103.4,292.5,98.6s8.672-8.7,19.369-8.7S331.234,93.793,331.234,98.6Z" transform="translate(-292.496 -89.898)" fill="#ffd46d"/>
        </g>
      </g>
      <g id="Grupo_556" data-name="Grupo 556" transform="translate(134.215 24.659)">
        <rect id="Rectángulo_212" data-name="Rectángulo 212" width="38.738" height="11.648" transform="translate(0 8.697)" fill="#e09400"/>
        <g id="Grupo_555" data-name="Grupo 555" transform="translate(0.002)">
          <path id="Trazado_17129" data-name="Trazado 17129" d="M341.7,95.9c0,4.8-8.672,8.7-19.369,8.7S302.96,100.7,302.96,95.9s8.669-8.695,19.369-8.695S341.7,91.1,341.7,95.9Z" transform="translate(-302.96 -75.557)" fill="#e09400"/>
          <path id="Trazado_17130" data-name="Trazado 17130" d="M341.7,92.274c0,4.8-8.672,8.695-19.369,8.695s-19.369-3.892-19.369-8.695,8.669-8.7,19.369-8.7S341.7,87.471,341.7,92.274Z" transform="translate(-302.96 -83.576)" fill="#ffd46d"/>
        </g>
      </g>
    </g>
    <g id="Grupo_567" data-name="Grupo 567" transform="translate(2640.309 867.241)">
      <g id="Grupo_558" data-name="Grupo 558" transform="translate(0 1.723)">
        <path id="Trazado_17131" data-name="Trazado 17131" d="M410.419,370.877l-68.245,40.462V326.763l68.245-40.382Z" transform="translate(-209.52 -244.071)" fill="#ff8f00"/>
        <path id="Trazado_17132" data-name="Trazado 17132" d="M433.482,412.666l-132.654-42.3V285.78l132.654,42.311Z" transform="translate(-300.827 -245.399)" fill="#ffa600"/>
        <path id="Trazado_17133" data-name="Trazado 17133" d="M433.482,355.887,300.827,313.576l68.249-40.382,132.651,42.311Z" transform="translate(-300.827 -273.194)" fill="#ffd000"/>
      </g>
      <g id="Grupo_560" data-name="Grupo 560" transform="translate(29.845 21.791)">
        <rect id="Rectángulo_213" data-name="Rectángulo 213" width="38.738" height="11.648" transform="translate(0 8.696)" fill="#ff8f00"/>
        <g id="Grupo_559" data-name="Grupo 559" transform="translate(0.001)">
          <path id="Trazado_17134" data-name="Trazado 17134" d="M348.868,291.777c0,4.8-8.672,8.695-19.369,8.695s-19.369-3.892-19.369-8.695,8.672-8.7,19.369-8.7S348.868,286.974,348.868,291.777Z" transform="translate(-310.13 -271.433)" fill="#ff8f00"/>
          <path id="Trazado_17135" data-name="Trazado 17135" d="M348.868,288.144c0,4.8-8.672,8.7-19.369,8.7s-19.369-3.895-19.369-8.7,8.672-8.695,19.369-8.695S348.868,283.341,348.868,288.144Z" transform="translate(-310.13 -279.449)" fill="#ffd000"/>
        </g>
      </g>
      <g id="Grupo_562" data-name="Grupo 562" transform="translate(64.692)">
        <rect id="Rectángulo_214" data-name="Rectángulo 214" width="38.738" height="11.648" transform="translate(0 8.697)" fill="#ff8f00"/>
        <g id="Grupo_561" data-name="Grupo 561" transform="translate(0)">
          <path id="Trazado_17136" data-name="Trazado 17136" d="M359.729,284.983c0,4.8-8.672,8.7-19.369,8.7s-19.369-3.9-19.369-8.7,8.672-8.695,19.369-8.695S359.729,280.18,359.729,284.983Z" transform="translate(-320.991 -264.638)" fill="#ff8f00"/>
          <path id="Trazado_17137" data-name="Trazado 17137" d="M359.729,281.355c0,4.8-8.672,8.695-19.369,8.695s-19.369-3.892-19.369-8.695,8.672-8.7,19.369-8.7S359.729,276.552,359.729,281.355Z" transform="translate(-320.991 -272.657)" fill="#ffd000"/>
        </g>
      </g>
      <g id="Grupo_564" data-name="Grupo 564" transform="translate(100.645 44.946)">
        <rect id="Rectángulo_215" data-name="Rectángulo 215" width="38.738" height="11.648" transform="translate(0 8.697)" fill="#ff8f00"/>
        <g id="Grupo_563" data-name="Grupo 563" transform="translate(0)">
          <path id="Trazado_17138" data-name="Trazado 17138" d="M370.935,298.992c0,4.8-8.672,8.7-19.369,8.7s-19.369-3.895-19.369-8.7,8.672-8.695,19.369-8.695S370.935,294.189,370.935,298.992Z" transform="translate(-332.197 -278.647)" fill="#ff8f00"/>
          <path id="Trazado_17139" data-name="Trazado 17139" d="M370.935,295.364c0,4.8-8.672,8.695-19.369,8.695s-19.369-3.892-19.369-8.695,8.672-8.7,19.369-8.7S370.935,290.561,370.935,295.364Z" transform="translate(-332.197 -286.666)" fill="#ffd000"/>
        </g>
      </g>
      <g id="Grupo_566" data-name="Grupo 566" transform="translate(134.214 24.663)">
        <rect id="Rectángulo_216" data-name="Rectángulo 216" width="38.738" height="11.648" transform="translate(0.001 8.696)" fill="#ff8f00"/>
        <g id="Grupo_565" data-name="Grupo 565">
          <path id="Trazado_17140" data-name="Trazado 17140" d="M381.4,292.67c0,4.8-8.669,8.7-19.369,8.7s-19.369-3.895-19.369-8.7,8.672-8.695,19.369-8.695S381.4,287.867,381.4,292.67Z" transform="translate(-342.66 -272.325)" fill="#ff8f00"/>
          <path id="Trazado_17141" data-name="Trazado 17141" d="M381.4,289.042c0,4.8-8.669,8.695-19.369,8.695s-19.369-3.9-19.369-8.695,8.672-8.7,19.369-8.7S381.4,284.239,381.4,289.042Z" transform="translate(-342.66 -280.344)" fill="#ffd000"/>
        </g>
      </g>
    </g>
    <g id="Grupo_577" data-name="Grupo 577" transform="translate(2585.437 176.107)">
      <g id="Grupo_568" data-name="Grupo 568" transform="translate(0 1.723)">
        <path id="Trazado_17142" data-name="Trazado 17142" d="M393.316,155.46l-68.245,40.462V111.347l68.245-40.382Z" transform="translate(-192.417 -28.654)" fill="#1a8bff"/>
        <path id="Trazado_17143" data-name="Trazado 17143" d="M416.379,197.25l-132.654-42.3V70.364l132.654,42.311Z" transform="translate(-283.725 -29.982)" fill="#32a0ff"/>
        <path id="Trazado_17144" data-name="Trazado 17144" d="M416.379,140.47,283.725,98.159l68.249-40.382,132.651,42.311Z" transform="translate(-283.725 -57.777)" fill="#51bcff"/>
      </g>
      <g id="Grupo_570" data-name="Grupo 570" transform="translate(29.845 21.791)">
        <rect id="Rectángulo_217" data-name="Rectángulo 217" width="38.737" height="11.648" transform="translate(0.001 8.696)" fill="#1a8bff"/>
        <g id="Grupo_569" data-name="Grupo 569">
          <path id="Trazado_17145" data-name="Trazado 17145" d="M331.765,76.358c0,4.8-8.672,8.7-19.369,8.7s-19.369-3.895-19.369-8.7,8.672-8.695,19.369-8.695S331.765,71.555,331.765,76.358Z" transform="translate(-293.027 -56.013)" fill="#1a8bff"/>
          <path id="Trazado_17146" data-name="Trazado 17146" d="M331.765,72.727c0,4.8-8.672,8.7-19.369,8.7s-19.369-3.895-19.369-8.7,8.672-8.695,19.369-8.695S331.765,67.927,331.765,72.727Z" transform="translate(-293.027 -64.032)" fill="#51bcff"/>
        </g>
      </g>
      <g id="Grupo_572" data-name="Grupo 572" transform="translate(64.691)">
        <rect id="Rectángulo_218" data-name="Rectángulo 218" width="38.738" height="11.648" transform="translate(0.001 8.698)" fill="#1a8bff"/>
        <g id="Grupo_571" data-name="Grupo 571">
          <path id="Trazado_17147" data-name="Trazado 17147" d="M342.626,69.566c0,4.8-8.669,8.7-19.369,8.7s-19.369-3.895-19.369-8.7,8.672-8.695,19.369-8.695S342.626,64.763,342.626,69.566Z" transform="translate(-303.888 -49.221)" fill="#1a8bff"/>
          <path id="Trazado_17148" data-name="Trazado 17148" d="M342.626,65.938c0,4.8-8.669,8.695-19.369,8.695s-19.369-3.892-19.369-8.695,8.672-8.7,19.369-8.7S342.626,61.135,342.626,65.938Z" transform="translate(-303.888 -57.24)" fill="#51bcff"/>
        </g>
      </g>
      <g id="Grupo_574" data-name="Grupo 574" transform="translate(100.644 44.946)">
        <rect id="Rectángulo_219" data-name="Rectángulo 219" width="38.738" height="11.648" transform="translate(0.001 8.697)" fill="#0086b9"/>
        <g id="Grupo_573" data-name="Grupo 573">
          <path id="Trazado_17149" data-name="Trazado 17149" d="M353.832,83.575c0,4.8-8.672,8.7-19.369,8.7s-19.369-3.895-19.369-8.7,8.672-8.695,19.369-8.695S353.832,78.772,353.832,83.575Z" transform="translate(-315.094 -63.23)" fill="#0086b9"/>
          <path id="Trazado_17150" data-name="Trazado 17150" d="M353.832,79.947c0,4.8-8.672,8.695-19.369,8.695s-19.369-3.892-19.369-8.695,8.672-8.7,19.369-8.7S353.832,75.144,353.832,79.947Z" transform="translate(-315.094 -71.249)" fill="#32ccf5"/>
        </g>
      </g>
      <g id="Grupo_576" data-name="Grupo 576" transform="translate(134.215 24.663)">
        <rect id="Rectángulo_220" data-name="Rectángulo 220" width="38.738" height="11.648" transform="translate(0 8.697)" fill="#0086b9"/>
        <g id="Grupo_575" data-name="Grupo 575" transform="translate(0.001)">
          <path id="Trazado_17151" data-name="Trazado 17151" d="M364.3,77.253c0,4.8-8.672,8.7-19.369,8.7s-19.369-3.895-19.369-8.7,8.672-8.695,19.369-8.695S364.3,72.45,364.3,77.253Z" transform="translate(-325.558 -56.908)" fill="#0086b9"/>
          <path id="Trazado_17152" data-name="Trazado 17152" d="M364.3,73.625c0,4.8-8.672,8.695-19.369,8.695s-19.369-3.892-19.369-8.695,8.672-8.7,19.369-8.7S364.3,68.822,364.3,73.625Z" transform="translate(-325.558 -64.927)" fill="#32ccf5"/>
        </g>
      </g>
    </g>
    <g id="Grupo_597" data-name="Grupo 597" transform="translate(2669.498 118)">
      <g id="Grupo_588" data-name="Grupo 588" transform="translate(0 1.722)">
        <path id="Trazado_17164" data-name="Trazado 17164" d="M419.517,137.348,351.272,177.81V93.235l68.245-40.382Z" transform="translate(-218.618 -10.542)" fill="#308d00"/>
        <path id="Trazado_17165" data-name="Trazado 17165" d="M442.58,179.138l-132.654-42.3V52.252L442.58,94.563Z" transform="translate(-309.925 -11.87)" fill="#50a700"/>
        <path id="Trazado_17166" data-name="Trazado 17166" d="M442.58,122.359,309.925,80.047l68.249-40.382L510.825,81.977Z" transform="translate(-309.925 -39.666)" fill="#6bbd00"/>
      </g>
      <g id="Grupo_590" data-name="Grupo 590" transform="translate(29.845 21.791)">
        <rect id="Rectángulo_225" data-name="Rectángulo 225" width="38.738" height="11.648" transform="translate(0 8.695)" fill="#308d00"/>
        <g id="Grupo_589" data-name="Grupo 589" transform="translate(0)">
          <path id="Trazado_17167" data-name="Trazado 17167" d="M357.966,58.249c0,4.8-8.672,8.695-19.369,8.695s-19.369-3.892-19.369-8.695,8.672-8.7,19.369-8.7S357.966,53.446,357.966,58.249Z" transform="translate(-319.228 -37.905)" fill="#308d00"/>
          <path id="Trazado_17168" data-name="Trazado 17168" d="M357.966,54.616c0,4.8-8.672,8.7-19.369,8.7s-19.369-3.895-19.369-8.7,8.672-8.695,19.369-8.695S357.966,49.813,357.966,54.616Z" transform="translate(-319.228 -45.921)" fill="#6bbd00"/>
        </g>
      </g>
      <g id="Grupo_592" data-name="Grupo 592" transform="translate(64.692)">
        <rect id="Rectángulo_226" data-name="Rectángulo 226" width="38.738" height="11.648" transform="translate(0 8.696)" fill="#308d00"/>
        <g id="Grupo_591" data-name="Grupo 591">
          <path id="Trazado_17169" data-name="Trazado 17169" d="M368.827,51.455c0,4.8-8.672,8.7-19.369,8.7s-19.369-3.895-19.369-8.7,8.672-8.695,19.369-8.695S368.827,46.652,368.827,51.455Z" transform="translate(-330.089 -31.11)" fill="#308d00"/>
          <path id="Trazado_17170" data-name="Trazado 17170" d="M368.827,47.824c0,4.806-8.672,8.7-19.369,8.7s-19.369-3.892-19.369-8.7,8.672-8.695,19.369-8.695S368.827,43.024,368.827,47.824Z" transform="translate(-330.089 -39.129)" fill="#6bbd00"/>
        </g>
      </g>
      <g id="Grupo_594" data-name="Grupo 594" transform="translate(100.645 44.946)">
        <rect id="Rectángulo_227" data-name="Rectángulo 227" width="38.738" height="11.648" transform="translate(0 8.696)" fill="#308d00"/>
        <g id="Grupo_593" data-name="Grupo 593" transform="translate(0)">
          <path id="Trazado_17171" data-name="Trazado 17171" d="M380.033,65.466c0,4.8-8.672,8.695-19.369,8.695s-19.369-3.892-19.369-8.695,8.672-8.7,19.369-8.7S380.033,60.663,380.033,65.466Z" transform="translate(-341.295 -45.122)" fill="#308d00"/>
          <path id="Trazado_17172" data-name="Trazado 17172" d="M380.033,61.833c0,4.8-8.672,8.7-19.369,8.7s-19.369-3.895-19.369-8.7,8.672-8.695,19.369-8.695S380.033,57.03,380.033,61.833Z" transform="translate(-341.295 -53.138)" fill="#6bbd00"/>
        </g>
      </g>
      <g id="Grupo_596" data-name="Grupo 596" transform="translate(134.214 24.663)">
        <rect id="Rectángulo_228" data-name="Rectángulo 228" width="38.738" height="11.648" transform="translate(0.002 8.696)" fill="#308d00"/>
        <g id="Grupo_595" data-name="Grupo 595">
          <path id="Trazado_17173" data-name="Trazado 17173" d="M390.5,59.144c0,4.8-8.672,8.695-19.372,8.695s-19.369-3.892-19.369-8.695,8.672-8.7,19.369-8.7S390.5,54.341,390.5,59.144Z" transform="translate(-351.758 -38.8)" fill="#308d00"/>
          <path id="Trazado_17174" data-name="Trazado 17174" d="M390.5,55.511c0,4.8-8.672,8.7-19.372,8.7s-19.369-3.895-19.369-8.7,8.672-8.695,19.369-8.695S390.5,50.708,390.5,55.511Z" transform="translate(-351.758 -46.816)" fill="#6bbd00"/>
        </g>
      </g>
    </g>
  </g>
</svg>
