<svg xmlns="http://www.w3.org/2000/svg" width="106" height="106" viewBox="0 0 106 106">
  <g id="Grupo_1168" data-name="Grupo 1168" transform="translate(-140 -2951)">
    <circle id="Elipse_9" data-name="Elipse 9" cx="53" cy="53" r="53" transform="translate(140 2951)" fill="#ffc800"/>
    <path id="Trazado_17477" data-name="Trazado 17477" d="M-1207.739,990.837c.252,0,.329.077.329.328v3.778a.645.645,0,0,0,.645.645h9.015a1.128,1.128,0,0,1,1.183,1.06v.041a45.157,45.157,0,0,1-.647,7.487c-.832,4.8-2.4,8.484-4.528,10.662l-.012.012a7.922,7.922,0,0,1-5.2,2.6.646.646,0,0,0-.567.546,13.786,13.786,0,0,1-10.353,11.284.645.645,0,0,0-.495.627v2.316a.645.645,0,0,0,.645.645,5.557,5.557,0,0,0,1.274-.178.766.766,0,0,1,.151.388,1.126,1.126,0,0,1-1.18,1.058h-.732a.645.645,0,0,0-.645.645v9.5a.645.645,0,0,0,.645.645h.732a1.138,1.138,0,0,1,1.179.9h-10.646c.02-.526.511-.9,1.181-.9h.609a.645.645,0,0,0,.645-.645v-9.5a.645.645,0,0,0-.645-.645h-.609a1.054,1.054,0,0,1-1.182-1.058,1.016,1.016,0,0,1,.076-.4c.2.039.413.077.618.114.329.06.669.122.97.182a.652.652,0,0,0,.127.013h.244a.645.645,0,0,0,.645-.645v-2.438a.645.645,0,0,0-.5-.628A13.8,13.8,0,0,1-1235.243,1018a.645.645,0,0,0-.562-.546,8.214,8.214,0,0,1-5.209-2.6l-.011-.012c-2.13-2.178-3.7-5.865-4.529-10.662a45.165,45.165,0,0,1-.647-7.487v-.041a1.128,1.128,0,0,1,1.183-1.06h9.013a.645.645,0,0,0,.645-.645v-3.778a.318.318,0,0,1,.331-.328h27.291m-16.58,12.478h-7.055a.645.645,0,0,0-.618.461.645.645,0,0,0,.266.724l5.676,3.708-2.154,6.011a.645.645,0,0,0,.208.725.645.645,0,0,0,.4.138.646.646,0,0,0,.355-.106l5.795-3.823,5.674,3.82a.644.644,0,0,0,.36.11.644.644,0,0,0,.4-.136.645.645,0,0,0,.211-.727l-2.156-6.011,5.677-3.708a.645.645,0,0,0,.265-.724.644.644,0,0,0-.618-.461h-7.055l-2.205-6.153a.645.645,0,0,0-.607-.427.644.644,0,0,0-.607.427l-2.206,6.153m17.189,13.593a.641.641,0,0,0,.139-.015,6.6,6.6,0,0,0,3.364-1.879l.008-.009c3.81-3.96,4.267-12.924,4.321-14.681a.645.645,0,0,0-.182-.469.645.645,0,0,0-.463-.2h-7.187a.645.645,0,0,0-.645.645v15.959a.644.644,0,0,0,.241.5.645.645,0,0,0,.4.142m-32.635-1.91a5.777,5.777,0,0,0,3.389,1.9.645.645,0,0,0,.126.013.644.644,0,0,0,.409-.146.645.645,0,0,0,.236-.5V1000.3a.645.645,0,0,0-.645-.645h-7.309a.644.644,0,0,0-.469.2.644.644,0,0,0-.174.481c.544,8.965,2.709,12.917,4.437,14.655m9.159,33.166h0m17.836.057v.939a1.32,1.32,0,0,0,1.375,1.254h1.791v5.9h-24.172v-5.9h1.791a1.321,1.321,0,0,0,1.377-1.254v-.939h17.837m-21,2.136h0m26.035-60.164h-27.291a.961.961,0,0,0-.976.973v3.778h-9.013a1.77,1.77,0,0,0-1.828,1.705c0,.609-.123,13.036,5.359,18.641a8.859,8.859,0,0,0,5.606,2.8,14.435,14.435,0,0,0,10.964,11.816v2.438h-.244c-.609-.122-1.339-.244-1.95-.366a1.323,1.323,0,0,0-.486,1.1,1.7,1.7,0,0,0,1.827,1.7h.609v9.5h-.609a1.677,1.677,0,0,0-1.827,1.582v.611h11.816a1.11,1.11,0,0,0,.122-.611,1.755,1.755,0,0,0-1.825-1.582h-.732v-9.5h.732a1.768,1.768,0,0,0,1.825-1.7,1.456,1.456,0,0,0-.608-1.1,6.083,6.083,0,0,1-1.461.244v-2.316a14.463,14.463,0,0,0,10.841-11.816,8.578,8.578,0,0,0,5.606-2.8c5.482-5.6,5.359-18.032,5.359-18.641a1.77,1.77,0,0,0-1.828-1.705h-9.015v-3.778a.9.9,0,0,0-.974-.973Zm-17.666,17.666-5.969-3.9h7.553v-.122l2.315-6.458,2.314,6.458v.122h7.553l-5.969,3.9h-.121v.122l2.315,6.455-5.97-4.019h-.122l-6.092,4.019,2.313-6.455v-.122Zm18.275,8.4V1000.3h7.187c-.121,4.02-1.095,11.087-4.14,14.253a5.924,5.924,0,0,1-3.047,1.706Zm-29.119,0a5.11,5.11,0,0,1-3.044-1.706c-3.167-3.166-4.021-10.233-4.265-14.253h7.309v15.959Zm23.516,31.313h-17.91a.575.575,0,0,0-.609.609v.975a.683.683,0,0,1-.732.609h-1.825a.575.575,0,0,0-.611.608v6.092a.558.558,0,0,0,.611.488h24.243a.557.557,0,0,0,.608-.488v-6.092a.575.575,0,0,0-.608-.608h-1.828a.681.681,0,0,1-.73-.609v-.975a.575.575,0,0,0-.608-.609Z" transform="translate(1414.374 1980.529)" stroke="#000" stroke-width="1"/>
  </g>
</svg>
