<svg xmlns="http://www.w3.org/2000/svg" width="106" height="106" viewBox="0 0 106 106">
  <g id="Grupo_1167" data-name="Grupo 1167" transform="translate(-141 -1224)">
    <g id="Grupo_712" data-name="Grupo 712" transform="translate(-20)">
      <circle id="Elipse_9" data-name="Elipse 9" cx="53" cy="53" r="53" transform="translate(161 1224)" fill="#ffc800"/>
      <g id="Grupo_711" data-name="Grupo 711" transform="translate(499.229 1159)">
        <rect id="Rectángulo_273" data-name="Rectángulo 273" width="60.5" height="53.5" rx="13.362" transform="translate(-315.229 93)" fill="none" stroke="#000" stroke-miterlimit="10" stroke-width="2"/>
        <g id="Grupo_709" data-name="Grupo 709">
          <circle id="Elipse_10" data-name="Elipse 10" cx="3" cy="3" r="3" transform="translate(-296.479 114)"/>
          <circle id="Elipse_11" data-name="Elipse 11" cx="3" cy="3" r="3" transform="translate(-279.479 114)"/>
          <path id="Trazado_17295" data-name="Trazado 17295" d="M-296.479,127s3,6,12,6,11-6,11-6" fill="none" stroke="#000" stroke-linecap="round" stroke-linejoin="round" stroke-width="2.835"/>
        </g>
        <g id="Grupo_710" data-name="Grupo 710">
          <path id="Trazado_17296" data-name="Trazado 17296" d="M-300.979,151.511a1.988,1.988,0,0,0,1.988,1.989h28.023a1.988,1.988,0,0,0,1.989-1.989V146.5h-32Z" fill="none" stroke="#000" stroke-miterlimit="10" stroke-width="2"/>
        </g>
        <path id="Trazado_17297" data-name="Trazado 17297" d="M-270.979,85a2,2,0,0,0-2-2h-24a2,2,0,0,0-2,2v8h28Z" fill="none" stroke="#000" stroke-miterlimit="10" stroke-width="2"/>
      </g>
    </g>
  </g>
</svg>
