<svg id="Grupo_729" data-name="Grupo 729" xmlns="http://www.w3.org/2000/svg" width="182.729" height="215.735" viewBox="0 0 182.729 215.735">
  <path id="Trazado_17320" data-name="Trazado 17320" d="M-1228.918,221.6c3.435,0,6.462-.009,9.487,0,15.991.061,30.73,14.768,30.736,30.708q.021,52.517,0,105.033c0,13.564-10.476,26.763-23.684,29.88-2.205.52-4.439.911-7.141,1.46,0,3.39.038,6.8-.009,10.215-.061,4.3-2.035,6.282-6.366,6.285q-51.56.025-103.118-.006c-4.26,0-6.23-2.061-6.31-6.368-.06-3.186.96-7.087-.527-9.32-1.083-1.625-5.482-.983-8.384-1.467a32.019,32.019,0,0,1-27.174-32.139q0-50.985.012-101.968c.015-18.281,13.97-32.24,32.2-32.3.383,0,.767-.006,1.15-.008,10.287-.026,10.29-.026,10.286-10.119,0-3.577-.034-7.156-.021-10.733.024-6.512,4.962-11.152,11.466-11.147,21.97.011,43.94-.087,65.91-.136,3.306-.006,6.616-.029,9.921.063,7.041.2,11.5,4.852,11.555,12.072C-1228.88,208.086-1228.918,214.568-1228.918,221.6Zm-50.625,4.139h-28.743q-14.564,0-29.126,0c-18.27-.032-29.819,11.284-29.848,29.486q-.083,50.4.006,100.792c.021,15.794,11.525,27.961,27.378,28.06q59.782.377,119.568.026c15.967-.089,27.518-12.339,27.528-28.258.02-33.725.091-67.451-.072-101.174a31.715,31.715,0,0,0-2.216-11.9c-4.894-11.6-14.176-16.97-26.611-17C-1240.967,225.717-1260.255,225.752-1279.543,225.743Zm1.185-4.278v-.02c13.786,0,27.573-.08,41.358.061,3.031.032,4.071-.868,3.935-3.924-.224-4.968-.063-9.953-.072-14.932-.015-6.837-1.849-8.792-8.575-8.808q-37.146-.08-74.292-.066c-5.171,0-7.609,2.556-7.644,7.868-.036,5.233.207,10.48-.1,15.7-.208,3.559,1.2,4.226,4.412,4.189C-1305.677,221.376-1292.017,221.465-1278.358,221.465Zm-52.517,167.12c0,2.8.057,5.092-.011,7.375-.152,5.1-.176,5.1,4.876,5.1q46.884,0,93.769-.021c10.276-.012,8.318,1.19,8.57-8.791.072-2.9-.667-3.965-3.843-3.954-33.042.124-66.084.077-99.127.087C-1327.888,388.381-1329.134,388.5-1330.875,388.585Z" transform="translate(1371.414 -189.464)"/>
  <path id="Trazado_17342" data-name="Trazado 17342" d="M-1280.976,213.13c19.288,0,38.576-.031,57.864.017,12.435.032,21.717,5.407,26.611,17a31.716,31.716,0,0,1,2.216,11.9c.163,33.723.092,67.449.072,101.174-.011,15.919-11.562,28.169-27.528,28.258q-59.782.331-119.568-.026c-15.853-.1-27.357-12.267-27.378-28.06q-.069-50.4-.006-100.792c.029-18.2,11.578-29.519,29.848-29.486q14.564.028,29.126,0Q-1295.348,213.126-1280.976,213.13Zm39.9,69.962c.465-5.879-1.392-10.991-5.571-14.265-2.781-2.179-5.842-3.37-9.554-1.8a15.713,15.713,0,0,0-9.148,14.639c.121,6.457,2.4,12.08,8.539,15.05a9.509,9.509,0,0,0,6.583.353C-1243.749,294.844-1241.533,289.456-1241.072,283.093Zm-80.409-.984a21.159,21.159,0,0,0,6.152,12.8,9.425,9.425,0,0,0,13.394-.129,18.05,18.05,0,0,0,2.367-23.028c-4.887-6.945-13.639-7.188-17.988-.135C-1319.478,274.734-1320.21,278.588-1321.481,282.108Zm41.953,57.812c9.493.583,15.721-1.694,22.247-4.974a33.269,33.269,0,0,0,7.1-5.083c.813-.73.758-2.423,1.1-3.677-1.311-.072-2.749-.527-3.91-.143-2.76.912-5.3,2.509-8.084,3.323-15.743,4.6-31.127,3.905-46.041-3.384-.929-.454-2.335.067-3.519.136.253,1.119.207,2.46.831,3.306a13.354,13.354,0,0,0,3.431,2.984C-1298.185,337.847-1289.251,340.673-1279.528,339.92Zm-51.144-67.086c1.5-2.45,2.671-3.9,3.332-5.554,1.188-2.976,3.031-4.954,6.314-5.338,3.915-.458,7.828-.949,11.749-1.348,6.629-.676,12.043-3.927,16.694-8.357,2.219-2.114,3.076-5-.215-7.84a30.1,30.1,0,0,0-3.309,2.427c-4.149,3.984-8.849,6.721-14.722,7.213-3.925.33-7.84.81-11.742,1.343a9.3,9.3,0,0,0-3.93,1.173C-1329.661,258.729-1332.141,267.3-1330.672,272.834Zm93.11-10.565c2.864.072,5.051,1.1,5.693,4.625.181,1,1.811,1.727,2.776,2.578.44-.524,1.162-1,1.273-1.582,1.081-5.735-3.961-12.009-9.8-12.281-1.273-.06-2.55-.094-3.822-.049-8.807.308-17.29-.363-24.159-6.96-.574-.55-2.621-.377-3.3.227s-1.047,2.622-.563,3.231c1.783,2.234,3.659,4.714,6.077,6.063C-1255.448,262.546-1246.756,263.374-1237.562,262.27Zm28.692,22.1c-3.478-5.491-10.159-7.029-16.109-4.12-1.779.868-3.068,2.732-4.582,4.142,1.25,1.216,2.5,2.436,3.754,3.645.275.262.6.474.888.721,3.534,3,7.067,6.011,10.669,9.074,2.52-2.047,1.468-4.191.486-6.245-1.009-2.116-2.165-4.16-3.375-6.462Zm-143.321-.429c1.49.192,2.439.4,3.392.422,4.621.106,4.434,0,2.5,4.281-1.223,2.7-3.356,5.462-1.55,9.028a12.191,12.191,0,0,0,1.47-.828c4.375-3.426,8.809-6.785,13.027-10.4a3.505,3.505,0,0,0,.243-3.409C-1337.092,277.779-1347.812,278.036-1352.191,283.937Z" transform="translate(1372.847 -176.847)" fill="#ffc800"/>
  <path id="Trazado_17343" data-name="Trazado 17343" d="M-1294.931,219.965c-13.659,0-27.32-.089-40.977.066-3.211.037-4.62-.63-4.411-4.189.3-5.216.063-10.464.1-15.7.035-5.312,2.473-7.866,7.644-7.868q37.145-.007,74.292.066c6.725.015,8.559,1.97,8.575,8.808.009,4.979-.152,9.964.072,14.932.136,3.056-.9,3.956-3.935,3.924-13.785-.141-27.571-.061-41.358-.061Z" transform="translate(1387.988 -187.965)" fill="#ffc800"/>
  <path id="Trazado_17344" data-name="Trazado 17344" d="M-1344.957,319.426c1.74-.087,2.987-.2,4.235-.205,33.042-.011,66.084.037,99.127-.087,3.176-.011,3.915,1.056,3.843,3.954-.251,9.981,1.707,8.778-8.57,8.791q-46.884.057-93.769.021c-5.052,0-5.028,0-4.876-5.1C-1344.9,324.518-1344.957,322.23-1344.957,319.426Z" transform="translate(1385.496 -120.305)" fill="#ffc800"/>
  <path id="Trazado_17409" data-name="Trazado 17409" d="M-1277.026,264.594c-.466,6.36-2.682,11.749-9.156,13.978a9.51,9.51,0,0,1-6.583-.353c-6.143-2.97-8.418-8.593-8.539-15.05a15.713,15.713,0,0,1,9.148-14.639c3.712-1.575,6.773-.383,9.554,1.8C-1278.423,253.6-1276.566,258.712-1277.026,264.594Zm-7.659-5.12c.074-3.935-2.59-8.035-4.164-7.155a10.966,10.966,0,0,0-4.668,5.335c-.863,2.369,2.309,6.2,4.415,6.051A4.341,4.341,0,0,0-1284.686,259.474Z" transform="translate(1408.806 -158.346)"/>
  <path id="Trazado_17410" data-name="Trazado 17410" d="M-1337.915,263.564c1.271-3.521,2-7.374,3.925-10.493,4.349-7.053,13.1-6.81,17.988.135a18.05,18.05,0,0,1-2.367,23.028,9.425,9.425,0,0,1-13.394.129A21.158,21.158,0,0,1-1337.915,263.564Zm8.334-5.591c-.091,3.2,1.133,5.236,4.129,5.644,2.5.34,4.85-2.312,4.872-5.17s-2.913-6.85-4.905-6.224A5.543,5.543,0,0,0-1329.581,257.974Z" transform="translate(1389.281 -158.303)"/>
  <path id="Trazado_17411" data-name="Trazado 17411" d="M-1299.736,300.727c-9.723.753-18.656-2.073-26.842-7.512a13.357,13.357,0,0,1-3.431-2.984c-.624-.846-.578-2.187-.831-3.306,1.184-.069,2.59-.59,3.519-.136,14.914,7.29,30.3,7.989,46.041,3.384,2.78-.814,5.324-2.41,8.084-3.323,1.161-.385,2.6.071,3.91.143-.34,1.254-.285,2.947-1.1,3.677a33.273,33.273,0,0,1-7.1,5.083C-1284.014,299.033-1290.243,301.31-1299.736,300.727Z" transform="translate(1393.054 -137.654)"/>
  <path id="Trazado_17412" data-name="Trazado 17412" d="M-1343.758,261.955c-1.469-5.532,1.011-14.105,4.171-16.28a9.3,9.3,0,0,1,3.93-1.173c3.9-.534,7.817-1.014,11.742-1.343,5.873-.492,10.573-3.229,14.722-7.213a30.093,30.093,0,0,1,3.309-2.427c3.291,2.838,2.433,5.726.215,7.84-4.651,4.43-10.065,7.681-16.694,8.357-3.921.4-7.834.889-11.749,1.348-3.283.383-5.126,2.361-6.314,5.338C-1341.087,258.056-1342.26,259.5-1343.758,261.955Z" transform="translate(1385.933 -165.968)"/>
  <path id="Trazado_17413" data-name="Trazado 17413" d="M-1272.013,250.044c-9.194,1.1-17.886.276-25.824-4.149-2.418-1.349-4.294-3.829-6.077-6.063-.484-.609-.109-2.634.563-3.231s2.728-.777,3.3-.227c6.869,6.6,15.352,7.268,24.159,6.96,1.273-.044,2.55-.011,3.823.049,5.836.271,10.878,6.546,9.8,12.281-.11.587-.833,1.058-1.273,1.582-.965-.851-2.595-1.582-2.776-2.578C-1266.962,251.144-1269.149,250.116-1272.013,250.044Z" transform="translate(1407.298 -164.622)"/>
  <path id="Trazado_17414" data-name="Trazado 17414" d="M-1257.277,261.521l-8.269.754c1.21,2.3,2.366,4.346,3.375,6.462.981,2.055,2.033,4.2-.486,6.245-3.6-3.064-7.135-6.071-10.669-9.074-.29-.247-.613-.458-.888-.721-1.257-1.208-2.5-2.429-3.754-3.645,1.513-1.409,2.8-3.274,4.582-4.142C-1267.435,254.492-1260.754,256.03-1257.277,261.521Z" transform="translate(1421.254 -154.001)"/>
  <path id="Trazado_17415" data-name="Trazado 17415" d="M-1357.943,260.921c4.379-5.9,15.1-6.158,19.078-.9a3.5,3.5,0,0,1-.243,3.409c-4.218,3.611-8.653,6.971-13.027,10.4a12.2,12.2,0,0,1-1.47.828c-1.806-3.567.327-6.327,1.55-9.028,1.938-4.278,2.125-4.175-2.5-4.281C-1355.5,261.32-1356.452,261.113-1357.943,260.921Z" transform="translate(1378.599 -153.831)"/>
  <path id="Trazado_17444" data-name="Trazado 17444" d="M-1287.344,257.948a4.341,4.341,0,0,1-4.417,4.23c-2.105.146-5.278-3.682-4.415-6.051a10.967,10.967,0,0,1,4.668-5.335C-1289.934,249.913-1287.271,254.013-1287.344,257.948Z" transform="translate(1411.465 -156.819)" fill="#fff"/>
  <path id="Trazado_17445" data-name="Trazado 17445" d="M-1332.478,256.489a5.543,5.543,0,0,1,4.1-5.75c1.992-.626,4.927,3.375,4.905,6.224s-2.375,5.511-4.872,5.17C-1331.344,261.725-1332.568,259.69-1332.478,256.489Z" transform="translate(1392.177 -156.818)" fill="#fff"/>
</svg>
