<svg xmlns="http://www.w3.org/2000/svg" width="183.139" height="215.735" viewBox="0 0 183.139 215.735">
  <g id="Grupo_731" data-name="Grupo 731" transform="translate(0 0)">
    <path id="Trazado_17318" data-name="Trazado 17318" d="M-1514.387,392.177c0-7.016-.008-13.5,0-19.993.011-7.278,4.348-11.657,11.632-11.663q37.945-.032,75.89-.018c6.661,0,11.2,4.528,11.305,11.305.072,4.471-.029,8.944.028,13.415.1,8.071-1.1,6.905,6.818,6.933a33.43,33.43,0,0,1,21.349,7.172c7.663,6.12,12.005,14.138,12.024,24.093.061,34.111-.388,68.232.216,102.332.27,15.206-10.691,30.657-27.078,32.949-3.388.472-4.27,1.813-3.956,4.9a52.475,52.475,0,0,1,.051,6.894,5.666,5.666,0,0,1-5.5,5.7c-.888.072-1.787.018-2.681.018q-49.828,0-99.653-.006c-6.183,0-8.019-1.844-7.985-7.954.048-8.4.048-8.4-8.221-9.381A32.182,32.182,0,0,1-1558.1,527.4c-.012-33.728.362-67.462-.149-101.184-.259-17.214,12.854-34.162,33.6-34.045C-1521.474,392.193-1518.3,392.177-1514.387,392.177Zm48.133,162.7v.051c2.81,0,5.62,0,8.431,0,17.116-.038,34.236.129,51.346-.183,14.948-.273,26.961-12.04,27.018-26.409q.209-52.117-.015-104.236c-.08-15.586-12.48-27.419-28.091-27.424q-59.205-.016-118.411-.008a27.805,27.805,0,0,0-27.832,27.735c-.026,33.852.143,67.7-.071,101.553-.1,15.961,11.9,28.992,28.614,28.936C-1505.593,554.824-1485.924,554.873-1466.253,554.873Zm-43.719-163.2a11.55,11.55,0,0,0,1.7.351q42.74.037,85.481.1c2.511.008,2.98-1.1,2.947-3.252-.088-5.62.018-11.244-.04-16.865-.054-4.96-2.419-7.279-7.316-7.262-14.308.048-28.617.13-42.926.176-11.115.035-22.232-.017-33.346.08-4.224.037-6.3,1.669-6.431,5.492C-1510.141,377.481-1509.973,384.49-1509.973,391.671Zm46.078,167.731v-.015q-23.175,0-46.351,0c-7.158,0-7.158,0-7.184,7.022-.02,5.4-.02,5.382,5.486,5.379q46.543-.018,93.087-.02c9.983,0,8.012,1.032,8.4-8.209.147-3.517-1.161-4.25-4.4-4.223C-1431.2,559.481-1447.549,559.4-1463.895,559.4Z" transform="translate(1558.257 -360.5)"/>
    <path id="Trazado_17336" data-name="Trazado 17336" d="M-1467.777,542.29c-19.671,0-39.34-.049-59.011.015-16.718.055-28.714-12.976-28.614-28.936.213-33.849.044-67.7.07-101.553A27.805,27.805,0,0,1-1527.5,384.08q59.206-.021,118.411.008c15.611,0,28.011,11.838,28.091,27.424q.267,52.117.015,104.236c-.057,14.368-12.069,26.136-27.018,26.409-17.111.311-34.231.144-51.346.183-2.812.006-5.621,0-8.431,0Zm25.436-57.443c8.485,1.994,14.333-2.118,18.6-9.468,2.649-4.566,2.48-9.536,2.443-14.528-.042-5.462.457-5.634,5.749-6.282,9.218-1.129,18.4-2.578,27.571-4.051,2.621-.42,3.608-3.526,2.856-7.348-.532-2.706-2.447-2.265-4.154-1.879-8.807,1.991-17.615,3.983-26.375,6.174-6.919,1.73-6.994,1.79-8.009-5.121-1.448-9.847-6.729-12.848-15.962-9.1-5.4,2.19-10.856,4.255-16.213,6.549a8.658,8.658,0,0,0-3.479,2.778c-1.676,2.342-2.468,5.884-4.653,7.138-2.238,1.287-7.371,1.635-8.339.3-3.569-4.934-6.865-9.37-13.609-9.769-1.516-.09-2.965-1.4-4.434-2.173-2.485-1.3-4.906-2.739-7.454-3.9-7.335-3.337-14.678,1.219-14.9,9.166-.122,4.324-1.88,5.738-6.051,4.785-9.563-2.183-19.1-4.466-28.7-6.5-1.135-.241-3.278.445-3.7,1.31-1.945,4.011.238,7.244,4.727,7.876q10.765,1.516,21.488,3.331c2.94.5,7.021.42,8.417,2.253,1.609,2.112.8,6.051,1.078,9.192.727,8.281,3.853,15.453,11.913,18.56,3.945,1.52,8.788.759,13.229.933,7.232.282,13.028-3,15.977-9.184,1.959-4.1,1.825-9.312,2.132-14.057.19-2.926,1.427-3.762,4.02-3.764,2.812,0,3.091,1.663,3.37,3.986.586,4.857.494,10.264,2.7,14.355C-1458.168,483.686-1450.971,486.109-1442.341,484.847Zm-24.918,22.879c.638,0,1.276,0,1.914,0,8.054-.014,15.335-2.276,21.453-7.643.7-.617.808-1.916,1.19-2.9a9.725,9.725,0,0,0-3.1-.066c-2.416.762-4.687,2.009-7.123,2.681-12.238,3.376-24.188,2.686-35.77-2.788-.753-.354-1.811-.063-2.729-.072a9.437,9.437,0,0,0,.847,3.011,9.126,9.126,0,0,0,2.651,2.13A34.439,34.439,0,0,0-1467.259,507.726Zm51.342,6.445-1.6-.026c-.946,1.365-2.792,2.873-2.6,4.057a5.15,5.15,0,0,0,3.532,3.331c.931.155,3.1-1.986,3.176-3.2C-1413.329,517.007-1415.007,515.564-1415.917,514.171Zm8.693-11.983c-1.756,2.466-3.471,3.828-3.471,5.19,0,1.213,2.062,3.526,2.917,3.4,1.463-.222,3.526-1.811,3.782-3.129C-1403.758,506.431-1405.564,504.818-1407.223,502.188Zm-135.97-2.675q.81-.025,1.617-.049c.851-1.454,2.451-2.977,2.323-4.339-.109-1.167-2.241-3.032-3.394-2.972-1.2.061-3.2,2.037-3.225,3.209C-1545.9,496.726-1544.164,498.128-1543.193,499.513Zm139.238,34.019-.052-1.615c-1.456-.857-2.979-2.468-4.342-2.344-1.167.107-3.035,2.25-2.974,3.408.063,1.213,2.037,3.227,3.207,3.25C-1406.746,536.256-1405.344,534.509-1403.955,533.532Zm-16-1.1c-2.02-1.684-3.377-3.657-4.474-3.52-1.414.175-2.621,2.037-3.916,3.172,1.2,1.233,2.247,3.186,3.637,3.471C-1423.613,535.773-1422.1,533.931-1419.951,532.427Zm-104.717-42.084c-1.534,2.44-3.192,3.92-3.1,5.287.075,1.186,2.13,2.244,3.311,3.357,1.174-1.255,3.057-2.393,3.292-3.805C-1520.988,494.1-1522.887,492.673-1524.668,490.344Zm51.354,41.875c-2.322-1.65-3.718-3.4-5.092-3.387-1.159.015-3.348,2.262-3.189,3.2a5.246,5.246,0,0,0,3.387,3.5C-1477.141,535.759-1475.642,533.891-1473.314,532.219Zm54.305-24.315c-2.483-1.572-3.974-3.252-5.345-3.16-1.177.078-3.265,2.4-3.069,3.339a5.2,5.2,0,0,0,3.56,3.284C-1422.76,511.536-1421.346,509.668-1419.009,507.9Zm-33.236,5.141c-1.656,2.436-3.388,3.867-3.322,5.212.058,1.227,2.061,2.362,3.209,3.537,1.209-1.236,3.1-2.325,3.405-3.756C-1448.724,516.979-1450.548,515.478-1452.244,513.045Zm-84.384,7.029c-2.546-1.663-4.089-3.456-5.344-3.273-1.3.19-3.026,2.2-3.219,3.6-.127.931,2.091,3.051,3.285,3.071C-1540.532,523.492-1539.127,521.786-1536.628,520.074Zm55.351.058c-2.333-1.663-3.828-3.526-4.939-3.319-1.407.262-2.5,2.207-3.727,3.426,1.166,1.158,2.319,3.219,3.5,3.238C-1485.041,523.5-1483.616,521.754-1481.277,520.133Zm18.471,15.816c1.627-2.446,3.422-3.989,3.175-5.061-.319-1.388-2.267-2.4-3.514-3.575-1.109,1.184-3.094,2.364-3.1,3.551C-1466.248,532.228-1464.5,533.6-1462.806,535.949Zm27.436-21.261-1.577-.014c-.934,1.434-2.62,2.9-2.568,4.293.044,1.161,2.118,3.1,3.321,3.118,1.169.021,3.281-1.917,3.33-3.066C-1432.8,517.614-1434.457,516.134-1435.37,514.688Zm-89.028,8.252,1.566-.087c.856-1.471,2.475-3.018,2.336-4.387-.119-1.167-2.3-2.985-3.5-2.933-1.173.051-3.15,2.1-3.15,3.278C-1527.145,520.188-1525.392,521.564-1524.4,522.94Zm9.939,14.118c1.577-2.087,3.46-3.514,3.288-4.618-.222-1.423-2.091-2.591-3.25-3.868-1.2,1.261-3.121,2.393-3.377,3.824C-1517.991,533.478-1516.067,534.941-1514.459,537.058Zm126.017-22.533c1.486-2.428,3.126-3.925,3.025-5.293-.089-1.2-2.126-2.262-3.3-3.383-1.164,1.279-3.04,2.448-3.259,3.873C-1392.148,510.817-1390.228,512.232-1388.442,514.525Zm-138.87-7.255c-2.554-1.612-4.15-3.407-5.4-3.193-1.314.224-3.02,2.3-3.175,3.713-.1.948,2.2,3.02,3.428,3.02C-1531.094,510.812-1529.723,509.036-1527.312,507.27Zm88.832,25.073c-2.314-1.7-3.681-3.477-5.043-3.474-1.184,0-3.44,2.195-3.293,3.1a5.3,5.3,0,0,0,3.336,3.568C-1442.42,535.788-1440.879,533.969-1438.48,532.343Zm26.073-38.259c-2.373-1.693-3.888-3.568-4.954-3.341a5.37,5.37,0,0,0-3.405,3.543c-.172.877,2.068,3.11,3.264,3.141C-1416.142,497.462-1414.739,495.718-1412.408,494.085Zm-86.212,25.655c-2.3-1.807-3.7-3.733-4.81-3.577-1.423.2-2.609,2.077-3.9,3.23,1.113,1.189,2.156,3.241,3.356,3.336C-1502.6,522.84-1501.081,521.214-1498.62,519.74Zm2.063,6.716c-1.534,2.437-3.2,3.919-3.1,5.275.087,1.209,2.126,2.276,3.3,3.405,1.185-1.267,3.074-2.411,3.325-3.842C-1492.844,530.223-1494.767,528.782-1496.557,526.456Zm-12.158-18.313c-2.348-1.678-3.741-3.437-5.1-3.411-1.178.025-3.376,2.245-3.221,3.183a5.272,5.272,0,0,0,3.379,3.508C-1512.6,511.656-1511.092,509.815-1508.715,508.143Zm-42.55,4.828c1.6-2.117,3.459-3.529,3.278-4.6-.242-1.428-2.064-2.589-3.209-3.864-1.2,1.249-3.081,2.361-3.368,3.792C-1554.773,509.349-1552.879,510.815-1551.265,512.971Zm158.354,5.5c-2.521-1.5-4.06-3.146-5.428-3.015-1.193.114-2.2,2.229-3.284,3.459,1.3,1.109,2.512,2.931,3.923,3.1C-1396.576,522.154-1395.208,520.274-1392.912,518.476Zm-3.735-18.867c1.6-2.126,3.5-3.581,3.3-4.669-.249-1.4-2.169-2.512-3.368-3.749-1.143,1.259-3,2.414-3.2,3.808C-1400.071,496.117-1398.217,497.522-1396.646,499.609Z" transform="translate(1559.78 -347.916)" fill="#ffc800" style="isolation: isolate"/>
    <path id="Trazado_17337" data-name="Trazado 17337" d="M-1526.756,390.2c0-7.181-.169-14.19.068-21.185.13-3.824,2.207-5.456,6.431-5.492,11.114-.1,22.23-.044,33.346-.08,14.309-.046,28.617-.129,42.926-.176,4.9-.017,7.262,2.3,7.316,7.262.058,5.621-.048,11.246.04,16.865.034,2.153-.436,3.259-2.946,3.252q-42.739-.122-85.481-.1A11.547,11.547,0,0,1-1526.756,390.2Z" transform="translate(1575.04 -359.025)" fill="#ffc800" style="isolation: isolate"/>
    <path id="Trazado_17338" data-name="Trazado 17338" d="M-1478.1,490.2c16.346,0,32.691.078,49.033-.066,3.24-.028,4.548.706,4.4,4.223-.383,9.241,1.588,8.212-8.4,8.209q-46.543-.018-93.087.02c-5.506,0-5.506.017-5.486-5.379.026-7.026.026-7.023,7.184-7.022q23.174,0,46.351,0Z" transform="translate(1572.464 -291.301)" fill="#ffc800" style="isolation: isolate"/>
    <path id="Trazado_17379" data-name="Trazado 17379" d="M-1443.571,468.278c-8.631,1.262-15.827-1.161-19.76-8.448-2.207-4.091-2.115-9.5-2.7-14.355-.279-2.324-.558-3.986-3.37-3.986-2.594,0-3.83.837-4.02,3.764-.307,4.745-.173,9.953-2.132,14.057-2.949,6.181-8.745,9.467-15.977,9.184-4.44-.173-9.284.587-13.229-.933-8.06-3.107-11.186-10.279-11.913-18.56-.276-3.141.531-7.08-1.078-9.192-1.4-1.833-5.477-1.758-8.417-2.253q-10.721-1.806-21.488-3.331c-4.49-.632-6.672-3.865-4.727-7.876.419-.865,2.561-1.551,3.7-1.31,9.594,2.037,19.135,4.321,28.7,6.5,4.17.953,5.928-.462,6.051-4.785.225-7.947,7.569-12.5,14.9-9.166,2.548,1.159,4.969,2.6,7.454,3.9,1.469.768,2.919,2.083,4.434,2.173,6.744.4,10.04,4.835,13.609,9.769.968,1.337,6.1.989,8.339-.3,2.186-1.255,2.977-4.8,4.653-7.138a8.66,8.66,0,0,1,3.479-2.778c5.357-2.295,10.811-4.359,16.213-6.549,9.234-3.744,14.514-.742,15.962,9.1,1.015,6.911,1.091,6.851,8.009,5.121,8.759-2.19,17.568-4.183,26.375-6.174,1.707-.386,3.621-.827,4.154,1.879.752,3.822-.235,6.928-2.856,7.348-9.172,1.472-18.353,2.922-27.571,4.051-5.292.649-5.79.821-5.749,6.282.037,4.992.206,9.962-2.443,14.528C-1429.238,466.16-1435.086,470.272-1443.571,468.278Zm-7.859-34.742c-7.268-1.094-9.054.354-9.121,7.778-.032,3.445.037,6.891.126,10.336a12.144,12.144,0,0,0,4.727,9.233c4.138,3.512,9.1,2.535,13.885,2.831,5.551.342,8.689-2.6,11.175-7.057,2.813-5.049,1.747-10.467,1.816-15.752.1-7.807-2.156-9.356-10.014-7.152a10.888,10.888,0,0,0,.934,2.456c2.929,4.255,2.7,8.928,1.813,13.641-.751,3.968-4.437,7.3-8.051,7.572a9,9,0,0,1-8.953-6.354,14.072,14.072,0,0,1-.98-5.974C-1453.539,441.282-1452.387,437.555-1451.43,433.537Zm-36.493.057a17.781,17.781,0,0,0,1.089,2.67c2.71,4.316,2.75,8.954,1.566,13.666-1.351,5.382-5.5,8.273-10.364,7.442-3.331-.569-6.429-3.919-7.3-8.006a17.848,17.848,0,0,1,4.063-16.3c-2.364,0-3.851.026-5.339,0-4.681-.094-5.578.684-5.749,5.447-.132,3.7-.155,7.41-.1,11.114.129,8.847,5.3,13.913,14.053,13.881,1.4,0,2.81.015,4.214.041a12.415,12.415,0,0,0,12.941-12.229q.17-5.17.121-10.347C-1478.793,434.032-1480.3,432.767-1487.923,433.593Zm35.259-7.023.221.805h23.694c-1.288-3.288-3.4-4.957-6.3-4.474C-1440.961,423.888-1446.8,425.32-1452.665,426.57Zm11.927,14.4c-.894-2.89-1.149-5.195-4.223-5.046-3.017.147-3.555,2.753-3.123,4.709.388,1.753,2.258,3.178,3.473,4.747Zm-58.109-.718c2.022,2.2,3.359,3.652,4.7,5.106,1.195-1.554,3.034-2.965,3.414-4.7.428-1.949-.112-4.928-3.039-4.569C-1495.358,436.291-1496.7,438.409-1498.847,440.256Zm6.691-12.631c-10.724-4.316-14.339-4.275-16.278,0Z" transform="translate(1561.01 -331.347)"/>
    <path id="Trazado_17380" data-name="Trazado 17380" d="M-1489.524,468.483a34.442,34.442,0,0,1-20.664-5.646,9.124,9.124,0,0,1-2.651-2.13,9.437,9.437,0,0,1-.847-3.011c.917.009,1.976-.282,2.729.072,11.582,5.474,23.531,6.164,35.77,2.788,2.435-.672,4.707-1.919,7.123-2.681a9.723,9.723,0,0,1,3.1.066c-.382.983-.486,2.282-1.19,2.9-6.118,5.367-13.4,7.629-21.453,7.643C-1488.25,468.485-1488.888,468.483-1489.524,468.483Z" transform="translate(1582.048 -308.673)"/>
    <path id="Trazado_17381" data-name="Trazado 17381" d="M-1462.991,468.9c.909,1.393,2.587,2.836,2.5,4.163-.08,1.213-2.245,3.354-3.176,3.2a5.151,5.151,0,0,1-3.532-3.331c-.189-1.184,1.657-2.692,2.6-4.057Z" transform="translate(1606.854 -302.649)"/>
    <path id="Trazado_17382" data-name="Trazado 17382" d="M-1457.584,461.082c1.66,2.63,3.465,4.244,3.229,5.459-.256,1.318-2.319,2.907-3.782,3.129-.856.129-2.919-2.184-2.917-3.4C-1461.055,464.91-1459.34,463.548-1457.584,461.082Z" transform="translate(1610.141 -306.811)"/>
    <path id="Trazado_17383" data-name="Trazado 17383" d="M-1546.51,461.9c-.971-1.385-2.707-2.787-2.679-4.152.025-1.172,2.021-3.147,3.225-3.209,1.154-.06,3.286,1.805,3.395,2.973.127,1.362-1.472,2.885-2.323,4.339Q-1545.7,461.874-1546.51,461.9Z" transform="translate(1563.097 -310.303)"/>
    <path id="Trazado_17384" data-name="Trazado 17384" d="M-1454.1,482.9c-1.39.977-2.791,2.724-4.161,2.7-1.17-.023-3.144-2.037-3.207-3.25-.062-1.158,1.807-3.3,2.974-3.408,1.364-.124,2.886,1.486,4.342,2.344Z" transform="translate(1609.921 -297.282)"/>
    <path id="Trazado_17385" data-name="Trazado 17385" d="M-1464.17,482.025c-2.15,1.5-3.663,3.345-4.753,3.123-1.39-.285-2.44-2.238-3.637-3.471,1.295-1.135,2.5-3,3.916-3.172C-1467.547,478.369-1466.19,480.341-1464.17,482.025Z" transform="translate(1604 -297.514)"/>
    <path id="Trazado_17386" data-name="Trazado 17386" d="M-1534.283,453.36c1.781,2.33,3.68,3.758,3.5,4.839-.235,1.413-2.118,2.551-3.292,3.805-1.181-1.114-3.236-2.172-3.311-3.357C-1537.475,457.28-1535.817,455.8-1534.283,453.36Z" transform="translate(1569.395 -310.932)"/>
    <path id="Trazado_17387" data-name="Trazado 17387" d="M-1499,481.841c-2.328,1.672-3.827,3.54-4.894,3.319a5.245,5.245,0,0,1-3.387-3.5c-.16-.94,2.029-3.187,3.189-3.2C-1502.715,478.436-1501.319,480.19-1499,481.841Z" transform="translate(1585.463 -297.538)"/>
    <path id="Trazado_17388" data-name="Trazado 17388" d="M-1463.543,465.91c-2.338,1.764-3.752,3.632-4.854,3.463a5.2,5.2,0,0,1-3.56-3.284c-.2-.934,1.893-3.261,3.069-3.339C-1467.517,462.658-1466.026,464.338-1463.543,465.91Z" transform="translate(1604.314 -305.922)"/>
    <path id="Trazado_17389" data-name="Trazado 17389" d="M-1486.988,468.161c1.7,2.433,3.52,3.934,3.291,4.992-.31,1.431-2.2,2.52-3.405,3.756-1.147-1.175-3.15-2.31-3.209-3.537C-1490.376,472.028-1488.645,470.6-1486.988,468.161Z" transform="translate(1594.524 -303.032)"/>
    <path id="Trazado_17390" data-name="Trazado 17390" d="M-1540.18,473.888c-2.5,1.712-3.9,3.417-5.278,3.393-1.195-.02-3.413-2.14-3.285-3.071.193-1.4,1.919-3.4,3.219-3.6C-1544.269,470.432-1542.726,472.225-1540.18,473.888Z" transform="translate(1563.332 -301.729)"/>
    <path id="Trazado_17391" data-name="Trazado 17391" d="M-1504.058,473.943c-2.339,1.621-3.764,3.367-5.163,3.345-1.184-.019-2.338-2.08-3.5-3.238,1.229-1.219,2.321-3.164,3.727-3.426C-1507.886,470.416-1506.391,472.28-1504.058,473.943Z" transform="translate(1582.561 -301.726)"/>
    <path id="Trazado_17392" data-name="Trazado 17392" d="M-1493.835,486.1c-1.695-2.351-3.442-3.721-3.436-5.086,0-1.187,1.988-2.367,3.1-3.551,1.247,1.175,3.195,2.187,3.514,3.575C-1490.414,482.11-1492.208,483.653-1493.835,486.1Z" transform="translate(1590.809 -298.067)"/>
    <path id="Trazado_17393" data-name="Trazado 17393" d="M-1475.7,469.237c.913,1.446,2.568,2.926,2.506,4.331-.049,1.149-2.161,3.087-3.33,3.066-1.2-.021-3.276-1.957-3.321-3.118-.052-1.4,1.633-2.859,2.568-4.293Z" transform="translate(1600.111 -302.465)"/>
    <path id="Trazado_17394" data-name="Trazado 17394" d="M-1534.231,477.19c-.994-1.376-2.747-2.752-2.749-4.129,0-1.173,1.977-3.227,3.15-3.278,1.2-.052,3.381,1.765,3.5,2.933.14,1.368-1.48,2.916-2.336,4.387Z" transform="translate(1569.613 -302.167)"/>
    <path id="Trazado_17395" data-name="Trazado 17395" d="M-1527.541,486.77c-1.608-2.117-3.532-3.58-3.339-4.663.256-1.431,2.173-2.563,3.378-3.824,1.159,1.278,3.027,2.445,3.25,3.868C-1524.081,483.257-1525.965,484.683-1527.541,486.77Z" transform="translate(1572.862 -297.628)"/>
    <path id="Trazado_17396" data-name="Trazado 17396" d="M-1445.312,472.146c-1.786-2.293-3.706-3.709-3.537-4.8.219-1.425,2.1-2.594,3.259-3.873,1.176,1.121,3.213,2.181,3.3,3.384C-1442.187,468.221-1443.826,469.718-1445.312,472.146Z" transform="translate(1616.65 -305.536)"/>
    <path id="Trazado_17397" data-name="Trazado 17397" d="M-1534.1,465.513c-2.411,1.765-3.782,3.542-5.151,3.54-1.227,0-3.532-2.072-3.428-3.02.155-1.416,1.86-3.489,3.175-3.713C-1538.252,462.107-1536.655,463.9-1534.1,465.513Z" transform="translate(1566.569 -306.159)"/>
    <path id="Trazado_17398" data-name="Trazado 17398" d="M-1476.268,481.952c-2.4,1.626-3.94,3.445-5,3.2a5.3,5.3,0,0,1-3.336-3.568c-.147-.91,2.109-3.1,3.293-3.1C-1479.949,478.475-1478.582,480.251-1476.268,481.952Z" transform="translate(1597.567 -297.525)"/>
    <path id="Trazado_17399" data-name="Trazado 17399" d="M-1459.26,456.968c-2.331,1.633-3.735,3.377-5.1,3.344-1.2-.031-3.436-2.264-3.264-3.141a5.37,5.37,0,0,1,3.405-3.543C-1463.148,453.4-1461.633,455.275-1459.26,456.968Z" transform="translate(1606.632 -310.8)"/>
    <path id="Trazado_17400" data-name="Trazado 17400" d="M-1515.351,473.774c-2.462,1.474-3.976,3.1-5.351,2.989-1.2-.1-2.242-2.147-3.356-3.336,1.288-1.153,2.474-3.029,3.9-3.23C-1519.052,470.041-1517.65,471.967-1515.351,473.774Z" transform="translate(1576.511 -301.95)"/>
    <path id="Trazado_17401" data-name="Trazado 17401" d="M-1515.955,476.9c1.79,2.325,3.713,3.767,3.524,4.838-.251,1.431-2.139,2.575-3.325,3.842-1.177-1.129-3.215-2.2-3.3-3.4C-1519.156,480.824-1517.489,479.342-1515.955,476.9Z" transform="translate(1579.178 -298.365)"/>
    <path id="Trazado_17402" data-name="Trazado 17402" d="M-1522.065,466.152c-2.377,1.672-3.888,3.512-4.94,3.279a5.272,5.272,0,0,1-3.379-3.508c-.155-.937,2.043-3.158,3.221-3.183C-1525.806,462.715-1524.413,464.474-1522.065,466.152Z" transform="translate(1573.13 -305.925)"/>
    <path id="Trazado_17403" data-name="Trazado 17403" d="M-1551.552,471.057c-1.614-2.157-3.508-3.623-3.3-4.669.287-1.431,2.17-2.543,3.368-3.792,1.144,1.275,2.966,2.436,3.209,3.864C-1548.093,467.528-1549.953,468.941-1551.552,471.057Z" transform="translate(1560.067 -306.002)"/>
    <path id="Trazado_17404" data-name="Trazado 17404" d="M-1446.429,472.754c-2.3,1.8-3.664,3.678-4.788,3.543-1.411-.169-2.624-1.991-3.923-3.1,1.087-1.23,2.09-3.345,3.284-3.459C-1450.489,469.608-1448.95,471.252-1446.429,472.754Z" transform="translate(1613.297 -302.194)"/>
    <path id="Trazado_17405" data-name="Trazado 17405" d="M-1450.756,462.33c-1.571-2.087-3.425-3.492-3.265-4.609.2-1.394,2.058-2.549,3.2-3.808,1.2,1.236,3.12,2.345,3.368,3.749C-1447.261,458.749-1449.161,460.2-1450.756,462.33Z" transform="translate(1613.89 -310.637)"/>
    <path id="Trazado_17438" data-name="Trazado 17438" d="M-1483.635,427.368c-.957,4.018-2.109,7.746-2.643,11.559a14.074,14.074,0,0,0,.98,5.974,9,9,0,0,0,8.953,6.354c3.614-.268,7.3-3.6,8.051-7.572.891-4.713,1.117-9.387-1.813-13.641a10.888,10.888,0,0,1-.934-2.456c7.858-2.2,10.115-.655,10.014,7.152-.069,5.285,1,10.7-1.816,15.752-2.486,4.462-5.625,7.4-11.175,7.057-4.787-.3-9.747.681-13.885-2.831a12.144,12.144,0,0,1-4.727-9.233c-.089-3.445-.158-6.891-.126-10.336C-1492.689,427.722-1490.9,426.274-1483.635,427.368Z" transform="translate(1593.215 -325.179)" fill="#ffc800" style="isolation: isolate"/>
    <path id="Trazado_17439" data-name="Trazado 17439" d="M-1502.893,427.351c7.626-.827,9.131.439,9.2,7.37q.053,5.172-.121,10.347a12.415,12.415,0,0,1-12.941,12.229c-1.4-.026-2.81-.046-4.214-.041-8.757.032-13.924-5.034-14.053-13.881-.055-3.7-.032-7.413.1-11.114.17-4.762,1.068-5.54,5.749-5.447,1.488.031,2.976,0,5.339,0a17.848,17.848,0,0,0-4.063,16.3c.868,4.088,3.966,7.437,7.3,8.006,4.859.831,9.013-2.06,10.364-7.442,1.184-4.712,1.144-9.35-1.566-13.666A17.793,17.793,0,0,1-1502.893,427.351Z" transform="translate(1575.98 -325.106)" fill="#ffc800" style="isolation: isolate"/>
    <path id="Trazado_17440" data-name="Trazado 17440" d="M-1487.617,423.888c5.868-1.25,11.7-2.683,17.617-3.669,2.9-.483,5.009,1.186,6.3,4.474H-1487.4Z" transform="translate(1595.962 -328.666)" fill="#ffc800" style="isolation: isolate"/>
    <path id="Trazado_17441" data-name="Trazado 17441" d="M-1477.239,433.733l-3.873,4.41c-1.215-1.569-3.085-2.994-3.473-4.747-.433-1.956.106-4.561,3.123-4.709C-1478.388,428.538-1478.133,430.843-1477.239,433.733Z" transform="translate(1597.511 -324.106)" fill="#fff"/>
    <path id="Trazado_17442" data-name="Trazado 17442" d="M-1517.727,432.964c2.145-1.847,3.49-3.965,5.071-4.16,2.927-.359,3.466,2.62,3.039,4.569-.38,1.732-2.219,3.143-3.414,4.7C-1514.368,436.616-1515.705,435.162-1517.727,432.964Z" transform="translate(1579.89 -324.055)" fill="#fff"/>
    <path id="Trazado_17443" data-name="Trazado 17443" d="M-1507.7,424.392h-16.278C-1522.039,420.118-1518.424,420.076-1507.7,424.392Z" transform="translate(1576.554 -328.114)" fill="#ffc800" style="isolation: isolate"/>
  </g>
</svg>
