<svg xmlns="http://www.w3.org/2000/svg" width="182.825" height="215.735" viewBox="0 0 182.825 215.735">
  <g id="Grupo_735" data-name="Grupo 735" transform="translate(0)">
    <path id="Trazado_17317" data-name="Trazado 17317" d="M-1277.524,747.025q-25.109,0-50.215,0c-5.828,0-7.569-1.75-7.6-7.437-.017-2.916.8-6.581-.641-8.511-1.127-1.511-5.144-.825-7.865-1.2a32.074,32.074,0,0,1-27.542-31.422q-.053-52.13,0-104.262c.012-15.931,14.259-30.453,30.237-30.869,3.447-.091,6.9-.115,10.347.021,2.344.094,3.135-.811,3.093-3.122-.111-5.875-.042-11.755-.029-17.632.014-6.32,4.34-11.169,10.623-11.2q38.522-.179,77.045,0c7.018.04,11.147,4.752,11.211,11.909.047,5.366.227,10.746-.062,16.095-.183,3.363,1.06,4.193,4.146,3.941,8.411-.681,16.3.963,23.109,6.2,8.115,6.239,13,14.383,13.025,24.8.1,34.881,0,69.763.057,104.645.023,14.035-10.9,27.128-24.281,30.216-6.6,1.525-6.606,1.508-6.6,8.391,0,1.278.055,2.559-.015,3.832-.21,3.715-2.43,5.59-6.679,5.6-8.56.021-17.121.006-25.683.006Zm-1.69-21.117v.031q28.372,0,56.744,0c18.181.012,29.783-11.493,29.785-29.564,0-33.356.085-66.713-.081-100.068a31.6,31.6,0,0,0-2.24-11.919c-4.851-11.432-14.052-16.862-26.3-16.893-39.489-.1-78.979-.178-118.467.109a30.51,30.51,0,0,0-13.763,3.843c-10.062,5.49-13.78,14.81-13.76,25.979.062,33.1.014,66.2.034,99.3.009,17.7,11.631,29.2,29.392,29.182Q-1308.545,725.885-1279.214,725.907Zm.719-162.841c13.794,0,27.588-.092,41.379.072,3.093.037,4.059-.968,3.968-3.93-.156-5.1-.02-10.217-.043-15.325-.028-6.193-2.125-8.313-8.316-8.314q-37.164-.009-74.33.034c-5.259.006-7.7,2.5-7.695,7.777,0,5.365.213,10.735,0,16.089-.116,2.907.8,3.692,3.66,3.665C-1306.081,563-1292.287,563.07-1278.495,563.066Zm1.354,167.175q-22.974,0-45.947,0c-7.51,0-7.51-.009-7.788,7.555-.189,5.151-.189,5.165,4.829,5.165q47.1.007,94.191,0c10.1-.006,7.888.762,8.314-8.37.172-3.7-1.2-4.441-4.59-4.409C-1244.466,730.33-1260.8,730.246-1277.14,730.241Z" transform="translate(1371.414 -531.295)"/>
    <path id="Trazado_17333" data-name="Trazado 17333" d="M-1280.647,713.336q-29.329,0-58.66,0c-17.761.014-29.383-11.484-29.392-29.182-.02-33.1.028-66.2-.034-99.3-.02-11.169,3.7-20.488,13.76-25.979a30.511,30.511,0,0,1,13.763-3.843c39.488-.287,78.978-.2,118.467-.109,12.251.031,21.452,5.461,26.3,16.893a31.6,31.6,0,0,1,2.24,11.919c.166,33.354.086,66.712.081,100.068,0,18.071-11.6,29.576-29.785,29.564q-28.372-.021-56.744,0Zm-46.44-97.6c.469.63.658,1.157.919,1.193,4.355.623,5.855,3.217,5.262,7.371a6.028,6.028,0,0,0,.281,1.5c.437,3.221,1.986,4.608,5.473,4.145a26.018,26.018,0,0,1,7.586.411c3.082.515,5.07-.606,5.874-3.456.709-2.513.988-5.147,1.482-7.87l3.671-.413a12.558,12.558,0,0,0-9.638-7.262C-1313.361,610.358-1320.723,610.3-1327.086,615.739Zm91.323-6.639,1.511-.849c1.525-5.09-.258-9.545-3.344-13.585-2.926-3.827-7.228-3.324-10.916-2.068-7.21,2.456-14.187,5.6-21.251,8.477a2.516,2.516,0,0,0-1.229.876c-.746,1.324-1.361,2.718-2.027,4.087,1.391.181,2.893.795,4.153.469,5.42-1.4,10.773-3.054,16.141-4.653,7.923-2.359,11.159-1.332,15.922,5.18A13.6,13.6,0,0,1-1235.763,609.1Zm-84.02-16.114c-5.969.638-11.191,5.41-11.163,10.777a11.8,11.8,0,0,0,.92,3.146c1.008-.316,2.224-.373,2.988-.991,5.191-4.193,10.542-3.783,16.5-1.58,4.97,1.838,10.306,2.735,15.532,3.794.985.2,2.215-.8,3.332-1.249a16.559,16.559,0,0,0-1.756-2.956,6.1,6.1,0,0,0-2.291-1.223c-4.654-1.87-9.328-3.688-13.982-5.561C-1313.078,595.788-1316.425,594.375-1319.783,592.987Zm52.829,35.909a23.275,23.275,0,0,0,3.7-1.784c5.286-4.24,10.922-4.455,17.278-2.543,2.8.841,6.208.026,9.252-.526,1.181-.215,3.091-1.925,2.974-2.7-.295-1.971-1.769-3.1-4.222-2.6a12.15,12.15,0,0,1-9.825-1.786c-3.942-2.741-8.147-1.976-11.835.5A15.508,15.508,0,0,0-1266.954,628.9Z" transform="translate(1372.847 -518.724)" fill="#ffc800" style="isolation: isolate"/>
    <path id="Trazado_17334" data-name="Trazado 17334" d="M-1295.16,561.582c-13.792,0-27.586-.074-41.377.064-2.863.028-3.777-.758-3.66-3.665.215-5.354,0-10.724,0-16.089,0-5.277,2.436-7.771,7.695-7.777q37.164-.044,74.33-.034c6.191,0,8.288,2.122,8.316,8.314.023,5.108-.114,10.221.043,15.325.09,2.962-.876,3.967-3.968,3.93C-1267.572,561.487-1281.366,561.579-1295.16,561.582Z" transform="translate(1388.08 -529.808)" fill="#ffc800" style="isolation: isolate"/>
    <path id="Trazado_17335" data-name="Trazado 17335" d="M-1291.233,661.008c16.337,0,32.675.087,49.009-.066,3.386-.032,4.762.707,4.59,4.409-.426,9.132,1.784,8.363-8.314,8.37q-47.1.03-94.191,0c-5.018,0-5.018-.014-4.829-5.165.278-7.564.278-7.557,7.788-7.555Q-1314.207,661.012-1291.233,661.008Z" transform="translate(1385.507 -462.061)" fill="#fc0" style="isolation: isolate"/>
    <path id="Trazado_17375" data-name="Trazado 17375" d="M-1341.584,596.246c6.363-5.443,13.725-5.381,20.909-4.384a12.558,12.558,0,0,1,9.638,7.262l-3.671.413c-.494,2.723-.773,5.357-1.482,7.87-.8,2.85-2.792,3.972-5.874,3.456a26.018,26.018,0,0,0-7.586-.411c-3.487.463-5.036-.923-5.473-4.145a6.027,6.027,0,0,1-.281-1.5c.594-4.154-.907-6.748-5.262-7.371C-1340.926,597.4-1341.115,596.876-1341.584,596.246Zm23,4.42c-2.249-2.016-3.467-4.016-4.932-4.219-2.615-.362-3.993,2.051-3.583,4.262.305,1.643,2.128,3.005,3.275,4.492Z" transform="translate(1387.345 -499.23)"/>
    <path id="Trazado_17376" data-name="Trazado 17376" d="M-1269.083,596.275a13.6,13.6,0,0,0-1.04-2.065c-4.763-6.512-8-7.54-15.922-5.18-5.368,1.6-10.721,3.254-16.141,4.653-1.26.325-2.761-.288-4.153-.469.666-1.368,1.281-2.763,2.027-4.087a2.517,2.517,0,0,1,1.229-.876c7.064-2.879,14.041-6.021,21.251-8.477,3.688-1.256,7.991-1.759,10.916,2.068,3.086,4.041,4.869,8.5,3.344,13.585Z" transform="translate(1406.167 -505.898)"/>
    <path id="Trazado_17377" data-name="Trazado 17377" d="M-1332.937,579.706c3.358,1.388,6.705,2.8,10.076,4.157,4.654,1.873,9.328,3.691,13.982,5.561a6.1,6.1,0,0,1,2.291,1.223,16.561,16.561,0,0,1,1.756,2.956c-1.117.446-2.347,1.448-3.332,1.249-5.226-1.059-10.562-1.956-15.532-3.794-5.954-2.2-11.3-2.612-16.5,1.58-.764.618-1.98.675-2.988.991a11.8,11.8,0,0,1-.92-3.146C-1344.127,585.116-1338.906,580.344-1332.937,579.706Z" transform="translate(1386.001 -505.443)"/>
    <path id="Trazado_17378" data-name="Trazado 17378" d="M-1302.385,607.875a15.507,15.507,0,0,1,7.325-11.438c3.688-2.479,7.893-3.245,11.835-.5a12.15,12.15,0,0,0,9.825,1.786c2.453-.5,3.927.629,4.222,2.6.117.776-1.793,2.487-2.974,2.7-3.044.552-6.454,1.367-9.252.526-6.355-1.911-11.991-1.7-17.278,2.543A23.272,23.272,0,0,1-1302.385,607.875Z" transform="translate(1408.278 -497.703)"/>
    <path id="Trazado_17437" data-name="Trazado 17437" d="M-1323.6,598.9l-5.24,4.535c-1.148-1.486-2.97-2.849-3.275-4.492-.41-2.211.968-4.624,3.583-4.262C-1327.069,594.884-1325.851,596.885-1323.6,598.9Z" transform="translate(1392.362 -497.465)" fill="#fff"/>
    <g id="Grupo_724" data-name="Grupo 724" transform="translate(58.406 137.55)">
      <g id="Grupo_722" data-name="Grupo 722" transform="translate(0 0)">
        <path id="Trazado_17464" data-name="Trazado 17464" d="M-1298.6,640.7q-.987,0-2-.054c-14.454-.759-31.284-15.253-31.992-15.871a2.174,2.174,0,0,1-.215-3.067,2.176,2.176,0,0,1,3.067-.215c.163.143,16.416,14.13,29.369,14.811,13.762.723,22.513-7.06,30.987-14.586a2.173,2.173,0,0,1,3.07.181,2.175,2.175,0,0,1-.181,3.07C-1274.82,632.363-1284.206,640.7-1298.6,640.7Z" transform="translate(1333.34 -620.961)"/>
      </g>
      <g id="Grupo_723" data-name="Grupo 723" transform="translate(10.496 6.567)">
        <path id="Trazado_17465" data-name="Trazado 17465" d="M-1304.673,634.018c10.155.532,17.578-3.568,24.178-8.776-3.319.907-7.059.454-10.6.3a14.49,14.49,0,0,0-10.157,3.083c-1.618,2.855-3.182.943-3.823.333-3.649-3.465-8.026-3.511-12.558-3.419-2.461.051-5.18.465-7.655.14C-1319.441,629.5-1311.588,633.655-1304.673,634.018Z" transform="translate(1327.145 -625.242)" fill="#ef1818"/>
        <path id="Trazado_17466" data-name="Trazado 17466" d="M-1302.25,636.868q-.987,0-2-.054c-7.667-.4-16-4.67-22.243-8.68.86.945,1.568,1.894,2.5,3.111,5.4,7.069,11.933,11.523,21.535,10.97,6.2.612,11.689-1.646,16.394-6.174,2.419-2.329,4.619-4.837,6.82-7.346C-1285.5,633.262-1292.792,636.868-1302.25,636.868Z" transform="translate(1326.498 -623.697)" fill="#ef1818"/>
      </g>
    </g>
  </g>
</svg>
