<svg id="Grupo_730" data-name="Grupo 730" xmlns="http://www.w3.org/2000/svg" width="182.815" height="215.735" viewBox="0 0 182.815 215.735">
  <path id="Trazado_17326" data-name="Trazado 17326" d="M-1032.725,388.651c0,3.488.034,6.906-.008,10.324-.049,3.944-2.2,6.218-6.093,6.221q-51.731.032-103.462-.017c-4.208,0-6.063-1.894-6.212-6.041-.118-3.312.94-7.394-.635-9.684-1.158-1.684-5.761-.848-8.768-1.44-15.6-3.077-26.943-15.97-26.793-32.451.313-34.357.086-68.719.094-103.079,0-16.25,14.258-30.676,30.473-30.858,3.193-.035,6.392-.132,9.579.014,2.62.12,3.641-.811,3.576-3.519-.147-6-.1-12.006-.018-18.009a11.1,11.1,0,0,1,10.928-10.578q33.711-.009,67.422-.055a100.3,100.3,0,0,1,10.281.293c6.36.659,9.818,4.637,9.844,10.977.027,6.734.006,13.469.006,20.853,3.311,0,6.067,0,8.824,0,17.224-.023,31.8,14.432,31.8,31.577q.012,52.113-.014,104.229c-.009,13.36-10.773,26.822-23.8,29.831C-1027.792,387.72-1029.914,388.088-1032.725,388.651Zm-60.045-162.923c-19.8,0-39.606-.179-59.4.138A31.929,31.929,0,0,0-1165.4,228.9c-10.649,5.255-15.218,14.485-15.2,26.226q.062,50.206.017,100.412c0,16.37,11.6,28.494,28.069,28.573q59.4.292,118.809.02c15.816-.066,27.741-12.487,27.751-28.242.023-33.727.081-67.454-.078-101.179a34.812,34.812,0,0,0-2.156-11.567c-4.037-11.026-13.9-17.339-26.71-17.4C-1054.192,225.668-1073.481,225.731-1092.77,225.728Zm1.144-4.295q20.682,0,41.366.008c2,0,3.85.156,3.787-2.829-.126-5.87.1-11.748-.057-17.616-.136-5.089-2.306-7.112-7.495-7.121q-37.727-.06-75.453,0c-5.241.008-7.3,2.2-7.355,7.6-.055,5.235.213,10.48-.058,15.7-.178,3.392.911,4.376,4.284,4.333C-1118.95,221.34-1105.286,221.441-1091.626,221.433Zm54.211,166.94h-4.2q-47.34,0-94.682,0c-7.989,0-7.852.008-8.082,8.11-.1,3.409.764,4.641,4.453,4.624,31.306-.143,62.61-.075,93.916-.071a37.1,37.1,0,0,0,6.5-.113,3.668,3.668,0,0,0,2.452-2.469C-1036.9,395.3-1037.239,392.119-1037.415,388.373Z" transform="translate(1184.697 -189.474)"/>
  <path id="Trazado_17360" data-name="Trazado 17360" d="M-1094.193,213.137c19.289,0,38.578-.061,57.866.023,12.814.057,22.673,6.369,26.711,17.4a34.812,34.812,0,0,1,2.156,11.567c.159,33.725.1,67.452.078,101.179-.011,15.755-11.935,28.176-27.752,28.242q-59.4.253-118.809-.02c-16.471-.08-28.064-12.2-28.069-28.573q-.012-50.206-.017-100.412c-.015-11.741,4.554-20.971,15.2-26.226a31.929,31.929,0,0,1,13.231-3.039C-1133.8,212.956-1113.994,213.135-1094.193,213.137Zm-31.362,96.527a39.267,39.267,0,0,0,1.271,6.253c1.906,5.06,3.3,10.554,6.311,14.9,4.884,7.058,13.144,8.611,21.042,9.16,10.376.719,20.971,1.527,30.674-3.795,9.864-5.41,12.127-12.3,12.25-22.416.029-2.3-.788-4.2-4.028-3.436-5.551,1.3-11.149,2.475-16.785,3.321-14.016,2.107-27.353-.265-40.177-6.265-3.366-1.573-4.749-2.906-.526-6.529-2.283-.408-3.661-1-4.927-.819-4.385.639-7.4,3.436-9.263,7.222-.724,1.472-.255,3.531-.328,5.322Zm.063-36.821.517.293a29.436,29.436,0,0,0,.872,5.239c1.449,4.125,3.772,7.573,8.557,8.243,4.129.578,8.111-1.727,10.189-5.85,3.025-6,2.572-11.8-1.411-17.227-4.283-5.836-11.337-5.831-15.191.285C-1123.649,266.51-1124.345,269.819-1125.492,272.843Zm70.993.2c-.929-2.849-1.474-5.9-2.866-8.5-3.269-6.1-10.364-6.958-15.071-2.1-5.814,6-5.241,16.9,1.173,22.268a8.492,8.492,0,0,0,10.9.244C-1056.528,282.012-1054.9,278.044-1054.5,273.044Z" transform="translate(1186.12 -176.881)" fill="#ffc800"/>
  <path id="Trazado_17361" data-name="Trazado 17361" d="M-1108.248,219.916c-13.66,0-27.323-.1-40.981.075-3.373.043-4.462-.941-4.284-4.333.271-5.219,0-10.465.058-15.7.057-5.4,2.115-7.593,7.355-7.6q37.726-.067,75.453,0c5.189.009,7.358,2.032,7.495,7.121.158,5.868-.069,11.747.057,17.616.063,2.985-1.786,2.832-3.787,2.829Q-1087.565,219.9-1108.248,219.916Z" transform="translate(1201.318 -187.953)" fill="#ffc800"/>
  <path id="Trazado_17362" data-name="Trazado 17362" d="M-1051.435,319.192c.176,3.746.518,6.928.349,10.082a3.668,3.668,0,0,1-2.452,2.469,37.1,37.1,0,0,1-6.5.113c-31.306,0-62.61-.072-93.916.071-3.689.017-4.55-1.216-4.453-4.625.23-8.1.094-8.11,8.082-8.11q47.34,0,94.682,0Z" transform="translate(1198.717 -120.293)" fill="#ffc800"/>
  <path id="Trazado_17429" data-name="Trazado 17429" d="M-1143.609,279.432l-4.486,2.92c.074-1.791-.4-3.85.328-5.322,1.861-3.786,4.877-6.583,9.263-7.222,1.265-.184,2.643.411,4.927.819-4.223,3.623-2.84,4.956.526,6.529,12.825,6,26.161,8.372,40.177,6.265,5.637-.846,11.235-2.021,16.785-3.321,3.24-.759,4.057,1.135,4.028,3.436-.123,10.12-2.386,17.006-12.25,22.416-9.7,5.322-20.3,4.514-30.674,3.795-7.9-.549-16.158-2.1-21.042-9.16-3.008-4.347-4.405-9.841-6.311-14.9A39.294,39.294,0,0,1-1143.609,279.432Zm6.466,3.958a13.378,13.378,0,0,0,.764,2.918c2.852,5.5,9.332,4.908,14.367,8.421l-9.516.938a7.5,7.5,0,0,0,3.332,3.671c14.357,6.441,28.777,5.827,42.933-.422,5.388-2.378,7.881-7.774,6.631-11.813C-1098.117,290.176-1117.555,292.551-1137.143,283.389Z" transform="translate(1204.173 -146.648)"/>
  <path id="Trazado_17430" data-name="Trazado 17430" d="M-1145.157,256.8c1.147-3.024,1.843-6.333,3.534-9.016,3.853-6.116,10.908-6.121,15.191-.285,3.982,5.429,4.436,11.224,1.411,17.227-2.077,4.123-6.059,6.428-10.189,5.85-4.785-.67-7.108-4.118-8.557-8.243a29.414,29.414,0,0,1-.872-5.239Zm6.794-3.464,4.361,4.2c1.3-1.659,3.359-3.174,3.7-5.011.393-2.1-.61-4.864-3.588-4.868C-1136.848,247.655-1137.425,250.061-1138.363,253.339Z" transform="translate(1205.784 -160.841)"/>
  <path id="Trazado_17431" data-name="Trazado 17431" d="M-1091.219,256.967c-.4,5-2.029,8.968-5.863,11.911a8.492,8.492,0,0,1-10.9-.244c-6.414-5.37-6.987-16.267-1.173-22.268,4.707-4.859,11.8-4.005,15.071,2.1C-1092.693,251.064-1092.148,254.118-1091.219,256.967Zm-6.581-5.721-4.755-3.708c-1.308,1.746-3.553,3.453-3.631,5.253-.063,1.477,2.357,4.233,3.839,4.35C-1099.651,257.355-1098.552,254.775-1097.8,251.246Z" transform="translate(1222.839 -160.804)"/>
  <path id="Trazado_17458" data-name="Trazado 17458" d="M-1140.981,278.653c19.588,9.162,39.026,6.786,58.511,3.714,1.25,4.039-1.243,9.434-6.632,11.813-14.156,6.248-28.576,6.863-42.933.422a7.5,7.5,0,0,1-3.332-3.671l9.516-.938c-5.035-3.513-11.515-2.916-14.367-8.421A13.38,13.38,0,0,1-1140.981,278.653Z" transform="translate(1208.012 -141.913)" fill="#fff"/>
  <path id="Trazado_17459" data-name="Trazado 17459" d="M-1140.726,251.774c.938-3.278,1.515-5.684,4.476-5.678,2.978,0,3.98,2.765,3.588,4.868-.344,1.837-2.4,3.352-3.7,5.011Q-1138.545,253.873-1140.726,251.774Z" transform="translate(1208.148 -159.276)" fill="#fff"/>
  <path id="Trazado_17460" data-name="Trazado 17460" d="M-1100.232,249.748c-.751,3.528-1.851,6.109-4.546,5.9-1.483-.117-3.9-2.873-3.839-4.35.078-1.8,2.323-3.507,3.631-5.253Z" transform="translate(1225.271 -159.306)" fill="#fff"/>
</svg>
