<svg xmlns="http://www.w3.org/2000/svg" width="182.768" height="215.735" viewBox="0 0 182.768 215.735">
  <g id="Grupo_742" data-name="Grupo 742" transform="translate(0 0)">
    <path id="Trazado_17325" data-name="Trazado 17325" d="M-1415.642,221.1c5.657.5,10.782.531,15.735,1.468,13.692,2.592,24.479,15.885,24.494,29.869q.053,52.693,0,105.387c-.008,13.26-10.564,26.349-23.666,29.453-7.12,1.687-7.041,1.687-7.154,9.014-.035,2.214-.053,4.792-1.158,6.513-.87,1.356-3.39,2.308-5.182,2.314q-51.352.2-102.7.081c-4.663,0-6.637-2.093-6.7-6.816-.043-3.058.88-6.8-.558-8.942-1.032-1.538-5.254-.917-8.047-1.291-15.3-2.046-27.562-16.035-27.567-31.5q-.016-51.736.014-103.47c.012-17.058,14.494-31.555,31.46-31.571,3.065,0,6.135-.12,9.195.008,2.369.1,3.119-.892,3.082-3.168-.1-6.129-.092-12.263-.015-18.394a11,11,0,0,1,10.57-10.53q34.475-.041,68.95-.04a82.974,82.974,0,0,1,9.512.371,10.494,10.494,0,0,1,9.725,10.834C-1415.58,207.438-1415.642,214.193-1415.642,221.1Zm-51.058,4.7q-30.078,0-60.153.009a27.419,27.419,0,0,0-27.061,27.15q.009,52.108.009,104.215a26.272,26.272,0,0,0,6,16.574c6.638,8.426,15.722,10.518,25.9,10.483,34.993-.123,69.987-.041,104.98-.051,3.831,0,7.672.094,11.487-.167,15.295-1.047,26.194-12.749,26.2-28.029q.018-50.576,0-101.151c-.006-17.342-11.754-29.039-29.129-29.042Q-1437.581,225.789-1466.7,225.8Zm1.633-4.353c13.66,0,27.322-.074,40.98.058,2.987.029,4.4-.512,4.222-3.93-.285-5.347-.045-10.72-.089-16.081-.048-5.562-2.4-7.787-8.04-7.761q-13.978.067-27.957.1c-15.448.017-30.895-.028-46.343.028-5.709.02-7.787,2.081-7.821,7.5-.034,5.361.179,10.733-.066,16.083-.149,3.251,1,4.1,4.133,4.062C-1492.388,221.352-1478.727,221.438-1465.066,221.449Zm1.265,166.934q-22.99,0-45.979,0c-7.819,0-7.658.021-7.875,7.937-.1,3.564.779,4.844,4.636,4.824,31.419-.163,62.838-.084,94.257-.107,10.178-.008,8.322,1.32,8.627-8.773.09-2.969-.713-3.984-3.857-3.955C-1430.594,388.469-1447.2,388.386-1463.8,388.383Z" transform="translate(1558.16 -189.478)"/>
    <path id="Trazado_17357" data-name="Trazado 17357" d="M-1468.176,213.165q29.118-.007,58.234,0c17.376,0,29.124,11.7,29.129,29.042q.019,50.576,0,101.152c-.006,15.279-10.906,26.981-26.2,28.028-3.815.261-7.657.166-11.487.167-34.994.009-69.987-.072-104.981.051-10.173.035-19.257-2.056-25.9-10.483a26.272,26.272,0,0,1-6-16.574q-.039-52.106-.009-104.215a27.419,27.419,0,0,1,27.061-27.15C-1508.279,213.141-1488.227,213.17-1468.176,213.165Zm25.6,46.131c-1.619.126-2.524-.06-3.119.285a74.133,74.133,0,0,0-7.923,5.005c-2.047,1.564-.885,3.522-.032,5.385a2.789,2.789,0,0,1-.262,2.22c-2.875,4.775-1.472,9.374.552,13.89,1.627,3.631,4.142,6.459,8.308,7.126,4.312.69,7.475-1.4,9.639-4.852a19.915,19.915,0,0,0,2.475-6.29c1.08-5.037-1.016-11.219,5.436-14.227a1.478,1.478,0,0,0,.58-1.323c-.482-.983-1-2.332-1.852-2.682-2.857-1.165-5.867-1.951-8.814-2.9C-1439.5,260.322-1441.406,259.681-1442.575,259.3Zm-53.237-.557c-2.964,1.282-5.916,2.59-8.9,3.832a39.883,39.883,0,0,1-3.874,1.343c-1.259.377-2.549.655-3.824.977a24.82,24.82,0,0,0,1.5,3.708,5.371,5.371,0,0,0,2.311,2.389c2.282.8,2.136,2.348,2.138,4.258,0,3.162-.089,6.448.7,9.46,2.147,8.149,10.754,11.368,16.311,6.094a16.4,16.4,0,0,0,5.2-15.313c-.479-2.717-2.909-5.316-.262-8.179.2-.216-.219-1.211-.566-1.691C-1487.628,262.072-1490.679,259.324-1495.812,258.74Zm79.208.863,1.032-.908a25.034,25.034,0,0,0-2.556-4.028c-8.744-9.349-25.46-10.677-36.556-4.83-2.6,1.369-4.734,3.763-6.766,5.976a3.422,3.422,0,0,0,.083,3.363c.624.707,2.257.758,3.418.676.794-.057,1.552-.811,2.3-1.29,10.148-6.442,20.768-7.818,31.9-2.829C-1421.28,256.837-1418.98,258.3-1416.6,259.6Zm-107-1,.938.745c.876-.442,1.785-.825,2.621-1.331,12.311-7.469,24.546-6.991,36.723.32.436.262.825.8,1.261.827,1.293.084,2.6-.021,3.9-.052-.089-1.274.228-2.794-.359-3.769a14.618,14.618,0,0,0-3.843-4.192c-10.757-7.807-30.1-5.887-39.114,3.851A19.339,19.339,0,0,0-1523.6,258.6Z" transform="translate(1559.636 -176.845)" fill="#ffc800"/>
    <path id="Trazado_17358" data-name="Trazado 17358" d="M-1481.754,219.964c-13.66-.006-27.322-.092-40.98.058-3.133.035-4.281-.811-4.132-4.062.245-5.35.032-10.722.066-16.083.034-5.416,2.111-7.477,7.821-7.5,15.448-.055,30.894-.011,46.343-.028q13.978-.016,27.956-.1c5.636-.026,7.992,2.2,8.04,7.761.044,5.361-.2,10.734.089,16.081.182,3.418-1.234,3.959-4.222,3.93C-1454.432,219.895-1468.094,219.968-1481.754,219.964Z" transform="translate(1574.847 -187.997)" fill="#ffc800"/>
    <path id="Trazado_17359" data-name="Trazado 17359" d="M-1477.89,319.214c16.6,0,33.207.084,49.81-.072,3.144-.029,3.947.986,3.857,3.955-.305,10.093,1.55,8.765-8.627,8.773-31.419.023-62.838-.055-94.257.107-3.857.02-4.734-1.261-4.636-4.824.216-7.916.055-7.933,7.874-7.937Q-1500.881,319.2-1477.89,319.214Z" transform="translate(1572.249 -120.308)" fill="#ffc800"/>
    <path id="Trazado_17425" data-name="Trazado 17425" d="M-1477.311,243.246c1.168.385,3.073,1.026,4.987,1.639,2.947.948,5.957,1.733,8.814,2.9.854.35,1.371,1.7,1.852,2.682a1.479,1.479,0,0,1-.579,1.323c-6.453,3.009-4.357,9.19-5.436,14.227a19.919,19.919,0,0,1-2.475,6.29c-2.164,3.453-5.327,5.542-9.639,4.852-4.166-.667-6.681-3.495-8.308-7.126-2.024-4.516-3.427-9.115-.552-13.89a2.79,2.79,0,0,0,.262-2.22c-.853-1.863-2.015-3.821.032-5.386a74.134,74.134,0,0,1,7.923-5.005C-1479.835,243.186-1478.93,243.372-1477.311,243.246Zm-6.833,13.78c2.408,2.444,3.818,5.12,5.637,5.433,2.8.485,3.907-2.263,3.927-4.9.022-2.676-.521-5.669-3.847-5.267C-1480.175,252.5-1481.663,254.871-1484.144,257.026Z" transform="translate(1594.373 -160.795)"/>
    <path id="Trazado_17426" data-name="Trazado 17426" d="M-1510.766,242.883c5.132.584,8.184,3.332,10.739,6.878.347.48.765,1.475.566,1.691-2.647,2.863-.216,5.462.262,8.179a16.4,16.4,0,0,1-5.2,15.313c-5.557,5.274-14.165,2.055-16.311-6.094-.793-3.012-.7-6.3-.7-9.46,0-1.911.144-3.458-2.138-4.258a5.371,5.371,0,0,1-2.311-2.389,24.848,24.848,0,0,1-1.5-3.708c1.276-.322,2.565-.6,3.824-.977a39.891,39.891,0,0,0,3.874-1.343C-1516.682,245.473-1513.73,244.165-1510.766,242.883Zm-3.7,13.919c-.264,3.237.825,6.042,3.932,5.864,1.526-.087,3.808-2.944,4.082-4.794.333-2.233-.619-5.3-3.857-5.531C-1513.362,252.124-1514.44,254.254-1514.469,256.8Z" transform="translate(1574.59 -160.989)"/>
    <path id="Trazado_17427" data-name="Trazado 17427" d="M-1449.145,248.068c-2.375-1.3-4.676-2.766-7.14-3.87-11.134-4.988-21.754-3.613-31.9,2.829-.752.478-1.509,1.233-2.3,1.29-1.161.081-2.794.031-3.418-.676a3.422,3.422,0,0,1-.083-3.363c2.032-2.213,4.167-4.606,6.766-5.976,11.1-5.847,27.812-4.519,36.556,4.83a25.032,25.032,0,0,1,2.556,4.028Z" transform="translate(1592.177 -165.31)"/>
    <path id="Trazado_17428" data-name="Trazado 17428" d="M-1534.663,247.067a19.332,19.332,0,0,1,2.128-3.6c9.017-9.737,28.357-11.657,39.114-3.851a14.619,14.619,0,0,1,3.843,4.192c.587.975.27,2.495.359,3.769-1.3.031-2.608.136-3.9.052-.436-.028-.825-.564-1.261-.827-12.177-7.312-24.412-7.79-36.723-.32-.836.506-1.745.889-2.621,1.331Z" transform="translate(1570.695 -165.309)"/>
    <path id="Trazado_17456" data-name="Trazado 17456" d="M-1486.278,253.891c2.481-2.154,3.969-4.522,5.717-4.732,3.326-.4,3.869,2.592,3.847,5.267-.02,2.634-1.127,5.383-3.927,4.9C-1482.46,259.011-1483.871,256.335-1486.278,253.891Z" transform="translate(1596.507 -157.66)" fill="#fff"/>
    <path id="Trazado_17457" data-name="Trazado 17457" d="M-1518.941,253.517c.029-2.549,1.107-4.679,4.157-4.461,3.237.232,4.189,3.3,3.856,5.531-.274,1.849-2.556,4.706-4.082,4.794C-1518.116,259.559-1519.2,256.754-1518.941,253.517Z" transform="translate(1579.062 -157.704)" fill="#fff"/>
    <g id="Grupo_727" data-name="Grupo 727" transform="translate(57.195 135.47)">
      <g id="Grupo_725" data-name="Grupo 725" transform="translate(0 0)">
        <path id="Trazado_17467" data-name="Trazado 17467" d="M-1486.129,297.552c-.659,0-1.326-.018-2.006-.054-14.447-.759-31.272-15.249-31.98-15.865a2.173,2.173,0,0,1-.215-3.065,2.174,2.174,0,0,1,3.065-.215c.163.141,16.41,14.123,29.358,14.806,13.758.721,22.507-7.059,30.976-14.58a2.169,2.169,0,0,1,3.068.181,2.173,2.173,0,0,1-.181,3.068C-1462.363,289.218-1471.746,297.552-1486.129,297.552Z" transform="translate(1520.862 -277.821)"/>
      </g>
      <g id="Grupo_726" data-name="Grupo 726" transform="translate(10.493 6.565)">
        <path id="Trazado_17468" data-name="Trazado 17468" d="M-1492.2,290.875c10.151.532,17.572-3.568,24.17-8.773-3.32.906-7.059.454-10.6.3a14.491,14.491,0,0,0-10.153,3.081c-1.618,2.855-3.18.943-3.821.334-3.646-3.466-8.023-3.51-12.553-3.418-2.46.049-5.178.463-7.652.138C-1506.965,286.357-1499.115,290.511-1492.2,290.875Z" transform="translate(1514.666 -282.102)" fill="#ef1818"/>
        <path id="Trazado_17469" data-name="Trazado 17469" d="M-1489.779,293.725c-.659,0-1.326-.018-2.005-.054-7.663-.4-15.994-4.668-22.235-8.678.861.946,1.567,1.894,2.5,3.11,5.4,7.066,11.929,11.521,21.526,10.967,6.2.61,11.685-1.647,16.388-6.172,2.418-2.329,4.617-4.837,6.818-7.344C-1473.041,290.12-1480.327,293.725-1489.779,293.725Z" transform="translate(1514.02 -280.559)" fill="#ef1818"/>
      </g>
    </g>
  </g>
</svg>
