<svg xmlns="http://www.w3.org/2000/svg" width="182.883" height="215.735" viewBox="0 0 182.883 215.735">
  <g id="Grupo_737" data-name="Grupo 737" transform="translate(0)">
    <path id="Trazado_17319" data-name="Trazado 17319" d="M-1375.352,817.664c0,17.381-.205,34.764.071,52.141.192,12.141-9.277,26.118-22.827,29.752-8.087,2.169-8.081,2.19-8.035,10.378.035,6.321-1.773,8.108-8.187,8.108q-49.648,0-99.3.009c-6.6,0-8.343-1.776-8.355-8.426-.015-8.446-.015-8.446-8.294-9.009-11.532-.785-24.245-11.725-26.688-23.234a51.948,51.948,0,0,1-1.141-10.6q-.122-50.226-.04-100.45a32.2,32.2,0,0,1,32.028-32.3c2.81-.038,5.631-.15,8.432.015,2.555.15,3.341-.9,3.293-3.347-.115-5.876-.067-11.757-.02-17.635.051-6.255,4.356-10.688,10.575-10.7q38.721-.076,77.444-.021c6.249.009,10.722,4.614,10.8,10.98.07,5.751.155,11.506-.044,17.25-.094,2.724.793,3.6,3.464,3.457,9.046-.488,17.545,1.1,24.8,7.021,7.4,6.036,11.866,13.69,11.968,23.325C-1375.216,782.135-1375.352,799.9-1375.352,817.664Zm-91.128,78.985v-.092c20.45,0,40.9.284,61.347-.1,13.776-.258,25.622-12.673,25.653-26.152q.115-51.765.009-103.53c-.043-16.638-11.874-28.4-28.641-28.434q-58.854-.135-117.708,0c-16.021.038-28.053,12.288-28.069,28.314q-.048,51.381,0,102.763a18.3,18.3,0,0,0,.4,4.168c3.533,14.89,13.4,22.918,28.722,23.026C-1505.335,896.752-1485.906,896.649-1466.479,896.649Zm-43.575-163.274a9.243,9.243,0,0,0,1.643.434q42.916.053,85.834.112c2.312.006,2.741-1.057,2.706-3.068-.1-5.746.006-11.5-.055-17.243-.052-4.849-2.261-7.03-7-7.074-1.661-.015-3.321.028-4.982.028q-35.445,0-70.891.011c-4.642,0-7.064,1.693-7.188,5.613C-1510.214,719.185-1510.055,726.2-1510.055,733.376Zm45.965,180.064c15.2,0,30.4.026,45.6-.009,9.528-.022,7.679.867,8.024-7.844.146-3.664-1.149-4.456-4.591-4.442-31.548.12-63.1.068-94.643.064-7.749,0-7.558,0-7.874,7.6-.158,3.816,1.229,4.747,4.824,4.712C-1496.532,913.361-1480.311,913.45-1464.089,913.439Z" transform="translate(1558.161 -702.317)"/>
    <path id="Trazado_17339" data-name="Trazado 17339" d="M-1467.96,884.133c-19.427,0-38.856.1-58.282-.034-15.324-.107-25.19-8.136-28.722-23.026a18.3,18.3,0,0,1-.4-4.168q-.028-51.38,0-102.763c.015-16.026,12.047-28.276,28.069-28.314q58.854-.136,117.708,0c16.767.038,28.6,11.8,28.641,28.434q.133,51.765-.009,103.53c-.031,13.478-11.877,25.894-25.653,26.152-20.443.383-40.9.1-61.347.1Zm-1.1-42.871c10.256.288,19.406-1.861,26.969-8.576,1.035-.917,1.063-2.968,1.559-4.494-1.508.034-3.228-.4-4.491.175-15.4,6.987-30.825,6.846-46.327.482-1.788-.735-3.833-2.933-5.116-.2-.492,1.051,1.41,3.289,2.35,4.91.287.5,1.006.742,1.536,1.094A38.375,38.375,0,0,0-1469.065,841.262Zm26.784-65.544c-5.589-.086-11.13,5.156-11.132,10.53,0,5.416,5.1,10.253,10.845,10.288,5.924.035,10.917-4.505,10.981-9.987A11.155,11.155,0,0,0-1442.281,775.718Zm-42.624,10.645c-.084-5.478-5.536-10.624-11.135-10.512-5.3.107-10.681,5.565-10.572,10.722.117,5.5,5.238,10.245,10.957,10.144C-1490.012,796.617-1484.824,791.622-1484.905,786.363Z" transform="translate(1559.642 -689.801)" fill="#ffc800" style="isolation: isolate"/>
    <path id="Trazado_17340" data-name="Trazado 17340" d="M-1526.78,731.908c0-7.18-.159-14.19.063-21.188.124-3.919,2.546-5.61,7.188-5.612q35.445-.026,70.891-.011c1.661,0,3.321-.043,4.982-.028,4.743.044,6.951,2.226,7,7.074.061,5.746-.041,11.5.055,17.243.035,2.011-.394,3.074-2.706,3.068q-42.918-.106-85.834-.112A9.249,9.249,0,0,1-1526.78,731.908Z" transform="translate(1574.886 -700.849)" fill="#ffc800" style="isolation: isolate"/>
    <path id="Trazado_17341" data-name="Trazado 17341" d="M-1478.212,844.24c-16.221,0-32.442-.084-48.662.074-3.6.035-4.982-.9-4.824-4.712.316-7.595.124-7.6,7.874-7.6,31.548,0,63.1.055,94.643-.064,3.442-.014,4.737.778,4.591,4.442-.345,8.711,1.5,7.823-8.024,7.844C-1447.813,844.26-1463.012,844.234-1478.212,844.24Z" transform="translate(1572.284 -633.111)" fill="#ffc800" style="isolation: isolate"/>
    <path id="Trazado_17406" data-name="Trazado 17406" d="M-1489.544,805.914a38.375,38.375,0,0,1-23.521-6.613c-.529-.351-1.249-.6-1.536-1.094-.94-1.621-2.842-3.859-2.35-4.91,1.283-2.73,3.327-.532,5.116.2,15.5,6.364,30.93,6.505,46.327-.482,1.264-.574,2.984-.141,4.491-.175-.5,1.526-.523,3.577-1.559,4.494C-1470.139,804.053-1479.288,806.2-1489.544,805.914Z" transform="translate(1580.121 -654.453)"/>
    <path id="Trazado_17407" data-name="Trazado 17407" d="M-1477.776,758.329a11.155,11.155,0,0,1,10.694,10.831c-.064,5.482-5.057,10.023-10.981,9.987-5.749-.035-10.848-4.872-10.845-10.288C-1488.906,763.485-1483.365,758.244-1477.776,758.329Z" transform="translate(1595.137 -672.412)"/>
    <path id="Trazado_17408" data-name="Trazado 17408" d="M-1501.882,768.928c.081,5.258-5.106,10.254-10.75,10.354-5.718.1-10.84-4.64-10.957-10.144-.109-5.157,5.273-10.615,10.572-10.722C-1507.418,758.3-1501.967,763.451-1501.882,768.928Z" transform="translate(1576.619 -672.366)"/>
  </g>
</svg>
