<svg id="Grupo_457" data-name="Grupo 457" xmlns="http://www.w3.org/2000/svg" width="281.587" height="168.991" viewBox="0 0 281.587 168.991">
  <path id="Trazado_17009" data-name="Trazado 17009" d="M588.682,375.853l158.553,10.969-22.452,41.5L532.709,439.3Z" transform="translate(-465.648 -270.304)" fill="#121212" opacity="0.3"/>
  <g id="Grupo_448" data-name="Grupo 448" transform="translate(0 1.722)">
    <path id="Trazado_17010" data-name="Trazado 17010" d="M511.807,441.174l68.246,40.461V397.061L511.807,356.68Z" transform="translate(-511.807 -314.368)" fill="#e11415"/>
    <path id="Trazado_17011" data-name="Trazado 17011" d="M533.078,482.964l132.654-42.3V356.078L533.078,398.389Z" transform="translate(-464.833 -315.696)" fill="#b00a0b"/>
    <path id="Trazado_17012" data-name="Trazado 17012" d="M580.053,426.185l132.654-42.311-68.249-40.382L511.807,385.8Z" transform="translate(-511.807 -343.492)" fill="#ff2121"/>
  </g>
  <g id="Grupo_450" data-name="Grupo 450" transform="translate(132.315 21.791)">
    <rect id="Rectángulo_169" data-name="Rectángulo 169" width="38.738" height="11.648" transform="translate(0.001 8.695)" fill="#b00a0b"/>
    <g id="Grupo_449" data-name="Grupo 449">
      <path id="Trazado_17013" data-name="Trazado 17013" d="M553.048,362.075c0,4.8,8.672,8.695,19.369,8.695s19.369-3.892,19.369-8.695-8.672-8.7-19.369-8.7S553.048,357.272,553.048,362.075Z" transform="translate(-553.048 -341.731)" fill="#b00a0b"/>
      <path id="Trazado_17014" data-name="Trazado 17014" d="M553.048,358.442c0,4.8,8.672,8.7,19.369,8.7s19.369-3.895,19.369-8.7-8.672-8.695-19.369-8.695S553.048,353.639,553.048,358.442Z" transform="translate(-553.048 -349.747)" fill="#ff2121"/>
    </g>
  </g>
  <g id="Grupo_452" data-name="Grupo 452" transform="translate(97.47)">
    <rect id="Rectángulo_170" data-name="Rectángulo 170" width="38.738" height="11.648" transform="translate(0 8.697)" fill="#b00a0b"/>
    <g id="Grupo_451" data-name="Grupo 451">
      <path id="Trazado_17015" data-name="Trazado 17015" d="M542.187,355.281c0,4.8,8.672,8.7,19.369,8.7s19.369-3.895,19.369-8.7-8.672-8.695-19.369-8.695S542.187,350.478,542.187,355.281Z" transform="translate(-542.187 -334.936)" fill="#b00a0b"/>
      <path id="Trazado_17016" data-name="Trazado 17016" d="M542.187,351.653c0,4.8,8.672,8.695,19.369,8.695s19.369-3.892,19.369-8.695-8.672-8.7-19.369-8.7S542.187,346.85,542.187,351.653Z" transform="translate(-542.187 -342.955)" fill="#ff2121"/>
    </g>
  </g>
  <g id="Grupo_454" data-name="Grupo 454" transform="translate(61.517 44.946)">
    <rect id="Rectángulo_171" data-name="Rectángulo 171" width="38.738" height="11.648" transform="translate(0 8.696)" fill="#b00a0b"/>
    <g id="Grupo_453" data-name="Grupo 453">
      <path id="Trazado_17017" data-name="Trazado 17017" d="M530.981,369.292c0,4.8,8.672,8.695,19.369,8.695s19.369-3.892,19.369-8.695-8.672-8.7-19.369-8.7S530.981,364.489,530.981,369.292Z" transform="translate(-530.981 -348.948)" fill="#b00a0b"/>
      <path id="Trazado_17018" data-name="Trazado 17018" d="M530.981,365.659c0,4.8,8.672,8.7,19.369,8.7s19.369-3.9,19.369-8.7-8.672-8.695-19.369-8.695S530.981,360.856,530.981,365.659Z" transform="translate(-530.981 -356.964)" fill="#ff2121"/>
    </g>
  </g>
  <g id="Grupo_456" data-name="Grupo 456" transform="translate(27.947 24.663)">
    <rect id="Rectángulo_172" data-name="Rectángulo 172" width="38.738" height="11.648" transform="translate(0 8.696)" fill="#b00a0b"/>
    <g id="Grupo_455" data-name="Grupo 455" transform="translate(0.001)">
      <path id="Trazado_17019" data-name="Trazado 17019" d="M520.518,362.97c0,4.8,8.669,8.7,19.369,8.7s19.369-3.895,19.369-8.7-8.672-8.7-19.369-8.7S520.518,358.167,520.518,362.97Z" transform="translate(-520.518 -342.626)" fill="#b00a0b"/>
      <path id="Trazado_17020" data-name="Trazado 17020" d="M520.518,359.337c0,4.8,8.669,8.7,19.369,8.7s19.369-3.9,19.369-8.7-8.672-8.695-19.369-8.695S520.518,354.534,520.518,359.337Z" transform="translate(-520.518 -350.642)" fill="#ff2121"/>
    </g>
  </g>
</svg>
