<svg id="Grupo_437" data-name="Grupo 437" xmlns="http://www.w3.org/2000/svg" width="289.688" height="188.274" viewBox="0 0 289.688 188.274">
  <path id="Trazado_16985" data-name="Trazado 16985" d="M232.108,348.858l193.163,61.58L521.8,365.091l-88.789-14.4Z" transform="translate(-232.108 -222.164)" fill="#121212" opacity="0.3"/>
  <g id="Grupo_428" data-name="Grupo 428" transform="translate(0 1.721)">
    <path id="Trazado_16986" data-name="Trazado 16986" d="M341.7,407.588,273.454,448.05V363.475L341.7,323.093Z" transform="translate(-140.8 -280.782)" fill="#b00a0b"/>
    <path id="Trazado_16987" data-name="Trazado 16987" d="M364.762,449.378l-132.654-42.3V322.492L364.762,364.8Z" transform="translate(-232.108 -282.11)" fill="#e11415"/>
    <path id="Trazado_16988" data-name="Trazado 16988" d="M364.762,392.6,232.108,350.287l68.249-40.382,132.651,42.311Z" transform="translate(-232.108 -309.905)" fill="#ff2121"/>
  </g>
  <g id="Grupo_430" data-name="Grupo 430" transform="translate(29.846 21.788)">
    <rect id="Rectángulo_161" data-name="Rectángulo 161" width="38.738" height="11.648" transform="translate(0 8.698)" fill="#b00a0b"/>
    <g id="Grupo_429" data-name="Grupo 429" transform="translate(0)">
      <path id="Trazado_16989" data-name="Trazado 16989" d="M280.148,328.486c0,4.8-8.672,8.7-19.369,8.7s-19.369-3.9-19.369-8.7,8.672-8.695,19.369-8.695S280.148,323.686,280.148,328.486Z" transform="translate(-241.41 -308.141)" fill="#b00a0b"/>
      <path id="Trazado_16990" data-name="Trazado 16990" d="M280.148,324.858c0,4.8-8.672,8.695-19.369,8.695s-19.369-3.892-19.369-8.695,8.672-8.7,19.369-8.7S280.148,320.055,280.148,324.858Z" transform="translate(-241.41 -316.16)" fill="#ff2121"/>
    </g>
  </g>
  <g id="Grupo_432" data-name="Grupo 432" transform="translate(64.692)">
    <rect id="Rectángulo_162" data-name="Rectángulo 162" width="38.738" height="11.648" transform="translate(0 8.696)" fill="#b00a0b"/>
    <g id="Grupo_431" data-name="Grupo 431">
      <path id="Trazado_16991" data-name="Trazado 16991" d="M291.009,321.7c0,4.8-8.672,8.695-19.369,8.695s-19.369-3.892-19.369-8.695,8.672-8.7,19.369-8.7S291.009,316.894,291.009,321.7Z" transform="translate(-252.271 -301.353)" fill="#b00a0b"/>
      <path id="Trazado_16992" data-name="Trazado 16992" d="M291.009,318.064c0,4.8-8.672,8.7-19.369,8.7s-19.369-3.895-19.369-8.7,8.672-8.695,19.369-8.695S291.009,313.261,291.009,318.064Z" transform="translate(-252.271 -309.369)" fill="#ff2121"/>
    </g>
  </g>
  <g id="Grupo_434" data-name="Grupo 434" transform="translate(100.644 44.946)">
    <rect id="Rectángulo_163" data-name="Rectángulo 163" width="38.738" height="11.648" transform="translate(0 8.695)" fill="#b00a0b"/>
    <g id="Grupo_433" data-name="Grupo 433">
      <path id="Trazado_16993" data-name="Trazado 16993" d="M302.215,335.706c0,4.8-8.672,8.695-19.369,8.695s-19.369-3.892-19.369-8.695,8.672-8.7,19.369-8.7S302.215,330.9,302.215,335.706Z" transform="translate(-263.477 -315.362)" fill="#b00a0b"/>
      <path id="Trazado_16994" data-name="Trazado 16994" d="M302.215,332.073c0,4.8-8.672,8.7-19.369,8.7s-19.369-3.9-19.369-8.7,8.672-8.695,19.369-8.695S302.215,327.27,302.215,332.073Z" transform="translate(-263.477 -323.378)" fill="#ff2121"/>
    </g>
  </g>
  <g id="Grupo_436" data-name="Grupo 436" transform="translate(134.215 24.663)">
    <rect id="Rectángulo_164" data-name="Rectángulo 164" width="38.738" height="11.648" transform="translate(0 8.695)" fill="#b00a0b"/>
    <g id="Grupo_435" data-name="Grupo 435" transform="translate(0.001)">
      <path id="Trazado_16995" data-name="Trazado 16995" d="M312.679,329.384c0,4.8-8.672,8.695-19.369,8.695s-19.369-3.892-19.369-8.695,8.669-8.7,19.369-8.7S312.679,324.581,312.679,329.384Z" transform="translate(-273.941 -309.04)" fill="#b00a0b"/>
      <path id="Trazado_16996" data-name="Trazado 16996" d="M312.679,325.751c0,4.8-8.672,8.7-19.369,8.7s-19.369-3.895-19.369-8.7,8.669-8.695,19.369-8.695S312.679,320.948,312.679,325.751Z" transform="translate(-273.941 -317.056)" fill="#ff2121"/>
    </g>
  </g>
</svg>
