<svg id="Grupo_427" data-name="Grupo 427" xmlns="http://www.w3.org/2000/svg" width="282.286" height="168.989" viewBox="0 0 282.286 168.989">
  <path id="Trazado_16973" data-name="Trazado 16973" d="M486.082,432.807l149.632-21.843-22.8-26.115L437.489,367.457Z" transform="translate(-353.428 -263.818)" fill="#121212" opacity="0.3"/>
  <g id="Grupo_418" data-name="Grupo 418" transform="translate(0 1.721)">
    <path id="Trazado_16974" data-name="Trazado 16974" d="M520.88,433.373l-68.246,40.462V389.26l68.246-40.382Z" transform="translate(-319.98 -306.567)" fill="#ff8f00"/>
    <path id="Trazado_16975" data-name="Trazado 16975" d="M543.942,475.163l-132.654-42.3V348.277l132.654,42.312Z" transform="translate(-411.288 -307.895)" fill="#ffa600"/>
    <path id="Trazado_16976" data-name="Trazado 16976" d="M543.942,418.384,411.288,376.072l68.249-40.382L612.188,378Z" transform="translate(-411.288 -335.691)" fill="#ffd000"/>
  </g>
  <g id="Grupo_420" data-name="Grupo 420" transform="translate(29.846 21.788)">
    <rect id="Rectángulo_157" data-name="Rectángulo 157" width="38.738" height="11.648" transform="translate(0 8.698)" fill="#ff8f00"/>
    <g id="Grupo_419" data-name="Grupo 419" transform="translate(0.001)">
      <path id="Trazado_16977" data-name="Trazado 16977" d="M459.329,354.271c0,4.8-8.672,8.7-19.369,8.7s-19.369-3.9-19.369-8.7,8.669-8.695,19.369-8.695S459.329,349.471,459.329,354.271Z" transform="translate(-420.591 -333.926)" fill="#ff8f00"/>
      <path id="Trazado_16978" data-name="Trazado 16978" d="M459.329,350.643c0,4.8-8.672,8.695-19.369,8.695s-19.369-3.892-19.369-8.695,8.669-8.7,19.369-8.7S459.329,345.84,459.329,350.643Z" transform="translate(-420.591 -341.945)" fill="#ffd000"/>
    </g>
  </g>
  <g id="Grupo_422" data-name="Grupo 422" transform="translate(64.692)">
    <rect id="Rectángulo_158" data-name="Rectángulo 158" width="38.738" height="11.648" transform="translate(0 8.696)" fill="#ff8f00"/>
    <g id="Grupo_421" data-name="Grupo 421" transform="translate(0.001)">
      <path id="Trazado_16979" data-name="Trazado 16979" d="M470.19,347.482c0,4.8-8.672,8.695-19.369,8.695s-19.369-3.892-19.369-8.695,8.672-8.7,19.369-8.7S470.19,342.679,470.19,347.482Z" transform="translate(-431.452 -327.138)" fill="#ff8f00"/>
      <path id="Trazado_16980" data-name="Trazado 16980" d="M470.19,343.849c0,4.8-8.672,8.7-19.369,8.7s-19.369-3.895-19.369-8.7,8.672-8.695,19.369-8.695S470.19,339.046,470.19,343.849Z" transform="translate(-431.452 -335.154)" fill="#ffd000"/>
    </g>
  </g>
  <g id="Grupo_424" data-name="Grupo 424" transform="translate(100.645 44.946)">
    <rect id="Rectángulo_159" data-name="Rectángulo 159" width="38.738" height="11.648" transform="translate(0 8.695)" fill="#ff8f00"/>
    <g id="Grupo_423" data-name="Grupo 423" transform="translate(0.001)">
      <path id="Trazado_16981" data-name="Trazado 16981" d="M481.4,361.491c0,4.8-8.672,8.695-19.369,8.695s-19.369-3.892-19.369-8.695,8.672-8.7,19.369-8.7S481.4,356.688,481.4,361.491Z" transform="translate(-442.658 -341.147)" fill="#ff8f00"/>
      <path id="Trazado_16982" data-name="Trazado 16982" d="M481.4,357.858c0,4.8-8.672,8.7-19.369,8.7s-19.369-3.9-19.369-8.7,8.672-8.695,19.369-8.695S481.4,353.055,481.4,357.858Z" transform="translate(-442.658 -349.163)" fill="#ffd000"/>
    </g>
  </g>
  <g id="Grupo_426" data-name="Grupo 426" transform="translate(134.215 24.663)">
    <rect id="Rectángulo_160" data-name="Rectángulo 160" width="38.738" height="11.648" transform="translate(0 8.695)" fill="#ff8f00"/>
    <g id="Grupo_425" data-name="Grupo 425">
      <path id="Trazado_16983" data-name="Trazado 16983" d="M491.859,355.169c0,4.8-8.672,8.695-19.369,8.695s-19.369-3.892-19.369-8.695,8.672-8.7,19.369-8.7S491.859,350.366,491.859,355.169Z" transform="translate(-453.121 -334.825)" fill="#ff8f00"/>
      <path id="Trazado_16984" data-name="Trazado 16984" d="M491.859,351.536c0,4.8-8.672,8.7-19.369,8.7s-19.369-3.895-19.369-8.7,8.672-8.695,19.369-8.695S491.859,346.733,491.859,351.536Z" transform="translate(-453.121 -342.841)" fill="#ffd000"/>
    </g>
  </g>
</svg>
