<svg id="Grupo_447" data-name="Grupo 447" xmlns="http://www.w3.org/2000/svg" width="282.77" height="168.991" viewBox="0 0 282.77 168.991">
  <path id="Trazado_16997" data-name="Trazado 16997" d="M388.6,382.715l158.55,10.969-22.449,41.5L332.623,446.157Z" transform="translate(-264.377 -277.166)" fill="#121212" opacity="0.3"/>
  <g id="Grupo_438" data-name="Grupo 438" transform="translate(0 1.723)">
    <path id="Trazado_16998" data-name="Trazado 16998" d="M311.352,448.037,379.6,488.5V403.924l-68.245-40.382Z" transform="translate(-311.352 -321.231)" fill="#32a0ff"/>
    <path id="Trazado_16999" data-name="Trazado 16999" d="M332.623,489.827l132.654-42.3V362.94L332.623,405.252Z" transform="translate(-264.377 -322.559)" fill="#1a8bff"/>
    <path id="Trazado_17000" data-name="Trazado 17000" d="M379.6,433.047l132.654-42.312L444,350.354,311.352,392.665Z" transform="translate(-311.352 -350.354)" fill="#51bcff"/>
  </g>
  <g id="Grupo_440" data-name="Grupo 440" transform="translate(132.316 21.791)">
    <rect id="Rectángulo_165" data-name="Rectángulo 165" width="38.737" height="11.648" transform="translate(0 8.696)" fill="#1a8bff"/>
    <g id="Grupo_439" data-name="Grupo 439" transform="translate(0.001)">
      <path id="Trazado_17001" data-name="Trazado 17001" d="M352.593,368.937c0,4.8,8.672,8.695,19.369,8.695s19.369-3.892,19.369-8.695-8.672-8.7-19.369-8.7S352.593,364.134,352.593,368.937Z" transform="translate(-352.593 -348.593)" fill="#1a8bff"/>
      <path id="Trazado_17002" data-name="Trazado 17002" d="M352.593,365.3c0,4.8,8.672,8.7,19.369,8.7s19.369-3.895,19.369-8.7-8.672-8.695-19.369-8.695S352.593,360.5,352.593,365.3Z" transform="translate(-352.593 -356.609)" fill="#51bcff"/>
    </g>
  </g>
  <g id="Grupo_442" data-name="Grupo 442" transform="translate(97.47)">
    <rect id="Rectángulo_166" data-name="Rectángulo 166" width="38.738" height="11.648" transform="translate(0 8.698)" fill="#1a8bff"/>
    <g id="Grupo_441" data-name="Grupo 441" transform="translate(0.001)">
      <path id="Trazado_17003" data-name="Trazado 17003" d="M341.732,362.143c0,4.8,8.669,8.7,19.369,8.7s19.369-3.895,19.369-8.7-8.672-8.695-19.369-8.695S341.732,357.34,341.732,362.143Z" transform="translate(-341.732 -341.798)" fill="#1a8bff"/>
      <path id="Trazado_17004" data-name="Trazado 17004" d="M341.732,358.515c0,4.8,8.669,8.695,19.369,8.695s19.369-3.892,19.369-8.695-8.672-8.7-19.369-8.7S341.732,353.712,341.732,358.515Z" transform="translate(-341.732 -349.817)" fill="#51bcff"/>
    </g>
  </g>
  <g id="Grupo_444" data-name="Grupo 444" transform="translate(61.517 44.946)">
    <rect id="Rectángulo_167" data-name="Rectángulo 167" width="38.738" height="11.648" transform="translate(0 8.697)" fill="#1a8bff"/>
    <g id="Grupo_443" data-name="Grupo 443" transform="translate(0.001)">
      <path id="Trazado_17005" data-name="Trazado 17005" d="M330.526,376.152c0,4.8,8.672,8.7,19.369,8.7s19.369-3.895,19.369-8.7-8.672-8.695-19.369-8.695S330.526,371.349,330.526,376.152Z" transform="translate(-330.526 -355.807)" fill="#1a8bff"/>
      <path id="Trazado_17006" data-name="Trazado 17006" d="M330.526,372.524c0,4.8,8.672,8.695,19.369,8.695s19.369-3.892,19.369-8.695-8.672-8.7-19.369-8.7S330.526,367.721,330.526,372.524Z" transform="translate(-330.526 -363.826)" fill="#51bcff"/>
    </g>
  </g>
  <g id="Grupo_446" data-name="Grupo 446" transform="translate(27.946 24.663)">
    <rect id="Rectángulo_168" data-name="Rectángulo 168" width="38.738" height="11.648" transform="translate(0 8.697)" fill="#1a8bff"/>
    <g id="Grupo_445" data-name="Grupo 445">
      <path id="Trazado_17007" data-name="Trazado 17007" d="M320.062,369.83c0,4.8,8.672,8.7,19.369,8.7s19.369-3.895,19.369-8.7-8.672-8.695-19.369-8.695S320.062,365.027,320.062,369.83Z" transform="translate(-320.062 -349.485)" fill="#1a8bff"/>
      <path id="Trazado_17008" data-name="Trazado 17008" d="M320.062,366.2c0,4.8,8.672,8.695,19.369,8.695S358.8,371,358.8,366.2s-8.672-8.7-19.369-8.7S320.062,361.4,320.062,366.2Z" transform="translate(-320.062 -357.504)" fill="#51bcff"/>
    </g>
  </g>
</svg>
