<svg id="Componente_9_1" data-name="Componente 9 – 1" xmlns="http://www.w3.org/2000/svg" width="642.914" height="34.434" viewBox="0 0 642.914 34.434">
  <g id="Grupo_404" data-name="Grupo 404">
    <path id="Trazado_16862" data-name="Trazado 16862" d="M17.3,225.349l-.058,9.312-21.61,12.558.058-9.312Z" transform="translate(26.13 -212.786)" fill="#ffa600"/>
    <path id="Trazado_16863" data-name="Trazado 16863" d="M.549,237.908.491,247.22l-21.759-12.563.058-9.312Z" transform="translate(21.268 -212.787)" fill="#ff8f00"/>
    <path id="Trazado_16864" data-name="Trazado 16864" d="M22.146,228.155.536,240.714l-21.759-12.563L.387,215.593Z" transform="translate(21.281 -215.593)" fill="#ffd000"/>
    <path id="Trazado_16865" data-name="Trazado 16865" d="M5.609,226.7a16.715,16.715,0,0,1-15.18,0,6.736,6.736,0,0,1-2.725-2.645,3.869,3.869,0,0,1-.443-1.782l-.012,4.1c-.005,1.6,1.053,3.206,3.168,4.428a16.711,16.711,0,0,0,15.18,0,6.145,6.145,0,0,0,2.922-3.186,3.746,3.746,0,0,0,.2-1.18l.012-4.1C8.724,223.92,7.683,225.5,5.609,226.7Z" transform="translate(23.719 -213.669)" fill="#ff8f00"/>
    <path id="Trazado_16866" data-name="Trazado 16866" d="M5.557,219.294c4.208,2.43,4.222,6.366.049,8.792a16.716,16.716,0,0,1-15.18,0c-4.2-2.425-4.23-6.363-.049-8.792A16.739,16.739,0,0,1,5.557,219.294Z" transform="translate(23.722 -215.051)" fill="#ffe800"/>
  </g>
  <g id="Grupo_405" data-name="Grupo 405" transform="translate(381.491)">
    <path id="Trazado_16867" data-name="Trazado 16867" d="M313.553,225.349l-.058,9.312-21.61,12.558.058-9.312Z" transform="translate(-270.125 -212.786)" fill="#50a700"/>
    <path id="Trazado_16868" data-name="Trazado 16868" d="M296.8,237.908l-.058,9.312-21.759-12.563.058-9.312Z" transform="translate(-274.987 -212.787)" fill="#308d00"/>
    <path id="Trazado_16869" data-name="Trazado 16869" d="M318.4,228.155l-21.61,12.558-21.759-12.563,21.61-12.558Z" transform="translate(-274.974 -215.593)" fill="#6bbd00"/>
    <path id="Trazado_16870" data-name="Trazado 16870" d="M301.873,226.7a16.731,16.731,0,0,1-15.18,0c-2.117-1.223-3.176-2.827-3.17-4.427l-.012,4.1c-.005,1.6,1.053,3.2,3.17,4.427a16.727,16.727,0,0,0,15.18,0c2.073-1.2,3.111-2.784,3.116-4.365l.012-4.1C304.985,223.92,303.947,225.5,301.873,226.7Z" transform="translate(-272.534 -213.669)" fill="#308d00"/>
    <path id="Trazado_16871" data-name="Trazado 16871" d="M301.822,219.294c4.2,2.425,4.222,6.366.049,8.792a16.731,16.731,0,0,1-15.179,0c-4.208-2.43-4.23-6.363-.049-8.792A16.727,16.727,0,0,1,301.822,219.294Z" transform="translate(-272.532 -215.052)" fill="#7cdb00"/>
  </g>
  <g id="Grupo_406" data-name="Grupo 406" transform="translate(435.989)">
    <path id="Trazado_16872" data-name="Trazado 16872" d="M355.875,225.349l-.058,9.312-21.61,12.558.058-9.312Z" transform="translate(-312.448 -212.786)" fill="#007500"/>
    <path id="Trazado_16873" data-name="Trazado 16873" d="M339.127,237.908l-.058,9.312-21.759-12.563.058-9.312Z" transform="translate(-317.309 -212.787)" fill="#006300"/>
    <path id="Trazado_16874" data-name="Trazado 16874" d="M360.723,228.155l-21.61,12.558-21.759-12.563,21.61-12.558Z" transform="translate(-317.296 -215.593)" fill="#008c00"/>
    <path id="Trazado_16875" data-name="Trazado 16875" d="M344.2,226.7a16.731,16.731,0,0,1-15.18,0c-2.118-1.223-3.177-2.827-3.172-4.427l-.012,4.1c-.005,1.6,1.053,3.2,3.17,4.427a16.727,16.727,0,0,0,15.18,0c2.074-1.2,3.112-2.784,3.116-4.365l.012-4.1C347.308,223.92,346.27,225.5,344.2,226.7Z" transform="translate(-314.856 -213.669)" fill="#006300"/>
    <path id="Trazado_16876" data-name="Trazado 16876" d="M344.144,219.294c4.2,2.425,4.224,6.366.05,8.792a16.731,16.731,0,0,1-15.179,0c-4.21-2.43-4.231-6.363-.05-8.792A16.727,16.727,0,0,1,344.144,219.294Z" transform="translate(-314.854 -215.052)" fill="#00ab00"/>
  </g>
  <g id="Grupo_407" data-name="Grupo 407" transform="translate(217.995)">
    <path id="Trazado_16877" data-name="Trazado 16877" d="M186.586,225.349l-.058,9.312-21.61,12.558.058-9.312Z" transform="translate(-143.159 -212.786)" fill="#9f28ff"/>
    <path id="Trazado_16878" data-name="Trazado 16878" d="M169.838,237.908l-.058,9.312L148.02,234.658l.058-9.312Z" transform="translate(-148.02 -212.787)" fill="#8010ff"/>
    <path id="Trazado_16879" data-name="Trazado 16879" d="M191.435,228.155l-21.61,12.558-21.759-12.563,21.61-12.558Z" transform="translate(-148.008 -215.593)" fill="#b136ff"/>
    <path id="Trazado_16880" data-name="Trazado 16880" d="M174.908,226.708a16.734,16.734,0,0,1-15.181,0c-2.12-1.225-3.179-2.83-3.174-4.434l-.012,4.1c-.005,1.6,1.055,3.21,3.174,4.434a16.727,16.727,0,0,0,15.18,0c2.073-1.2,3.112-2.784,3.116-4.365l.012-4.1C178.017,223.924,176.981,225.5,174.908,226.708Z" transform="translate(-145.569 -213.67)" fill="#8010ff"/>
    <path id="Trazado_16881" data-name="Trazado 16881" d="M174.855,219.3c4.2,2.425,4.224,6.366.049,8.792a16.731,16.731,0,0,1-15.18,0c-4.208-2.43-4.239-6.368-.057-8.8A16.748,16.748,0,0,1,174.855,219.3Z" transform="translate(-145.567 -215.052)" fill="#ca4dff"/>
  </g>
  <g id="Grupo_408" data-name="Grupo 408" transform="translate(163.496)">
    <path id="Trazado_16882" data-name="Trazado 16882" d="M144.264,225.349l-.058,9.312L122.6,247.219l.058-9.312Z" transform="translate(-100.837 -212.786)" fill="#f7349b"/>
    <path id="Trazado_16883" data-name="Trazado 16883" d="M127.516,237.908l-.058,9.312L105.7,234.658l.058-9.312Z" transform="translate(-105.698 -212.787)" fill="#eb2185"/>
    <path id="Trazado_16884" data-name="Trazado 16884" d="M149.113,228.155,127.5,240.714l-21.759-12.563,21.61-12.558Z" transform="translate(-105.685 -215.593)" fill="#ff47ae"/>
    <path id="Trazado_16885" data-name="Trazado 16885" d="M132.585,226.707A16.732,16.732,0,0,1,117.4,226.7c-2.114-1.221-3.173-2.825-3.168-4.427l-.012,4.1c-.005,1.6,1.053,3.208,3.168,4.428a16.731,16.731,0,0,0,15.187,0,5.7,5.7,0,0,0,3.065-3.772,3.527,3.527,0,0,0,.05-.592l.012-4.1C135.7,223.925,134.658,225.5,132.585,226.707Z" transform="translate(-103.247 -213.67)" fill="#eb2185"/>
    <path id="Trazado_16886" data-name="Trazado 16886" d="M132.525,219.291c4.208,2.43,4.23,6.372.057,8.8a16.732,16.732,0,0,1-15.187-.005c-4.2-2.425-4.231-6.363-.049-8.792A16.747,16.747,0,0,1,132.525,219.291Z" transform="translate(-103.245 -215.052)" fill="#ff5cb7"/>
  </g>
  <g id="Grupo_409" data-name="Grupo 409" transform="translate(272.494)">
    <path id="Trazado_16887" data-name="Trazado 16887" d="M228.908,225.349l-.058,9.312-21.61,12.558.058-9.312Z" transform="translate(-185.481 -212.786)" fill="#32a0ff"/>
    <path id="Trazado_16888" data-name="Trazado 16888" d="M212.16,237.908l-.058,9.312-21.759-12.563.058-9.312Z" transform="translate(-190.343 -212.787)" fill="#1a8bff"/>
    <path id="Trazado_16889" data-name="Trazado 16889" d="M233.757,228.155l-21.61,12.558-21.759-12.563L212,215.593Z" transform="translate(-190.33 -215.593)" fill="#51bcff"/>
    <path id="Trazado_16890" data-name="Trazado 16890" d="M217.23,226.7a16.731,16.731,0,0,1-15.179,0c-2.118-1.223-3.175-2.827-3.172-4.427l-.012,4.1c0,1.6,1.053,3.2,3.172,4.427a16.727,16.727,0,0,0,15.18,0c2.073-1.2,3.111-2.784,3.116-4.365l.012-4.1C220.341,223.92,219.3,225.5,217.23,226.7Z" transform="translate(-187.89 -213.669)" fill="#1a8bff"/>
    <path id="Trazado_16891" data-name="Trazado 16891" d="M217.178,219.294c4.2,2.425,4.222,6.366.049,8.792a16.731,16.731,0,0,1-15.18,0c-4.21-2.43-4.231-6.363-.05-8.792A16.73,16.73,0,0,1,217.178,219.294Z" transform="translate(-187.888 -215.052)" fill="#5cd1ff"/>
  </g>
  <g id="Grupo_410" data-name="Grupo 410" transform="translate(54.499)">
    <path id="Trazado_16892" data-name="Trazado 16892" d="M59.62,225.349l-.058,9.312-21.61,12.558.058-9.312Z" transform="translate(-16.192 -212.786)" fill="#fb7400"/>
    <path id="Trazado_16893" data-name="Trazado 16893" d="M42.871,237.908l-.058,9.312L21.054,234.658l.058-9.312Z" transform="translate(-21.054 -212.787)" fill="#f45c00"/>
    <path id="Trazado_16894" data-name="Trazado 16894" d="M64.468,228.155l-21.61,12.558L21.1,228.151l21.61-12.558Z" transform="translate(-21.041 -215.593)" fill="#ff8f00"/>
    <path id="Trazado_16895" data-name="Trazado 16895" d="M47.931,226.7a16.715,16.715,0,0,1-15.18,0c-2.114-1.221-3.172-2.825-3.168-4.427l-.012,4.1c-.005,1.6,1.053,3.206,3.168,4.428a16.715,16.715,0,0,0,15.18,0c2.074-1.207,3.115-2.785,3.119-4.367l.012-4.1C51.046,223.92,50.005,225.5,47.931,226.7Z" transform="translate(-18.603 -213.669)" fill="#f45c00"/>
    <ellipse id="Elipse_7" data-name="Elipse 7" cx="6.217" cy="10.734" rx="6.217" ry="10.734" transform="matrix(0.003, -1, 1, 0.003, 10.962, 14.825)" fill="#ffa200"/>
  </g>
  <g id="Grupo_411" data-name="Grupo 411" transform="translate(326.992)">
    <path id="Trazado_16896" data-name="Trazado 16896" d="M271.231,225.349l-.058,9.312-21.61,12.558.058-9.312Z" transform="translate(-227.803 -212.786)" fill="#0a5bff"/>
    <path id="Trazado_16897" data-name="Trazado 16897" d="M254.482,237.908l-.058,9.312-21.759-12.563.058-9.312Z" transform="translate(-232.665 -212.787)" fill="#0642ff"/>
    <path id="Trazado_16898" data-name="Trazado 16898" d="M276.079,228.155l-21.61,12.558L232.71,228.151l21.61-12.558Z" transform="translate(-232.652 -215.593)" fill="#0d6aff"/>
    <path id="Trazado_16899" data-name="Trazado 16899" d="M259.552,226.7a16.731,16.731,0,0,1-15.179,0c-2.118-1.223-3.175-2.827-3.172-4.427l-.012,4.1c0,1.6,1.053,3.2,3.172,4.427a16.727,16.727,0,0,0,15.179,0c2.073-1.2,3.111-2.784,3.116-4.365l.012-4.1C262.663,223.92,261.625,225.5,259.552,226.7Z" transform="translate(-230.212 -213.669)" fill="#0642ff"/>
    <path id="Trazado_16900" data-name="Trazado 16900" d="M259.5,219.294c4.2,2.425,4.222,6.366.049,8.792a16.731,16.731,0,0,1-15.18,0c-4.208-2.43-4.231-6.363-.049-8.792A16.727,16.727,0,0,1,259.5,219.294Z" transform="translate(-230.21 -215.052)" fill="#0084ff"/>
  </g>
  <g id="Grupo_412" data-name="Grupo 412" transform="translate(544.987)">
    <path id="Trazado_16901" data-name="Trazado 16901" d="M440.519,225.349l-.058,9.312-21.61,12.558.058-9.312Z" transform="translate(-397.092 -212.786)" fill="#999"/>
    <path id="Trazado_16902" data-name="Trazado 16902" d="M423.771,237.908l-.058,9.312-21.759-12.563.058-9.312Z" transform="translate(-401.954 -212.787)" fill="gray"/>
    <path id="Trazado_16903" data-name="Trazado 16903" d="M445.368,228.155l-21.61,12.558L402,228.151l21.61-12.558Z" transform="translate(-401.94 -215.593)" fill="#a6a6a6"/>
    <path id="Trazado_16904" data-name="Trazado 16904" d="M428.841,226.7a16.731,16.731,0,0,1-15.18,0,8.012,8.012,0,0,1-1.935-1.516,4.311,4.311,0,0,1-1.236-2.912l-.012,4.1c0,1.6,1.053,3.2,3.172,4.427a16.731,16.731,0,0,0,15.18,0A6.658,6.658,0,0,0,431.5,228.2a3.868,3.868,0,0,0,.44-1.759l.012-4.1C431.952,223.92,430.914,225.5,428.841,226.7Z" transform="translate(-399.501 -213.669)" fill="gray"/>
    <path id="Trazado_16905" data-name="Trazado 16905" d="M428.789,219.294c4.2,2.425,4.222,6.366.049,8.792a16.731,16.731,0,0,1-15.18,0c-4.21-2.43-4.231-6.363-.05-8.792A16.73,16.73,0,0,1,428.789,219.294Z" transform="translate(-399.498 -215.052)" fill="#bababa"/>
  </g>
  <g id="Grupo_413" data-name="Grupo 413" transform="translate(490.488)">
    <path id="Trazado_16906" data-name="Trazado 16906" d="M398.2,225.349l-.058,9.312-21.61,12.558.058-9.312Z" transform="translate(-354.77 -212.786)" fill="#ccc"/>
    <path id="Trazado_16907" data-name="Trazado 16907" d="M381.449,237.908l-.058,9.312-21.759-12.563.058-9.312Z" transform="translate(-359.631 -212.787)" fill="#b3b3b3"/>
    <path id="Trazado_16908" data-name="Trazado 16908" d="M403.046,228.155l-21.61,12.558-21.759-12.563,21.61-12.558Z" transform="translate(-359.618 -215.593)" fill="#e6e6e6"/>
    <path id="Trazado_16909" data-name="Trazado 16909" d="M386.519,226.7a16.731,16.731,0,0,1-15.179,0,8.015,8.015,0,0,1-1.936-1.516,4.311,4.311,0,0,1-1.236-2.912l-.012,4.1c-.005,1.6,1.053,3.2,3.172,4.427a16.731,16.731,0,0,0,15.179,0,6.658,6.658,0,0,0,2.675-2.608,3.866,3.866,0,0,0,.44-1.759l.012-4.1C389.63,223.92,388.592,225.5,386.519,226.7Z" transform="translate(-357.179 -213.669)" fill="#b3b3b3"/>
    <path id="Trazado_16910" data-name="Trazado 16910" d="M386.466,219.294c4.2,2.425,4.224,6.366.05,8.792a16.731,16.731,0,0,1-15.18,0c-4.209-2.43-4.231-6.363-.05-8.792A16.727,16.727,0,0,1,386.466,219.294Z" transform="translate(-357.176 -215.052)" fill="#ededed"/>
  </g>
  <g id="Grupo_415" data-name="Grupo 415" transform="translate(108.998)">
    <path id="Trazado_16916" data-name="Trazado 16916" d="M101.942,225.349l-.058,9.312-21.61,12.558.058-9.312Z" transform="translate(-58.514 -212.786)" fill="#e11415"/>
    <path id="Trazado_16917" data-name="Trazado 16917" d="M85.194,237.908l-.058,9.312L63.376,234.658l.058-9.312Z" transform="translate(-63.376 -212.787)" fill="#b00a0b"/>
    <path id="Trazado_16918" data-name="Trazado 16918" d="M106.79,228.155l-21.61,12.558L63.421,228.151l21.61-12.558Z" transform="translate(-63.363 -215.593)" fill="#ff2121"/>
    <path id="Trazado_16919" data-name="Trazado 16919" d="M90.263,226.707a16.732,16.732,0,0,1-15.187-.005c-2.116-1.221-3.173-2.825-3.169-4.427l-.012,4.1c0,1.6,1.053,3.208,3.169,4.428a16.731,16.731,0,0,0,15.187,0,5.7,5.7,0,0,0,3.065-3.772,3.818,3.818,0,0,0,.05-.592l.012-4.1C93.373,223.925,92.335,225.5,90.263,226.707Z" transform="translate(-60.925 -213.67)" fill="#b00a0b"/>
    <path id="Trazado_16920" data-name="Trazado 16920" d="M90.2,219.291c4.21,2.43,4.231,6.372.058,8.8a16.732,16.732,0,0,1-15.187-.005c-4.2-2.425-4.231-6.363-.05-8.792A16.747,16.747,0,0,1,90.2,219.291Z" transform="translate(-60.922 -215.052)" fill="#f22"/>
    <path id="Trazado_16921" data-name="Trazado 16921" d="M90.2,219.291c4.21,2.43,4.231,6.372.058,8.8a16.732,16.732,0,0,1-15.187-.005c-4.2-2.425-4.231-6.363-.05-8.792A16.747,16.747,0,0,1,90.2,219.291Z" transform="translate(-60.922 -215.052)" fill="#f22"/>
  </g>
  <g id="Grupo_414" data-name="Grupo 414" transform="translate(599.486)">
    <path id="Trazado_16911" data-name="Trazado 16911" d="M482.841,225.349l-.058,9.312-21.61,12.558.058-9.312Z" transform="translate(-439.414 -212.786)" fill="#2e2e2e"/>
    <path id="Trazado_16912" data-name="Trazado 16912" d="M466.093,237.908l-.058,9.312-21.759-12.563.058-9.312Z" transform="translate(-444.276 -212.787)" fill="#202020"/>
    <path id="Trazado_16913" data-name="Trazado 16913" d="M487.69,228.155l-21.61,12.558-21.759-12.563,21.61-12.558Z" transform="translate(-444.263 -215.593)" fill="#3b3b3b"/>
    <path id="Trazado_16914" data-name="Trazado 16914" d="M471.163,226.7a16.731,16.731,0,0,1-15.179,0c-2.118-1.223-3.176-2.827-3.172-4.427l-.012,4.1c0,1.6,1.053,3.2,3.172,4.427a16.731,16.731,0,0,0,15.179,0c2.073-1.205,3.111-2.784,3.116-4.367l.012-4.1C474.274,223.92,473.236,225.5,471.163,226.7Z" transform="translate(-441.823 -213.669)" fill="#1f1f1f"/>
    <path id="Trazado_16915" data-name="Trazado 16915" d="M471.111,219.294c4.2,2.425,4.222,6.366.049,8.792a16.731,16.731,0,0,1-15.18,0c-4.208-2.43-4.231-6.363-.049-8.792A16.727,16.727,0,0,1,471.111,219.294Z" transform="translate(-441.821 -215.052)" fill="#4d4d4d"/>
  </g>
</svg>
