<svg xmlns="http://www.w3.org/2000/svg" width="377.223" height="135.184" viewBox="0 0 377.223 135.184">
  <g id="Grupo_389" data-name="Grupo 389" transform="translate(-393 330.437)">
    <g id="Grupo_387" data-name="Grupo 387" transform="translate(393.11 -330.437)">
      <path id="Trazado_16922" data-name="Trazado 16922" d="M1253.119,645.842h-25.564l-7.717-20.879H1180.1l-7.72,20.879h-25.561l42.141-104.4h22.019ZM1200.1,573.709h-.253L1188.2,604.081h23.538Z" transform="translate(-1146.819 -539.542)" fill="#fff"/>
      <path id="Trazado_16923" data-name="Trazado 16923" d="M1258.858,619.187l10.123,20.246s-11.642,9.62-34.294,9.62c-29.485,0-56.568-24.044-56.568-53.91,0-29.992,26.956-54.289,56.568-54.289,22.652,0,34.294,9.616,34.294,9.616l-10.123,20.249a36.258,36.258,0,0,0-20.5-6.454c-23.917,0-34.42,16.7-34.42,30.625,0,14.045,10.5,30.752,34.42,30.752A36.257,36.257,0,0,0,1258.858,619.187Z" transform="translate(-1076.501 -540.854)" fill="#fff"/>
      <path id="Trazado_16924" data-name="Trazado 16924" d="M1239.157,541.438c28.6,0,52.646,21.768,52.646,52.14,0,30.5-23.921,52.264-52.646,52.264h-30.245v-104.4Zm-2.782,83.145c17.59,0,29.612-13.415,29.739-30.878,0-17.463-12.022-31-29.739-31H1232.7v61.883Z" transform="translate(-1007.322 -539.542)" fill="#fff"/>
      <path id="Trazado_16925" data-name="Trazado 16925" d="M1315.728,619.187l10.123,20.246s-11.642,9.62-34.294,9.62c-29.485,0-56.568-24.044-56.568-53.91,0-29.992,26.956-54.289,56.568-54.289,22.652,0,34.294,9.616,34.294,9.616l-10.123,20.249a36.259,36.259,0,0,0-20.5-6.454c-23.917,0-34.42,16.7-34.42,30.625,0,14.045,10.5,30.752,34.42,30.752A36.259,36.259,0,0,0,1315.728,619.187Z" transform="translate(-948.738 -540.854)" fill="#fff"/>
    </g>
    <g id="Grupo_388" data-name="Grupo 388" transform="translate(393 -211.31)">
      <path id="Trazado_16926" data-name="Trazado 16926" d="M1155.956,588.866h-5.785l-1.406,4.178h-1.98l5.233-14.824-.175-.571h2.2l5.386,15.4h-2.088Zm-5.233-1.649h4.7l-1.847-5.607-.507-1.74-.5,1.782Z" transform="translate(-1146.785 -577.318)" fill="#fff"/>
      <path id="Trazado_16927" data-name="Trazado 16927" d="M1161.066,581.954a4.273,4.273,0,0,1-3.432,4.087v.046s.351.065,1.078,1.321l3.233,5.649h-2.178L1156.1,586.5h-2.727v6.555h-1.981v-15.4s2.2-.019,3.916-.019C1158.624,577.643,1161.066,578.61,1161.066,581.954Zm-5.74-2.662c-1.058,0-1.958.023-1.958.023v5.649s.594.023,1.428.023c2.289,0,4.289-.179,4.289-2.967C1159.086,580.234,1157.9,579.292,1155.326,579.292Z" transform="translate(-1136.444 -577.331)" fill="#fff"/>
      <path id="Trazado_16928" data-name="Trazado 16928" d="M1163.665,582.056a2.761,2.761,0,0,0-3.032-2.857c-2.114,0-3.3,1.162-3.386,3.428-.068,1.782-.068,3.828,0,6a3.2,3.2,0,0,0,3.3,3.324,2.916,2.916,0,0,0,3.23-2.971l1.76.11c.068,2.438-1.87,4.51-4.99,4.51-2.993,0-5.168-1.74-5.279-4.951-.065-1.714-.065-4.331,0-6.026a5.061,5.061,0,0,1,5.409-5.081c3.123,0,4.883,1.961,4.75,4.4Z" transform="translate(-1127.839 -577.547)" fill="#fff"/>
      <path id="Trazado_16929" data-name="Trazado 16929" d="M1163.093,579.3h-4.354v-1.653h10.688V579.3h-4.354v13.743h-1.98Z" transform="translate(-1119.929 -577.318)" fill="#fff"/>
      <path id="Trazado_16930" data-name="Trazado 16930" d="M1164.683,593.044h-1.977v-15.4h1.977Z" transform="translate(-1111.017 -577.318)" fill="#fff"/>
      <path id="Trazado_16931" data-name="Trazado 16931" d="M1172.82,582.056a2.764,2.764,0,0,0-3.036-2.857c-2.11,0-3.3,1.162-3.386,3.428-.068,1.782-.068,3.828,0,6a3.2,3.2,0,0,0,3.3,3.324,2.92,2.92,0,0,0,3.233-2.971l1.756.11c.068,2.438-1.866,4.51-4.99,4.51-2.99,0-5.169-1.74-5.279-4.951-.065-1.714-.065-4.331,0-6.026a5.064,5.064,0,0,1,5.412-5.081c3.12,0,4.879,1.961,4.75,4.4Z" transform="translate(-1107.281 -577.547)" fill="#fff"/>
      <path id="Trazado_16932" data-name="Trazado 16932" d="M1178.933,582.056a2.761,2.761,0,0,0-3.033-2.857c-2.114,0-3.3,1.162-3.386,3.428-.068,1.782-.068,3.828,0,6a3.2,3.2,0,0,0,3.3,3.324,2.916,2.916,0,0,0,3.23-2.971l1.76.11c.068,2.438-1.87,4.51-4.99,4.51-2.993,0-5.168-1.74-5.279-4.951-.065-1.714-.065-4.331,0-6.026a5.063,5.063,0,0,1,5.409-5.081c3.123,0,4.883,1.961,4.75,4.4Z" transform="translate(-1093.541 -577.547)" fill="#fff"/>
      <path id="Trazado_16933" data-name="Trazado 16933" d="M1174.548,577.649h1.98v13.743h6.243v1.652h-8.224Z" transform="translate(-1084.413 -577.318)" fill="#fff"/>
      <path id="Trazado_16934" data-name="Trazado 16934" d="M1177.618,588.524c-.088-2.023-.088-4.048,0-5.961a5.332,5.332,0,0,1,10.646,0c.088,1.912.088,3.938,0,5.961a5.329,5.329,0,0,1-10.646,0Zm8.665-.019c.068-2.136.045-4.2,0-5.9a3.343,3.343,0,1,0-6.685,0c-.042,1.691-.065,3.759,0,5.9a3.344,3.344,0,1,0,6.685,0Z" transform="translate(-1077.663 -577.547)" fill="#fff"/>
      <path id="Trazado_16935" data-name="Trazado 16935" d="M1181.9,588.161c-.023-2.506,0-10.513,0-10.513h1.98s-.022,8.555,0,10.513c.02,2.289,1.231,3.565,3.23,3.565s3.191-1.276,3.211-3.565c.023-1.958,0-10.513,0-10.513h1.98s.023,8.006,0,10.513a5.2,5.2,0,1,1-10.4,0Z" transform="translate(-1067.921 -577.318)" fill="#fff"/>
      <path id="Trazado_16936" data-name="Trazado 16936" d="M1186.285,577.723s1.562-.107,3.211-.107c3.321,0,6.574.945,6.86,5.1a39.5,39.5,0,0,1,0,5.123c-.218,4-3.364,5.386-7.08,5.386-1.848,0-2.99-.107-2.99-.107Zm3.432,1.542c-.968,0-1.451.042-1.451.042v12.227s.614.045,1.364.045c2.088,0,4.571-.617,4.75-3.652a39.237,39.237,0,0,0,0-5.1C1194.2,580.275,1192.375,579.265,1189.717,579.265Z" transform="translate(-1058.045 -577.392)" fill="#fff"/>
      <path id="Trazado_16937" data-name="Trazado 16937" d="M1192.678,577.723s1.562-.107,3.211-.107c3.321,0,6.578.945,6.863,5.1a39.591,39.591,0,0,1,0,5.123c-.221,4-3.367,5.386-7.081,5.386-1.847,0-2.993-.107-2.993-.107Zm3.432,1.542c-.967,0-1.451.042-1.451.042v12.227s.617.045,1.364.045c2.091,0,4.574-.617,4.75-3.652a39.411,39.411,0,0,0,0-5.1C1200.6,580.275,1198.772,579.265,1196.109,579.265Z" transform="translate(-1043.682 -577.392)" fill="#fff"/>
      <path id="Trazado_16938" data-name="Trazado 16938" d="M1196.855,577.649h8.357V579.3h-6.379v5.055h5.74v1.649h-5.74v5.386h6.379v1.652h-8.357Z" transform="translate(-1034.299 -577.318)" fill="#fff"/>
      <path id="Trazado_16939" data-name="Trazado 16939" d="M1204.681,593.044l-4.883-15.4h2.156l3.87,13.129,3.74-13.129h2.133l-4.86,15.4Z" transform="translate(-1027.687 -577.318)" fill="#fff"/>
      <path id="Trazado_16940" data-name="Trazado 16940" d="M1204.1,577.649h8.356V579.3h-6.379v5.055h5.74v1.649h-5.74v5.386h6.379v1.652H1204.1Z" transform="translate(-1018.013 -577.318)" fill="#fff"/>
      <path id="Trazado_16941" data-name="Trazado 16941" d="M1207.623,577.649h1.98v13.743h6.246v1.652h-8.227Z" transform="translate(-1010.107 -577.318)" fill="#fff"/>
      <path id="Trazado_16942" data-name="Trazado 16942" d="M1210.695,588.524c-.088-2.023-.088-4.048,0-5.961a5.332,5.332,0,0,1,10.645,0c.088,1.912.088,3.938,0,5.961a5.328,5.328,0,0,1-10.645,0Zm8.665-.019c.065-2.136.042-4.2,0-5.9a3.343,3.343,0,1,0-6.685,0c-.046,1.691-.068,3.759,0,5.9a3.344,3.344,0,1,0,6.685,0Z" transform="translate(-1003.355 -577.547)" fill="#fff"/>
      <path id="Trazado_16943" data-name="Trazado 16943" d="M1214.995,593.058v-15.4s1.935-.019,3.5-.019c3.584,0,6.178.945,6.178,4.75,0,3.032-1.935,4.967-5.961,4.967-1.01,0-1.737-.019-1.737-.019v5.717Zm1.977-7.389s.88.019,1.824.019c2.331,0,3.893-.678,3.893-3.276,0-2.11-1.318-3.12-4.045-3.12-.967,0-1.672.023-1.672.023Z" transform="translate(-993.546 -577.331)" fill="#fff"/>
      <path id="Trazado_16944" data-name="Trazado 16944" d="M1218.751,577.649h8.357V579.3h-6.376v5.055h5.74v1.649h-5.74v5.386h6.376v1.652h-8.357Z" transform="translate(-985.108 -577.318)" fill="#fff"/>
      <path id="Trazado_16945" data-name="Trazado 16945" d="M1231.946,581.954a4.274,4.274,0,0,1-3.428,4.087v.046s.351.065,1.078,1.321l3.23,5.649h-2.175l-3.672-6.555h-2.727v6.555h-1.98v-15.4s2.2-.019,3.916-.019C1229.5,577.643,1231.946,578.61,1231.946,581.954Zm-5.74-2.662c-1.055,0-1.955.023-1.955.023v5.649s.591.023,1.429.023c2.285,0,4.288-.179,4.288-2.967C1229.968,580.234,1228.78,579.292,1226.206,579.292Z" transform="translate(-977.199 -577.331)" fill="#fff"/>
      <path id="Trazado_16946" data-name="Trazado 16946" d="M1236.768,582.056a2.764,2.764,0,0,0-3.036-2.857c-2.11,0-3.3,1.162-3.386,3.428-.065,1.782-.065,3.828,0,6a3.206,3.206,0,0,0,3.3,3.324,2.917,2.917,0,0,0,3.234-2.971l1.76.11c.065,2.438-1.87,4.51-4.993,4.51-2.99,0-5.169-1.74-5.279-4.951-.065-1.714-.065-4.331,0-6.026a5.064,5.064,0,0,1,5.412-5.081c3.123,0,4.883,1.961,4.75,4.4Z" transform="translate(-963.617 -577.547)" fill="#fff"/>
      <path id="Trazado_16947" data-name="Trazado 16947" d="M1243.178,593.044H1241.2v-6.928h-6.841v6.928h-1.98v-15.4h1.98v6.818h6.841v-6.818h1.977Z" transform="translate(-954.489 -577.318)" fill="#fff"/>
      <path id="Trazado_16948" data-name="Trazado 16948" d="M1245.586,588.866H1239.8l-1.409,4.178h-1.981l5.237-14.824-.178-.571h2.2l5.386,15.4h-2.087Zm-5.234-1.649h4.7l-1.844-5.607-.507-1.74-.506,1.782Z" transform="translate(-945.426 -577.318)" fill="#fff"/>
      <path id="Trazado_16949" data-name="Trazado 16949" d="M1241.017,577.649H1243v13.743h6.247v1.652h-8.227Z" transform="translate(-935.085 -577.318)" fill="#fff"/>
      <path id="Trazado_16950" data-name="Trazado 16950" d="M1244.192,577.649h1.98v13.743h6.243v1.652h-8.223Z" transform="translate(-927.952 -577.318)" fill="#fff"/>
      <path id="Trazado_16951" data-name="Trazado 16951" d="M1247.367,577.649h8.357V579.3h-6.38v5.055h5.74v1.649h-5.74v5.386h6.38v1.652h-8.357Z" transform="translate(-920.819 -577.318)" fill="#fff"/>
      <path id="Trazado_16952" data-name="Trazado 16952" d="M1252.889,577.649l5.915,9.986,1.1,2.438V577.649h1.87v15.4h-1.977l-6.006-10.184-1.032-2.328v12.512h-1.87v-15.4Z" transform="translate(-912.914 -577.318)" fill="#fff"/>
      <path id="Trazado_16953" data-name="Trazado 16953" d="M1265.485,581.946l-1.76.11a2.8,2.8,0,0,0-3.013-2.857c-1.958,0-3.3,1.01-3.386,3.428-.046,1.39-.065,3.938,0,5.9a3.348,3.348,0,0,0,3.519,3.451c2.243,0,3.23-1.5,3.321-3.562a13.113,13.113,0,0,0-.023-1.63H1260.8v-1.536h5.214s.065,1.779.019,3.143c-.13,3.036-1.867,5.214-5.256,5.214a5.12,5.12,0,0,1-5.431-5.169c-.087-1.6-.065-4.136,0-5.808.156-3.428,2.529-5.081,5.412-5.081C1263.771,577.547,1265.618,579.508,1265.485,581.946Z" transform="translate(-903.023 -577.547)" fill="#fff"/>
      <path id="Trazado_16954" data-name="Trazado 16954" d="M1259.55,577.649h8.356V579.3h-6.376v5.055h5.74v1.649h-5.74v5.386h6.376v1.652h-8.356Z" transform="translate(-893.449 -577.318)" fill="#fff"/>
    </g>
  </g>
</svg>
