<svg xmlns="http://www.w3.org/2000/svg" width="621.263" height="231.986" viewBox="0 0 621.263 231.986">
  <g id="Grupo_1166" data-name="Grupo 1166" transform="translate(-671.326 -435.237)">
    <path id="Trazado_17833" data-name="Trazado 17833" d="M-264.341-49.32c11.234-1.1,16.029-8.083,16.029-21.646,0-19.454-8.22-24.66-30.688-24.66-12.741,0-18.906.137-27.674,1.1V0c10,.959,16.988,1.1,31.784,1.1,21.372,0,29.318-5.206,29.318-24.66,0-15.07-4.658-23.975-18.769-25.208Zm10.275-21.235c0,15.481-5.891,19.18-22.6,19.317h-24.386V-90.42c4.8-.137,12.467-.274,21.92-.274C-260.642-90.694-254.066-86.995-254.066-70.555ZM-275.438-3.836c-10.96,0-20.276-.137-25.619-.274V-46.717h24.386c18.632.274,25.345,4.932,25.345,22.6C-251.326-7.672-257.628-3.836-275.438-3.836Zm117.82-90.694h-5.617v59.321c0,23.427-7.4,31.784-27.126,31.784-20,0-27.263-8.357-27.263-31.784V-94.53h-5.617v59.321c0,26.578,8.768,36.853,33.017,36.853,23.838,0,32.606-10.275,32.606-36.853ZM-125.56,0V-94.53h-5.617V0Zm32.332-94.53h-5.617v79.6C-98.845-6.3-93.091,0-83.5,0c12.467,0,25.208,0,37.538-.685L-46.1-4.8H-82.542c-6.439,0-10.686-4.247-10.686-10.686ZM3.22-95.763c-12.193,0-22.742.548-31.921,1.233V0C-19.385.685-9.11,1.233,3.22,1.233c25.893,0,35.072-12.6,35.072-48.5S29.113-95.763,3.22-95.763Zm0,91.927c-10.138,0-18.632-.274-26.3-.411V-90.283c7.809-.137,16.166-.411,26.3-.411,21.646,0,29.181,11.1,29.181,43.429S24.866-3.836,3.22-3.836ZM150.495-89.6V-94.53H79.8V-89.6h32.469V0h5.617V-89.6Zm80.419-4.932H225.3v41.374h-52.06V-94.53H167.62V0h5.617V-48.224H225.3V0h5.617ZM312.292-4.8H273.246c-6.3,0-10.412-4.247-10.412-10.686V-48.087l43.84-.137v-4.521l-43.84-.137V-79.049c0-6.439,4.11-10.686,10.412-10.686h39.045l.274-4.247c-13.152-.548-26.852-.548-40.278-.548-8.9,0-15.07,6.028-15.07,14.522v65.486C257.217-6.028,263.383,0,272.288,0c13.426,0,27.126,0,40.278-.548Z" transform="translate(978 531)" fill="#fff"/>
    <path id="Trazado_17832" data-name="Trazado 17832" d="M-230.166-97.47l1.368-19.152c-15.39-1.881-35.226-1.881-53.01-1.881-15.732,0-25.992,9.234-25.992,24.453V0h26.163V-49.59h45.144V-68.571h-45.144V-88.749c0-6.156,2.565-8.721,9.234-8.721Zm110.979-20.52H-145.35v70.965c0,21.717-5.3,28.215-21.033,28.215-16.074,0-21.2-6.5-21.2-28.215V-117.99h-25.992v70.965c0,36.081,12.825,49.248,48.393,49.248,33.687,0,46-13.167,46-49.248ZM-8.55-96.786v-21.2h-96.615v21.2h35.226V0h26.163V-96.786Zm108.585-21.2H73.872v70.965c0,21.717-5.3,28.215-21.033,28.215-16.074,0-21.2-6.5-21.2-28.215V-117.99H5.643v70.965c0,36.081,12.825,49.248,48.393,49.248,33.687,0,46-13.167,46-49.248ZM215.973,0l-10.26-36.765c-2.736-12.141-10.773-16.416-16.758-17.784V-55.4c16.758-2.052,22.572-12.654,22.572-29.241,0-27.018-12.825-34.884-43.605-34.884-21.2,0-30.78.171-44.973,1.539V0H148.6V-46h18.3c7.011,0,10.431,2.394,12.654,9.918L188.442,0ZM148.6-66.177V-99.351l18.81-.171c13.68,0,17.784,3.42,17.784,16.587,0,13-4.1,16.758-17.784,16.758ZM311.391-20.349H266.076c-5.643,0-8.037-2.565-8.037-8.892V-51.984h47.025v-18.81H258.039V-88.749c0-6.156,2.394-8.721,8.037-8.721h45.315l1.2-19.323c-16.074-1.71-36.423-1.71-54.72-1.71-15.732,0-25.821,9.234-25.992,23.769v71.478C232.047-8.721,242.136.513,257.868.513c18.3,0,38.646,0,54.72-1.71Z" transform="translate(980 665)" fill="#fff"/>
  </g>
</svg>
