<svg xmlns="http://www.w3.org/2000/svg" width="256.74" height="76.326" viewBox="0 0 256.74 76.326">
  <g id="Grupo_1305" data-name="Grupo 1305" transform="translate(-362.744 -1689.104)">
    <path id="Trazado_25759" data-name="Trazado 25759" d="M4864.125-4101.956l8.96,1.717,3.774-.752,10.114-1.1,3.089.966,5.994-.987,3.15.917c4.724,10.789.3,22.529,3.4,33.562.463,1.648-1.873,4.082-2.914,6.152l-1.38-.46c.347-3.9.694-7.8,1.143-12.846l-5.142,4.2c6.053-4.121,4-10.558,4.622-16.093.38-3.407.071-6.891.071-10.627h-35.772l1.771,3.486c-1.4.169-2.865.345-4.331.509.229-1.015.462-2.019.7-3.023l-7.25-.859c1.411,2.089,2.026,3,2.641,3.912l-.577.369-6.029-5.078c.436,2.894.652,4.324.867,5.755l-9-4.014c-.275,1.146-.626,2.612-.976,4.079a3.935,3.935,0,0,1-.56-.086l-1.427-1.766-1.494.018-2.51-.135-1.527-.1-3.011.077-1.089-.054-5.353-1.874-5.983.059-2.9-2.836c3.049-.235,6.131-.287,9.129-.818.889-.158,1.54-1.662,2.3-2.55a29.073,29.073,0,0,0,5.153,1.234c.581.041,1.259-1.284,1.893-1.984,2.029,1.247,3.6,5.849,6.475.877l-.111.269q1.019-.669,2.038-1.337c3.486,2.464,3.486,2.464,3.879-.035l3.092.262a4,4,0,0,1,.873-.135l3.153-.144,2.154,1.17,1.8.94,3.11.01.929-.019Z" transform="translate(-4452.446 5818.733)"/>
    <path id="Trazado_25760" data-name="Trazado 25760" d="M5069-4113.938l2.149,2.364q.39,1.245.782,2.491l-1.862,1.795-8.114-1.424-7.848-.645c.979,2.246,1.434,3.293,1.89,4.339l-5.425-4.743c-.1,1.724-.141,2.486-.185,3.249a22.906,22.906,0,0,0-2.621-1.946,10.647,10.647,0,0,0-1.289,1.548l-4.638-2.114c-.324,1.621-.631,3.156-.938,4.691l-.007.121q-.406.053-.815.07l-.007-.043-1.558-2.231-5.041-2.6-2.382,1.913.026-.008-1.405.091c-2.1-1.023-4.119-2.578-6.317-2.893-1.614-.231-3.461,1.165-5.2,1.836-4.053-.625-8.087-1.551-12.164-1.813-8.749-.562-17.52-.773-26.281-1.162a1.667,1.667,0,0,1-1.4-1.15c8.144,0,16.288-.02,24.432.005,7.651.024,15.619,2.037,22.813-3.33l1.238,2.234,5.221-2.223,2.011-1.065,9.257,5.492,1.075-4.048,1.79-.121-.046-.03,1.813,2.181,2.288.022,1.843-1.9,7.918,1.535Z" transform="translate(-4452.446 5818.733)"/>
    <path id="Trazado_25761" data-name="Trazado 25761" d="M4860.066-4062.433c10.4.128,20.79.215,31.183.435a18.482,18.482,0,0,1,4.235,1.113q-.087,1.063-.172,2.127c-5.795,0-11.6-.126-17.381.119-1.006.043-1.946,1.651-2.916,2.536l.154-.081c-3.438-2.908-6.757-1.683-10.053.291l-10.425-2.3c.6,2.134.993,3.513,1.383,4.892l-5.659-2.166,1.991-1.8c-1.458.115-2.915.252-4.375.342q-7.362.456-14.724.886l-3.459-.665c-.233,1.046-.468,2.1-.7,3.158l-2.162-1.356q.033-.641.067-1.279l-1.391-1.6-.125.1,3.481-2.511,2.258.119c.207-.015.414-.021.622-.02l4.454.023.261-.009.261,0,3.116-1.836q-.019-.892-.039-1.787c4.072,1.117,8.14,2.249,12.237,3.266a11,11,0,0,0,.806-1.843C4855.385-4060.672,4857.736-4061.065,4860.066-4062.433Z" transform="translate(-4452.446 5818.733)"/>
    <path id="Trazado_25762" data-name="Trazado 25762" d="M4909.735-4063.854c-.627-.983-1.75-1.94-1.8-2.954-.459-8.627-.75-17.264-1.037-25.9-.159-4.792,2.486-8.125,7.183-8.265,8.194-.246,16.4-.069,24.6-.069q.1.9.19,1.793a21.378,21.378,0,0,1-4.615.989c-5.135-.032-10.276-.186-15.4-.507-6.405-.4-9.636,3.55-8.928,9.693.942,8.176,1,16.453,1.439,24.687Z" transform="translate(-4452.446 5818.733)"/>
    <path id="Trazado_25763" data-name="Trazado 25763" d="M4894.1-4109.212l-3.5-3.154h69.322c.058.522.115,1.045.173,1.567-.488.307-.979.886-1.461.879-9.113-.145-18.225-.518-27.336-.51-7.734.008-15.467.415-23.2.736-.473.02-.912.838-1.367,1.283-1.709-3.219-3.576-.9-5.4-.155l-4.013-.234Z" transform="translate(-4452.446 5818.733)"/>
    <path id="Trazado_25764" data-name="Trazado 25764" d="M4953.25-4099.219l40.205-2.4c-1.093,1.54-1.623,2.894-2.1,2.877C4978.645-4099.187,4965.86-4096.078,4953.25-4099.219Z" transform="translate(-4452.446 5818.733)"/>
    <path id="Trazado_25765" data-name="Trazado 25765" d="M4872.07-4118.1l2.721,1.05c-.6,2.725.454,3.928,3.275,3.859a23.758,23.758,0,0,1,5.816.425c2.1.479,3.2,1.705,1.158,3.7l-3.96-.1-7.666.765c.676-2.861-6.745-.836-5.024-5.725l1.87-.079,2.8.884v-2.762Z" transform="translate(-4452.446 5818.733)"/>
    <path id="Trazado_25766" data-name="Trazado 25766" d="M4977.023-4112.73c-5.882,2.231-9.452-.026-9.348-4.859.084-3.873.7-7.735,1.075-11.6l1.334-.438c.246,1.787.925,3.642.655,5.347C4969.946-4119.275,4969.394-4114.587,4977.023-4112.73Z" transform="translate(-4452.446 5818.733)"/>
    <path id="Trazado_25767" data-name="Trazado 25767" d="M4959.384-4113.539q1.052-7.47,2.1-14.941l1.668.126q-.6,7.509-1.208,15.018Z" transform="translate(-4452.446 5818.733)"/>
    <path id="Trazado_25768" data-name="Trazado 25768" d="M4996.441-4099.5l12.96-.82q.041.862.082,1.727h-12.919Z" transform="translate(-4452.446 5818.733)"/>
  </g>
</svg>
