<svg xmlns="http://www.w3.org/2000/svg" width="247.051" height="374.688" viewBox="0 0 247.051 374.688">
  <g id="Grupo_1303" data-name="Grupo 1303" transform="translate(-4462.446 4286.733)">
    <path id="Trazado_25557" data-name="Trazado 25557" d="M4542.061-3942.366q-.995-3.747-1.99-7.493-1.489-4.623-2.979-9.245-.59-1.062-1.179-2.122l3.145-1.992c.34-.6.979-1.225.948-1.811a8.376,8.376,0,0,0-.909-2.437l-1.911-1.759-.177-3.129a.74.74,0,0,1,.02-.744l1.922-2.765q.021-1.227.041-2.454l.058-1.89,1.082-3.513c1.815-4.545-2.012-7.563-3.067-11.331l1.975-2.1c.667-.432,1.334-.864,2.156-1.4l-2.171-1.6-1.078-1.659-.022-1.745-.888-2.539-3.086-1.963L4532-4010.1q.107-1.373.212-2.744l-.073-1.01-3.564-5.155,8.86,5.03.911-1.221-2.863-4.941,4.492,1.265c-.377-3.174-.692-5.824-1.007-8.474l6.053,4.223q.057.9.113,1.8l-.108,2.061q.135,1.118.27,2.233a20.073,20.073,0,0,0-1.674,2.156c3.392,3.38,6.894,6.649,10.383,9.931l2.116.753,0,2.113q.01,1.977.021,3.956l-2.634-.064a1.8,1.8,0,0,1-.644-.1l-2.688,3.276c-1.3-.022-3.56-1.011-1.926,1.915l-2.9.223-.252,1.046,4.983,2.695,1.615-.088,1.239,5.143c-2.7-1.917-5.331-2.583-7.961.26l9.073,5.63.049,2.129-.1,2.226-.123,1.539-1.568.088c-1.969.061-3.51.44-2.182,2.944l-2.977,4.283.909,1.88q.927,1.064,1.855,2.127.1.423.153.853l-5.781,1.651c1.267,1.957,2.2,3.315,3.045,4.73.685,1.15,1.256,2.368,1.878,3.556l-1.2.077.094.045-1.394-1.036q.768,2.5,1.537,5.012l-3.123,2.01-2,1.967Z"/>
    <path id="Trazado_25558" data-name="Trazado 25558" d="M4644.19-4202.517c-.287-.543-.607-1.572-.855-1.554-3.536.245-7.369-.052-10.436,1.326-1.2.54-.743,4.909-.926,7.541-.143,2.053-.022,4.125-.18,6.175-.149,1.954-.757,3.9-.706,5.834.054,2.03.883,4.047.882,6.069,0,.692-1.447,1.842-2.31,1.919-.6.054-1.9-1.335-1.929-2.113-.187-5.289-.251-10.591-.1-15.881.148-5.055-3.1-11.178,4.827-13.739h21.076c.066.171-.18-.464-.426-1.1.682.41,1.371.809,2.045,1.232,1.711,1.076,2.932,1.221,2.742-1.4l4.035,4.469-.844,1.036-9,.671C4649.5-4202.941,4646.94-4204.278,4644.19-4202.517Z"/>
    <path id="Trazado_25559" data-name="Trazado 25559" d="M4604.634-4008.078l7.506,3.15-3.116,5.1c1.9,1.684,3.018,2.669,4.133,3.655l-2.084.03-1.965,1.892q-1.9,1.557-3.807,3.113c-.079-.333-.156-.665-.234-1l-2.033-1.995c-.688-1.318,4.882-4.089-.977-4.206l-1.906.168-2.409-.056-1.241.023-2.473.117.132-2.4,0-1.327q-.058-1.129-.115-2.258-.053-1.229-.1-2.456.037-1.34.075-2.677l1.937.019,2.253-.008,2.423,1.115,1.173-.963Z"/>
    <path id="Trazado_25560" data-name="Trazado 25560" d="M4487.138-4210.288c-3.887-.266-7.783-.443-11.657-.838a8.807,8.807,0,0,1-4.782-1.959h81.019c.383-5.13.668-9.955,1.123-14.765.431-4.546,1.088-9.071,1.555-13.614.341-3.325-1.7-5.165-4.593-5.4-9.913-.8-19.852-1.825-29.779-1.8-17.033.046-34.063.843-51.1,1.248-1.554.037-3.12-.485-5.6-.9,1.311-.888,1.79-1.492,2.293-1.513,13.988-.584,27.977-1.506,41.968-1.528,13.612-.022,27.23.8,40.835,1.484,2.031.1,3.956,1.6,6.007,2.181,3.033.859,3.664,3.294,2.609,5.406-3.359,6.726-1.631,13.662-1.56,20.549.023,2.307.341,4.791-.372,6.89-1.555,4.574-6.034,4.477-9.766,4.761-6.7.512-13.439.493-20.162.695l-3.865.141c-2.608-2.815-9.959-2.329-13.694.9.161-.986.317-1.965.692-4.332l-4.062,3.422c-.894-.517-2.058-1.678-2.636-1.436a67.491,67.491,0,0,0-6.769,3.649v-4.389Z"/>
    <path id="Trazado_25561" data-name="Trazado 25561" d="M4480.195-4163.122c.927-5-2.835-3.713-5.357-3.906-2.03-.156-4.081-.032-6.123-.032l-.05-1.934c3.122-.218,6.242-.611,9.364-.623,9.729-.036,19.459.128,29.187.089,2.976-.012,4.7-1.1,4.4-4.8-.26-3.284.973-6.662.939-9.993-.056-5.361-.612-10.718-.949-15.945l-49.162-2.2.016-1.825c2.573,0,5.151.1,7.719-.023,3.935-.184,7.862-.519,11.793-.789,4.4,3.489,8.267,1.269,12.123-1.113v4.354l4.817-3.209c1.8,4.041,3.459.66,5.166-.1,1.869.441,3.726.949,5.611,1.3,1.771.331,3.572.5,5.36.736-.716,1.377-2.521,3.146,1.07,2.97a6.418,6.418,0,0,0-1.687,6.829c.913,3.3,1.026,6.825,1.487,10.252-2.615,5-2.286,9.064.972,12.024l-8.869,6.846.132.141c-1.186-.972-2.348-2.738-3.562-2.775a95.552,95.552,0,0,0-13.575.582c-2.7.3-5.32,1.386-7.976,2.118Z"/>
    <path id="Trazado_25562" data-name="Trazado 25562" d="M4622.56-4183.924c-.874-4.732-2.371-8.443-2.026-11.975.538-5.519-1.56-8.6-6.82-8.127a68.859,68.859,0,0,1-7.481.152c-16.07-.3-32.14-.934-48.207-.836-9.484.058-18.96,1.27-28.442,1.924-.445.03-.916-.317-1.379-.49,1.1-2.485,6.514-4.16,10.233-3.863,4.571.364,9.19.148,13.788.166q17.529.07,35.057.121c5.617.015,11.236.069,16.852-.028,4.855-.085,9.747-.783,14.541-.333,1.816.17,4.43,2.528,4.9,4.346a97.708,97.708,0,0,1,2.16,15.233C4625.8-4186.869,4624.36-4185.963,4622.56-4183.924Z"/>
    <path id="Trazado_25563" data-name="Trazado 25563" d="M4474.233-4021.065c.984.008,2.459.405,2.834-.069a3.259,3.259,0,0,0,.25-2.982c-1.145-1.978-2.691-3.724-2.969-5.424l1.591-12.246c2.455,1.416,4.543,5.326,2.881,7.893-3.369,5.206.791,7.205,3.905,11.627.141-8.511,6.391-9.531,10.772-13.033a62.276,62.276,0,0,1,13.119-7.851c1.546-.723,1.649-4.617,2.326-7.084.353-1.288.52-2.627.771-3.943l1.683.123c0,1.5-.076,3.01.015,4.507.191,3.113-2.183,7.045,2.693,8.714q-.1.252-.194.507l-2.019.251-3.834,2.9c-3.088-1.1-5.885-1.866-5.549,3.206.061.921-1.022,1.918-1.577,2.88l-1.863-.053-2.053.892-3.955,1.417-2.374-2.72c-5.112,3.212-6.161,6.417-3.9,11.315l-.575,2.186-3.123,1.955-2.131-.075-1.9,1.919Q4476.651-4017.657,4474.233-4021.065Z"/>
    <path id="Trazado_25564" data-name="Trazado 25564" d="M4550.892-4062.576c-1.069-.707-2.5-2.268-3.149-1.991-6.527,2.783-6.518-3.148-8.629-6.227-.357-.521-.691-1.059-1.188-1.824a11.891,11.891,0,0,0-3.211,1.349c-3.315,2.837-5.8,3.7-9.723-.051-2.22-2.122-7.009-1.557-10.623-2.2,1.056-4.466,8.259-4.044,14.6,1.375,3.64-1.179,7.091-3.513,9.7-2.793,2.507.693,4.142,4.545,6.735,7.711.111-1.5.4-2.233.157-2.6-4.156-6.132-2.524-12.916-2.448-19.573a33.862,33.862,0,0,0-1.361-8.258c-.488-2-1.843-3.83-2.1-5.827-.9-7.093-.591-7.3,6.6-6.376-.025.322.074.8-.1.943-3.5,2.853-7.364,5.56-.673,9.3.577.323-.089,2.73-.045,4.165.183,6.05-.292,12.244.907,18.091.682,3.322,4.134,6.076,6.339,9.085l1.008,3.44Z"/>
    <path id="Trazado_25565" data-name="Trazado 25565" d="M4576.4-4112.435c-3.153-2.273-4.608-6.869-9.413-6.88q.056-4.63.112-9.263l2.221-5.155-3.252-5.744,0-16.319.889-2.449c3.586.3,7.631-.667,9.8,3.533.1.336.2.683.305,1.03l-6.205,1.05c1.042,3.214,2.1,6.468,3.152,9.723l1.952,1.817.072.037.038,1.341-4.408,1.111c1.281,4.009,2.473,7.737,3.665,11.466a.965.965,0,0,0-.3.91c-5.437-.568.521,5.216-4.473,5.247,3,.581,4.645,1.136,6.277,1.1.639-.015,1.248-1.36,1.871-2.1l3.411,5.9-6.129-.964Z"/>
    <path id="Trazado_25566" data-name="Trazado 25566" d="M4528-4169l-.917-3.366c15.1,3.913,30.283,3.4,45.324,1.125,6.891-1.04,13.432,1.877,20.163.258,2.883-.693,5.835-1.1,8.435-1.574l6.133,2.416-.124-.1q-.006,1.576-.013,3.153l.128-.123h-16.4c.259,1.765.5,3.369.731,4.973-1.593-1.832-3.026-5.039-4.807-5.245-5.825-.672-11.777-.252-18.808-.252l2.467,3.661c-3.535-4.019-7.033-1.689-10.534.061-.658-1.047-1.283-2.976-1.98-3-5.388-.2-10.795-.158-16.183.087-1.509.068-2.977,1.054-4.463,1.619Z"/>
    <path id="Trazado_25567" data-name="Trazado 25567" d="M4566.066-4155.8l0,16.319c-4.69.1-.524,4.876-3.189,6.048l4.22,4.851q-.057,4.632-.112,9.263-.431,1.255-.864,2.509l-8.18-.256,3.981-10.346a14.973,14.973,0,0,1-2.351-6.846c-.3-2.055-.431-4.135-.636-6.2q.959-3.387,1.916-6.774c1.964-6.7,1-8.577-4.913-10.078-.947-.24-1.722-1.162-2.576-1.769a15.756,15.756,0,0,1,2.109-2.205,41.474,41.474,0,0,1,3.74-2.176c-.089,1.536-.177,3.072-.231,4.011l6.082-.435-.062,1.519Z"/>
    <path id="Trazado_25568" data-name="Trazado 25568" d="M4480.195-4163.122l2.848-1.022a17.7,17.7,0,0,0,.782,2.955c8.124-.825,16.664,1.673,24.331-2.88l-.132-.141c.5,1.061,1.114,3.079,1.493,3.036,4.213-.475,8.391-1.269,12.578-1.977l10.72,2.185c4.207.257,8.42.454,12.62.8a15.377,15.377,0,0,1,6.244,1.711c-13.541,0-27.107.52-40.615-.147-13.24-.654-26.6,1.051-39.663-1.679Z"/>
    <path id="Trazado_25569" data-name="Trazado 25569" d="M4512.251-4265.584c3.169-4.062,1.33-8.359.628-12.619-.24-1.455-.277-2.944-.407-4.417l2.247-.348c.623,3.077,1.622,6.135,1.786,9.236a72.889,72.889,0,0,1-.312,15.267c-.286,1.782-3.529,4.309-5.514,4.4-10.2.446-20.425.259-30.64.143-1.256-.014-2.5-.922-3.522-2.391,5.23,0,10.474.24,15.685-.075,4.315-.26,8.59-1.175,12.883-1.8l7.794.433Q4512.565-4261.672,4512.251-4265.584Z"/>
    <path id="Trazado_25570" data-name="Trazado 25570" d="M4695.813-4107.251l-2.018,1.165-.663-.08-.044-.055-1.278-1.685-3.744-.142c-1.256-.589-4.017,1.411-3.584-2.083-2.861-.276-5.994-1.433-8.529-.651-6.175,1.905-11.9-1.1-17.86-.406l-.15-1.551c3.243-.262,6.488-.5,9.727-.8,2.456-.228,4.9-.542,7.356-.818,3.93.694,7.733,2.025,11.6-1,1.1-.86,3.9.615,5.941.73,1.019.057,2.075-.538,4.245-1.164,3.85.889-.722,4.478.42,6.656Z"/>
    <path id="Trazado_25571" data-name="Trazado 25571" d="M4529.365-4258.238h67.25l-.013,1.691c-21.4,0-42.8.017-64.2-.061C4531.538-4256.611,4530.674-4257.509,4529.365-4258.238Z"/>
    <path id="Trazado_25572" data-name="Trazado 25572" d="M4543.982-4111.466c0-3.679-.121-7.363.035-11.035.152-3.609-1.063-4.939-4.932-4.652-6.057.449-12.17.092-18.247.349-1.412.059-2.892,1.047-4.141,1.9-2.444,1.671-3.746,1.5-5.958-1.439,12.508-5.416,25.641-.9,36.968-3.388-.479,6.376-.926,12.335-1.374,18.295Z"/>
    <path id="Trazado_25573" data-name="Trazado 25573" d="M4478.477-4042.731c-2.549-8.368,2.082-9.75,9.079-8.638q-.383-.75-.764-1.5l-11.4-.856c5.457-3.9,18.242-1.595,21.459,3.39-2.783.186-5.347.311-7.9.54-2.631.236-5.254.573-7.545.828Z"/>
    <path id="Trazado_25574" data-name="Trazado 25574" d="M4622.358-4286.733c1.136.724,1.378.809,1.375.885-.268,7.115-.1,14.288-1,21.323-.591,4.622-6.311,7.471-10.615,5.881,8.071-2.552,9.259-8.61,9.089-15.7C4621.111-4278.279,4621.908-4282.237,4622.358-4286.733Z"/>
    <path id="Trazado_25575" data-name="Trazado 25575" d="M4523.177-4284.6v26.9a4.713,4.713,0,0,1-3.807-5.569,86.088,86.088,0,0,0,.994-10.036c.126-2.964-.269-5.951-.121-8.912.053-1.075,1.011-2.1,1.556-3.155Z"/>
    <path id="Trazado_25576" data-name="Trazado 25576" d="M4521.082-4175.179q-.915-5.641-1.829-11.284c.381-2.228.716-4.464,1.158-6.679.348-1.746.827-3.466,1.248-5.2l2.006.424c0,4.05-.073,8.1.028,12.148.056,2.227.52,4.444.587,6.671C4524.343-4176.983,4524.557-4174.508,4521.082-4175.179Z"/>
    <path id="Trazado_25577" data-name="Trazado 25577" d="M4516.218-4067.677c.108.158-.554-.815-1.36-2,1.831,0,3.667-.541,4.517.143.983.79,1.882,3.542,1.461,3.916a90.748,90.748,0,0,1-8.282,6.054l-1.221-.809Z"/>
    <path id="Trazado_25588" data-name="Trazado 25588" d="M4537.065-3995.051c1.055,3.768,4.882,6.786,3.067,11.331l-1.131.6-1.077-1.612-1.8,1.616-1.785,1.067-2.371-.055-1.97.061c.6-3.05-1.077-2.819-3.07-2.134-.269.013-.538.02-.808.022l-3.255-.044h-1.544l-2.741-.056-1.179.029-3.656,0-1.329-.016-2.267,2.193-2.554-.208-1.392-.054-2.576-1.869-2.7-.006-1.774.017-1.966,2.141-2.678-.154-2.53.072-1.973.017-1.872-2.03-1.811-.092-2.255.07-3.162.065-2.415.93-2.417-2.765.937-2.068-.013-1.911,4.045-2.311,2.981.874,2.144-1.76-.2,1.335,2.231,1.568c1.625-1.165,3.2,4.461,4.849.035l1.816-1.091,2.45,1.042,1.768.059,1.764-.9,2.973-.2,1.834,1.213,2.64-1.068,3.845,1.068,2.043-1.144,2.982-2.064-.152.162,2.267-.016,1.623-.05c3.2,4.819,6.149,1.074,9.171-.261l2.056.279,2.068-.061q.89-1.022,1.78-2.042Z"/>
    <path id="Trazado_25589" data-name="Trazado 25589" d="M4635.364-4080.071l-4.161,5.226c-3.267-2.137-1.854-5.534-2.091-8.385-.438-5.272.423-10.8-3.838-15.05.983.6,1.949,1.187,4.23,2.566l-4.421-14.424,1.113-.075-.158-.023,1.179,1.068,1.868-2.027q.069-1.375.139-2.75l1.674-.143,2.321-.564,6.928,2.472c-.847,5.1-1.806,5.491-6.041,2.256l-2.857,3.048,3.357,6.735c.091,1.092-.172,2.411.35,3.229a28.42,28.42,0,0,0,3.535,3.876l-1.459.894-1.321.612q-.378,1.875-.755,3.748l-.01,1.186,1.128,2.457Q4635.718-4082.1,4635.364-4080.071Z"/>
    <path id="Trazado_25590" data-name="Trazado 25590" d="M4594.86-4034.844a36.9,36.9,0,0,0,5.631,1.982c.716.14,1.675-.968,2.523-1.507,3.487,3.316,3.852,6.732,1.1,10.283l-2.05,1.25c-1.322-.833-2.585-2.222-3.98-2.372-2.22-.239-4.529.347-6.8.584l-11.822-4.171c-.591,1.364-1.04,2.4-1.489,3.434l-.066.092-1.761-.9-2.2-1.948c-3.117-.1-6.233-.267-9.351-.281a32.134,32.134,0,0,0-4.016.463l-4.556-1.759-1.936-1.44-.252-5.082a1.5,1.5,0,0,1,.7.2l.337-.006.333.046a39.753,39.753,0,0,0,5.284,3.042c.576.234,1.678-.823,2.539-1.289l1.977-2,2.627.121.575-1.983c.778-.192,1.556-.385,2.32-.586.514.166,1.042.342,1.571.518l-.019-.007,1.887,2.094,1.885,1.987,2.245-.05,1.71.061,6.341,1.946.917-1.758,3.75,4.011C4592.167-4031.537,4593.514-4033.19,4594.86-4034.844Z"/>
    <path id="Trazado_25591" data-name="Trazado 25591" d="M4611.021-4153.153l-1.745.9c-.061-1.23-.121-2.459-.165-3.342h-10.94v3.687l-6.968-3.121-12.138,2.144-2.007-.8c-.1-.347-.206-.694-.305-1.03-.539-1.51-1.083-3.032-1.625-4.552l3.464,1.138c-.828-1.824-1.256-2.765-1.1-2.427l14.064,2.2-.193-4.007c2.021.752,4.741.925,5.935,2.364,3.707,4.467,7.822.041,11.564,1.1q.073-1.2.142-2.392l5.115,2.167.943-.012,3.062-.083c-1.646,1.209-3.338,2.362-4.917,3.653A20.868,20.868,0,0,0,4611.021-4153.153Z"/>
    <path id="Trazado_25592" data-name="Trazado 25592" d="M4622.174-3931.662h-3.052c-.24,2.078-.423,3.656-.671,5.809.786.7,2.188,1.955,3.478,3.107l-1.844,3.667-1.984,2.974q-.048,2.03-.1,4.06l.115-.138-5.121-1.87.12-3.133-.111.1,2.771-.3-1.255-.816a15.6,15.6,0,0,0,1.261-3.428c.055-.391-1.114-.954-1.723-1.438-1.78-.92,3.4-3.891-1.176-3.987q-.438-1.506-.878-3.013-.474-1.021-.949-2.044l.076-1.787-.024-2.282-.118.1,4.047-1.372-4.1-.719-1.538-.048-2.4.168-1.98-2c-1.208-3.748-2.3-4.45-4.916-3.166q-.07,1.47-.138,2.94-.647.013-1.293.023l-2.667.194-2.49-2.111-1.36.017-3.18.094-2.174-2.126-1.272-.049-2.345,2.206-3.1.631-2.682-3.091-3.517,4.427-1.167-.2c-1.608-.846-3.566-1.363-4.746-2.613-1.861-1.972-2.535-1.831-2.851.783l-1.855.032-2.179-.077-2.99,2.029h-1.059l-2.866-1.987-2.181.006.028.03.117-1.724q-.031-1.182-.062-2.364l0-1.6,2.016-1.472c1.344.174,2.8,3.544,4.009-.139l-.741-.926c3.085-.345,5.045,4.959,8.7,1.734l3.837-.67.779.633,5.952-1.356-.03.1,2.65.728,1.543-.944q-1.418-2.592-2.833-5.183l3.3.164a3.965,3.965,0,0,1,.8.1l3.037-.189,2.018,1.97c.161,3.2,1.646,4.774,4.99,4.07l1.451.041q1.209-1.085,2.419-2.168l2.261.162,2.051-.118,2.881-.008q.3,1,.6,2.007l1.262-1.967,1.828-1-1.84-.9.276-1.051c4.139.837,8.44,2.081,9.839-3.933q.393-.04.789-.07a1.239,1.239,0,0,1,.183.911q-.051.917-.1,1.832l2.19,2.292,1.566-.031q.713,3.012,1.423,6.023-.691,1.718-1.378,3.437l0-.134q.159,1.766.319,3.533l-.2,1.3.828,4.644,1.22.232.182.267-.264.186.1,1.28A2.264,2.264,0,0,0,4622.174-3931.662Z"/>
    <path id="Trazado_25593" data-name="Trazado 25593" d="M4554.082-4031.13l1.936,1.44,1.737,3.332c-.961.734-1.894,1.449-2.828,2.163l-2.858,1.4-2.205-.4-2.444-.038-.453.134c-.143-.751-.124-2.076-.452-2.167-5.886-1.651-7.785-6.907-10.525-11.405,2.014,1.068,4.062,2.079,6.03,3.226,1.325.773,2.706,2.572,3.14-.652l5.3,4.587Z"/>
    <path id="Trazado_25594" data-name="Trazado 25594" d="M4708.1-4117.195c.469.587.938,1.174,1.4,1.763Q4708.79-4116.311,4708.1-4117.195Z"/>
    <path id="Trazado_25595" data-name="Trazado 25595" d="M4618.066-4116.152c-3.061-.523-6.737-2.318-9.015-1.219-2.382,1.15-5.31-2.384-6.692,1.3-2.981-.262-5.971-.446-8.938-.815-1.837-.229-3.64-.738-5.566-1.144.378-1.7.691-3.11,1-4.52l6.507,2.231c.552-1.212,1.134-2.49,1.715-3.768l.452.12.45-.125c2.79,3.781,6.307,3.371,10.036,1.743l4-.056,5.557,1.914.26-3.753,11.159,4.9.053,1.154-.059.019-2.386.185-2.537,1.887-4.562-2.071Q4618.784-4117.162,4618.066-4116.152Z"/>
    <path id="Trazado_25596" data-name="Trazado 25596" d="M4575.984-4036.188l-.138,2.109-1.885-1.987.108-.075,2.061.081Z"/>
  </g>
</svg>
