<svg xmlns="http://www.w3.org/2000/svg" width="2005.784" height="933.372" viewBox="0 0 2005.784 933.372">
  <g id="Grupo_1979" data-name="Grupo 1979" transform="translate(56.501 -1055.609)">
    <path id="Trazado_23744" data-name="Trazado 23744" d="M-2419.6,1208.905l1945.9-164.58,15.989,419.952L-2463.5,1332.906Z" transform="translate(2407 21)" fill="#fff"/>
    <g id="Grupo_1336" data-name="Grupo 1336" transform="translate(-1687.629 -4879.253)">
      <path id="Trazado_26248" data-name="Trazado 26248" d="M2502.529,6808.437V6055.731l1126.195-93.976-2.046-24.52L1680.417,6099.642l2.046,24.52,795.461-66.377v749.873l-798.516-25.283-.779,24.593,1952.047,61.805.779-24.593Z" transform="translate(0 -0.539)" fill="#fff"/>
      <g id="Grupo_1335" data-name="Grupo 1335" transform="translate(1678.794 5934.863)">
        <path id="Trazado_26249" data-name="Trazado 26249" d="M2744.738,7064l26,1.143,8.121-.641Z" transform="translate(-1920.991 -6191.378)" fill="#040405"/>
        <path id="Trazado_26250" data-name="Trazado 26250" d="M2877.829,7071.706l44.3,1.029c-25.284-3.412,8.971-1.568-60.265-5.633-24.384-.361-78.071-1.156-71.008.087,17.465.448,43.143.262,69,1.4-11.078.4-38.854-.571-52.025,0,41.806,2.129,26.486.2,72.4,2.012Z" transform="translate(-1931.324 -6191.95)" fill="#040405"/>
        <path id="Trazado_26251" data-name="Trazado 26251" d="M2969.313,7072.021c-4.1.325-8.344.636-7.676,1.025C2965.832,7072.726,2987.492,7072.857,2969.313,7072.021Z" transform="translate(-1970.25 -6193.2)" fill="#040405"/>
        <path id="Trazado_26252" data-name="Trazado 26252" d="M3006.438,7072.779c28.009.985-.44.947,2.331,1.175l31.967-.672Z" transform="translate(-1980.443 -6193.373)" fill="#040405"/>
        <path id="Trazado_26253" data-name="Trazado 26253" d="M3157.179,7077.682l13.191.262A124.366,124.366,0,0,0,3157.179,7077.682Z" transform="translate(-2014.689 -6194.476)" fill="#040405"/>
        <path id="Trazado_26254" data-name="Trazado 26254" d="M3197.449,7079.116c-11.492-.943-25.919-1.051-44.2-1.353.539.05.994.091,1.766.161,16.039,1,.906,1.724-25.01.578-27.108-.586-24.706-1.694-48.189-1.658l32.163,1.993C3156.544,7080.033,3180.792,7079.065,3197.449,7079.116Z" transform="translate(-1997.568 -6194.295)" fill="#040405"/>
        <path id="Trazado_26255" data-name="Trazado 26255" d="M3152.714,7077.577c-4.825-.108-9.734-.231-15.191-.4C3144.287,7077.585,3148.8,7077.607,3152.714,7077.577Z" transform="translate(-2010.223 -6194.37)" fill="#040405"/>
        <path id="Trazado_26256" data-name="Trazado 26256" d="M3077.257,7075.055l-14.47-.208,3.448.618Z" transform="translate(-1993.245 -6193.842)" fill="#040405"/>
        <path id="Trazado_26257" data-name="Trazado 26257" d="M3332.591,7083.14c-6.6,1.419-68.292-2.343-75.839-1.311,37.793,1.128,67.853,3.281,59.639,3.918l41.764.813C3371.994,7086.381,3354.4,7084.6,3332.591,7083.14Z" transform="translate(-2037.309 -6195.387)" fill="#040405"/>
        <path id="Trazado_26258" data-name="Trazado 26258" d="M3460.5,7092.256c2.733-.05,6.014-.044,9.648.023C3465.6,7092.2,3461.689,7092.162,3460.5,7092.256Z" transform="translate(-2083.597 -6197.785)" fill="#040405"/>
        <path id="Trazado_26259" data-name="Trazado 26259" d="M3664.623,7095.092l-97.452-1.44c9.105-.241,5.49-.867,27.725-.351-43.147-1.585-48.721-.718-84.364-2.009-10.69-1.86,62.928,1.883,42.419-.128-25.1-.752-62.612-1.873-82.889-1.223l-39.8-2.293,13.534,2.1c16.04.989,32.561-.279,42.479,1.195,5.025.875-11.164.5-22.54.311,25.75.477,70.259,3.529,122.463,4.96C3641.363,7097.787,3628.493,7094.746,3664.623,7095.092Z" transform="translate(-2076.727 -6196.75)" fill="#040405"/>
        <path id="Trazado_26260" data-name="Trazado 26260" d="M3738.549,7099.76l6.209.851-4.424-1.019Z" transform="translate(-2146.763 -6199.463)" fill="#040405"/>
        <path id="Trazado_26261" data-name="Trazado 26261" d="M3854.779,7100.842l-50.861-.565c-5.452-.313-8.5-.761-12.072-1.178,2.074.444-11.673.665-9.5,1.053,23.234,2.242,62.038,1.482,89.238,2.079,72.011,2.96-3.294.71,24.757,3.023-20.188-.68-20.9-1.069-48.912-2.051,43.966,3.1,99.4,3.285,127.6,3.757-8.172-.41-10.159-.942-25.809-1.3l29.3.429C3948.18,7103.932,3922.356,7102.791,3854.779,7100.842Z" transform="translate(-2156.658 -6199.351)" fill="#040405"/>
        <path id="Trazado_26262" data-name="Trazado 26262" d="M3758.761,7097.654c18.88.484,25.964.822,27.5,1.08C3781.369,7098.172,3775.008,7097.677,3758.761,7097.654Z" transform="translate(-2151.354 -6199.023)" fill="#040405"/>
        <path id="Trazado_26263" data-name="Trazado 26263" d="M4047.11,7109.71c-3.183-.193-8.455-.323-15.377-.44C4035.279,7109.445,4039.832,7109.6,4047.11,7109.71Z" transform="translate(-2213.368 -6201.662)" fill="#040405"/>
        <path id="Trazado_26264" data-name="Trazado 26264" d="M4014.267,7106.294l35.606,1.281-13.937-1.151C4031.017,7106.352,4013.459,7105.9,4014.267,7106.294Z" transform="translate(-2209.394 -6200.95)" fill="#040405"/>
        <path id="Trazado_26265" data-name="Trazado 26265" d="M2664.56,7089.356c3.258.722,16.25,1.435,43.763,2.185-3.342.715-38.892-.57-55.548-.627,36.218,1.677-.672.935,8.484,2.019,40.471,1.363,58.514.866,101.885,2.458-2.186.165-1.471.55,4.154,1.008,52.129,1.134,140.548,3.174,191.363,5.485,49.012,1.855,85.4,2.625,139.246,3.96,177.232,6.034,361.963,11.043,552.558,17.848l27.066-.739c9.156,1.081,45.287,1.435,39.844,2.295-10.322-.528-20.328-.677-32.789-1.052,40.7,2.685,108.141,3.305,157.007,5.357-5.588-.46-13.544-2.1,1.2-1.879-.525.224.153.419,1.779.6q.611.059,1.394.131l1.548.12c.779.067,1.717.13,2.784.189.051-1.052.108-2.213.169-3.46.068-1.875.14-3.879.217-5.977.125-3.685.26-7.7.4-11.778l-9.959-.372c-3.806-.152-7.5-.318-10.918-.5-6.831-.37-12.545-.815-15.8-1.383-48.819-2.051-1.865,1.491-52.786-.4-5.4.875,48.818,2.053,57.986,3.132-15.942.34-46.1-1.813-43.765-.641,10.665.4,22.52.8,35.382,1.194l20.026.585,10.535.291,5.392.146.805.019.293,0,.6.005,0,.641,0,.332-.032,1.26q-.078,3.029-.156,6.106t-.158,6.2l-.037,1.493v.383l0,.788c-37.93-.87-80.058-1.837-122.843-2.82-44.047-1-88.768-2.043-130.51-3.17l13.218-.563c-63.953-1.32-167.36-4.56-218.417-7.778,11.974,1.316-94.292-3.486-84.814-1.062-16.17-1-21.08-1.073-44.085-1.985l-6.3.476c-32.733-1.053-27.429-1.924-64.942-3.045,24.473,1.689-2.812,1.095-13.751,1.5-42.982-2.376-93.065-4.857-131.415-6.9,2.989.386,6.527.832,19.608,1.644-26.046-1.15-21.567-.129-28.486-.042-25.016-.748-22.436-1.846-21.234-2.4-46.049-1.82-66.719-.226-101.161-2.067l12.207,1.323c-47.529-1.273-87.242-3.563-139.672-4.911-25.2-2.084,43.05.252,64.756.385-10.635-.608-33.189-1.391-40.261-2.043-22.492-.054-59.985-.341-87.83-.6C2749.053,7092.045,2682.568,7090.024,2664.56,7089.356Z" transform="translate(-1900.099 -6197.139)" fill="#040405"/>
        <path id="Trazado_26266" data-name="Trazado 26266" d="M2855.91,7094.332c6.367.008,11.829.006,15.018-.032-5.1-.083-9.83-.147-17.464-.451C2852.732,7093.992,2853.818,7094.156,2855.91,7094.332Z" transform="translate(-1945.639 -6198.159)" fill="#040405"/>
        <path id="Trazado_26267" data-name="Trazado 26267" d="M2666.771,7089.294c-.175-.055-.993-.122-1.085-.178C2660.5,7089.036,2662.227,7089.126,2666.771,7089.294Z" transform="translate(-1902.309 -6197.077)" fill="#040405"/>
        <path id="Trazado_26268" data-name="Trazado 26268" d="M3052.88,7105.771l-6.814-.3-8.548-.312Z" transform="translate(-1987.504 -6200.729)" fill="#040405"/>
        <path id="Trazado_26269" data-name="Trazado 26269" d="M3108.181,7102.034c10.131.646,24.08,1.425,39.891,2.272C3143.718,7103.74,3140,7103.292,3108.181,7102.034Z" transform="translate(-2003.557 -6200.018)" fill="#040405"/>
        <path id="Trazado_26270" data-name="Trazado 26270" d="M3519.043,7116.245c9.83.145,4.2-.316,11.125-.4C3509.886,7115.162,3503.05,7115.251,3519.043,7116.245Z" transform="translate(-2094.884 -6203.056)" fill="#040405"/>
        <path id="Trazado_26271" data-name="Trazado 26271" d="M2766.313,7091.461l-39.848-.967-14.647-.217Z" transform="translate(-1913.512 -6197.347)" fill="#040405"/>
        <path id="Trazado_26272" data-name="Trazado 26272" d="M1725.005,7064.555c35.072,2.229,86.658,3.179,129.935,4.768,79.324,1.927,10.079-2.134,85.385.12l-12.98,1.9c75.212,2.246,182.142,6.108,246.053,6.1,5.719.464,18.94,1.229-.626.943,50.253,1.492,26.161-2.464,93.205.425-62.747-.554,20.463,2.01,3.236,2.894l-9.829-.144c42.563,1.2,98.881,2.215,126.89,3.2,1.2-.553-23.233-2.241,14.326-1.123-15.185-.6-9.064-1.076-7.686-1.63-39.032-.576-60.12-1.649-83.7-1.615-21.711-1.459,14.647.216-7.064-1.243l-31.3-.269c-22.912-.912,23.753-.031-12.067-1.325-4.112.324-33.136-.106-61.229-1.095l8.1-.01c-21.475-.375-51.747-1.72-41.423-.1l-25.244-2.079,4.34,1.013c-58.649-2.2-80.682-4.991-156.6-6.307,18.225.842,1.57.784-8.168.648,31.625,1.6,38.948.565,68.957,1.4,4.433,1.012-46.531.447-10.172,2.123-39.8-2.3-75.39-2.257-92.335-4.969-48.011-1.661-66.326-1.17-115.144-3.229l1.463-.274c-9.041,1.152-39.716-1.912-75.961-1.579l25.776,1.137c-1.247.553-13.708.179-31.22-.271,1.963-.163,1.963-.163-3.709-.628-2.633.438-17.729.265-33.031-.008l-21.577-.419c-6.241-.122-10.916-.2-12.761-.185l8.99.308,9.333.239,19.594.35c13.376.2,27.242.353,40.8.647C1743.764,7064.449,1747.917,7065.462,1725.005,7064.555Z" transform="translate(-1678.843 -6191.088)" fill="#040405"/>
        <path id="Trazado_26273" data-name="Trazado 26273" d="M2376.085,7080.479l-15.568.012C2366.88,7080.6,2372.621,7080.638,2376.085,7080.479Z" transform="translate(-1833.704 -6195.121)" fill="#040405"/>
        <path id="Trazado_26274" data-name="Trazado 26274" d="M1827.616,7037.2c30.733,1.209-8.308.634,20.417,2.007,31.22.263-35.779-2.62-5.19-2.733,18.8,1.224,49.4,1.108,61.943,1.483-13.84.178-5.837,1.817-.342,2.272,11.84-.013,38.368,1.515,58.649,2.2-49.627-2.442,41.756.8-3.045-1.566,3.295-.71,50.155.168,69.049,1.4-1.388.548-16.75-.059-29.387-.436-10.224.8,31.532,1.606,38.6,2.851,47.338-.06,198.756,4.839,155.868.976-16.226-1-30.065-.823-47.622-1.278,49.191,2.057.321,1.337-3.875,1.654-20.9-1.065-57.033-1.412-48.726-2.046l33.313.116c-106.66-3.854-252.63-8.3-375.372-11.816l53.071,1.729c-6.2.483-31.313-.269-50.787-.56l25.874,2.473c-15.278-.608-29.925-.825-28.594-1.374-18.7.109-10.177.8,1,1.723-18.686-.453-30-.883-39.983-1.2-4.99-.159-9.647-.288-14.724-.379l-8.027-.1-4.411-.027c-.495.027-.969.06-1.406.1.035.4.078.884.123,1.393.053-.466.1-.874.139-1.113l.679.072.31.032.155.017.665.031,5.113.238,9.22.393c5.735.227,10.7.391,15.176.511,8.958.243,15.986.317,23.41.4,14.848.175,31.283.405,67.922,2.146Z" transform="translate(-1679.993 -6184.171)" fill="#040405"/>
        <path id="Trazado_26275" data-name="Trazado 26275" d="M1683.839,7033.777l1.034-.073,1.974-.042,3.962-.083,7.924-.166-9.326-.139-4.609-.068-2.934-.015-.029,3.947c.083-1.127.141-1.453.207-2.04l.191-1.514Z" transform="translate(-1679.522 -6184.379)" fill="#040405"/>
        <path id="Trazado_26276" data-name="Trazado 26276" d="M1713.416,7030.223c.808.389-8.929.246-8.121.636C1736.028,7032.073,1732.4,7031.451,1713.416,7030.223Z" transform="translate(-1684.841 -6183.705)" fill="#040405"/>
        <path id="Trazado_26277" data-name="Trazado 26277" d="M2195.081,7050.023l39.661.967-25.813-1.138C2209.551,7050.24,2200,7050.1,2195.081,7050.023Z" transform="translate(-1796.121 -6188.164)" fill="#040405"/>
        <path id="Trazado_26278" data-name="Trazado 26278" d="M2510.631,7054.61c-55.117-1.58-78.6-1.542-140.781-4.36-30.588.12,14.128,2.483.995,3.052,30.919,1.217,27.113-.739,59.177-.073,11.789,1.3,46.747,1.272,77.3,2.458C2503.6,7055.179,2503.617,7054.745,2510.631,7054.61Z" transform="translate(-1833.341 -6188.254)" fill="#040405"/>
        <path id="Trazado_26279" data-name="Trazado 26279" d="M2587.173,6774.793c.011-25.2-.717-50.591-.269-70.512.587,2.823.8,17.833.647,33.03,1.328-9.831-.208-27.85.681-55.057-.145,2.367-.374,12.2-.659,4.556.31-67.652-1.09-38.033-.334-125.978-.36-12.689-.357-25.25-1.239-23.106,1.118-49.912,1.11-24.709,2.088-84.666-.517,2.273-1.7,22.018-2.8,21.56,1.554-84.8-.219-86.622.945-140.755.061,6.094.337,13.287.192,27.934,1.545-7.007-.279-45.449.024-75.525l1.32,2.963c-.214-27.8-1.078-75.751-.11-110.69l.659,7.92c-.212-15.015-.36-30.568-.464-46.327-.069-16.481-.138-33.177-.207-49.741l-65.34,5.571c-20.281,1.734-39.513,3.4-56.867,4.994l-32.528,1.892c-82.979,7.932,82.545-6.42,21.957.608-9.356-1.657-42.821,4.37-90.227,7.355-22.392.9,47.832-4.495,22.986-3.535-10.323,2.111-25.179,2.459-50.264,4.917,5.343-1.625-52.7,4.234-37.208,1.617l-88.406,9.564c-14.336.526-40.037,2.783-58.973,4.532,47.874-3.982-13,2.843,40.719-1.1,78.114-7.084,208.562-18.37,306.179-25.9,10.563-2.5,62.657-5.208,78.146-7.823.378.053.892.094,1.492.124l1.946.079c1.315.05,2.613.1,3.558.176a23.066,23.066,0,0,1-.514,3.572c.063,7.76.108,13.352.139,17.227.049,3.94.1,6.135.155,7.038.108,1.811.226-1.537.352-6.376s.289-11.172.4-15.334c.069-2.107.139-3.523.211-4.114.072-.561.144-.173.217,1.792.214,27.691-.754,49.967-1.339,47.42-.086,45.226.439,5,1.314,28.072l-1.775,29.527c.545,141.165,1.737,327.919.732,488.51l1.109-12.187c-.271,32.086.175,59.533.554,85.715.19,13.091.364,25.864.424,38.744.03,6.439.031,12.9-.007,19.449q-.045,4.908-.091,9.882-.08,5.435-.161,10.962l-6.436-.324-5.582-.321-11.385-.73-21.989.257c11.975-.165-12.547-2.066,6.484-2.217-19.746-.25-40.834-1.337-61.305-1.642l36.274,1.677c-25.406.139-53.4-1.33-61.923-2.425-54.327-.6,32.226,2.942,44.2,4.256,20.6.1,35.682.465,48.159.979,6.239.257,11.826.551,17.127.866,2.65.164,5.229.325,7.783.483l4.332.268,5.655.313q.058-2.392.115-4.8.029-1.239.058-2.483.028-.84.057-1.686c.071-2.238.144-4.518.22-6.87.141-4.7.267-9.691.363-15.194.19-11,.253-24.058.056-40.987C2588.146,6727.295,2587.761,6777.617,2587.173,6774.793Z" transform="translate(-1786.51 -5970.197)" fill="#040405"/>
        <path id="Trazado_26280" data-name="Trazado 26280" d="M2674.8,7060.458c-4.64-.061-8.285-.074-11.109-.056C2667.606,7060.458,2671.25,7060.48,2674.8,7060.458Z" transform="translate(-1902.579 -6190.559)" fill="#040405"/>
        <path id="Trazado_26281" data-name="Trazado 26281" d="M2145.885,6138.942l-21.257,1.837C2117.447,6141.66,2128.944,6140.5,2145.885,6138.942Z" transform="translate(-1779.621 -5981.225)" fill="#040405"/>
        <path id="Trazado_26282" data-name="Trazado 26282" d="M2550.95,7057.284s0,.008.176.021l.55,0Z" transform="translate(-1876.967 -6189.852)" fill="#040405"/>
        <path id="Trazado_26283" data-name="Trazado 26283" d="M2503.651,7059.308l20.365.68-3.532-.62Z" transform="translate(-1866.221 -6190.312)" fill="#040405"/>
        <path id="Trazado_26284" data-name="Trazado 26284" d="M1875.931,6160.236l-.138.594C1877.6,6160.5,1878.39,6160.241,1875.931,6160.236Z" transform="translate(-1723.586 -5986.063)" fill="#040405"/>
        <path id="Trazado_26285" data-name="Trazado 26285" d="M2202.774,6106.81l-12.611,1.022C2194.163,6107.593,2198.609,6107.205,2202.774,6106.81Z" transform="translate(-1795.004 -5973.925)" fill="#040405"/>
        <path id="Trazado_26286" data-name="Trazado 26286" d="M3476.823,5950.569c37.788-3.509,88.074-8.057,115.924-11.331l-2.672.809,16.864-1.664,20.624-2.114c.265,2.473.519,4.843.756,7.043.239,2.077.46,4,.656,5.694.407,3.4.748,5.913.983,7.069.055.263.116.567.162.7s.084.172.112.072a4.147,4.147,0,0,0,.052-.671c.012-.29.015-.686.009-1.2-.024-2.05-.2-5.942-.562-12.161l-.212-1.6-.26-2.168-.506-4.186-5.365.645-8.544.846-7.02.66c-4.3.391-7.86.687-10.909.913-6.1.453-10.136.629-13.85.741-7.428.22-13.561.178-32.281,1.551-45.083,4.038-70.833,8.394-110.868,11.208-17.5,1.532-14.825.714-9.689-.155-40.18,3.191-55.731,6.18-83.272,8.693-11.434-3.47-123.222,11.5-182.8,13.648-37.556,3.489-87.819,7.3-135.62,12.16,25.387-3.222-45.076,3.67-34.706,1.557-13.343,3.688-137.782,10.342-146.036,14.281-65,4.512-2.61.434-77.658,5.933.146-.375,12.662-1.42,17.643-1.9-29.749,1.809-45.493,5.182-70.192,5.764-60.047,4.766-10.039,1.712-45.64,5.556-62.51,4.833-44.951,2.933-79.611,4.481-5.5,2.007-42.728,4.37-73.218,7.713,7.619-.561,50.17-3.806,22.335-.9-72.6,5.813-57.946,5.854-125.868,11.938-34.514,1.174,67.729-5.7,7.952-2.063,42.915-4.374,75.511-7.015,98.444-10.173-57.723,4.724-127.969,10.857-190.926,16.831-35.024,2.69,17.788-2.29-9.7-.157-62.577,4.472-95.871,9.743-145.8,13.154l10.261-1.734c-30.283,3.7-110.28,8.945-168.164,14.421,7.465-.176,12.3-.283,4.709.642.358-1.139-19.759.828-47.128,3.482s-61.99,5.995-90.638,7.6c4.647,1.014-50.784,6.431-85.905,9.505-12.409.649-9.83-.145-9.674-.526,57.551-3.979,55.545-6.17,101.006-10.61-37.841,3.882-100.465,8.353-133.389,12.121l12.88-2.176c-24.109,1.935-35.727,3.422-46.576,4.81-5.425.693-10.657,1.361-17.161,2.047-3.253.343-6.823.69-10.9,1.048l-6.507.544-6.977.527c.235,3.484.5,7.422.793,11.758l-1.251-5.374c.5,6,1.01,12.063,1.537,18.356l164.474-13.3c54-4.415,105.179-8.813,147.027-13.163,7.651-1.31-37.092.862-39.447.544-52.765,4.975-83.141,8.682-123.482,12.63l.48-1.308c-9.083,1.626-57.554,6.183-30.655,4.621-32.861,3.393-25.032.974-62.733,4.847,3.019-1.577,25.5-3.595,25.766-4.722l-32.861,3.4c10.384-1.382-19.712,1.2-9.69-.155-7.319.8-14.107,1.508-20.49,2.134l-15.856,1.486c-.3-3.574-.579-7.013-.858-10.367q-.236-3.051-.468-6.032-.126-1.828-.252-3.628l35.866-2.55c13.527-1.01,28.469-2.218,46.643-3.941l-35.023,2.689c.218-.755,20.26-2.354,35.387-3.827,17.217-.4,27.455-1.4,59.814-3.644,27.75-2.9,43.147-5.5,80.817-8.636-7.907,2.057,62.587-4.466,69.7-3.88,7.953-2.055,72.818-6.57,78.006-7.811,10.053-.982,21.974-2.009,31.368-2.7s16.26-1.039,16.2-.665l-15.124,1.5,20.042-1.619a24.674,24.674,0,0,1-3.511.6c17.867-1.458,17.958-2.482,41.228-3.733-.073.19-3.26.549-7.707.983l-15.277,1.442c47.8-3.749,83.426-9.076,123.243-11.13,7.838-1.312,62.958-5.967,50.96-6.447,14.917-.727,9.3.921,49.538-2.646,23.026-3.167,44.968-3.291,75.5-6.641-40.514,4.687-.147.374-35.6,4.582,27.434-1.769,68-6.836,115.624-10.573,4.927-.117,4.771.267,9.736.148,17.7-1.917,38.012-4.634,55.322-5.04l-2.247-.7c32.405-2.252,77.627-6.306,112.526-8.247l40.575-5.07c54.641-2.776,127.869-10.48,170.9-15.608,10.022-.8,22.52-1.745,32.506-2.446,4.992-.352,9.356-.64,12.469-.818,1.556-.089,2.8-.15,3.651-.177a4.726,4.726,0,0,1,1.306.027l-21.62,2.418c29.382-2.386,65.367-4.427,81.889-7.213,30.113-2.937,22.159-.882,44.667-2.529,60.857-7.054,180.3-13.587,198.54-18.127-24.94,2.073-72.408,5.429-120.094,9.542,12.57-1.414,2.641-1.178,20.314-2.719,47.686-4.117,72.346-5.059,120.094-9.545l-5.458,2.375C3338.339,5963.927,3412.493,5953.189,3476.823,5950.569Z" transform="translate(-1679.319 -5934.863)" fill="#040405"/>
        <path id="Trazado_26287" data-name="Trazado 26287" d="M3213.015,6020.475l34.806-1.935-3.7-.519C3233.437,6019.048,3222.555,6019.96,3213.015,6020.475Z" transform="translate(-2027.373 -5953.755)" fill="#040405"/>
        <path id="Trazado_26288" data-name="Trazado 26288" d="M3252.97,6017.412c7.068-.672,13.861-1.387,20.19-2.075-7.615.618-14.91,1.264-21.2,1.953Z" transform="translate(-2036.22 -5953.145)" fill="#040405"/>
        <path id="Trazado_26289" data-name="Trazado 26289" d="M4183.394,5939.516l11.313-.842c.257,3.176.548,6.738.854,10.5.183,2.077.37,4.209.56,6.373.174,1.826.351,3.677.528,5.532l-.557.057.582-.035c-.079-1.277-.171-2.742-.27-4.328-.142-1.949-.3-4.047-.453-6.206s-.344-4.378-.516-6.577c-.162-1.919-.321-3.818-.473-5.623l-6.267.581C4186.6,5939.155,4184.791,5939.345,4183.394,5939.516Z" transform="translate(-2247.821 -5935.659)" fill="#040405"/>
        <path id="Trazado_26290" data-name="Trazado 26290" d="M4197.433,5963.99l3.116-.2-.893-13.629-.432-2.516,1.277,16.1Z" transform="translate(-2251.011 -5937.766)" fill="#040405"/>
        <path id="Trazado_26291" data-name="Trazado 26291" d="M2854.174,6055.29l-55.539,5.8c-3.6.084-14.341.939-25.47,1.853l-16.146,1.324-6.713.527-1.808.124-1.314.073a6.871,6.871,0,0,1-.157,1.744c-.069.034-.157-.538-.268-2.136-.011.05-.056-.045.07-.044l.441-.078-.558.079q.057,1.081.118,2.235c.009.184.018.369.027.554.008.243.017.488.026.734q.025.858.05,1.741c.053,2.352.11,4.817.167,7.363.1,5.093.162,10.507.209,15.979.056,10.946.114,22.125.162,31.423.086,18.6.253,29.672,1.243,16.312q-.094-35.322-.2-74.683l243.707-20.39c85.836-7.222,172.706-14.694,252.968-22.15L3214.97,6027c98.075-9.778,134.664-9.5,213.418-19.215l-10.469,2.491c45.014-3.3,85.9-9.5,132.964-11.717l-4.586-.283c12.423-1.036,17.341-1.149,29.941-2.192l-5.01.122c32.684-3.387,52.9-4.988,85.318-7.245,2.261.328-15.126,1.48-25.179,2.46,14.908-.718,40.3-3.937,65.5-6.033,19.805-1.2-.208.759-2.91,1.206,75.566-7.025,110.071-8.2,163.371-15.062,5.126-.865-19.659.821,7.89-1.69-50.024,3.424-90.3,7.735-135.759,12.182l12.609-1.053c-35.9,5.343-27.435,1.761-85.381,7.609,15.251-2.226,40.46-4.316,50.482-5.667-67.074,3.8-95.642,9.347-140.084,10.758l4.9-.48c-9.907.6-27.642,2.516-42.768,3.994,5.011-.119,19.991-1.216,30.075-1.834-15.312,1.5-23.016,3.171-28.105,4.032-17.273.4-22.762,2.4-50.1,4.168-9.782-.145,22.731-2.775,32.893-4.136l-32.769,3.386c-30.1,2.577-29.743,1.437-44.651,2.163-25.464,2.855,14.908-.726-5.582,2.012-32.2,1.5-170.181,13.34-235.655,19.736,22.56-2.021,7.89-1.683,35.285-3.815-4.949.3-16.231,1.315-26.3,2.345s-18.931,2.08-19.035,2.458c-45.377,4.437-103.037,8.786-145.433,11.648l12.345-.29c-35.486,4.208-89.982,6.594-152.893,12.559l1.32-.09c-20.256,1.848-37.423,5.081-74.538,7.806C2836.331,6057.591,2856.281,6056,2854.174,6055.29Z" transform="translate(-1921.439 -5942.808)" fill="#040405"/>
        <path id="Trazado_26292" data-name="Trazado 26292" d="M2748.218,6230.574l-1.021-20.563c-.228,22.66,1.083,50.91,1.749,46.045-.217-15.289.235-35.218-.354-37.9C2748.446,6220.66,2748.078,6220.381,2748.218,6230.574Z" transform="translate(-1921.543 -5997.37)" fill="#040405"/>
        <path id="Trazado_26293" data-name="Trazado 26293" d="M2748.249,6671.449c.236,8.274.621,6,.91,9.551-.128-89.528-.538-199.994.263-235.661.305-30.112-1.237-35.665-1.6-73.6l1.037-17.107c-.655-20.47.467-83.071-1.229-60.868-.149,2.273.8,17.832.5,35.3l-.587-2.823.2,40.4-.728-12.923c-1.043,55.139,2.2,38.676,1.516,106.365l-1.474-.456c-.083,45.226.419,68.062-.479,107.911,0,0,.741.363.448-7.37.077-7.453.669-17.144,1.107-12.01,1.152,68.379-.878-10.641-1.479,37.129,1.01,58.232,1.855,169.331.672,201.541.89-27.394,1.832,13.277,1.749,45.943-.519,14.925-.878-10.324-1.32-15.644-.154,15.187-.526,27.568-.3,42.672.813-19.659,1.911-6.735,2.413,28.567C2750.78,6810.8,2748.081,6749.332,2748.249,6671.449Z" transform="translate(-1921.411 -6015.329)" fill="#040405"/>
        <path id="Trazado_26294" data-name="Trazado 26294" d="M2750.25,6809.677c-.049-7.957-.181-11.553-.334-13.463.011,10.557.023,21.159.033,31.026Z" transform="translate(-1922.167 -6130.542)" fill="#040405"/>
      </g>
    </g>
  </g>
</svg>
