<svg xmlns="http://www.w3.org/2000/svg" width="53.969" height="39.921" viewBox="0 0 53.969 39.921">
  <g id="Grupo_1315" data-name="Grupo 1315" transform="translate(-2692.096 -2616.067)">
    <path id="Trazado_25932" data-name="Trazado 25932" d="M2744.665,2625.3s-.542-3.8-2.113-5.453a7.537,7.537,0,0,0-5.253-2.342c-7.368-.543-18.419-.543-18.419-.543h-.058s-11.022,0-18.392.543a7.5,7.5,0,0,0-5.281,2.342c-1.572,1.656-2.112,5.453-2.112,5.453a83.809,83.809,0,0,0-.545,8.853v4.2a82.383,82.383,0,0,0,.545,8.854s.541,3.8,2.112,5.483c2,2.2,4.627,2.113,5.826,2.341,4.2.429,17.9.572,17.9.572s11.052-.057,18.419-.572a7.411,7.411,0,0,0,5.253-2.341c1.572-1.686,2.113-5.483,2.113-5.483a87.282,87.282,0,0,0,.514-8.854v-4.2c0-4.4-.514-8.853-.514-8.853Zm-17.019,10.4-14.25,7.681V2627.96l6.454,3.513Z" transform="translate(0.017 0.038)" fill="#84af0f" fill-rule="evenodd"/>
    <g id="Grupo_1314" data-name="Grupo 1314" transform="translate(2692.096 2616.067)">
      <path id="Trazado_25933" data-name="Trazado 25933" d="M2744.665,2625.3s-.542-3.8-2.113-5.453a7.537,7.537,0,0,0-5.253-2.342c-7.368-.543-18.419-.543-18.419-.543h-.058s-11.022,0-18.392.543a7.5,7.5,0,0,0-5.281,2.342c-1.572,1.656-2.112,5.453-2.112,5.453a83.809,83.809,0,0,0-.545,8.853v4.2a82.383,82.383,0,0,0,.545,8.854s.541,3.8,2.112,5.483c2,2.2,4.627,2.113,5.826,2.341,4.2.429,17.9.572,17.9.572s11.052-.057,18.419-.572a7.411,7.411,0,0,0,5.253-2.341c1.572-1.686,2.113-5.483,2.113-5.483a87.282,87.282,0,0,0,.514-8.854v-4.2c0-4.4-.514-8.853-.514-8.853Zm-17.019,10.4-14.25,7.681V2627.96l6.454,3.513Z" transform="translate(-2692.079 -2616.03)" fill="#84af0f"/>
      <g id="Grupo_1310" data-name="Grupo 1310" transform="translate(20.163 9.985)">
        <g id="Grupo_1309" data-name="Grupo 1309">
          <g id="Grupo_1308" data-name="Grupo 1308">
            <path id="Trazado_25934" data-name="Trazado 25934" d="M2726.2,2635.061l-.072-.145-.164.215Z" transform="translate(-2710.853 -2625.269)" fill="#84af0f"/>
            <path id="Trazado_25935" data-name="Trazado 25935" d="M2726.12,2633.96l-.253-.01c-.253.74-.3.46-.251,1.114.166-.046.534-.15.647-.433-.094-.013-.35.182-.421.035.155-.168.269-.077.464-.3-.075-.312-.207.1-.365-.105Z" transform="translate(-2710.868 -2625.309)" fill="#84af0f"/>
            <path id="Trazado_25936" data-name="Trazado 25936" d="M2725.521,2634.5a2.2,2.2,0,0,0,.212-.31C2725.651,2634.294,2725.476,2634.385,2725.521,2634.5Z" transform="translate(-2710.871 -2625.299)" fill="#84af0f"/>
            <path id="Trazado_25937" data-name="Trazado 25937" d="M2725.377,2634.5c-.113-.094.137-.249.145-.293l-.379.358Z" transform="translate(-2710.886 -2625.299)" fill="#84af0f"/>
            <path id="Trazado_25938" data-name="Trazado 25938" d="M2724.884,2634.188a.377.377,0,0,0-.081.01C2724.785,2634.278,2724.834,2634.229,2724.884,2634.188Z" transform="translate(-2710.901 -2625.299)" fill="#84af0f"/>
            <path id="Trazado_25939" data-name="Trazado 25939" d="M2724.607,2634.12c-.03.179.083.125.2.1l.007-.032c0-.167.234-.442.306-.3.159,0-.019.3.2.153l-.007-.33C2725.1,2633.646,2724.749,2634.037,2724.607,2634.12Z" transform="translate(-2710.909 -2625.319)" fill="#84af0f"/>
            <path id="Trazado_25940" data-name="Trazado 25940" d="M2724.881,2634.189a.171.171,0,0,1,.079.018C2724.958,2634.138,2724.92,2634.158,2724.881,2634.189Z" transform="translate(-2710.897 -2625.301)" fill="#84af0f"/>
            <path id="Trazado_25941" data-name="Trazado 25941" d="M2725.114,2634.367l.1-.029.056-.141Z" transform="translate(-2710.888 -2625.299)" fill="#84af0f"/>
            <path id="Trazado_25942" data-name="Trazado 25942" d="M2724.182,2633.936c.259-.407.282.211.494-.1-.178-.074-.146-.457.019-.671l-.26.03A1.207,1.207,0,0,0,2724.182,2633.936Z" transform="translate(-2710.927 -2625.342)" fill="#84af0f"/>
            <path id="Trazado_25943" data-name="Trazado 25943" d="M2724.391,2632.684a.166.166,0,0,1-.082.049A.125.125,0,0,0,2724.391,2632.684Z" transform="translate(-2710.921 -2625.362)" fill="#84af0f"/>
            <path id="Trazado_25944" data-name="Trazado 25944" d="M2723.1,2632.92l.668-.189c-.113.115-.171.256-.3.251.163.161.334-.1.471.034-.166.421-.3-.124-.4.279.119.049.3.123.569-.163l.032.367.175-.468c-.005-.164-.331.26-.212-.065.079-.2.169-.195.246-.21-.164.024-.132-.51-.4-.58C2723.687,2632.086,2723.375,2632.8,2723.1,2632.92Z" transform="translate(-2710.972 -2625.383)" fill="#84af0f"/>
            <path id="Trazado_25945" data-name="Trazado 25945" d="M2723.333,2632.43l.063-.185-.1.24Z" transform="translate(-2710.964 -2625.38)" fill="#84af0f"/>
            <path id="Trazado_25946" data-name="Trazado 25946" d="M2722.593,2632.757l.375-.149a.962.962,0,0,1-.057.238c.046-.105.2-.242.233-.329.107-.449-.347-.026-.506-.024-.227-.352.128-.2.2-.639.084.058.038.154.148.249.042-.548-.427-.278-.613-.238.015.059-.041.185.049.188l-.2.057C2722.191,2632.5,2722.262,2632.642,2722.593,2632.757Z" transform="translate(-2711.008 -2625.4)" fill="#84af0f"/>
            <path id="Trazado_25947" data-name="Trazado 25947" d="M2722.975,2632.931c-.1-.017-.117-.062-.094-.123C2722.846,2632.926,2722.834,2633.018,2722.975,2632.931Z" transform="translate(-2710.981 -2625.357)" fill="#84af0f"/>
            <path id="Trazado_25948" data-name="Trazado 25948" d="M2722.3,2631.836c0,.032.029.037.074.026C2722.367,2631.837,2722.349,2631.823,2722.3,2631.836Z" transform="translate(-2711.005 -2625.397)" fill="#84af0f"/>
            <path id="Trazado_25949" data-name="Trazado 25949" d="M2722.188,2632.354l-.136-.128-.039.22A.189.189,0,0,0,2722.188,2632.354Z" transform="translate(-2711.017 -2625.381)" fill="#84af0f"/>
            <path id="Trazado_25950" data-name="Trazado 25950" d="M2716.652,2628.591c-.072.167-.056.277.084.313-.13.2-.268.076-.409.156.09.226-.137.249-.208.476.171.12.4-.112.566.05a.6.6,0,0,0-.1.237c.306-.006.811.01.94.318.177.2.395.188.688.224a28,28,0,0,1,2.432,1.438l.346-.348c-.071.229.2.109.034.364-.019-.077-.087-.057-.146-.083-.015.463.5.233.651.483.014-.087.174-.467.275-.494-.268.451.263.133.042.7.148.251.227-.4.416-.2.171-.258-.148-.25-.078-.478.191-.18.156.206.3-.084-.294-.334-1.282-.139-1.927-.29l.2-.223a.771.771,0,0,1-.86-.755c-.077.271-.352-.36-.609.213,0-.166-.036-.157-.115-.26l-.123.159c-.145-.085.025-.339-.153-.414-.019.3-.179.3-.334.469-.05-.37-.149-.724-.2-1.034a.854.854,0,0,0-.056.314c-.071-.147-.175.09-.25.154-.119-.05.06-.35.149-.5-.155-.207-.564.326-.613.047l-.079.273c-.245-.056-.279-.422-.557-.468.068-.4.349-.183.525-.274-.01-.1-.1-.17-.074-.3a7.135,7.135,0,0,1-.7.348C2717.03,2628.8,2716.72,2628.659,2716.652,2628.591Z" transform="translate(-2711.261 -2625.532)" fill="#84af0f"/>
            <path id="Trazado_25951" data-name="Trazado 25951" d="M2717.348,2628.772a1.31,1.31,0,0,0,.141-.1c-.034.008-.068.019-.093-.016A.331.331,0,0,0,2717.348,2628.772Z" transform="translate(-2711.21 -2625.529)" fill="#84af0f"/>
            <path id="Trazado_25952" data-name="Trazado 25952" d="M2716.631,2628.593l.017-.043C2716.613,2628.56,2716.615,2628.574,2716.631,2628.593Z" transform="translate(-2711.24 -2625.534)" fill="#84af0f"/>
            <path id="Trazado_25953" data-name="Trazado 25953" d="M2717.484,2630.118c0-.014-.013-.024-.019-.037l-.035-.03Z" transform="translate(-2711.207 -2625.471)" fill="#84af0f"/>
            <path id="Trazado_25954" data-name="Trazado 25954" d="M2718.229,2629.145a1.951,1.951,0,0,0,.037.358A.324.324,0,0,0,2718.229,2629.145Z" transform="translate(-2711.174 -2625.509)" fill="#84af0f"/>
            <path id="Trazado_25955" data-name="Trazado 25955" d="M2719.463,2630.165c.068-.019.082-.106.156-.169C2719.534,2629.937,2719.459,2630,2719.463,2630.165Z" transform="translate(-2711.123 -2625.474)" fill="#84af0f"/>
            <path id="Trazado_25956" data-name="Trazado 25956" d="M2717.146,2628.573l-.219-.022-.1.031Z" transform="translate(-2711.232 -2625.533)" fill="#84af0f"/>
            <path id="Trazado_25957" data-name="Trazado 25957" d="M2713.144,2628.015c.335.559.386.356.576.536.118-.035.122-.238.115-.429s-.012-.362.213-.262c-.034.24-.059.485-.076.735.284.108.629.456,1.228.1-.016.087,0,.209-.139.247.238.1.581-.789.774-.426-.483.219-.1.4-.379.732l-.067.018c.211.065.572.006.684.1.09-.152.106-.447.285-.374-.051-.068.071-.227.16-.377-.268.075-.305-.082-.522.063.013-.255.1-.03.111-.282l-.24.11c-.078-.1.216-.143.078-.273a.3.3,0,0,1-.393.069l.073-.049c-.138.028-.222-.145-.356.214l.067-.394-.1.237c-.119-.122-.088-.31-.176-.5a.679.679,0,0,0-.631-.389c.121.154-.035.227-.106.244.173.3.307-.053.557.043-.09.245-.483.382-.325.644-.141-.425-.389-.167-.455-.936-.364-.244-.432.077-.79-.287l-.02-.121c.093.535-.371-.421-.406.056l.207.223c.073.237.006.207-.069.2a.74.74,0,0,0-.106-.23c.135.425-.084.363-.041.49.134.134.086-.181.2-.213C2713.1,2627.755,2713.27,2628.143,2713.144,2628.015Z" transform="translate(-2711.396 -2625.601)" fill="#84af0f"/>
            <path id="Trazado_25958" data-name="Trazado 25958" d="M2715.658,2628.111l-.142.093A.254.254,0,0,0,2715.658,2628.111Z" transform="translate(-2711.286 -2625.552)" fill="#84af0f"/>
            <path id="Trazado_25959" data-name="Trazado 25959" d="M2712.2,2627.588c-.07.123-.263-.406-.4-.362.215.48.44.306.76.912-.186-.119.135.424.142.476a3.747,3.747,0,0,0-.676-.7c.115.2-.088.188-.1.342.255-.132.152.408.43.337.244.241.422.575.234.554-.175-.11-.138-.177-.146-.253-.332-.294-.178.07-.48-.045.46.631.429,1.385,1.17,1.155.142-.053-.036-.095-.069-.169-.149.166-.392-.04-.524-.107.119-.079-.116-.343.149-.209a2.525,2.525,0,0,0,.278.227,2.976,2.976,0,0,0-.022-1.476l-.016.188a2.648,2.648,0,0,1-.309-.69q-.244-.317-.488-.589c.035-.05-.037-.262.139.023a2.415,2.415,0,0,0-.5-.784,1.059,1.059,0,0,1-.024-.271c.136.083.213.149.185-.117-.3-.325-.428-.394-.474-.37.079.342.307.778.079.879Q2711.865,2627.087,2712.2,2627.588Z" transform="translate(-2711.455 -2625.654)" fill="#84af0f"/>
            <path id="Trazado_25960" data-name="Trazado 25960" d="M2712.168,2626.563l.122.348a.736.736,0,0,1,.039-.119Z" transform="translate(-2711.425 -2625.616)" fill="#84af0f"/>
            <path id="Trazado_25961" data-name="Trazado 25961" d="M2713,2628.207c-.105-.181-.115-.24-.216-.417C2712.586,2627.6,2712.761,2627.864,2713,2628.207Z" transform="translate(-2711.403 -2625.568)" fill="#84af0f"/>
            <path id="Trazado_25962" data-name="Trazado 25962" d="M2711.918,2629l.085.321.095-.152A.309.309,0,0,1,2711.918,2629Z" transform="translate(-2711.436 -2625.515)" fill="#84af0f"/>
            <path id="Trazado_25963" data-name="Trazado 25963" d="M2713.179,2630.66c-.05-.281-.279-.4-.031-.719-.319-.155-.6.073-.888.006-.071.157.469.137.575.3-.276.062.06.24,0,.4A.723.723,0,0,1,2713.179,2630.66Z" transform="translate(-2711.422 -2625.478)" fill="#84af0f"/>
            <path id="Trazado_25964" data-name="Trazado 25964" d="M2712.149,2631.6c0,.128.21.258.078.36-.173-.014-.237-.092-.191-.169-.393.049.061.142-.2.281a.235.235,0,0,1,.195-.024c-.093.347.322.195.1.644a.415.415,0,0,0,.366.118c-.329.255-.327.127-.616.433a6.073,6.073,0,0,1,.827-.11c-.458.433.066.443-.278.719-.017-.03-.1-.068-.057-.143-.456.036.083.232-.008.385l-.389-.015c.062.142.318.388.032.566l-.195-.04c.3.361.159.785.306,1.095l-.241.166c.3.426.136-.424.719-.111-.719.047.233.22-.052.462-.287.115-.149-.245-.475-.119.368.054.106.129.211.258-.347-.027-.047.27-.438.191l.644.454a.187.187,0,0,0-.113.3c0-.245.516.068.677-.207a2.384,2.384,0,0,1-.1-1.57c-.478-.054,0-.321-.385-.4l.436-.062c-.1-.322-.263.076-.436,0-.062-.142.224-.256.4-.243.024-.231-.131-.026-.389-.144l.524-.151a4.569,4.569,0,0,1-.215-2.495l-.327.062c.18-.371-.729-.622-.026-.951l-.281-.112c.159.062.49-.065.715.033-.113-.1.012-.209-.09-.313l-.155.185c-.278-.13-.107-.273.136-.316-.328-.277-.565.165-.84.226.6.39-.594.394-.341.769C2711.861,2631.844,2711.974,2631.588,2712.149,2631.6Z" transform="translate(-2711.448 -2625.451)" fill="#84af0f"/>
            <path id="Trazado_25965" data-name="Trazado 25965" d="M2712.993,2631.1a.335.335,0,0,0-.087-.056A.289.289,0,0,0,2712.993,2631.1Z" transform="translate(-2711.395 -2625.43)" fill="#84af0f"/>
            <path id="Trazado_25966" data-name="Trazado 25966" d="M2712.341,2637.034a.321.321,0,0,0,.02.109C2712.443,2637.181,2712.385,2637.121,2712.341,2637.034Z" transform="translate(-2711.418 -2625.181)" fill="#84af0f"/>
            <path id="Trazado_25967" data-name="Trazado 25967" d="M2712.808,2630.613h-.006l.006,0Z" transform="translate(-2711.399 -2625.448)" fill="#84af0f"/>
            <path id="Trazado_25968" data-name="Trazado 25968" d="M2712.037,2630.434l-.01.1.149-.018Z" transform="translate(-2711.431 -2625.455)" fill="#84af0f"/>
            <path id="Trazado_25969" data-name="Trazado 25969" d="M2711.946,2638.087h.173A.42.42,0,0,0,2711.946,2638.087Z" transform="translate(-2711.435 -2625.138)" fill="#84af0f"/>
            <path id="Trazado_25970" data-name="Trazado 25970" d="M2711.845,2641.412l.01-.1A.1.1,0,0,0,2711.845,2641.412Z" transform="translate(-2711.439 -2625.004)" fill="#84af0f"/>
            <path id="Trazado_25971" data-name="Trazado 25971" d="M2717.78,2640.188a1.213,1.213,0,0,0,.291-.711l.07.158c.052-.123.217-.525-.12-.694l.025.157c-.1.342-.292-.167-.514-.174-.166.181.026.817-.227.778-.071.059-.141-.1-.179-.227-.2.055-.037.532-.131.656-.669-1.122-.389.612-1.05.026-.119.185-.4.206-.493.55-.04-.35-.217.085-.344-.265.3.7-.781.038-.367.9-.395-.091,0,.074-.386.026a.161.161,0,0,1,.027-.158c-.137-.15-.09.51-.248.1-.212.035-.011.3-.175.68-.295.032-.2-.167-.213-.607-.156.6-.225.388-.469.789.016.015.188.025-.029.339-.349.1-.479.6-1.042,1.041.222-.692.422-.245.4-.681a4.259,4.259,0,0,0,.834-1.106,2.574,2.574,0,0,0-.705.556.326.326,0,0,0-.109-.01c.067-.269.237-.283.282-.473.111-.287-.017-.185-.145-.136s-.256.071-.146-.169l.26-.209c-.172.111-.153-.052-.115-.221s.1-.341,0-.429c-.13.085-.218.156-.3.149.326-.142.242-.185.132-.3s-.242-.33-.011-.468a.655.655,0,0,1-.688-.441.844.844,0,0,1,.4-.049c-.246.295.449.285.641.519-.215-.195.008-.514-.293-.683l.325.066c.047-.27-.734-.236-.424-.517l.238.027c-.032-.566.392-1.231-.143-1.684-.2-.041-.655.188-.808.2.17.271.516.428.685.635l-.372,0c.255.047.406.3.607.157.189.169-.328.127-.116.321-.39-.015-.431-.132-.755-.134l.191.169c-.151-.053-.131.1-.283.05.472.311-.183.436.029.758l.069-.179c.217,0,.195.1.259.181-.305.089-.264.139-.4.306.171.144.56.22.557.417-.412-.053-.224.435-.571.582.41-.049.147.517.382.441.084.092.041.295-.179.456-.01-.015-.052-.031-.071-.069l-.013.168c-.047.019-.082.05-.09.036-.01.162.288-.083.085.262-.108.093-.106-.011-.15-.061-.036.232.12.275.238.3s.2.056.011.429c.193-.17.21.172.647-.529-.155.3-.5.773-.44.957.127-.149.15-.141.135-.065.052,0,.009.209.257-.1-.584.754-.078.165-.655.894.079.13.764-.8.989-.846-.021.111-.083.27-.1.376.209-.259.452-.732.444-.381l.086-.344c.156.068.437-.178.661.027a5.522,5.522,0,0,0,.235-.691c.177.2.416.09.554-.109a1.131,1.131,0,0,0,.141-.715c.1-.029.279-.023.33.075,0,.044-.008.129-.012.211.142-.056.438.106.317-.3.077-.185.236.2.368.2,0-.658,1.016-.06.68-.886-.115.058-.413.018-.61.167.006-.125-.121-.254-.05-.314.2-.151.462.078.608-.168l.241.509C2717.406,2640.991,2717.106,2639.631,2717.78,2640.188Z" transform="translate(-2711.446 -2625.171)" fill="#84af0f"/>
            <path id="Trazado_25972" data-name="Trazado 25972" d="M2714.88,2641.49l.292.167-.131-.205C2715.01,2641.514,2714.961,2641.541,2714.88,2641.49Z" transform="translate(-2711.313 -2624.998)" fill="#84af0f"/>
            <path id="Trazado_25973" data-name="Trazado 25973" d="M2715.035,2641.459a.5.5,0,0,0,.037-.15.1.1,0,0,0-.07.1Z" transform="translate(-2711.308 -2625.004)" fill="#84af0f"/>
            <path id="Trazado_25974" data-name="Trazado 25974" d="M2718.091,2639.673a.158.158,0,0,0,.172-.088C2718.186,2639.55,2718.084,2639.579,2718.091,2639.673Z" transform="translate(-2711.179 -2625.076)" fill="#84af0f"/>
            <path id="Trazado_25975" data-name="Trazado 25975" d="M2718.193,2639.432l-.121-.035.019.063Z" transform="translate(-2711.18 -2625.083)" fill="#84af0f"/>
            <path id="Trazado_25976" data-name="Trazado 25976" d="M2722.537,2636.691l.088-.437c.127.129.312-.208.362.105-.044-.441.47-.266.07-.72-.64.576-1.822.82-2.424,1.74l.026-.281c-.222.65-.852-.125-.768.883l-.179-.446c-.266-.007-.062.814-.512.486l.114.159c-.057.03-.12-.034-.178-.005l.064.065c-.058.248-.159.278-.367.24-.083-.128.036-.094.062-.154-.139-.1-.1.247-.217.305-.152-.068-.1-.192-.12-.255-.242.369-.634.01-.539.766.038.127.2.166.108.287.331.076.381-.27.495-.549l-.057.029c-.165-.695.2.071.318-.333.063.284-.051.344-.025.5.553.3.241-.587.762-.1l-.012.029c.075.033.094-.123.132-.215-.064-.066-.152-.069-.229-.1.04-.093-.07-.379-.107-.505.222.227.031-.187.227-.119.178.225.02.283.046.442l.056-.25c.127-.09.28.2.42.3.012-.252-.14-.1-.189-.414.311.229.887-.192,1.054-.593-.084.091.107.286-.04.313.076.032.164-.183.063-.374.114-.279.437-.3.723-.228l-.158-.163c-.012-.407.534.02.717-.322h-.008c.07-.091-.1-.6.117-.592C2722.5,2636.438,2722.4,2636.467,2722.537,2636.691Z" transform="translate(-2711.183 -2625.239)" fill="#84af0f"/>
            <path id="Trazado_25977" data-name="Trazado 25977" d="M2723.091,2635.718l.052.315c.133.005.076-.405-.038-.565-.038.093-.191.024-.121.184C2723.016,2635.683,2723.066,2635.779,2723.091,2635.718Z" transform="translate(-2710.977 -2625.246)" fill="#84af0f"/>
            <path id="Trazado_25978" data-name="Trazado 25978" d="M2724.959,2634.721a.924.924,0,0,0-.083-.259c-.385.25-.825.623-1.1.5-.178,0,.012.408-.107.593l-.222-.227c0,.22-.439.079-.1.467.032.032-.031-.251.09-.216l.07.158.153-.15.045.222c.394.137-.135-.666.264-.653l.2.385c.217-.089.248-.276.552-.141,0,0-.1-.191-.095-.1a.434.434,0,0,1-.209-.259c.146-.466.076.254.374.3.121-.4.5-.892.812-.663-.248-.165-.2-.508-.038-.565.139.1.076.252.115.379.089,0,.2.071.235-.023a.653.653,0,0,1-.21-.7C2725.232,2633.726,2725.334,2634.577,2724.959,2634.721Z" transform="translate(-2710.966 -2625.317)" fill="#84af0f"/>
            <path id="Trazado_25979" data-name="Trazado 25979" d="M2724.824,2634.319a.119.119,0,0,0-.013.121l.134-.084Z" transform="translate(-2710.901 -2625.294)" fill="#84af0f"/>
          </g>
        </g>
      </g>
      <g id="Grupo_1313" data-name="Grupo 1313">
        <g id="Grupo_1312" data-name="Grupo 1312">
          <g id="Grupo_1311" data-name="Grupo 1311">
            <path id="Trazado_25980" data-name="Trazado 25980" d="M2742.7,2624.959l-.043.465.28.117Z" transform="translate(-2689.997 -2615.698)" fill="#84af0f"/>
            <path id="Trazado_25981" data-name="Trazado 25981" d="M2741.983,2627.17l.173.768c.734-.507.562.116,1.009-1.152-.155-.42-.514-1.336-.8-1.18.063.3.4.724.344,1.188-.236-.176-.255-.667-.565-.865-.168.752.231.44.195,1.257Z" transform="translate(-2690.025 -2615.672)" fill="#84af0f"/>
            <path id="Trazado_25982" data-name="Trazado 25982" d="M2742.8,2627.936a.728.728,0,0,0-.382-.1C2742.557,2627.895,2742.749,2628.261,2742.8,2627.936Z" transform="translate(-2690.007 -2615.579)" fill="#84af0f"/>
            <path id="Trazado_25983" data-name="Trazado 25983" d="M2742.909,2628.384c.005.494-.283.01-.323.064l.533.526Z" transform="translate(-2690 -2615.556)" fill="#84af0f"/>
            <path id="Trazado_25984" data-name="Trazado 25984" d="M2742.979,2630.354l.057.228C2743.111,2630.5,2743.041,2630.437,2742.979,2630.354Z" transform="translate(-2689.983 -2615.474)" fill="#84af0f"/>
            <path id="Trazado_25985" data-name="Trazado 25985" d="M2743.1,2631.4c.167-.207.053-.459-.042-.778l-.031.032c-.133.289-.5.037-.426-.42-.1-.47.251-.447,0-.846l-.254.579A3.173,3.173,0,0,0,2743.1,2631.4Z" transform="translate(-2690.01 -2615.514)" fill="#84af0f"/>
            <path id="Trazado_25986" data-name="Trazado 25986" d="M2742.981,2630.364a1.63,1.63,0,0,1-.035-.267A.239.239,0,0,0,2742.981,2630.364Z" transform="translate(-2689.986 -2615.484)" fill="#84af0f"/>
            <path id="Trazado_25987" data-name="Trazado 25987" d="M2742.976,2629.372l-.088-.251-.146.071Z" transform="translate(-2689.993 -2615.525)" fill="#84af0f"/>
            <path id="Trazado_25988" data-name="Trazado 25988" d="M2743.174,2632.992c-.479-.112.032-1.206-.349-1.328.039.662-.307,1.2-.575,1.054l.155.726C2742.588,2633.686,2742.948,2633.379,2743.174,2632.992Z" transform="translate(-2690.014 -2615.419)" fill="#84af0f"/>
            <path id="Trazado_25989" data-name="Trazado 25989" d="M2741.969,2634.323a.387.387,0,0,1,.082.168C2742.031,2634.41,2742.008,2634.343,2741.969,2634.323Z" transform="translate(-2690.026 -2615.309)" fill="#84af0f"/>
            <path id="Trazado_25990" data-name="Trazado 25990" d="M2742.8,2638.058l-.482-1.718c.154.159.306.1.361.488.064-.76-.244-.859-.195-1.485.45-.189.032,1.106.434.745a2.109,2.109,0,0,0-.414-1.46l.307-.7-.494.237c-.142.285.386.575.044.751-.212.089-.252-.2-.3-.4.1.453-.385,1.241-.32,2.162C2741.793,2637.649,2742.572,2637.42,2742.8,2638.058Z" transform="translate(-2690.035 -2615.326)" fill="#84af0f"/>
            <path id="Trazado_25991" data-name="Trazado 25991" d="M2742.248,2637.95l-.194.111.261-.075Z" transform="translate(-2690.022 -2615.158)" fill="#84af0f"/>
            <path id="Trazado_25992" data-name="Trazado 25992" d="M2742.861,2639.8l-.284-.9c.045-.095.149-.145.24-.207-.116.031-.3-.21-.4-.174-.451.4.118,1.085.177,1.567-.253,1.251-.236-.066-.677.4.024-.35.135-.359.181-.844-.527.747-.114,1.725-.022,2.228.053-.142.193-.17.168-.445l.117.521A3.008,3.008,0,0,0,2742.861,2639.8Z" transform="translate(-2690.031 -2615.135)" fill="#84af0f"/>
            <path id="Trazado_25993" data-name="Trazado 25993" d="M2742.856,2638.22c.028.333-.009.454-.072.483C2742.9,2638.62,2743,2638.507,2742.856,2638.22Z" transform="translate(-2689.991 -2615.147)" fill="#84af0f"/>
            <path id="Trazado_25994" data-name="Trazado 25994" d="M2742.066,2642.008a.417.417,0,0,0,0-.266A.455.455,0,0,0,2742.066,2642.008Z" transform="translate(-2690.022 -2615.001)" fill="#84af0f"/>
            <path id="Trazado_25995" data-name="Trazado 25995" d="M2742.6,2641.545l-.084.62.226-.231C2742.727,2641.845,2742.713,2641.537,2742.6,2641.545Z" transform="translate(-2690.002 -2615.009)" fill="#84af0f"/>
            <path id="Trazado_25996" data-name="Trazado 25996" d="M2728.31,2653.283c.062.179.294.26.775.208-.049.244-.677.22-.966.367.645.134,0,.284.169.512.715,0,1.02-.325,1.785-.291a.213.213,0,0,0,.086.256,11.164,11.164,0,0,1,3.36-.325,9.048,9.048,0,0,0,2.43-.29,6.667,6.667,0,0,0,4.287-1.586,8.694,8.694,0,0,0,2.413-4.112l-.339-.568c.272-.1.169-.758.449-.605a1.782,1.782,0,0,0-.127.555,2.02,2.02,0,0,0,.41-1.257,6.6,6.6,0,0,1,.1-1.427c-.093.09-.512.19-.561-.072.517.116.079-1.007.7-1.209.214-.849-.452-.069-.306-.953-.3-.116-.209.843-.455.985-.227-.3.166-.8-.16-.78a14.676,14.676,0,0,0-.036,2.848,11.389,11.389,0,0,1-.278,3.3l-.205-.3a4.541,4.541,0,0,1-.609,1.777,2.121,2.121,0,0,1-1.276,1.007c.159.032-.123.268-.413.487s-.578.454-.358.688a2.088,2.088,0,0,0-.7.167l-.014.22c-.5.191-.514-.126-1.078.044.447.169.049.35-.1.607-.394-.071-.792-.163-1.206-.254l-.324-.061c-.014-.03-.163-.055-.245-.081l-.547-.155a.7.7,0,0,0,.361.28c-.46-.066-.366.187-.483.287-.439.042-.413-.311-.4-.485-.812-.063-1.136.622-1.752.429l.225.268c-.83.106-1.547-.163-2.461-.034-.46-.364.744-.357,1.115-.54-.191-.07-.586-.076-.719-.2-.382.209-1.032.5-1.516.7C2729.794,2653.235,2728.623,2653.3,2728.31,2653.283Z" transform="translate(-2690.6 -2614.97)" fill="#84af0f"/>
            <path id="Trazado_25997" data-name="Trazado 25997" d="M2730.75,2652.58a2.044,2.044,0,0,0,.259-.163.672.672,0,0,1-.3.044A.12.12,0,0,0,2730.75,2652.58Z" transform="translate(-2690.493 -2614.558)" fill="#84af0f"/>
            <path id="Trazado_25998" data-name="Trazado 25998" d="M2728.3,2652.854c-.005-.017-.018-.028-.021-.044C2728.192,2652.839,2728.22,2652.849,2728.3,2652.854Z" transform="translate(-2690.595 -2614.542)" fill="#84af0f"/>
            <path id="Trazado_25999" data-name="Trazado 25999" d="M2733.431,2653.57l-.121-.018-.152,0Z" transform="translate(-2690.391 -2614.511)" fill="#84af0f"/>
            <path id="Trazado_26000" data-name="Trazado 26000" d="M2734.01,2652.324a4.955,4.955,0,0,0,.718.252C2734.641,2652.456,2734.572,2652.364,2734.01,2652.324Z" transform="translate(-2690.356 -2614.562)" fill="#84af0f"/>
            <path id="Trazado_26001" data-name="Trazado 26001" d="M2738.743,2651.558c.094-.121-.022-.145.008-.273C2738.506,2651.433,2738.467,2651.569,2738.743,2651.558Z" transform="translate(-2690.167 -2614.605)" fill="#84af0f"/>
            <path id="Trazado_26002" data-name="Trazado 26002" d="M2729.817,2652.544l-.7.11-.253.084Z" transform="translate(-2690.569 -2614.553)" fill="#84af0f"/>
            <path id="Trazado_26003" data-name="Trazado 26003" d="M2716.205,2654.215a6.087,6.087,0,0,0,2.3.212c1.4-.186.171-.725,1.5-.779l-.221.684c1.329-.055,3.215.054,4.331-.569.1.082.337.179-.005.283.884-.045.438-.98,1.623-.781-1.091.449.37.4.078.824l-.17.051c.75-.062,1.736-.312,2.231-.3.015-.177-.426-.431.238-.473-.27-.026-.168-.227-.151-.4-.678.214-1.053.1-1.463.347-.388-.22.256-.083-.134-.3l-.543.226c-.406-.043.412-.24-.219-.272a1.559,1.559,0,0,1-1.071.272l.14-.081c-.374.1-.911,0-.721.373l-.454-.368.083.256c-1.037-.082-1.433-.692-2.762-.35.32.072.029.217-.142.268.558.171.684-.2,1.209-.248.083.257-.807.579-.164.724-.71-.3-1.328.058-1.637-.582-.848-.03-1.162.288-2.023.146l.023-.1c-.146.43-.683-.2-1.325.23l.453.1c-.023.173-.245.176-.552.2.037-.068.037-.068-.062-.152-.1.306-1.071.343-1.193.431a5.735,5.735,0,0,0,1.39-.26C2716.541,2654.013,2716.611,2654.273,2716.205,2654.215Z" transform="translate(-2691.129 -2614.535)" fill="#84af0f"/>
            <path id="Trazado_26004" data-name="Trazado 26004" d="M2724.563,2653l-.27.155A.454.454,0,0,0,2724.563,2653Z" transform="translate(-2690.759 -2614.534)" fill="#84af0f"/>
            <path id="Trazado_26005" data-name="Trazado 26005" d="M2712.756,2653.613c-.54-.081.151-.261-.351-.409-.555.2.621.452.078.762-.329-.194-.876.116-1.1.117.249-.177.118-.588.02-.675-.21.11-.674-.1-1.03-.123.869.277-.739.134.044.432-.065.241-.892.4-1.222.2.029-.175.3-.13.52-.134.19-.327-.55-.19-.667-.5-.845.442-3.511.322-2.779,1.088.281.152.53-.02.84-.042-.861-.176.006-.392.084-.522.365.13,1.008-.085.857.175l-.6.26a53.3,53.3,0,0,0,6.624.132l-.937-.032c.112-.2.555-.2.9-.294l-.451-.495c.27.041.529-.027.5.147.333-.2.186-.328-.009-.5.7-.073.811.12,1.353-.192-1.151-.418-.984.318-2.308-.058Z" transform="translate(-2691.512 -2614.539)" fill="#84af0f"/>
            <path id="Trazado_26006" data-name="Trazado 26006" d="M2714.95,2653.37l-.284.243.429-.116Z" transform="translate(-2691.159 -2614.518)" fill="#84af0f"/>
            <path id="Trazado_26007" data-name="Trazado 26007" d="M2714.5,2654.408c-.01-.108.161-.153.15-.26C2714.112,2654.067,2714.174,2654.216,2714.5,2654.408Z" transform="translate(-2691.176 -2614.487)" fill="#84af0f"/>
            <path id="Trazado_26008" data-name="Trazado 26008" d="M2708.277,2653.236l-.7.065.451.108C2708.02,2653.3,2708.191,2653.259,2708.277,2653.236Z" transform="translate(-2691.453 -2614.524)" fill="#84af0f"/>
            <path id="Trazado_26009" data-name="Trazado 26009" d="M2703.494,2654.319a7.256,7.256,0,0,1,2.491.073c.55-.3-.23-.608.011-.889-.54-.091-.493.453-1.06.536-.2-.285-.829.026-1.366-.063A.251.251,0,0,1,2703.494,2654.319Z" transform="translate(-2691.623 -2614.513)" fill="#84af0f"/>
            <path id="Trazado_26010" data-name="Trazado 26010" d="M2700.728,2653.631c-.453-.063-.914.1-1.236-.084.075-.162.334-.19.588-.11-.114-.409-.486,0-.886-.34.029.051.181.146.041.207a2.293,2.293,0,0,0-.92-.116,1.708,1.708,0,0,1-1.079-.421c-.238.006-.419-.1-.518.14a1.873,1.873,0,0,1-.365-.628,5.83,5.83,0,0,0-.378-.7c-.088.138-.074.6-.283.855a8.641,8.641,0,0,0-.847-1.18,1.444,1.444,0,0,1-.426-.928,1.163,1.163,0,0,1,.273.4c.333-.311-.432-.641-.542-1.175l.38-.1a2.8,2.8,0,0,1-.591-1.776l.222.082a5.63,5.63,0,0,1-.562-1.789c-.095-.642-.157-1.266-.278-1.788l.193-.588c-.417-1.432-.015,1.46-.684.443.7-.221-.3-.735-.073-1.594.257-.412.209.83.5.372-.379-.157-.139-.434-.272-.871.35.074-.01-.927.4-.677l-.716-1.527a1.5,1.5,0,0,0,.084-1.04c.015.844-.525-.222-.658.735a40.436,40.436,0,0,1,.455,5.422c.493.141.107,1.108.529,1.337-.149.053-.26.212-.4.278.3,1.1.208-.306.431-.061.14.468-.053.908-.232.9.155.8.146.064.491.4-.129.209-.255.423-.375.641a9.25,9.25,0,0,0,2.158,3.719,9.065,9.065,0,0,0,4,2.073l-.151-.362a3.8,3.8,0,0,0,1.7.034,2.105,2.105,0,0,1,1.547.332l.406-.255c-.224.145.189.5-.161.705.358-.087.722.057,1.088-.026l-.632-.19a.824.824,0,0,1,1.087.194c.972-.281-.542-.593-.736-.88-1.366.517-1.328-.653-2.546-.552C2699.912,2653.236,2700.8,2653.463,2700.728,2653.631Z" transform="translate(-2692.096 -2615.127)" fill="#84af0f"/>
            <path id="Trazado_26011" data-name="Trazado 26011" d="M2701.887,2654.045a.731.731,0,0,0,.2-.074A.908.908,0,0,0,2701.887,2654.045Z" transform="translate(-2691.689 -2614.493)" fill="#84af0f"/>
            <path id="Trazado_26012" data-name="Trazado 26012" d="M2692.731,2638.718c0-.1-.009-.218-.027-.375C2692.618,2638.216,2692.68,2638.42,2692.731,2638.718Z" transform="translate(-2692.072 -2615.144)" fill="#84af0f"/>
            <path id="Trazado_26013" data-name="Trazado 26013" d="M2703.567,2653.956l0-.006-.01.006Z" transform="translate(-2691.62 -2614.494)" fill="#84af0f"/>
            <path id="Trazado_26014" data-name="Trazado 26014" d="M2704.232,2653.214l-.355-.025.055.152Z" transform="translate(-2691.607 -2614.526)" fill="#84af0f"/>
            <path id="Trazado_26015" data-name="Trazado 26015" d="M2693.115,2635.074l-.173,0A.141.141,0,0,0,2693.115,2635.074Z" transform="translate(-2692.061 -2615.278)" fill="#84af0f"/>
            <path id="Trazado_26016" data-name="Trazado 26016" d="M2693.7,2625.336l-.033.216A.422.422,0,0,0,2693.7,2625.336Z" transform="translate(-2692.031 -2615.682)" fill="#84af0f"/>
            <path id="Trazado_26017" data-name="Trazado 26017" d="M2712.872,2617.448a7.246,7.246,0,0,0,2.042-.52l-.046.174c.356-.088,1.512-.377.762-.677l-.18.153c-.846.263-.619-.278-1.285-.381-.8.092-1.247.75-1.956.609-.311.025-.266-.15-.177-.281-.711-.033-.978.469-1.464.547-.227-1.3-2.172.407-3.245-.384a14.05,14.05,0,0,0-2.391.34c.437-.347-.8.008-.632-.367-.2.764-2.457-.213-2.553.753-1.17-.187-.041.063-1.388-.063-.01-.11.216-.125.3-.151-.558-.154-.755.488-1.254.111-1.091.124-.148.28-.7.659-1.08.185-.812-.01-1.564-.128.1.45-.612.563-.916,1.087.121-.071.789-.39.478.017a1.6,1.6,0,0,0-.776.774,5.46,5.46,0,0,1-.469.9c-.749.113.687-.827-.24-.354.3-.707.765-1.061.881-1.6a5.392,5.392,0,0,0-1.233,1.189,4.553,4.553,0,0,0-.735,1.613c-.31.547-.089-.395-.326.044-.656.984-.1,1.784-.523,2.571l-.208-.24a2.877,2.877,0,0,1-.155,1.317,6.011,6.011,0,0,0-.184,1.669c.142-.117.237-.195.31-.051-.65-.076.2,1.447-.322,2.416.417-.049.581.939.595,1.556-.125.21-.295.156-.4.148.3-1-.394-1.006-.531-1.826.166.685-.122,1.78.157,2.377l-.313-.243c-.088.933.7.84.365,1.8l-.236-.1c0,1.96-.4,4.251.129,5.819.2.134.651-.651.806-.694-.169-.934-.515-1.474-.685-2.186l.372.006c-.255-.161-.406-1.02-.607-.545-.191-.58.328-.437.115-1.106.389.052.431.452.755.459l-.19-.579c.149.179.134-.347.285-.171-.464-1.068.2-1.479.037-2.584l-.094.611c-.218-.013-.181-.365-.232-.633.317-.288.286-.466.45-1.025-.142-.5-.513-.794-.462-1.456.4.173.309-1.079.667-1.172-.4-.176-.028-1.287-.251-1.4-.048-.362.051-.841.269-.806.005.052.034.158.041.27l.052-.32c.042.035.078.036.082.056.051-.253-.238-.338.035-.675.1.025.063.23.075.4.209-.756-.306-1.535.249-2.079-.158-.187.151-1.078-.324-1.043.241-.186.517.026.745-.609-.153-.526.465-.592.567-1.107-.074.75.07.074.066.729a1.588,1.588,0,0,0,.362-.659,2.036,2.036,0,0,1,.654-.852c.116.022.182.108.3.131.13-.271.26-.711.652-.578l-.157-.212a3.5,3.5,0,0,1,1.8-.334,7.251,7.251,0,0,1,.573-.61,3.545,3.545,0,0,0,2.964-.646c.355,0,.891.064.893.173-.079.043-.213.125-.374.2.521-.014,1.168.244,1.439-.183.528-.152.4.266.8.315,1.055-.626,3.191.313,3.493-.58a20.337,20.337,0,0,0-2.13-.075c.22-.114.041-.282.351-.312.844-.069,1.289.245,2.131.074l-.086.567C2710.435,2618.025,2711.721,2616.658,2712.872,2617.448Z" transform="translate(-2692.091 -2616.062)" fill="#84af0f"/>
            <path id="Trazado_26018" data-name="Trazado 26018" d="M2701.68,2617.746l.626.251-.079-.24A.834.834,0,0,1,2701.68,2617.746Z" transform="translate(-2691.698 -2615.998)" fill="#84af0f"/>
            <path id="Trazado_26019" data-name="Trazado 26019" d="M2702.206,2617.762a1.912,1.912,0,0,0,.35-.135.857.857,0,0,0-.368.073Z" transform="translate(-2691.677 -2616.002)" fill="#84af0f"/>
            <path id="Trazado_26020" data-name="Trazado 26020" d="M2714.387,2617.274a1.7,1.7,0,0,0,.668,0A1,1,0,0,0,2714.387,2617.274Z" transform="translate(-2691.17 -2616.019)" fill="#84af0f"/>
            <path id="Trazado_26021" data-name="Trazado 26021" d="M2715.085,2617.1l-.31-.085-.044.066Z" transform="translate(-2691.156 -2616.027)" fill="#84af0f"/>
            <path id="Trazado_26022" data-name="Trazado 26022" d="M2733.012,2616.978l1.006-.292c.163.183,1.292.037.911.316.623-.368,1.893.116,1.469-.5-2.987-.017-6.922-.509-10.3-.058l.545-.222c-1.751.425-2.38-.566-3.793.34l.195-.475c-.8-.145-1.534.667-2.362.156l.082.195c-.221,0-.307-.09-.531-.094l.089.087a2.43,2.43,0,0,1-1.512.026c-.04-.152.27-.064.447-.1-.262-.156-.716.166-1.161.161-.353-.134.006-.218.053-.282-1.343.211-1.953-.284-2.9.434-.092.131.35.239-.137.3a4.753,4.753,0,0,0,2.4-.264h-.224c.636-.691.488.153,1.514-.142-.273.279-.718.276-.9.426,1.183.53,1.7-.4,2.475.29l-.089.019c.175.067.49-.06.757-.119a2.017,2.017,0,0,0-.526-.2c.27-.062.41-.362.5-.49.3.308.4-.146.887.014.169.283-.407.253-.589.4l.584-.186c.531-.011.52.315.781.472.451-.209-.261-.156.106-.454.566.357,3,.3,4.174.061-.4.03-.148.3-.635.242.176.069.8-.063.812-.28a5.607,5.607,0,0,1,2.568.219l-.209-.225c.644-.344,1.583.327,2.7.161l-.024,0c.359-.03.694-.543,1.348-.4C2733.341,2616.755,2732.988,2616.717,2733.012,2616.978Z" transform="translate(-2691.14 -2616.067)" fill="#84af0f"/>
            <path id="Trazado_26023" data-name="Trazado 26023" d="M2736.148,2616.729l-.4.259c.376.109.954-.2.9-.407-.3.021-.649-.153-.71.015C2735.981,2616.644,2735.959,2616.749,2736.148,2616.729Z" transform="translate(-2690.283 -2616.048)" fill="#84af0f"/>
            <path id="Trazado_26024" data-name="Trazado 26024" d="M2742.644,2621.274c.126.118.216.037.32.068a7.668,7.668,0,0,0-1.567-2.382c-.6-.62-1.2-1.083-1.457-1.377-.5-.4-.823-.07-1.545-.251-.068-.137-.143-.267-.221-.4-.446.024-1.584-.529-1.253.05.035.05.387-.169.7.006l-.1.153q.385.07.767.178l-.306.123a.925.925,0,0,0,.934.18,1.1,1.1,0,0,1,1.129.348l-.255.353c.692.518,1.1.719,1.417,1.469,0,0,.172-.133.006-.193-.079-.136-.086-.383.079-.4,1.19.871-.314,0,.138.853.957.726,1.858,2.7,1.643,3.348.119-.556.6.1.7.706-.09.3-.295-.136-.443-.2a2.111,2.111,0,0,0,.072.785c.165-.392.536-.266.8.426C2744.208,2623.542,2743.16,2622.655,2742.644,2621.274Z" transform="translate(-2690.237 -2616.04)" fill="#84af0f"/>
            <path id="Trazado_26025" data-name="Trazado 26025" d="M2742.91,2621.365c-.069-.141-.13-.19-.191-.208.085.19.157.38.227.559Z" transform="translate(-2689.994 -2615.856)" fill="#84af0f"/>
          </g>
        </g>
      </g>
    </g>
  </g>
</svg>
