<svg xmlns="http://www.w3.org/2000/svg" width="65.516" height="80.379" viewBox="0 0 65.516 80.379">
  <g id="Grupo_1334" data-name="Grupo 1334" transform="translate(-1131.565 -3858.804)">
    <g id="Grupo_1324" data-name="Grupo 1324" transform="translate(1144.554 3858.804)">
      <path id="Trazado_26026" data-name="Trazado 26026" d="M1207.045,3916.7c-3.49-1.987-7.336-4.452-8.068-8.4-.524-2.826.765-5.715,2.578-7.945s4.136-3.982,6.177-6.007,3.866-4.471,4.259-7.319c1.438,2.181.877,4.669-.419,6.937s-3.269,4.059-4.921,6.082-3.045,4.5-2.818,7.1,3.189,6.139,5.236,4.515c6.859-5.441,10.755-11.784,15.508-18.38s10.127-13.167,17.505-16.58c1.134,5.75-2.182,11.177-5.666,15.89-5.951,8.05-12.193,15.809-18.144,23.859,3.078,3.553,9.469,3.739,12.879.5a16.387,16.387,0,0,0,3.412-5.538,22.1,22.1,0,0,1,3.129-5.725,6.706,6.706,0,0,1,5.723-2.59c-2.5,4.313-5.813,8.363-8.2,12.74-2.164,3.976-4.9,8.437-9.38,9.1-2.643.394-5.266-.685-7.682-1.826C1214.137,3921.218,1210.909,3918.9,1207.045,3916.7Z" transform="translate(-1195.589 -3872.378)" fill="#d3d3d7" stroke="#040405" stroke-miterlimit="10" stroke-width="1"/>
      <g id="Grupo_1323" data-name="Grupo 1323" transform="translate(0 0)">
        <path id="Trazado_26027" data-name="Trazado 26027" d="M1232.937,3863.524c1.134,5.749-2.182,11.178-5.666,15.89-5.951,8.05-12.193,15.809-18.144,23.858a8.819,8.819,0,0,0,6.681,2.8,9.017,9.017,0,0,0,6.2-2.3,16.388,16.388,0,0,0,3.412-5.538,22.1,22.1,0,0,1,3.129-5.725,6.989,6.989,0,0,1,5.081-2.632,4.9,4.9,0,0,1,.642.042c-2.5,4.313-5.813,8.363-8.2,12.74-2.164,3.977-4.9,8.437-9.38,9.1a7.691,7.691,0,0,1-1.137.083,15.819,15.819,0,0,1-6.545-1.909c-4.02-1.9-7.248-4.219-11.112-6.419-3.49-1.987-7.336-4.452-8.068-8.4-.524-2.826.765-5.715,2.578-7.945s4.136-3.982,6.177-6.007,3.866-4.472,4.259-7.319c1.438,2.181.877,4.669-.419,6.937s-3.269,4.059-4.921,6.082-3.045,4.5-2.818,7.1c.187,2.146,2.234,4.927,4.093,4.927a1.8,1.8,0,0,0,1.142-.411c6.859-5.442,10.755-11.785,15.508-18.38s10.127-13.167,17.505-16.58m2.141-4.2-3.363,1.555c-7.933,3.668-13.65,10.589-18.646,17.521-.764,1.06-1.511,2.121-2.234,3.146-3.615,5.132-7.036,9.989-12.162,14.2a3.932,3.932,0,0,1-1.084-2.035c-.122-1.406.609-3.09,2.173-5.006.49-.6,1.019-1.187,1.579-1.809a27.072,27.072,0,0,0,3.614-4.67c2.651-4.637,1.638-7.99.322-9.986l-4.259-6.458-1.057,7.664c-.242,1.756-1.362,3.6-3.424,5.649-.683.678-1.406,1.327-2.171,2.015a37.812,37.812,0,0,0-4.215,4.222c-2.675,3.29-3.8,6.952-3.182,10.313,1.036,5.588,6.536,8.719,9.491,10.4,1.349.769,2.652,1.572,3.912,2.35a74.413,74.413,0,0,0,7.4,4.171,18.355,18.355,0,0,0,7.789,2.189,10.7,10.7,0,0,0,1.566-.115c6.25-.931,9.671-7.216,11.509-10.592a76.563,76.563,0,0,1,4.213-6.6c1.343-1.958,2.733-3.981,3.946-6.079l2.182-3.771-4.319-.575a7.728,7.728,0,0,0-1.026-.068,9.773,9.773,0,0,0-7.295,3.652,23.061,23.061,0,0,0-3.409,6.046l-.177.41a13.919,13.919,0,0,1-2.746,4.586,6.1,6.1,0,0,1-4.192,1.5,6.887,6.887,0,0,1-2.6-.494c2.417-3.22,4.89-6.427,7.3-9.548,3.006-3.9,6.115-7.928,9.108-11.977,3.813-5.157,7.528-11.351,6.181-18.185l-.717-3.635Z" transform="translate(-1186.445 -3859.199)" fill="#161615"/>
        <g id="Grupo_1322" data-name="Grupo 1322">
          <path id="Trazado_26028" data-name="Trazado 26028" d="M1232.937,3863.524c1.134,5.749-2.182,11.178-5.666,15.89-5.951,8.05-12.193,15.809-18.144,23.858a8.819,8.819,0,0,0,6.681,2.8,9.017,9.017,0,0,0,6.2-2.3,16.388,16.388,0,0,0,3.412-5.538,22.1,22.1,0,0,1,3.129-5.725,6.989,6.989,0,0,1,5.081-2.632,4.9,4.9,0,0,1,.642.042c-2.5,4.313-5.813,8.363-8.2,12.74-2.164,3.977-4.9,8.437-9.38,9.1a7.691,7.691,0,0,1-1.137.083,15.819,15.819,0,0,1-6.545-1.909c-4.02-1.9-7.248-4.219-11.112-6.419-3.49-1.987-7.336-4.452-8.068-8.4-.524-2.826.765-5.715,2.578-7.945s4.136-3.982,6.177-6.007,3.866-4.472,4.259-7.319c1.438,2.181.877,4.669-.419,6.937s-3.269,4.059-4.921,6.082-3.045,4.5-2.818,7.1c.187,2.146,2.234,4.927,4.093,4.927a1.8,1.8,0,0,0,1.142-.411c6.859-5.442,10.755-11.785,15.508-18.38s10.127-13.167,17.505-16.58m2.141-4.2-3.363,1.555c-7.933,3.668-13.65,10.589-18.646,17.521-.764,1.06-1.511,2.121-2.234,3.146-3.615,5.132-7.036,9.989-12.162,14.2a3.932,3.932,0,0,1-1.084-2.035c-.122-1.406.609-3.09,2.173-5.006.49-.6,1.019-1.187,1.579-1.809a27.072,27.072,0,0,0,3.614-4.67c2.651-4.637,1.638-7.99.322-9.986l-4.259-6.458-1.057,7.664c-.242,1.756-1.362,3.6-3.424,5.649-.683.678-1.406,1.327-2.171,2.015a37.812,37.812,0,0,0-4.215,4.222c-2.675,3.29-3.8,6.952-3.182,10.313,1.036,5.588,6.536,8.719,9.491,10.4,1.349.769,2.652,1.572,3.912,2.35a74.413,74.413,0,0,0,7.4,4.171,18.355,18.355,0,0,0,7.789,2.189,10.7,10.7,0,0,0,1.566-.115c6.25-.931,9.671-7.216,11.509-10.592a76.563,76.563,0,0,1,4.213-6.6c1.343-1.958,2.733-3.981,3.946-6.079l2.182-3.771-4.319-.575a7.728,7.728,0,0,0-1.026-.068,9.773,9.773,0,0,0-7.295,3.652,23.061,23.061,0,0,0-3.409,6.046l-.177.41a13.919,13.919,0,0,1-2.746,4.586,6.1,6.1,0,0,1-4.192,1.5,6.887,6.887,0,0,1-2.6-.494c2.417-3.22,4.89-6.427,7.3-9.548,3.006-3.9,6.115-7.928,9.108-11.977,3.813-5.157,7.528-11.351,6.181-18.185l-.717-3.635Z" transform="translate(-1186.445 -3859.199)" fill="none"/>
          <g id="Grupo_1318" data-name="Grupo 1318">
            <g id="Grupo_1317" data-name="Grupo 1317">
              <g id="Grupo_1316" data-name="Grupo 1316">
                <path id="Trazado_26029" data-name="Trazado 26029" d="M1208.407,4038.607l-.585-.388A2.746,2.746,0,0,0,1208.407,4038.607Z" transform="translate(-1202.387 -3994.871)" fill="#040405"/>
                <path id="Trazado_26030" data-name="Trazado 26030" d="M1387.36,3999.221l.152-.25-.093.119Z" transform="translate(-1338.547 -3965.105)" fill="#040405"/>
                <path id="Trazado_26031" data-name="Trazado 26031" d="M1387.3,3997.985l.209-.47C1387.119,3998.183,1387.157,3998.158,1387.3,3997.985Z" transform="translate(-1338.424 -3964.001)" fill="#040405"/>
                <path id="Trazado_26032" data-name="Trazado 26032" d="M1191.525,4022.038c-.165-.2-.29-.433-.435-.643s-.284-.417-.4-.627a5.8,5.8,0,0,0,.4.649A7.228,7.228,0,0,0,1191.525,4022.038Z" transform="translate(-1189.396 -3981.635)" fill="#040405"/>
                <path id="Trazado_26033" data-name="Trazado 26033" d="M1209.682,4043.6a2.658,2.658,0,0,0,.277.247C1209.876,4043.762,1209.779,4043.678,1209.682,4043.6Z" transform="translate(-1203.797 -3998.95)" fill="#040405"/>
                <path id="Trazado_26034" data-name="Trazado 26034" d="M1260.007,3912.943l-.146-.17A1.041,1.041,0,0,0,1260.007,3912.943Z" transform="translate(-1241.852 -3899.734)" fill="#040405"/>
                <path id="Trazado_26035" data-name="Trazado 26035" d="M1266.356,3927.295c.023.308.053.575.05.841l.017.051a2.626,2.626,0,0,0,0-.408C1266.4,3927.606,1266.372,3927.419,1266.356,3927.295Z" transform="translate(-1246.778 -3910.747)" fill="#040405"/>
                <path id="Trazado_26036" data-name="Trazado 26036" d="M1265.394,3921.276c.039.121.082.24.118.362l.094.369-.094-.385Z" transform="translate(-1246.049 -3906.182)" fill="#040405"/>
                <path id="Trazado_26037" data-name="Trazado 26037" d="M1239.207,4004.443l.04-.137C1239.186,4004.4,1239.18,4004.441,1239.207,4004.443Z" transform="translate(-1226.177 -3969.152)" fill="#040405"/>
                <path id="Trazado_26038" data-name="Trazado 26038" d="M1258.055,3910.433c.143.188.279.351.417.513C1258.258,3910.659,1257.936,3910.184,1258.055,3910.433Z" transform="translate(-1240.464 -3897.906)" fill="#040405"/>
                <path id="Trazado_26039" data-name="Trazado 26039" d="M1210.361,4039.877a.833.833,0,0,1-.119-.05C1210.357,4039.9,1210.425,4039.94,1210.361,4039.877Z" transform="translate(-1204.222 -3996.09)" fill="#040405"/>
                <path id="Trazado_26040" data-name="Trazado 26040" d="M1187.947,4011.956l.016.074C1188.046,4012.354,1188.017,4012.228,1187.947,4011.956Z" transform="translate(-1187.313 -3974.953)" fill="#040405"/>
                <path id="Trazado_26041" data-name="Trazado 26041" d="M1346.518,3992.592a14.543,14.543,0,0,0-.858,1.337c.323-.516.55-.84.687-1.042S1346.53,3992.6,1346.518,3992.592Z" transform="translate(-1306.922 -3960.268)" fill="#040405"/>
                <path id="Trazado_26042" data-name="Trazado 26042" d="M1199.438,3904.9c-.3.535.273-2.047.039-1.927a10.526,10.526,0,0,1-.357,2.343,24.94,24.94,0,0,0,.189-2.641l-.149,1.6c-.233,1.007-.185-.417-.3.535a5.4,5.4,0,0,1-.113,1.308,5.758,5.758,0,0,1-.62,1.561,15.96,15.96,0,0,1-1.856,2.461c.114-.136.218-.28.327-.42a17.86,17.86,0,0,1-1.64,1.569c-.021.013-.006-.006-.018,0a.474.474,0,0,0-.043.1c-.377.264-.893.669-1.486,1.172s-1.287,1.092-1.978,1.764c-.217.3-1.33,1.348-2.332,2.538a18.384,18.384,0,0,0-1.322,1.766,8.794,8.794,0,0,0-.669,1.2,10.733,10.733,0,0,1,1.393-2.106l.041.23c-.534.729-.578.735-.612.736s-.057,0-.47.766a1.373,1.373,0,0,0,.371-.405l.548-.815a14.277,14.277,0,0,1,1.369-1.776c-.269.378-.655.885-1.107,1.523,1.54-2.014,3.442-3.538,4.571-4.887.562-.453.378-.146,0,.235,1.252-1.349,1.072-.811,2.135-1.968a11.157,11.157,0,0,1-1.573,1.671c-.779.746-1.677,1.542-2.193,2.133a16.167,16.167,0,0,0-4.641,6.294c-.1.016.011-.4.082-.716s.125-.518-.152-.077a9.918,9.918,0,0,0-.613,1.383c-.06.184-.109.346-.15.492s-.062.282-.085.407a6.124,6.124,0,0,0-.091.714c-.03.244-.039.519-.073.878a3.587,3.587,0,0,1-.248,1.127,1.459,1.459,0,0,0-.084.5,4.417,4.417,0,0,0,0,.568c.008.12.017.254.027.4s.042.314.068.5a10.707,10.707,0,0,1-.244-1.75,4.832,4.832,0,0,0-.038,1.009c.01.128.022.24.04.342s.046.193.071.281c.087.354.241.634.367,1.272-.021-.216-.018-.327-.053-.562s-.116-.6-.186-1.33c.064-.153.2.954.381,1.459l-.073-.333c.271.562.317.746,1.022,2.406-.3-.487-.184-.146.061.36.135.246.291.538.437.788s.293.451.345.553l-.3-.375a15.723,15.723,0,0,0,2.378,2.652l-.074-.024c.8.625,1.176.751,2.337,1.624-.079-.016-.5-.24-.734-.348s-.287-.094.381.366a10.887,10.887,0,0,1-2.717-2.2c.508.533.887.942.97,1.067.039.065,0,.063-.135-.031a5.888,5.888,0,0,1-.694-.6,12.921,12.921,0,0,0,2.043,1.736c-.117-.133.161.013.126-.062-.016.042.155.194.423.4s.641.441,1.021.666a7.31,7.31,0,0,0,1.613.791q-.788-.4-1.561-.838c-.017-.1.447.139.854.323s.749.339.466.126c.613.587,4.071,2.292,4.756,2.918l-.484-.423a63.529,63.529,0,0,0,9.04,4.793c-.581-.229-.92-.306-1.361-.457a10.085,10.085,0,0,1-1.951-.951c1.5.834,1.706.979,1.633,1.026s-.412-.041.038.249c1.189.632,1.536.711,1.672.694s.074-.157.468-.023c-.573-.236-1.143-.486-1.708-.744,1.141.387,2.691,1.162,4.492,1.722a13.011,13.011,0,0,0,2.838.565,8.82,8.82,0,0,0,2.839-.208c.281.022-.728.19-1.224.234a5.206,5.206,0,0,0,.963-.061,3.114,3.114,0,0,0,.569-.134c.3-.1.52-.216.98-.393,1.632-.483,3.341-1.688,2.558-.937a5.151,5.151,0,0,0,.651-.443c.064-.058.011-.04-.065-.008-.154.063-.4.179-.011-.138.1-.058.206-.114.305-.178a14.816,14.816,0,0,0,1.355-1.458c.593-.552,1.208-1.211,1.732-1.806s.96-1.123,1.232-1.383a12.391,12.391,0,0,0,.924-1.63,1.534,1.534,0,0,0,.17-.577c.01-.23-.041-.341.6-1.582.845-1.338-.031.33-.038.491.386-.727.789-1.456,1.215-2.164-.307.853-1.337,2.558-1.065,2.534a15.488,15.488,0,0,1,1.121-2.261c.4-.679.869-1.42,1.575-2.62l-.113.134c.547-1.12,2.269-3.4,3.144-4.759-.285.6-1.292,2.082-1.932,3.079.543-.729,1.458-2.044,2.3-3.369a27.408,27.408,0,0,0,1.9-3.391c.547-.875,1.74-2.778,1.056-1.425.325-.551.553-.955.717-1.261a5.765,5.765,0,0,0,.3-.627,4.681,4.681,0,0,0,.121-.48c-.127,0-.27-.007-.454-.025-.092-.009-.2-.022-.314-.038l-.607-.089.145-.136c-.857-.17-1.712-.3-2.563-.407a7.44,7.44,0,0,0-2.522.089,11.562,11.562,0,0,0-4.428,2.1l-.033.272c-.148.092-.315.235-.5.381s-.37.321-.541.492c-.346.334-.635.655-.747.742a12.466,12.466,0,0,1,1.066-1.3c-.137.111-.258.215-.365.313s-.192.2-.273.3a4.991,4.991,0,0,0-.41.563c-.246.387-.5.808-1,1.514a5.251,5.251,0,0,0,.494-.544,2.658,2.658,0,0,1,.511-.5,11.074,11.074,0,0,1,2.509-2.529,9.283,9.283,0,0,1,3.206-1.475,7.785,7.785,0,0,1,1.746-.209,6.562,6.562,0,0,1,.876.042c.284.033.6.083.9.124l3.088.432-1.336,2.333c-.535.949-1.058,1.891-1.619,2.824.163-.213.354-.473.289-.3-.446.636-1.193,1.861-1.155,1.617l.128-.219c-.986,1.578-2.144,2.832-2.77,3.754-.153.338-.71,1.128-1.14,1.771s-.734,1.135-.415.843q-.4.48-.784.969c-.148.394.049.273-.311.948a5.2,5.2,0,0,1-.571.846c-.047.021.042-.213.277-.666-.323.522-.642,1.081-.949,1.633s-.629,1.112-.963,1.667a29.913,29.913,0,0,1-2.215,3.246,17.185,17.185,0,0,1-2.739,2.783,11.414,11.414,0,0,1-3.242,1.84c.2-.086.394-.175.583-.277s.378-.2.563-.311a13.373,13.373,0,0,1-2.248.833c-.761.182-1.272.214-.8.026a8.492,8.492,0,0,1-1.964.115,12.415,12.415,0,0,1-2.085-.3,15.945,15.945,0,0,0-2.444-.582c-.693-.4-2.027-1.011-3.537-1.764s-3.191-1.669-4.651-2.536c.371.5-2.416-1.408-3.266-1.78-.157-.2.48.128,1.171.5a10.8,10.8,0,0,0,1.478.75c-.779-.4-1.693-.925-2.64-1.491l-1.435-.874c-.479-.3-.957-.595-1.426-.865-1.869-1.087-3.379-2.186-4.086-2.479-.313-.272-.3-.3-.18-.217a14.08,14.08,0,0,1-1.519-1.565c-.325-.232.616.839-.477-.3-.771-.984-.236-.5-.491-.947-.173-.235-.379-.477-.554-.751l-.264-.421a3.645,3.645,0,0,1-.253-.441,9.957,9.957,0,0,1-.77-1.86c-.391-1.219-.418-2.275-.523-2.479.056-.715.261-1.433.214-.657a9.469,9.469,0,0,1,.321-2.187c.038-.14.072-.272.11-.4s.083-.243.122-.358c.074-.232.167-.442.254-.654.177-.422.379-.835.654-1.352a19.582,19.582,0,0,1,1.186-1.925,3.741,3.741,0,0,0-.537.947c-.048.113-.115.235-.221.438l-.509.893c.454-.612,1.168-1.875,2.23-3.156a26.608,26.608,0,0,1,3.611-3.592c.276-.32.549-.657.822-.985,1.386-1.327,1.584-1.291.638-.329a16.893,16.893,0,0,0,2.848-2.959,11.421,11.421,0,0,0,.942-1.506,8.553,8.553,0,0,0,.687-1.764c.055-.154.069-.021-.073.415a6.747,6.747,0,0,0,.234-.962c.031-.171.047-.309.069-.459l.062-.444.248-1.777c.007-.363.1-1.653-.043-1.407A14.077,14.077,0,0,1,1199.438,3904.9Z" transform="translate(-1185.324 -3891.372)" fill="#040405"/>
                <path id="Trazado_26043" data-name="Trazado 26043" d="M1245.062,3901.575c0-.033-.005-.065-.008-.1l-.019.139A.155.155,0,0,1,1245.062,3901.575Z" transform="translate(-1230.609 -3891.168)" fill="#040405"/>
                <path id="Trazado_26044" data-name="Trazado 26044" d="M1187.579,4014.625c-.078-.362-.171-.638-.221-.878A5.06,5.06,0,0,0,1187.579,4014.625Z" transform="translate(-1186.867 -3976.312)" fill="#040405"/>
                <path id="Trazado_26045" data-name="Trazado 26045" d="M1230.058,3894.651a5.929,5.929,0,0,0,.756-1.255,8.912,8.912,0,0,1,1.331-1.866c-.119.144-.217.265-.3.371s-.135.2-.18.271a.668.668,0,0,0-.121.275c0,.085.13.007.216-.045a5.379,5.379,0,0,1,.656-.982c.222-.27.452-.509.72-.777a25.526,25.526,0,0,0,2.318-2.516c.066.005-.158.333-.412.68a4.926,4.926,0,0,0-.552.827,30.274,30.274,0,0,0,1.9-2.526,6.241,6.241,0,0,0,.932-1.846,12.71,12.71,0,0,0,1.448-3.91,7.991,7.991,0,0,0-.061-3.233c.075.283.109.508.152.679s.05.3.07.385c.039.176.068.209.1.223.055.029.139-.032.206.86a9.326,9.326,0,0,0-.382-2.292l-.1-.329-.128-.329c-.08-.224-.194-.441-.3-.665a9.35,9.35,0,0,0-.8-1.285l-1.841-2.444-.889-1.17-.423-.552-.2-.265-.05-.065-.037-.045-.071-.086c-.03-.416-.2-.711.176-.479-.553-.893-.937-1.489-1.162-1.82a7.855,7.855,0,0,0-.075,1.312,16.354,16.354,0,0,1-.255,2.249l.266-1.663a6.289,6.289,0,0,0,.063,2.385l.352-2.734.165.243c.005.079-.047.049-.114-.019-.009.247-.032.5-.055.719l-.116,1.036c0,.64.1.077.221-.585.014-.074.027-.149.041-.224l.015-.036a.111.111,0,0,1,.028-.044c.019-.015.037.014.063.066a.545.545,0,0,1-.043-.248.631.631,0,0,1,.087.1l.055.066a1.138,1.138,0,0,1,.142.185l.042.2c1.027,1.7,1.8,2.523,2.781,4.022.07.146.071.175.043.157l.158.18.147.174a4.282,4.282,0,0,1,.3.394,4.879,4.879,0,0,1,.586,1.136,3.9,3.9,0,0,0-.139-.369c-.05-.122-.1-.245-.157-.362a6.154,6.154,0,0,1,.3.556,7.365,7.365,0,0,1,.267.691,8.547,8.547,0,0,1,.33,1.4,2.9,2.9,0,0,0,.127.716c.041.031.1-.193.115-.819a9.361,9.361,0,0,1-.15,2.155c-.086.35-.149.705-.268,1.046-.056.171-.1.345-.165.513l-.2.5a10.033,10.033,0,0,1,.06-1.192,19.927,19.927,0,0,0,.16-2.542l-.086-.268c-.018.433-.024.951-.1,1.472l-.045.39-.066.381c-.034.251-.093.488-.138.705l-.062.31-.066.266a3.162,3.162,0,0,0-.071.383c-.016.177.032.182.176-.081a8.967,8.967,0,0,1-1.956,3.879c-1.108,1.43-2.535,2.8-3.489,4.087-.245.092.87-1.284,1.322-1.91.624-.717,1.057-1.235,1.187-1.226a7.7,7.7,0,0,0,.943-1.352c.073-.172-.017-.129-.094-.1s-.141.054-.024-.156.434-.642.982-1.6c.538-.939.273-.334.06.164a2.09,2.09,0,0,0-.186.439,5.771,5.771,0,0,0,.584-.985c.069-.181.118-.37.17-.557s.107-.37.15-.556c.074-.376.165-.743.2-1.116a13.877,13.877,0,0,1-1.057,2.567,16.772,16.772,0,0,1-1.345,2.153c-.658.906-1.373,1.737-2.068,2.534l-1.016,1.193c-.329.39-.658.755-.955,1.153a12.227,12.227,0,0,0-1.457,2.393,5.558,5.558,0,0,0-.528,2.463l.007.15.021.169a3,3,0,0,0,.07.305,4.039,4.039,0,0,0,.2.526c.074.16.153.31.235.45l.063.1c.019.033.058.094.091.14.067.1.134.2.205.285a6.052,6.052,0,0,0,.425.486l.21.222c.033.066.074,0,.112-.021l.114-.081a9.7,9.7,0,0,0,.834-.65l.411-.336.28-.24.23-.2a54.143,54.143,0,0,0,6.839-7.628c2.052-2.719,3.949-5.523,5.907-8.271.98-1.374,1.975-2.733,3-4.064s2.1-2.629,3.2-3.889,2.279-2.459,3.5-3.6a38.952,38.952,0,0,1,3.866-3.182c.839-.626,1.587-1.088,2.219-1.5l.9-.531c.276-.167.53-.321.775-.449.487-.265.892-.512,1.277-.744s.73-.464,1.075-.721c-.411.157-1.213.5-1.8.776s-.984.445-.616.194a3.611,3.611,0,0,1-.453.323c-.206.145-.468.317-.779.511l-.5.309c-.178.111-.361.238-.557.365-.389.26-.831.522-1.279.846-.064.006,0-.067.137-.175.067-.054.149-.117.238-.183l.289-.189c.39-.25.75-.468.5-.328l-.36.217a4.633,4.633,0,0,1,1.044-.782,22.18,22.18,0,0,0-3.968,2.589,20.437,20.437,0,0,0-3.011,2.922c-.771.656-.56.382-.069-.159l.41-.445.463-.465.775-.79a49.322,49.322,0,0,0-3.64,3.432c-1.076,1.146-2.075,2.268-3.025,3.431-1.908,2.32-3.687,4.751-5.759,7.687.119.227-.307.678-.751,1.58l-.42.45c.212-.228-.238.68.615-.446a31.7,31.7,0,0,0-2.45,3.592,28.813,28.813,0,0,1-1.811,2.883l.03-.23c-.723.926-1.2,1.514-1.665,2.069s-.9,1.078-1.575,1.844c-.687.649-.9.809-.83.714s.412-.46.807-.889c.789-.863,1.746-2.026,1.3-1.728-.223.28-.441.564-.672.837a25.165,25.165,0,0,1,1.324-2.141,27.537,27.537,0,0,1-2.882,3.318c-.473.463-.953.929-1.5,1.439-.268.26-.562.521-.87.808-.154.143-.312.294-.481.442l-.446.408a2.214,2.214,0,0,1,.167-.2l.126-.136.2-.2,1.021-1.018c.736-.748,1.5-1.552,1.818-1.906-.455.469-1.086,1.128-1.638,1.654a5.379,5.379,0,0,1-1.1.918c-.029.1-.057.2-.089.3l-.281.24-.139.114a.868.868,0,0,1-.145.1c-.046.019,0-.049.05-.128a1.031,1.031,0,0,0,.123-.22.176.176,0,0,1,.017-.045c.005-.014.005-.024,0-.028s-.02,0-.042.007-.026,0-.043.01l-.12.106-.057.052a.272.272,0,0,1-.049-.043,1.922,1.922,0,0,1-.162-.185,6.834,6.834,0,0,1-.411-.671c-.157-.3-.209-.341-.289-.364s-.151-.021-.223-.306a2.286,2.286,0,0,1-.024-.686A4.749,4.749,0,0,1,1230.058,3894.651Z" transform="translate(-1218.581 -3862.41)" fill="#040405"/>
                <path id="Trazado_26046" data-name="Trazado 26046" d="M1194.986,3970.448c.364-.56.683-1.034.984-1.456-.182.229-.344.474-.515.712S1195.136,3970.2,1194.986,3970.448Z" transform="translate(-1192.652 -3942.37)" fill="#040405"/>
                <path id="Trazado_26047" data-name="Trazado 26047" d="M1225.023,3940.689a1.059,1.059,0,0,1,.108-.182C1225,3940.649,1224.957,3940.716,1225.023,3940.689Z" transform="translate(-1215.408 -3920.767)" fill="#040405"/>
                <path id="Trazado_26048" data-name="Trazado 26048" d="M1226.053,3936.128c.232-.138-.225.36-.485.731C1226.052,3936.346,1227.214,3935.016,1226.053,3936.128Z" transform="translate(-1215.845 -3917.119)" fill="#040405"/>
                <path id="Trazado_26049" data-name="Trazado 26049" d="M1388.454,3860.223c-.111-.317-.438-1.718-.408-1.362l.466,2.066Z" transform="translate(-1339.065 -3858.804)" fill="#040405"/>
                <path id="Trazado_26050" data-name="Trazado 26050" d="M1391.639,3882.3l.019.527c.005.176-.012.352-.018.527l-.025.526a4.319,4.319,0,0,1-.043.524l.044.711c.006.119.017.24.019.359l0,.357.064-.386q.014-.177.026-.322c.014-.2.023-.351.028-.482a3.666,3.666,0,0,0-.008-.578c-.017-.159-.034-.317-.044-.577-.005-.13-.009-.285-.01-.479S1391.655,3882.58,1391.639,3882.3Z" transform="translate(-1341.741 -3876.621)" fill="#040405"/>
                <path id="Trazado_26051" data-name="Trazado 26051" d="M1388.427,3904.9c.03-.156.063-.312.079-.471C1388.419,3904.855,1388.392,3904.945,1388.427,3904.9Z" transform="translate(-1339.344 -3893.403)" fill="#040405"/>
                <path id="Trazado_26052" data-name="Trazado 26052" d="M1387.911,3901l-.091.836c.114-.447.245-.887.343-1.336l.134-.676a6.694,6.694,0,0,0,.114-.679c-.059.347-.173.68-.26,1.019-.03,0-.089.163-.148.335a2.786,2.786,0,0,1-.158.394c-.066.337-.125.678-.2,1.016C1387.717,3901.663,1387.836,3901.163,1387.911,3901Z" transform="translate(-1338.763 -3889.397)" fill="#040405"/>
                <path id="Trazado_26053" data-name="Trazado 26053" d="M1385.52,3915.447c.039-.05.086-.12.12-.153C1385.63,3915.268,1385.585,3915.33,1385.52,3915.447Z" transform="translate(-1337.151 -3901.641)" fill="#040405"/>
                <path id="Trazado_26054" data-name="Trazado 26054" d="M1373.7,3920.432c.333-.417-.172.551-.2.718.29-.431.5-.767.665-1.055s.273-.531.385-.763l.347-.727c.128-.27.309-.567.521-.971-.591,1.277-.466,1.06-.1.435.177-.315.389-.745.6-1.14s.371-.779.487-.982c-.367.44-.828,1.374-1.909,3.168l-.028.247A5.732,5.732,0,0,1,1373.7,3920.432Z" transform="translate(-1328.034 -3902.141)" fill="#040405"/>
                <path id="Trazado_26055" data-name="Trazado 26055" d="M1346.7,3950.431l.887-1.414c.23-.182,1.834-2.289,1.88-2.094.548-.757.585-.917,1.011-1.545a7.18,7.18,0,0,0,1.283-1.727c-1.187,1.6-1.656,2.111-2.055,2.6s-.759.917-1.815,2.266a5.574,5.574,0,0,1,.547-.755l-1.424,1.735C1347.037,3949.773,1345.292,3952.088,1346.7,3950.431Z" transform="translate(-1307.293 -3923.151)" fill="#040405"/>
                <path id="Trazado_26056" data-name="Trazado 26056" d="M1335.84,3976.357c1.078-1.434,1.562-2.3.947-1.661l-2.213,3.11C1335.247,3976.918,1336.061,3975.821,1335.84,3976.357Z" transform="translate(-1298.514 -3946.532)" fill="#040405"/>
                <path id="Trazado_26057" data-name="Trazado 26057" d="M1327.037,3990.961a12.714,12.714,0,0,0-1.957,2.414C1326.3,3991.733,1325.9,3992.637,1327.037,3990.961Z" transform="translate(-1291.314 -3959.031)" fill="#040405"/>
                <path id="Trazado_26058" data-name="Trazado 26058" d="M1300.18,4012.469l2.225-2.745c.557-.4-.976,1.381-1.562,2.294a32.087,32.087,0,0,0,2.5-3.515c.532-.676,1.261-1.8,1.83-2.636C1302.528,4009.594,1302,4009.478,1300.18,4012.469Z" transform="translate(-1272.43 -3970.335)" fill="#040405"/>
                <path id="Trazado_26059" data-name="Trazado 26059" d="M1316.1,4009.3l.182-.372-.978,1.384Z" transform="translate(-1283.899 -3972.66)" fill="#040405"/>
                <path id="Trazado_26060" data-name="Trazado 26060" d="M1302.009,4006.48a4.468,4.468,0,0,0,1.208-1.111,8.276,8.276,0,0,0,.841-1.37c.48-.963.855-2,1.382-3.087-.089.241,0,.083-.175.559.265-.63.525-1.259.8-1.879l.088-.064c-.088.026.069-.448.307-1.028s.564-1.262.758-1.676a4.316,4.316,0,0,0-.742,1.356,4.918,4.918,0,0,1-.588,1.22c.127-.43.178-.762.322-1.168a11.739,11.739,0,0,0-.685,2.033c-.53,1.258-.44.851-.53.923-.263.712-.355,1.092-.512,1.556a7.266,7.266,0,0,1-.328.805,8.447,8.447,0,0,1-.7,1.195c-.238.3-.343.383-.379.391s0-.065.013-.108.016-.056-.082.069a8.136,8.136,0,0,1-.733.854c.263-.183.281-.165.145-.015a3.9,3.9,0,0,1-.843.659,6.279,6.279,0,0,1-1.363.6c-.461.146-.882.23-1.125.3a6,6,0,0,1-2.234-.15c-.494-.141-.594-.244-.412-.234-.012.041-.111.064-.306.05a2.664,2.664,0,0,1-.356-.054c-.07-.014-.144-.033-.223-.053l-.122-.034-.064-.019c-.008,0-.028,0-.025-.011l.013-.023c.141-.243.333-.557.583-.918l.32-.471.314-.449-.988,1.415-.247.369-.06.09c-.024.019.017.019.03.027l.057.02.225.076a6.758,6.758,0,0,0,.885.228,7.488,7.488,0,0,0,1.082.363,8.726,8.726,0,0,0,2.459-.315,6.08,6.08,0,0,0,2.184-1.092Z" transform="translate(-1268.712 -3963.476)" fill="#040405"/>
                <path id="Trazado_26061" data-name="Trazado 26061" d="M1340.521,4000.63c.091-.2.165-.383.295-.644A4.156,4.156,0,0,0,1340.521,4000.63Z" transform="translate(-1303.024 -3965.875)" fill="#040405"/>
                <path id="Trazado_26062" data-name="Trazado 26062" d="M1298.675,4038.615a4.536,4.536,0,0,0,.553.107,2.657,2.657,0,0,1-.3-.136A2.2,2.2,0,0,1,1298.675,4038.615Z" transform="translate(-1271.289 -3995.149)" fill="#040405"/>
                <path id="Trazado_26063" data-name="Trazado 26063" d="M1342.676,3995.024c-.229.37-.242.54-.021.166.086-.208.174-.414.269-.619C1342.839,3994.721,1342.755,3994.871,1342.676,3995.024Z" transform="translate(-1304.522 -3961.769)" fill="#040405"/>
                <path id="Trazado_26064" data-name="Trazado 26064" d="M1348.251,3986.066c.125-.13.258-.253.385-.379l.4-.36c.127-.182.262-.361.4-.541A13.3,13.3,0,0,0,1348.251,3986.066Z" transform="translate(-1308.887 -3954.348)" fill="#040405"/>
                <path id="Trazado_26065" data-name="Trazado 26065" d="M1336.558,4073.508a3.9,3.9,0,0,0,.855-.822,1.072,1.072,0,0,0,.108-.327c-.76.749-.768.759-.68.743S1337.084,4073.009,1336.558,4073.508Z" transform="translate(-1300.019 -4020.762)" fill="#040405"/>
                <path id="Trazado_26066" data-name="Trazado 26066" d="M1233.036,4057.818c.645.441,1.287.813,1.933,1.175s1.289.728,1.948,1.129c-.577-.39-1.263-.83-1.952-1.231S1233.593,4058.112,1233.036,4057.818Z" transform="translate(-1221.508 -4009.735)" fill="#040405"/>
                <path id="Trazado_26067" data-name="Trazado 26067" d="M1193.117,4029.067a4.64,4.64,0,0,0,.364.384c.064.052.014-.01-.245-.365.188.188.394.358.588.535s.4.34.606.5c-.191-.217-.352-.4-.478-.561s-.239-.283-.331-.381a1.518,1.518,0,0,0-.358-.321C1193.123,4028.8,1193.138,4029,1193.117,4029.067Z" transform="translate(-1191.234 -3987.763)" fill="#040405"/>
                <path id="Trazado_26068" data-name="Trazado 26068" d="M1188.495,3974.8a14.624,14.624,0,0,0-.888,2.067c.138-.363.3-.712.469-1.062-.149.562-.283.946-.475,1.768C1188.061,3975.994,1188.828,3974.611,1188.495,3974.8Z" transform="translate(-1187.05 -3946.764)" fill="#040405"/>
                <path id="Trazado_26069" data-name="Trazado 26069" d="M1185.764,3991.851c.029-.247.091-.518.146-.8A1.725,1.725,0,0,0,1185.764,3991.851Z" transform="translate(-1185.656 -3959.096)" fill="#040405"/>
                <path id="Trazado_26070" data-name="Trazado 26070" d="M1186.606,3986.625l.067-.287c-.059.19-.116.381-.16.573s-.1.378-.135.565A5,5,0,0,0,1186.606,3986.625Z" transform="translate(-1186.123 -3955.525)" fill="#040405"/>
                <path id="Trazado_26071" data-name="Trazado 26071" d="M1195.472,3960.162a22.724,22.724,0,0,1,2.456-2.911q-.524.492-1.028,1.014a4.06,4.06,0,0,1-.678.841A4.071,4.071,0,0,0,1195.472,3960.162Z" transform="translate(-1193.02 -3933.466)" fill="#040405"/>
                <path id="Trazado_26072" data-name="Trazado 26072" d="M1240.541,3886.163l.2-.358c.116-.764.2-1.594.282-2.413l.033-.331q.027-.241.053-.481.055-.494.109-.975l.229-1.921a31.1,31.1,0,0,1,1.708,2.745c-.2-.351-.2-.391-.108-.285.047.052.117.14.194.239l.117.151c.041.054.053.064.079.1.089.1.146.158.087.042-.015-.029-.037-.069-.067-.121l-.206-.331-.785-1.221c-.265-.346-.628-.853-1.052-1.46-.08.662-.171,1.414-.266,2.205-.081.631-.167,1.292-.251,1.944C1240.775,3884.618,1240.644,3885.521,1240.541,3886.163Z" transform="translate(-1227.2 -3874.528)" fill="#040405"/>
                <path id="Trazado_26073" data-name="Trazado 26073" d="M1254.472,3897.319c-.25-.3.04.2.174.478.447.709,1.009,1.437.811,1.021C1254.913,3898.352,1255.059,3897.986,1254.472,3897.319Z" transform="translate(-1237.691 -3887.944)" fill="#040405"/>
                <path id="Trazado_26074" data-name="Trazado 26074" d="M1267.957,3936.177a7.241,7.241,0,0,0,.154-.972c.02-.207.005-.2-.086.306-.17,1.045-.282,1.422-.3,1.692a3.817,3.817,0,0,1-.153.934,6.481,6.481,0,0,0,.591-2.1c.024-.224.007-.353-.028-.343A1.385,1.385,0,0,0,1267.957,3936.177Z" transform="translate(-1247.703 -3916.65)" fill="#040405"/>
                <path id="Trazado_26075" data-name="Trazado 26075" d="M1229.03,3987.526c.093-.112.281-.6.514-1.074s.5-.943.585-1.127c-.141.248-.353.595-.56.985A9.277,9.277,0,0,0,1229.03,3987.526Z" transform="translate(-1218.47 -3954.757)" fill="#040405"/>
                <path id="Trazado_26076" data-name="Trazado 26076" d="M1232.952,3993.24a5.378,5.378,0,0,1,.171-.52,6.465,6.465,0,0,1,.056-.691A5.807,5.807,0,0,0,1232.952,3993.24Z" transform="translate(-1221.445 -3959.841)" fill="#040405"/>
                <path id="Trazado_26077" data-name="Trazado 26077" d="M1258.615,3979.206c.3-.424.6-.855.888-1.287q-.714.913-1.458,1.8C1258.238,3979.55,1258.425,3979.378,1258.615,3979.206Z" transform="translate(-1240.474 -3949.14)" fill="#040405"/>
                <path id="Trazado_26078" data-name="Trazado 26078" d="M1266.625,3970.6c.42-.54.829-1.09,1.237-1.641l-.473.547A12.877,12.877,0,0,0,1266.625,3970.6Z" transform="translate(-1246.982 -3942.342)" fill="#040405"/>
                <path id="Trazado_26079" data-name="Trazado 26079" d="M1277.347,3955.085a2.752,2.752,0,0,1-.355.449l-1.018,1.567Z" transform="translate(-1254.073 -3931.823)" fill="#040405"/>
                <path id="Trazado_26080" data-name="Trazado 26080" d="M1379.741,3861.954c-.365.314,1.3-.549,1.833-.762A5.86,5.86,0,0,0,1379.741,3861.954Z" transform="translate(-1332.73 -3860.607)" fill="#040405"/>
              </g>
            </g>
          </g>
          <g id="Grupo_1321" data-name="Grupo 1321" transform="translate(2.752 4.221)">
            <g id="Grupo_1320" data-name="Grupo 1320">
              <g id="Grupo_1319" data-name="Grupo 1319">
                <path id="Trazado_26081" data-name="Trazado 26081" d="M1283.51,4073.077c.185.061.48.16.619.195A2.966,2.966,0,0,0,1283.51,4073.077Z" transform="translate(-1262.539 -4025.528)" fill="#040405"/>
                <path id="Trazado_26082" data-name="Trazado 26082" d="M1250.892,3922.628c.033-.138.063-.3.093-.445l-.058.2C1250.916,3922.465,1250.907,3922.56,1250.892,3922.628Z" transform="translate(-1237.802 -3911.091)" fill="#040405"/>
                <path id="Trazado_26083" data-name="Trazado 26083" d="M1250.841,3919.84l.132-1.009C1250.723,3920.228,1250.754,3920.124,1250.841,3919.84Z" transform="translate(-1237.715 -3908.549)" fill="#040405"/>
                <path id="Trazado_26084" data-name="Trazado 26084" d="M1302.587,4076.193a5.877,5.877,0,0,0,1.33-.07A8.4,8.4,0,0,1,1302.587,4076.193Z" transform="translate(-1277.007 -4027.838)" fill="#040405"/>
                <path id="Trazado_26085" data-name="Trazado 26085" d="M1282.477,4068.843a2.239,2.239,0,0,0-.278-.166A2.8,2.8,0,0,0,1282.477,4068.843Z" transform="translate(-1261.545 -4022.191)" fill="#040405"/>
                <path id="Trazado_26086" data-name="Trazado 26086" d="M1348.305,4009.285l.062-.2A.856.856,0,0,0,1348.305,4009.285Z" transform="translate(-1311.679 -3977.001)" fill="#040405"/>
                <path id="Trazado_26087" data-name="Trazado 26087" d="M1341.787,4023.4l-.338.715-.006.05A6.093,6.093,0,0,0,1341.787,4023.4Z" transform="translate(-1306.475 -3987.854)" fill="#040405"/>
                <path id="Trazado_26088" data-name="Trazado 26088" d="M1344.682,4018.305l-.278.659C1344.51,4018.728,1344.6,4018.51,1344.682,4018.305Z" transform="translate(-1308.721 -3983.99)" fill="#040405"/>
                <path id="Trazado_26089" data-name="Trazado 26089" d="M1282.931,4032.679l.005-.132C1282.9,4032.646,1282.9,4032.682,1282.931,4032.679Z" transform="translate(-1262.085 -3994.791)" fill="#040405"/>
                <path id="Trazado_26090" data-name="Trazado 26090" d="M1348.77,4006.574c-.082.2-.148.384-.207.569C1348.682,4006.841,1348.917,4006.367,1348.77,4006.574Z" transform="translate(-1311.875 -3975.054)" fill="#040405"/>
                <path id="Trazado_26091" data-name="Trazado 26091" d="M1282.924,4072.941a.737.737,0,0,1,.12.014C1282.923,4072.917,1282.852,4072.9,1282.924,4072.941Z" transform="translate(-1262.073 -4025.407)" fill="#040405"/>
                <path id="Trazado_26092" data-name="Trazado 26092" d="M1315.353,4074.881l-.065.019C1315.008,4075,1315.118,4074.962,1315.353,4074.881Z" transform="translate(-1286.514 -4026.897)" fill="#040405"/>
                <path id="Trazado_26093" data-name="Trazado 26093" d="M1224.623,3981.987a10.67,10.67,0,0,0-.638,1.252c.232-.482.412-.784.514-.975S1224.637,3982,1224.623,3981.987Z" transform="translate(-1217.396 -3956.446)" fill="#040405"/>
                <path id="Trazado_26094" data-name="Trazado 26094" d="M1241.038,3935.536c-.235.154.019-.233.283-.669l.268-.44a4.634,4.634,0,0,0,.226-.413c.111-.232.152-.362.059-.3-.13.261-.256.514-.4.764l-.2.336-.143.239a3.463,3.463,0,0,1-.532.69,5.5,5.5,0,0,1,.3-.574l.366-.61a2.618,2.618,0,0,0,.457-.986l-.345.661-.373.674c-.568.727-.016-.417-.462.311-.417,1.156-2.359,3.37-3.082,4.485l.251-.408-1.251,1.621c-.016.015-.008-.005-.017,0a.409.409,0,0,0-.013.1,20.319,20.319,0,0,0-2.353,3.322,10.522,10.522,0,0,1-.51,1.019c-.264.489-.575,1.085-.907,1.675s-.673,1.178-.961,1.656-.521.849-.6,1.029c.364-.607.691-1.113,1.173-1.857l.078.208c-.412.685-.467.68-.5.682s-.038.006-.417.669c.086-.023.206-.151.346-.343s.289-.457.452-.743c.317-.58.652-1.269.933-1.753a13.207,13.207,0,0,1-.719,1.509c.581-.963,1.116-1.927,1.609-2.813s.959-1.689,1.28-2.409c.394-.513.307-.2.071.212.774-1.448.76-.923,1.433-2.152a9.7,9.7,0,0,1-1,1.781,25.291,25.291,0,0,0-1.361,2.355c-.6.843-1.157,1.911-1.766,2.987a27.574,27.574,0,0,1-1.97,3.109c-.094-.012.087-.364.2-.63s.166-.448-.136-.1c-.363.436-.626.768-.847,1.024l-.507.638a8.855,8.855,0,0,1-.906,1.1,4.282,4.282,0,0,1-.631.424,1.306,1.306,0,0,1-.271.075c-.174.026-.4.206-1.54.737l.331-.174.313-.205.311-.205c.1-.069.2-.153.295-.228-.323.166-.572.256-.755.361-.093.05-.171.1-.243.145s-.141.08-.2.12c-.127.081-.242.163-.391.25a2.967,2.967,0,0,1-.6.222,3.185,3.185,0,0,0,1.537-.516c.162.021-.7.5-1.151.643.1-.03.195-.053.289-.09a5.749,5.749,0,0,1-.684.382,3.381,3.381,0,0,1-.592.169,4.463,4.463,0,0,1-.992.124c.514-.113.182-.1-.322-.1a6.943,6.943,0,0,1-1.382-.139c.141.006.282.018.424.02a12.037,12.037,0,0,1-3.094-.682l.071-.01a10.626,10.626,0,0,1-2.42-.809c.151,0,1.643.464.318-.1.226-.008,1.672.654,2.9,1.055a4.619,4.619,0,0,1-1.149-.519c-.1-.093.131-.035.875.209-.364-.249-1.409-.446-2.152-.851.122.1-.143.028-.1.09a5.545,5.545,0,0,0-1.4-.72,8.534,8.534,0,0,0-1.48-.573q.713.327,1.437.626c.041.191-1.739-.627-1.219-.269a15.744,15.744,0,0,0-2.129-1.236,13.54,13.54,0,0,1-2.144-1.312l.423.39c-1.358-.865-2.629-1.611-3.926-2.317-.648-.356-1.3-.7-1.975-1.047s-1.365-.729-2.068-1.159a21.041,21.041,0,0,1,2.894,1.453c-1.313-.782-1.479-.951-1.409-.991s.369.048-.006-.243c-1-.645-1.277-.774-1.407-.765s-.1.145-.428-.026l.711.434.721.416a11.516,11.516,0,0,1-1.683-.94,15.787,15.787,0,0,1-1.9-1.468,13.5,13.5,0,0,1-1.786-1.926,10.188,10.188,0,0,1-1.278-2.27c-.007-.13.06.03.15.272s.252.551.357.75c-.122-.358-.237-.609-.3-.818a4.042,4.042,0,0,0-.2-.489c-.065-.131-.1-.251-.163-.388a3.1,3.1,0,0,1-.171-.52,6.545,6.545,0,0,1,.036-2.177,1.624,1.624,0,0,1,.156-.506c.046-.057.061.01.07.25.375-1.627-.153.154-.017-.735l.12-.295a11.124,11.124,0,0,1,.449-1.755,11.242,11.242,0,0,1,1.256-1.9,6.673,6.673,0,0,1,1.177-1.164c.554-.644.89-1.016,1.08-1.264a1.381,1.381,0,0,0,.273-.468c.061-.2.029-.333.929-1.2,1.1-.873-.109.279-.16.421l1.623-1.495c-.456.67-1.837,1.8-1.578,1.874a15.607,15.607,0,0,1,1.569-1.612,24.994,24.994,0,0,0,1.932-1.915l-.124.094c.334-.441.959-1.092,1.558-1.822a13.307,13.307,0,0,0,1.5-2.163,6.731,6.731,0,0,1-.685,1.256,17.526,17.526,0,0,1-1.067,1.434,12.321,12.321,0,0,0,1.732-2.337c.146-.247.274-.509.4-.768l.174-.392.156-.41c.057-.14.095-.294.141-.444a4.524,4.524,0,0,0,.123-.471l.105-.507.085-.53a2.412,2.412,0,0,0,.132-.437l.025-.093.013-.043.006-.021s.01.01.014.014l.116.145a7.936,7.936,0,0,1,.435.878c.06.163.13.314.172.474s.083.307.112.436c.081.547.067.7-.1.06.045.209.081.4.1.57s.04.328.043.468.01.255.015.361,0,.2,0,.283c0,.332,0,.493.018.645a2.427,2.427,0,0,1-.032.564,5.784,5.784,0,0,1-.451,1.357l-.1-.165a30.78,30.78,0,0,1-5.435,7.235l.029.259a10.632,10.632,0,0,0-.82.908c-.276.332-.506.64-.6.725.25-.431.516-.855.806-1.264a4.033,4.033,0,0,0-.807,1.149c-.178.369-.371.763-.753,1.43a4.544,4.544,0,0,0,.4-.519c.2-.254.395-.5.424-.481a21.278,21.278,0,0,1,2.754-3.545,35.766,35.766,0,0,0,2.959-3.515,12.789,12.789,0,0,0,1.167-2.029,8.312,8.312,0,0,0,.7-2.276c.013-.1.03-.2.04-.3l.02-.3a2.59,2.59,0,0,0,.007-.3c0-.1,0-.191-.008-.34l-.051-.411-.025-.205-.046-.19-.094-.377c-.038-.117-.082-.227-.123-.341a7.841,7.841,0,0,0-.612-1.219l-.187-.3c-.03-.046-.064-.11-.09-.141l-.04.044c-.057.053-.087.15-.195.142-.069.4-.139.789-.216,1.163.1-.359.2-.726.169-.359-.059.228-.139.535-.214.86-.094.275-.177.575-.271.811-.045.115-.1.23-.133.308s-.06.127-.085.17c-.053.086-.085.117-.087.062.029-.068.054-.136.077-.206a7.721,7.721,0,0,1-1.172,1.933c-.431.54-.859.976-1.172,1.343a8.708,8.708,0,0,1-1.21,1.373c-.481.473-.849.825-.5.653-.294.217-.592.429-.892.64-.213.3-.007.261-.48.745-.863.753-.938.7-.308.061-.824.713-1.69,1.469-2.533,2.3a18.075,18.075,0,0,0-2.351,2.789,12.006,12.006,0,0,0-1.586,3.356,8.226,8.226,0,0,0-.234,3.617l-.071-.311c-.02-.1-.033-.209-.05-.315a5.851,5.851,0,0,1-.069-.636,5.251,5.251,0,0,0,.068,1.123,4.808,4.808,0,0,0,.136.64c.061.208.1.415.172.6.252.733.5,1.184.161.792.14.259.262.557.444.837l.262.438.3.429a5,5,0,0,0,.319.421c.111.136.218.276.332.407.237.252.458.514.7.73a5.226,5.226,0,0,0,1.911,1.4,14,14,0,0,0,2.95,2.089l2.071,1.163c.7.4,1.4.805,2.047,1.194-.315-.47,2.155,1.258,2.916,1.581.266.378-2.274-1.166-2.375-1.092,1.406.7,3.227,1.89,4.94,2.845a13.471,13.471,0,0,0,4.016,1.713c.345.161.343.18.215.148.565.234,1.309.58,1.9.761.377.016-.906-.364.533-.016.571.14.694.188.728.237s-.021.086.22.156a9.865,9.865,0,0,0,1.915.019,6.089,6.089,0,0,0,1-.17l.483-.117c.157-.043.306-.106.453-.157l.427-.158.382-.189.346-.176c.106-.062.2-.128.291-.187.178-.119.328-.221.438-.308a1.147,1.147,0,0,0,.2-.214l.739-.412c.152-.075.168-.042-.111.206.34-.3.638-.55.877-.8.122-.122.24-.233.346-.343l.292-.318.265-.283.23-.27c.146-.174.294-.331.425-.5a19.082,19.082,0,0,0,1.954-2.88,10.6,10.6,0,0,1-1.224,2.087,13.634,13.634,0,0,0,2-3c.37-.675.734-1.4,1.113-2.069s.788-1.327,1.191-1.892q.226-.517.465-1.032c.91-1.429,1.1-1.418.495-.4,1.685-2.331,2.5-3.639,3.725-5.5.089-.1.063,0-.151.311.3-.448.592-.895.881-1.349q.219-.338.43-.683l.173-.281.186-.307c.131-.209.224-.4.328-.595l.222-.505c.048-.18.349-.511-.087-.416-.536,0-.91.028-.786.09.165-.013.36-.022.6-.025h.335l0,.01-.019.041-.184.38-.243.478c-.09.175-.191.368-.331.593l-.215.345-.168.263C1241.276,3935.189,1241.162,3935.356,1241.038,3935.536Z" transform="translate(-1196.714 -3906.858)" fill="#040405"/>
                <path id="Trazado_26095" data-name="Trazado 26095" d="M1382.08,3984.246l-.138.011.179.011C1382.087,3984.26,1382.093,3984.253,1382.08,3984.246Z" transform="translate(-1337.19 -3958.16)" fill="#040405"/>
                <path id="Trazado_26096" data-name="Trazado 26096" d="M1311.389,4074.458a3.262,3.262,0,0,0,.747-.1c-.076.007-.161.033-.282.043S1311.584,4074.429,1311.389,4074.458Z" transform="translate(-1283.683 -4026.497)" fill="#040405"/>
                <path id="Trazado_26097" data-name="Trazado 26097" d="M1279.873,3924.438a2.186,2.186,0,0,0,1.176.531,19.324,19.324,0,0,0,2,.313,3.188,3.188,0,0,0-.977-.008c-.07.041.045.116.125.168a18.24,18.24,0,0,1,2.024.033,7.986,7.986,0,0,0,1.223-.034,7.306,7.306,0,0,0,1.815-.436c.049.036-.275.194-.645.326-.183.071-.379.128-.536.188a1.089,1.089,0,0,0-.319.136,9.684,9.684,0,0,0,2.7-1.035,4.282,4.282,0,0,0,1.432-1.2,11.584,11.584,0,0,0,2.326-2.9,21.686,21.686,0,0,0,1.269-2.566c-.382.953-.391,1.056-.348,1.1s.126.038-.144.758c.192-.5.434-1.144.691-1.879s.537-1.558.857-2.4a20.17,20.17,0,0,1,1.116-2.481,10.863,10.863,0,0,1,1.455-2.091c.417-.11.529-.167.374.212a11.792,11.792,0,0,1,1.3-.929,3.187,3.187,0,0,0,.428-.305,1.7,1.7,0,0,1,.419-.275,3.935,3.935,0,0,1,.532-.207,4.557,4.557,0,0,1,.929-.188,5.731,5.731,0,0,0-1.433.331c.347-.156.624-.251.844-.333.11-.045.2-.073.295-.107s.185-.068.268-.091c.166-.049.315-.108.462-.145a4.632,4.632,0,0,1,.49-.1l-.327-.008-.163,0-.171.013-.342.028c-.057.006-.115.014-.172.024l-.157.028a6.015,6.015,0,0,0-.97.27,7.394,7.394,0,0,0-1.752.937,2.954,2.954,0,0,1,1.122-.789,6.9,6.9,0,0,1,1.023-.4c.168-.046.325-.09.466-.12.112-.022.343-.072.475-.083.458-.074.51-.1.289-.111a3.658,3.658,0,0,0-.5.016l-.279.038c-.079.008-.158.027-.24.043-.66.121-1.359.432-1.177.277-.261.167-.755.436-1.254.789a8.115,8.115,0,0,0-1.338,1.175l-.182.079a7.99,7.99,0,0,0-1.41,1.916c-.336.616-.61,1.228-.962,1.963-.083.122-.106.136-.106.106a20.559,20.559,0,0,1-.665,2.031l.289-.687c-.193.664-.586,1.777-.834,2.469a2.14,2.14,0,0,0-.179.634c.024.042.158-.118.438-.6a16.206,16.206,0,0,1-2.015,3.269,6.864,6.864,0,0,1,.342-1.019c.2-.482.506-1.138.972-2.121l.036-.264c-.4.715-.9,1.727-1.3,2.416s-.633,1.108-.23.756a4.1,4.1,0,0,1-.974,1.329,6.6,6.6,0,0,1-1.867,1.208,9.735,9.735,0,0,1-2.342.674,15.5,15.5,0,0,1-2.284.173c-.095-.069.245-.089.686-.132a7.74,7.74,0,0,0,1.3-.219,6.1,6.1,0,0,1,1.462-.233,6.239,6.239,0,0,0,.915-.382,1.876,1.876,0,0,0,.38-.239c.123-.108.033-.115-.042-.127s-.135-.026.036-.141a13.923,13.923,0,0,0,1.314-.906c.356-.289.432-.346.389-.27a3.331,3.331,0,0,1-.381.43c-.163.165-.318.3-.286.3a.778.778,0,0,0,.207-.128l.24-.183c.092-.082.206-.176.334-.3a9.731,9.731,0,0,0,1.006-1.759,9.915,9.915,0,0,1-1.565,1.841,8.154,8.154,0,0,1-.876.667,7.951,7.951,0,0,1-.921.509,9.04,9.04,0,0,1-5.191.7,7.98,7.98,0,0,1-3.781-1.618l-.318-.273-.181-.178-.076-.09c-.022-.014,0-.03.009-.044l.036-.043.065-.078.191-.246.344-.443.641-.811c3.593-4.83,7.289-9.591,10.943-14.39q2.74-3.6,5.432-7.24a39.438,39.438,0,0,0,4.729-7.821c.175-.451.338-.866.469-1.257s.248-.752.328-1.094.162-.654.219-.948l.124-.824a6.466,6.466,0,0,0,.049-.721,6.152,6.152,0,0,0,0-.643c-.019-.205-.042-.4-.071-.593a3.452,3.452,0,0,0-.117-.567c0,.2-.031.49-.044.806-.01.158-.014.322-.029.482l-.061.46c-.067.577-.175.946-.162.552a2.72,2.72,0,0,1,0,.5,5.506,5.506,0,0,1-.11.828,10.107,10.107,0,0,1-.27,1.1l-.2.632c-.076.218-.168.439-.258.67-.1.07.06-.355.2-.747s.252-.75.158-.512l-.125.355a2.141,2.141,0,0,1,.056-.43c.041-.183.1-.412.172-.708a36.783,36.783,0,0,1-1.636,3.838c-.661,1.346-1.365,2.587-1.69,3.313-.556.711-.424.429-.107-.135.153-.285.359-.636.538-.976s.343-.66.437-.87a80.485,80.485,0,0,1-4.877,6.889c-1.6,2.124-3.223,4.248-5.179,6.78.117.221-.282.6-.7,1.4l-.4.38c.2-.192-.22.609.585-.358-2.381,2.8-2.423,3.635-3.881,5.7l.012-.212c-1.251,1.663-1.62,2.152-2.66,3.623-2.191,2.52,1.74-2.353.961-1.8l-.54.786a13.7,13.7,0,0,1,1.037-2c-1.794,2.658-2.851,3.6-4.811,6.479a41.881,41.881,0,0,1,2.443-3.665,31.269,31.269,0,0,1-2.064,2.676l-.01.288c-1.221,1.678.041-.311-.448.17l-.481.664c-.235.322-.428.6-.586.834l-.029.044c0,.014.022.027.032.039l.074.076.14.141.247.244c.077.073.143.138.211.193s.131.108.162.128c.31.22.408.192.477.163s.121-.078.366.028S1278.943,3924.021,1279.873,3924.438Z" transform="translate(-1257.271 -3882.734)" fill="#040405"/>
                <path id="Trazado_26098" data-name="Trazado 26098" d="M1341.24,4048.269c.172-.243.32-.476.454-.7s.258-.431.367-.634c-.131.225-.27.446-.407.668S1341.381,4048.05,1341.24,4048.269Z" transform="translate(-1306.321 -4005.703)" fill="#040405"/>
                <path id="Trazado_26099" data-name="Trazado 26099" d="M1361.083,4016.653a.867.867,0,0,1,.054-.186C1361.051,4016.618,1361.028,4016.687,1361.083,4016.653Z" transform="translate(-1321.348 -3982.595)" fill="#040405"/>
                <path id="Trazado_26100" data-name="Trazado 26100" d="M1361.7,4011.972c.2-.155-.153.358-.3.744C1361.708,4012.162,1362.624,4010.826,1361.7,4011.972Z" transform="translate(-1321.609 -3978.845)" fill="#040405"/>
                <path id="Trazado_26101" data-name="Trazado 26101" d="M1372.2,3878.673c.238-.171,1.346-.778,1.051-.676l-.821.44c-.274.146-.548.289-.81.457C1371.811,3878.815,1372,3878.736,1372.2,3878.673Z" transform="translate(-1329.361 -3877.572)" fill="#040405"/>
                <path id="Trazado_26102" data-name="Trazado 26102" d="M1353.184,3888.192l-.764.5c-.251.172-.5.355-.744.533l-.413.461c-.135.156-.264.319-.4.478l.778-.666c.167-.149.263-.248.358-.346s.191-.2.359-.347S1352.785,3888.476,1353.184,3888.192Z" transform="translate(-1313.622 -3885.313)" fill="#040405"/>
                <path id="Trazado_26103" data-name="Trazado 26103" d="M1343.554,3900.2l.272-.321C1343.557,3900.152,1343.508,3900.219,1343.554,3900.2Z" transform="translate(-1308.065 -3894.173)" fill="#040405"/>
                <path id="Trazado_26104" data-name="Trazado 26104" d="M1341.815,3898.3c-.142.2-.274.4-.406.611.266-.3.55-.575.829-.858s.558-.569.853-.836l-.359.283-.348.3c-.048-.034-.5.346-.578.384-.2.228-.385.467-.572.706A4.992,4.992,0,0,1,1341.815,3898.3Z" transform="translate(-1306.316 -3892.157)" fill="#040405"/>
                <path id="Trazado_26105" data-name="Trazado 26105" d="M1337.612,3907.347c.049-.027.109-.069.148-.084C1337.759,3907.236,1337.7,3907.272,1337.612,3907.347Z" transform="translate(-1303.57 -3899.769)" fill="#040405"/>
                <path id="Trazado_26106" data-name="Trazado 26106" d="M1323.126,3910.878c.345-.325-.2.479-.235.625a16.392,16.392,0,0,0,1.154-1.457,8.385,8.385,0,0,1,1.089-1.292c-1.574,1.935.663-.613,1.314-1.116a5.631,5.631,0,0,0-.907.671c-.2.17-.417.386-.671.637s-.541.541-.851.89l-.056.22C1323.321,3910.81,1323.607,3910.371,1323.126,3910.878Z" transform="translate(-1292.406 -3900.061)" fill="#040405"/>
                <path id="Trazado_26107" data-name="Trazado 26107" d="M1298.894,3934.848l.735-1.293c.2-.166,1.589-2.072,1.648-1.886.479-.678.5-.828.875-1.392a6.847,6.847,0,0,0,1.19-1.492l-1.878,2.265c-.357.431-.671.82-1.583,2.044a4.182,4.182,0,0,1,.468-.686l-1.233,1.575C1299.164,3934.243,1297.684,3936.358,1298.894,3934.848Z" transform="translate(-1273.845 -3916.098)" fill="#040405"/>
                <path id="Trazado_26108" data-name="Trazado 26108" d="M1289.575,3958.1c.915-1.311,1.3-2.112.768-1.524l-1.867,2.843C1289.054,3958.608,1289.742,3957.6,1289.575,3958.1Z" transform="translate(-1266.306 -3937.023)" fill="#040405"/>
                <path id="Trazado_26109" data-name="Trazado 26109" d="M1281.948,3971.441a10.824,10.824,0,0,0-1.72,2.172C1281.3,3972.136,1280.977,3972.963,1281.948,3971.441Z" transform="translate(-1260.05 -3948.448)" fill="#040405"/>
                <path id="Trazado_26110" data-name="Trazado 26110" d="M1256.355,3990.315c.378-.362.766-.717,1.138-1.087s.746-.739,1.1-1.123c.541-.3-.957,1.171-1.586,1.908a16.757,16.757,0,0,0,2.494-2.939c.251-.291.549-.68.848-1.089l.846-1.215a23.72,23.72,0,0,1-1.516,1.9c-.419.482-.785.831-1.116,1.168s-.651.644-1,1.029S1256.835,3989.7,1256.355,3990.315Z" transform="translate(-1241.945 -3958.556)" fill="#040405"/>
                <path id="Trazado_26111" data-name="Trazado 26111" d="M1272.061,3987.848l.163-.334c-.3.408-.6.813-.908,1.211C1271.567,3988.435,1271.819,3988.146,1272.061,3987.848Z" transform="translate(-1253.292 -3960.637)" fill="#040405"/>
                <path id="Trazado_26112" data-name="Trazado 26112" d="M1222.289,3994.434a7.494,7.494,0,0,1-.975-.875,8.75,8.75,0,0,1-.85-1.021,4.737,4.737,0,0,1-.993-2.657c.025.218.027.068.113.482a6.109,6.109,0,0,1-.029-1.737l.066-.073c-.075.043-.073-.393.03-.937a11.75,11.75,0,0,1,.439-1.571,4.977,4.977,0,0,0-.266.517,2.546,2.546,0,0,0-.139.356,1.614,1.614,0,0,0-.086.411,6.177,6.177,0,0,1-.268,1.174c0-.2-.016-.377-.011-.55a3.025,3.025,0,0,1,.033-.541,6.371,6.371,0,0,0-.118.7c-.013.2-.019.355-.022.493a6.345,6.345,0,0,0,.068.726c0,.6.021.816.005.89s-.057.011-.078.061a2.57,2.57,0,0,0,.12.443,2.237,2.237,0,0,0,.139.343,6.031,6.031,0,0,0,.3.561,18.65,18.65,0,0,0,1.06,1.635c.374.534.222.42.145.382-.034-.022-.051-.02.047.083a4.688,4.688,0,0,0,.759.653c-.1-.1-.139-.16-.138-.181s.037,0,.111.049a4.472,4.472,0,0,0,.779.465,1.963,1.963,0,0,0,1.226.16,1.531,1.531,0,0,0,.513-.228,1.744,1.744,0,0,0,.315-.285c1.339-1.021,2.234-1.678,2.024-1.371-.145-.1.859-1.2,1.72-2.143-.312.359-.64.7-.969,1.045l-.492.517-.51.5c-.287.16-.569.324-.857.479-.286.267-.557.512-.821.744-.13.112-.267.238-.386.331a1.594,1.594,0,0,1-.392.219,1.457,1.457,0,0,1-.432.094.949.949,0,0,1-.226-.009,1.934,1.934,0,0,1-.229-.028,2.87,2.87,0,0,1-.912-.4Z" transform="translate(-1213.773 -3959.524)" fill="#040405"/>
                <path id="Trazado_26113" data-name="Trazado 26113" d="M1219.8,3989.763a5.853,5.853,0,0,1,.164-.619A2.66,2.66,0,0,0,1219.8,3989.763Z" transform="translate(-1214.225 -3961.874)" fill="#040405"/>
                <path id="Trazado_26114" data-name="Trazado 26114" d="M1249.96,4013.684l-.481.481.395-.271Z" transform="translate(-1236.73 -3980.485)" fill="#040405"/>
                <path id="Trazado_26115" data-name="Trazado 26115" d="M1221.007,3984.436c-.171.354-.153.513,0,.153.057-.193.106-.393.174-.583C1221.119,3984.146,1221.064,3984.292,1221.007,3984.436Z" transform="translate(-1215.045 -3957.977)" fill="#040405"/>
                <path id="Trazado_26116" data-name="Trazado 26116" d="M1225.343,3975.786c.206-.247.417-.488.635-.721.087-.179.184-.352.276-.529Q1225.773,3975.14,1225.343,3975.786Z" transform="translate(-1218.426 -3950.796)" fill="#040405"/>
                <path id="Trazado_26117" data-name="Trazado 26117" d="M1201.51,3986.064c.514-1.112.379-1.048.37-1.281-.431.859-.38.894-.324.843S1201.716,3985.463,1201.51,3986.064Z" transform="translate(-1200.351 -3958.566)" fill="#040405"/>
                <path id="Trazado_26118" data-name="Trazado 26118" d="M1251.02,4052.027c-1.147-.783-2.287-1.331-3.454-2.055A32.187,32.187,0,0,0,1251.02,4052.027Z" transform="translate(-1235.28 -4008.005)" fill="#040405"/>
                <path id="Trazado_26119" data-name="Trazado 26119" d="M1296.577,4073.176c-.32-.007-.766-.06-.079.075a10.336,10.336,0,0,1-1.3-.023c.93.292,1.3.253,1.409.2S1296.6,4073.235,1296.577,4073.176Z" transform="translate(-1271.405 -4025.591)" fill="#040405"/>
                <path id="Trazado_26120" data-name="Trazado 26120" d="M1333.97,4051.854c-.158.266-.328.521-.492.783l-.523.758c.2-.249.394-.5.585-.751a8.422,8.422,0,0,1-.76,1.322C1333.641,4052.886,1334.273,4051.72,1333.97,4051.854Z" transform="translate(-1299.905 -4009.425)" fill="#040405"/>
                <path id="Trazado_26121" data-name="Trazado 26121" d="M1328.124,4064.186c.146-.145.318-.3.483-.478A1.548,1.548,0,0,0,1328.124,4064.186Z" transform="translate(-1296.374 -4018.423)" fill="#040405"/>
                <path id="Trazado_26122" data-name="Trazado 26122" d="M1330.627,4060.833l.138-.207c-.2.269-.435.5-.642.745A2.606,2.606,0,0,0,1330.627,4060.833Z" transform="translate(-1297.89 -4016.086)" fill="#040405"/>
                <path id="Trazado_26123" data-name="Trazado 26123" d="M1341.255,4038.333c.56-.929,1.062-1.876,1.6-2.855l-.651,1.075a2.484,2.484,0,0,1-.424.819A3.92,3.92,0,0,0,1341.255,4038.333Z" transform="translate(-1306.333 -3997.013)" fill="#040405"/>
                <path id="Trazado_26124" data-name="Trazado 26124" d="M1366.676,3987.894a2.23,2.23,0,0,0,.294-.2l.056-.09.027-.045c.01-.01,0-.009-.011-.01l-.027,0-.218-.008a1.925,1.925,0,0,0-.431.045c-.034.006-.066.017-.1.025-.053.013-.124.027-.185.043-.124.039-.25.069-.371.115a5.86,5.86,0,0,0-.7.3,19.5,19.5,0,0,0-2.1,1.364c.35-.263.075.047-.056.23-.065.093-.1.151-.013.084s.286-.263.738-.616a5.256,5.256,0,0,1,2.036-1.25,3.463,3.463,0,0,1,.356-.1c.06-.015.12-.033.18-.044l.15-.028a1.517,1.517,0,0,1,.274-.026c.044,0,.087.006.128.009l.06.006.028,0c.009,0,.024,0,.012.011Z" transform="translate(-1322.663 -3960.657)" fill="#040405"/>
                <path id="Trazado_26125" data-name="Trazado 26125" d="M1356.135,3998.928c.169-.292-.162.079-.35.277-.445.589-.772,1.333-.519,1.017C1355.41,3999.6,1355.782,3999.606,1356.135,3998.928Z" transform="translate(-1316.891 -3969.213)" fill="#040405"/>
                <path id="Trazado_26126" data-name="Trazado 26126" d="M1338.283,4032.107c.325-.534.713-1.306.249-.536a13.789,13.789,0,0,0-.722,1.339,2.936,2.936,0,0,1-.367.766,5.947,5.947,0,0,0,1.072-1.613C1338.665,4031.7,1338.619,4031.622,1338.283,4032.107Z" transform="translate(-1303.441 -3993.804)" fill="#040405"/>
                <path id="Trazado_26127" data-name="Trazado 26127" d="M1289.218,4045.15a.7.7,0,0,0,.249.213,3.368,3.368,0,0,0,.489.257,5.412,5.412,0,0,0,.542.2c.168.047.307.082.385.095-.106-.028-.234-.067-.375-.113s-.288-.113-.441-.177A6.08,6.08,0,0,1,1289.218,4045.15Z" transform="translate(-1266.868 -4004.348)" fill="#040405"/>
                <path id="Trazado_26128" data-name="Trazado 26128" d="M1285.843,4048.331c.149.1.3.2.45.29.221.035.433.076.652.094A8.862,8.862,0,0,1,1285.843,4048.331Z" transform="translate(-1264.309 -4006.761)" fill="#040405"/>
                <path id="Trazado_26129" data-name="Trazado 26129" d="M1298.027,4007.775l.751-1.187-1.249,1.664Z" transform="translate(-1273.171 -3975.104)" fill="#040405"/>
                <path id="Trazado_26130" data-name="Trazado 26130" d="M1305.012,4000.065l1.114-1.462-.434.48A8.233,8.233,0,0,0,1305.012,4000.065Z" transform="translate(-1278.846 -3969.048)" fill="#040405"/>
                <path id="Trazado_26131" data-name="Trazado 26131" d="M1314.823,3986.5a2.184,2.184,0,0,1-.335.385l-.951,1.371Z" transform="translate(-1285.312 -3959.871)" fill="#040405"/>
                <path id="Trazado_26132" data-name="Trazado 26132" d="M1379.864,3878.112c.078.211.071-.116.043-.563s-.157-1-.177-1.269c-.024-.049-.035.215-.01.584.01.185.039.4.061.612A4.472,4.472,0,0,0,1379.864,3878.112Z" transform="translate(-1335.494 -3876.275)" fill="#040405"/>
              </g>
            </g>
          </g>
        </g>
      </g>
    </g>
    <g id="Grupo_1333" data-name="Grupo 1333" transform="translate(1131.565 3899.346)">
      <path id="Trazado_26133" data-name="Trazado 26133" d="M1148.675,4072.662a5.235,5.235,0,0,1-1.813-6.265c.954-2.305,2.789-4.107,4.426-5.99a125.556,125.556,0,0,0,9.976-13.49c1.207-1.845,2.2-3.708,4.008-4.969a5.815,5.815,0,0,1,5.954-.85,4.832,4.832,0,0,1,2.588,4.877,9.463,9.463,0,0,1-1.958,3.977l-12.97,18.325a16.683,16.683,0,0,1-4.517,4.852A4.783,4.783,0,0,1,1148.675,4072.662Z" transform="translate(-1142.859 -4037.224)" fill="#895c34" stroke="#040405" stroke-miterlimit="10" stroke-width="1"/>
      <g id="Grupo_1332" data-name="Grupo 1332" transform="translate(0 0)">
        <path id="Trazado_26134" data-name="Trazado 26134" d="M1159.977,4031.464a4.733,4.733,0,0,1,4.716,5.369,9.462,9.462,0,0,1-1.958,3.977l-12.97,18.325a16.68,16.68,0,0,1-4.517,4.852,4.656,4.656,0,0,1-2.468.733,5.319,5.319,0,0,1-3.226-1.2,5.235,5.235,0,0,1-1.813-6.265c.954-2.305,2.789-4.107,4.426-5.989a125.555,125.555,0,0,0,9.976-13.49c1.207-1.844,2.2-3.707,4.008-4.969a6.8,6.8,0,0,1,3.826-1.342m0-2.912h0a9.66,9.66,0,0,0-5.494,1.866,15.977,15.977,0,0,0-4.237,4.921c-.177.279-.356.561-.54.842a121.291,121.291,0,0,1-9.736,13.174c-.268.308-.541.613-.814.919a21.065,21.065,0,0,0-4.106,5.868,8.512,8.512,0,0,0,7.73,11.49,7.524,7.524,0,0,0,4-1.167,19.356,19.356,0,0,0,5.365-5.647l6.485-9.162,6.485-9.163a12.115,12.115,0,0,0,2.464-5.254,7.645,7.645,0,0,0-7.6-8.687Z" transform="translate(-1133.739 -4028.082)" fill="#161615"/>
        <g id="Grupo_1331" data-name="Grupo 1331">
          <path id="Trazado_26135" data-name="Trazado 26135" d="M1159.977,4031.464a4.733,4.733,0,0,1,4.716,5.369,9.462,9.462,0,0,1-1.958,3.977l-12.97,18.325a16.68,16.68,0,0,1-4.517,4.852,4.656,4.656,0,0,1-2.468.733,5.319,5.319,0,0,1-3.226-1.2,5.235,5.235,0,0,1-1.813-6.265c.954-2.305,2.789-4.107,4.426-5.989a125.555,125.555,0,0,0,9.976-13.49c1.207-1.844,2.2-3.707,4.008-4.969a6.8,6.8,0,0,1,3.826-1.342m0-2.912h0a9.66,9.66,0,0,0-5.494,1.866,15.977,15.977,0,0,0-4.237,4.921c-.177.279-.356.561-.54.842a121.291,121.291,0,0,1-9.736,13.174c-.268.308-.541.613-.814.919a21.065,21.065,0,0,0-4.106,5.868,8.512,8.512,0,0,0,7.73,11.49,7.524,7.524,0,0,0,4-1.167,19.356,19.356,0,0,0,5.365-5.647l6.485-9.162,6.485-9.163a12.115,12.115,0,0,0,2.464-5.254,7.645,7.645,0,0,0-7.6-8.687Z" transform="translate(-1133.739 -4028.082)" fill="none"/>
          <g id="Grupo_1327" data-name="Grupo 1327">
            <g id="Grupo_1326" data-name="Grupo 1326">
              <g id="Grupo_1325" data-name="Grupo 1325">
                <path id="Trazado_26136" data-name="Trazado 26136" d="M1153.773,4184.4c-.079-.019-.2-.064-.259-.076A.433.433,0,0,0,1153.773,4184.4Z" transform="translate(-1148.211 -4146.22)" fill="#040405"/>
                <path id="Trazado_26137" data-name="Trazado 26137" d="M1221.211,4140.6l.061-.1-.046.039Z" transform="translate(-1199.552 -4112.989)" fill="#040405"/>
                <path id="Trazado_26138" data-name="Trazado 26138" d="M1221.1,4140.028l.054-.205C1221,4140.085,1221.031,4140.084,1221.1,4140.028Z" transform="translate(-1199.425 -4112.469)" fill="#040405"/>
                <path id="Trazado_26139" data-name="Trazado 26139" d="M1145.193,4180.711c-.171-.112-.333-.232-.5-.331A4.9,4.9,0,0,0,1145.193,4180.711Z" transform="translate(-1141.524 -4143.228)" fill="#040405"/>
                <path id="Trazado_26140" data-name="Trazado 26140" d="M1153.668,4187.926a.385.385,0,0,0,.115.1A.987.987,0,0,0,1153.668,4187.926Z" transform="translate(-1148.328 -4148.95)" fill="#040405"/>
                <path id="Trazado_26141" data-name="Trazado 26141" d="M1156.894,4119.14l-.037.083A.185.185,0,0,0,1156.894,4119.14Z" transform="translate(-1150.746 -4096.783)" fill="#040405"/>
                <path id="Trazado_26142" data-name="Trazado 26142" d="M1160.812,4113.1c.088-.094.16-.18.229-.268v-.026A1.627,1.627,0,0,0,1160.812,4113.1Z" transform="translate(-1153.746 -4091.983)" fill="#040405"/>
                <path id="Trazado_26143" data-name="Trazado 26143" d="M1158.859,4114.922l.2-.243C1158.981,4114.765,1158.917,4114.845,1158.859,4114.922Z" transform="translate(-1152.265 -4093.4)" fill="#040405"/>
                <path id="Trazado_26144" data-name="Trazado 26144" d="M1181.575,4080.153l-.034-.082C1181.542,4080.125,1181.555,4080.148,1181.575,4080.153Z" transform="translate(-1169.466 -4067.154)" fill="#040405"/>
                <path id="Trazado_26145" data-name="Trazado 26145" d="M1156.25,4119.721a1.957,1.957,0,0,0,.121-.235C1156.3,4119.6,1156.152,4119.776,1156.25,4119.721Z" transform="translate(-1150.261 -4097.045)" fill="#040405"/>
                <path id="Trazado_26146" data-name="Trazado 26146" d="M1154.643,4184.6a.248.248,0,0,1-.057.008C1154.637,4184.626,1154.668,4184.63,1154.643,4184.6Z" transform="translate(-1149.024 -4146.431)" fill="#040405"/>
                <path id="Trazado_26147" data-name="Trazado 26147" d="M1142.55,4177.485l.018.023C1142.657,4177.6,1142.625,4177.564,1142.55,4177.485Z" transform="translate(-1139.896 -4141.031)" fill="#040405"/>
                <path id="Trazado_26148" data-name="Trazado 26148" d="M1241,4111.013c.115-.176.232-.351.342-.529C1241.047,4110.863,1240.975,4110.993,1241,4111.013Z" transform="translate(-1214.557 -4090.219)" fill="#040405"/>
                <path id="Trazado_26149" data-name="Trazado 26149" d="M1134.989,4117.446c-.153.034-.053-.133.059-.317s.245-.378.139-.415c-.187.367-.311.645-.507.749.062-.356.455-.712.392-.951-.092.188-.19.37-.275.56-.287.29-.125-.254-.308.071a2.91,2.91,0,0,1-.514,1.048,4.6,4.6,0,0,0-.578,1.075l.05-.208-.212.407c-.069.137-.122.281-.183.423-.008.008-.009,0-.014,0a.2.2,0,0,0,.034.052,3.4,3.4,0,0,0-.452,1.786,1.888,1.888,0,0,1,.063.516c.033.248.043.556.094.861.026.153.052.306.076.452s.07.281.1.4.068.232.1.32a.966.966,0,0,0,.1.188,2.007,2.007,0,0,1-.152-.444,2.914,2.914,0,0,1-.086-.522l.18.03c.153.689-.149.08.109.717.1-.09.044-.324-.048-.6-.047-.138-.082-.292-.122-.439a1.708,1.708,0,0,1-.071-.417,5.591,5.591,0,0,1,.224.708c-.174-.975-.063-1.895-.205-2.6.1-.272.169-.122.166.085a1.012,1.012,0,0,1,.1-.59,1.037,1.037,0,0,0,.135-.5.6.6,0,0,1,.024.339c-.016.154-.032.346-.063.547a3.875,3.875,0,0,0-.015,1.155,2.731,2.731,0,0,0-.053.341c0,.117,0,.239,0,.363a4.056,4.056,0,0,0,.1.759c.051.255.145.5.217.752.1.239.182.48.284.7-.147.108-.5-.523-.46-.113.26.979.477.892.814,1.336.162.313.115.365.1.459a.36.36,0,0,0,.038.209,3.228,3.228,0,0,0,.31.483c-.161-.162-.333-.321-.49-.493a.866.866,0,0,0,.338.542,1.3,1.3,0,0,1,.4.337,1.616,1.616,0,0,0-.082-.216,4.564,4.564,0,0,0-.3-.431c.037-.1.309.238.461.378l-.082-.1a1.878,1.878,0,0,1,.332.151,1.167,1.167,0,0,1,.2.169,4.079,4.079,0,0,1,.29.3c-.2-.1-.124.01.021.174s.373.35.418.435l-.16-.1a10.576,10.576,0,0,0,1.143.778l-.041.013a5.739,5.739,0,0,1,1.049.364c-.078.042-.767-.1-.192.154a2.573,2.573,0,0,1-1.213-.62c.456.346.63.642.013.268.1.217.6.317.913.537-.042-.067.086-.049.079-.1-.031.081.282.243.62.346a1.354,1.354,0,0,0,.719.086c-.229-.04-.459-.088-.687-.146,0-.073.214-.055.391-.04s.329.013.213-.068a1.811,1.811,0,0,0,1.01.317,4.672,4.672,0,0,1,1.076.149c-.08-.04-.158-.085-.236-.128a4.556,4.556,0,0,0,1.921-.195,9.483,9.483,0,0,0,1.756-.78,3.8,3.8,0,0,0-.416.377,1.512,1.512,0,0,1-.758.325c.63-.169.736-.172.748-.1s-.088.191.13.17c.51-.165.6-.292.61-.378s-.077-.153.045-.261c-.2.124-.411.244-.626.35.371-.3.949-.6,1.563-1a6.928,6.928,0,0,0,1.693-1.443c.125-.023-.176.237-.3.384.566-.336.43-.452.656-.767.472-.46,1.03-1.037.9-.609.5-.537-.13-.007.076-.344l.117-.08c.113-.241.218-.484.323-.728a6.4,6.4,0,0,1,1.257-1.17c.831-1.231-.026-.652.547-1.574.425-.443.043.173.064.259l.539-.793c-.038.393-.563.967-.344,1.05a14.767,14.767,0,0,1,1.07-1.888l-.055.043a12.331,12.331,0,0,1,1.213-1.848,8.338,8.338,0,0,1-.7,1.23,11.188,11.188,0,0,0,1.619-2.637c.258-.309.827-.97.557-.443.852-1.146.107-.655.868-1.625l.1.129c.961-.974,1.373-2.286,2.277-3.213l-.108-.173c.224-.179.582-.62.7-.665l-.326.571c.446-.355.25-.613.73-1.1-.05-.028-.476.352-.528.315-1.493,2.3-3.281,4.355-4.725,6.725.079-.071.172-.158.161-.08-.211.22-.493.7-.525.574l.046-.088a15.375,15.375,0,0,1-1.2,1.369c-.059.3-.907,1.189-.542,1.053l-.389.309c-.025.177.108.174-.028.438-.3.4-.379.354-.2,0-.583.747-1.191,1.592-1.793,2.429s-1.227,1.654-1.857,2.366c.094-.145.179-.3.267-.443-.328.314-1.023,1.312-.929.851a7.554,7.554,0,0,1-1.185,1.056c-.41.308-.744.538-.7.675a8.516,8.516,0,0,0-1.371.515,7.294,7.294,0,0,1-1.851.5c.116.106-.139.152-.467.158s-.721-.032-.9,0c-.076-.1.19-.113.473-.138s.586-.067.593-.13a4.152,4.152,0,0,1-2.254-.221,5.448,5.448,0,0,0-1.711-.508c-.127-.095-.119-.111-.063-.1a5.11,5.11,0,0,1-.643-.528c-.169-.021.255.324-.253,0-.371-.3-.073-.243-.188-.41a5.106,5.106,0,0,1-.6-.437l-.3-.252-.276-.264c-.186-.164-.334-.331-.463-.449a.8.8,0,0,0-.291-.2c-.1-.262-.162-.555.026-.321a4,4,0,0,1-.689-1.231c-.067-.161-.11-.331-.177-.542s-.14-.469-.248-.819a.786.786,0,0,0,.184.377.55.55,0,0,1,.085.168,2.084,2.084,0,0,1,.106.372,2.35,2.35,0,0,0-.068-.6c-.024-.122-.055-.252-.091-.389l-.083-.437a4.545,4.545,0,0,1-.018-1.856,3.942,3.942,0,0,1-.1-.479c.042-.35.13-.521.183-.545s.068.1.051.337l.245-.744c.088-.218.151-.42.224-.615a9.7,9.7,0,0,1,.518-1.16c.044-.038.053.015-.026.147.21-.388.438-.77.687-1.139.034-.137.245-.582.1-.563C1135.544,4116.6,1135.422,4116.856,1134.989,4117.446Z" transform="translate(-1132.365 -4090.884)" fill="#040405"/>
                <path id="Trazado_26150" data-name="Trazado 26150" d="M1144.706,4132.107l0-.041-.03.044A.055.055,0,0,1,1144.706,4132.107Z" transform="translate(-1141.511 -4106.586)" fill="#040405"/>
                <path id="Trazado_26151" data-name="Trazado 26151" d="M1142.383,4178.906a1.985,1.985,0,0,0-.179-.312A1.414,1.414,0,0,0,1142.383,4178.906Z" transform="translate(-1139.634 -4141.873)" fill="#040405"/>
                <path id="Trazado_26152" data-name="Trazado 26152" d="M1152.163,4043.757c-.31-.011-.468.7-.889,1.148.315-.484.107-.458,0-.444-.164.768-.575.658-1.326,1.738-.1-.044.272-.556.222-.688-.372.624-1.027,1.517-.986,1.759-.768.958-1.38,1.583-1.841,2.161.521-.722-.032-.243.265-.842-.205.413-.587,1.042-1.014,1.707s-.887,1.375-1.208,1.961c-.258-.009-.314.023-.35-.222-.53.527-.557.647-.574.759s-.026.219-.467.768c.136-.17.278-.334.419-.5a1.178,1.178,0,0,0-.225.955c.3-.445.627-.878.965-1.3.094.1-.547.87-.689,1.139-.072.243.078.085.248-.1s.367-.4.366-.293a5.609,5.609,0,0,1,.713-1.062l.1-.006a17.573,17.573,0,0,0,1.165-1.482c.057-.032.076-.03.077-.012a3.15,3.15,0,0,1,.447-.835l-.208.25c.263-.563,1.121-1.759.351-1.15q.562-.619,1.114-1.248a1.834,1.834,0,0,1-.556,1.48l-.01.141c.559-.485,1.2-1.68.764-1.418.1-.86,1.594-2.013,2.177-3.12.155.008-.215.582-.327.874-.215.3-.376.514-.479.472-.928,1.293.525,0-.622,1.369-.6.642.512-.965-.315.032l-.308.943c.507-.627.914-1.233,1.28-1.767,1.018-1.483,1.914-2.719,2.567-3.581s1.054-1.353,1.054-1.353c1.5-2.163,2.954-4.356,4.339-6.584a16.973,16.973,0,0,1,2.323-3.012,10.742,10.742,0,0,1,3.071-2.119,13.991,13.991,0,0,1,1.611-.63,3.791,3.791,0,0,0,.973-.477,3.711,3.711,0,0,0-.752.051c-.249.031-.415.054-.263-.047a6.539,6.539,0,0,1-1.513.687c-.065-.043.109-.131.275-.2s.323-.111.214-.088l-.156.047a.794.794,0,0,1,.44-.271,4.863,4.863,0,0,0-1.754.605,4.005,4.005,0,0,0-1.275,1.041c-.714.36.307-.489.62-.776a10.8,10.8,0,0,0-2.919,2.4,25.112,25.112,0,0,0-2.181,3.063c.168.16-.03.314-.107.722l-.2.153c.1-.078.021.334.356-.1-1.02,1.24-.789,1.75-1.321,2.719l-.056-.13c-.49.763-.64.984-1.033,1.667-1.01,1.067.7-1.07.229-.905l-.2.369a3.287,3.287,0,0,1,.222-1.016c-.629,1.254-1.187,1.6-1.941,2.917a9.228,9.228,0,0,1,.894-1.7c-.3.411-.748,1.212-.873,1.176l.075.179c-.5.746-.056-.186-.311-.007C1151.646,4043.448,1153.142,4042.253,1152.163,4043.757Z" transform="translate(-1140.995 -4028.538)" fill="#040405"/>
                <path id="Trazado_26153" data-name="Trazado 26153" d="M1135.132,4162.27a6.639,6.639,0,0,0-.162-.662C1135.011,4161.831,1135.071,4162.051,1135.132,4162.27Z" transform="translate(-1134.147 -4128.991)" fill="#040405"/>
                <path id="Trazado_26154" data-name="Trazado 26154" d="M1134.229,4146.362a.291.291,0,0,1-.036-.1C1134.187,4146.346,1134.2,4146.381,1134.229,4146.362Z" transform="translate(-1133.557 -4117.355)" fill="#040405"/>
                <path id="Trazado_26155" data-name="Trazado 26155" d="M1133.932,4143.9c.1-.082.019.192.065.395C1134,4144,1134.279,4143.3,1133.932,4143.9Z" transform="translate(-1133.36 -4115.382)" fill="#040405"/>
                <path id="Trazado_26156" data-name="Trazado 26156" d="M1240.674,4026.606c-.141.031-.727.074-.582.116a8.235,8.235,0,0,1,.861-.012C1240.861,4026.674,1240.768,4026.638,1240.674,4026.606Z" transform="translate(-1213.854 -4026.606)" fill="#040405"/>
                <path id="Trazado_26157" data-name="Trazado 26157" d="M1249.472,4028.583a7.957,7.957,0,0,1,.763.333c.2,0,.4.01.6.024a1.641,1.641,0,0,0-.678-.21A2.631,2.631,0,0,1,1249.472,4028.583Z" transform="translate(-1220.985 -4028.105)" fill="#040405"/>
                <path id="Trazado_26158" data-name="Trazado 26158" d="M1257.39,4032.887l-.185-.056C1257.361,4032.9,1257.4,4032.911,1257.39,4032.887Z" transform="translate(-1226.849 -4031.327)" fill="#040405"/>
                <path id="Trazado_26159" data-name="Trazado 26159" d="M1256.313,4031.478c.12.016.246.026.365.05a8.047,8.047,0,0,0-1-.476l.351.227c-.024.052.186.216.2.259.132.044.274.077.4.134A2.282,2.282,0,0,1,1256.313,4031.478Z" transform="translate(-1225.692 -4029.978)" fill="#040405"/>
                <path id="Trazado_26160" data-name="Trazado 26160" d="M1261.3,4034.808c-.007-.029-.023-.061-.026-.085C1261.253,4034.734,1261.269,4034.761,1261.3,4034.808Z" transform="translate(-1229.928 -4032.762)" fill="#040405"/>
                <path id="Trazado_26161" data-name="Trazado 26161" d="M1262.555,4036.8c-.068-.2.245.094.337.11a1.906,1.906,0,0,0-.53-.638,2.622,2.622,0,0,1-.239-.211,2.312,2.312,0,0,1-.288-.32c.848.722-.187-.368-.428-.665a4.712,4.712,0,0,0,.794,1.245l.134.006C1262.61,4036.664,1262.415,4036.526,1262.555,4036.8Z" transform="translate(-1230.036 -4033.029)" fill="#040405"/>
                <path id="Trazado_26162" data-name="Trazado 26162" d="M1269.967,4048.408l-.1-.324c-.034-.107-.079-.211-.118-.315.08-.123-.149-1.145-.008-1.136a2.97,2.97,0,0,0-.362-.654,1.129,1.129,0,0,0-.323-.789l.185.468c.047.132.075.245.1.34a3.562,3.562,0,0,1,.107.44c.023.122.045.236.083.4s.072.385.12.714a1.093,1.093,0,0,1-.093-.35,8.492,8.492,0,0,1,.061.865c.1.029.165.326.218.514.029.093.04.158.063.146S1269.954,4048.625,1269.967,4048.408Z" transform="translate(-1235.84 -4040.699)" fill="#040405"/>
                <path id="Trazado_26163" data-name="Trazado 26163" d="M1271.391,4061.13a3.689,3.689,0,0,0,.015-.463,1.558,1.558,0,0,0-.057-.3c-.047-.141-.107-.148-.16.019a6.075,6.075,0,0,1,.012.731,3.589,3.589,0,0,1-.02.367c-.01.122-.021.246-.04.367.05-.209.078-.448.116-.6S1271.328,4061.012,1271.391,4061.13Z" transform="translate(-1237.418 -4052.126)" fill="#040405"/>
                <path id="Trazado_26164" data-name="Trazado 26164" d="M1269.922,4068.1a2.468,2.468,0,0,0-.47,1.121,1.47,1.47,0,0,1,.284-.544C1269.807,4068.593,1269.873,4068.5,1269.922,4068.1Z" transform="translate(-1236.137 -4058.077)" fill="#040405"/>
                <path id="Trazado_26165" data-name="Trazado 26165" d="M1261.305,4077.618c.291-.352.58-.706.858-1.071.309-.1-.308.587-.481.978a4.043,4.043,0,0,0,.8-1.483,5.234,5.234,0,0,0,.46-1.162,4.4,4.4,0,0,1-.907,1.494A3.45,3.45,0,0,0,1261.305,4077.618Z" transform="translate(-1229.959 -4063.216)" fill="#040405"/>
                <path id="Trazado_26166" data-name="Trazado 26166" d="M1267.306,4076.517v-.179c-.079.207-.169.41-.26.612C1267.136,4076.809,1267.219,4076.662,1267.306,4076.517Z" transform="translate(-1234.312 -4064.323)" fill="#040405"/>
                <path id="Trazado_26167" data-name="Trazado 26167" d="M1245.767,4087.908c-.669.534-.8,1.363-1.426,2.07.046-.089-.01-.043.08-.219l-.439.661h-.065c.142.043-.285.746-.4,1.1.592-.576.093-.437.639-.924-.046.177-.039.335-.091.5a2.81,2.81,0,0,0,.283-.809c.293-.44.267-.265.334-.266.272-.528.108-.655.666-1.359.435-.4-.037.391.491-.444-.466.268.6-.793.709-1.186.46-.574.849-.885.825-.71-.154-.084.1-.7.379-1.183l-.6,1.1-.411.224a9.535,9.535,0,0,1-1.022,1.54Z" transform="translate(-1216.469 -4070.992)" fill="#040405"/>
                <path id="Trazado_26168" data-name="Trazado 26168" d="M1245.389,4109.789c-.039.078-.072.146-.126.243A.769.769,0,0,0,1245.389,4109.789Z" transform="translate(-1217.793 -4089.691)" fill="#040405"/>
                <path id="Trazado_26169" data-name="Trazado 26169" d="M1259.745,4089.478l-.136.264.167-.133Z" transform="translate(-1228.673 -4074.288)" fill="#040405"/>
                <path id="Trazado_26170" data-name="Trazado 26170" d="M1244.506,4111.767c.1-.131.079-.219-.021-.086l-.069.262Z" transform="translate(-1217.15 -4091.076)" fill="#040405"/>
                <path id="Trazado_26171" data-name="Trazado 26171" d="M1241.305,4114.443l-.334.266-.069.262Z" transform="translate(-1214.485 -4093.221)" fill="#040405"/>
                <path id="Trazado_26172" data-name="Trazado 26172" d="M1201.657,4169.26c.392-.38.245-.429.22-.56C1201.347,4169.338,1201.963,4168.79,1201.657,4169.26Z" transform="translate(-1184.719 -4134.369)" fill="#040405"/>
                <path id="Trazado_26173" data-name="Trazado 26173" d="M1164.111,4191.06a4.726,4.726,0,0,0,1.806.026C1165.359,4191.068,1164.624,4191.079,1164.111,4191.06Z" transform="translate(-1156.248 -4151.327)" fill="#040405"/>
                <path id="Trazado_26174" data-name="Trazado 26174" d="M1145.6,4183.98c.152.068.338.191.081-.046.21.072.427.123.638.174-.344-.3-.5-.368-.593-.335S1145.62,4183.929,1145.6,4183.98Z" transform="translate(-1142.208 -4145.794)" fill="#040405"/>
                <path id="Trazado_26175" data-name="Trazado 26175" d="M1132.7,4165.8a8.3,8.3,0,0,0,.394.819,4.474,4.474,0,0,1-.162-.435,7.4,7.4,0,0,1,.48.586c-.152-.288-.31-.568-.422-.766S1132.769,4165.71,1132.7,4165.8Z" transform="translate(-1132.428 -4132.145)" fill="#040405"/>
                <path id="Trazado_26176" data-name="Trazado 26176" d="M1136.772,4171.865l-.161-.278A.331.331,0,0,0,1136.772,4171.865Z" transform="translate(-1135.392 -4136.558)" fill="#040405"/>
                <path id="Trazado_26177" data-name="Trazado 26177" d="M1135.725,4170.016l-.071-.1c.068.142.158.273.231.4A.6.6,0,0,0,1135.725,4170.016Z" transform="translate(-1134.666 -4135.295)" fill="#040405"/>
                <path id="Trazado_26178" data-name="Trazado 26178" d="M1131.792,4158.234c-.07-.25-.1-.508-.144-.763s-.05-.516-.075-.774l-.008.6c.075.058.086.237.093.433A.74.74,0,0,0,1131.792,4158.234Z" transform="translate(-1131.565 -4125.266)" fill="#040405"/>
                <path id="Trazado_26179" data-name="Trazado 26179" d="M1140.356,4124.356l.208-.044c.543-.755,1.026-1.866,1.573-2.131-.333.25.366-.7-.376.117A22.077,22.077,0,0,1,1140.356,4124.356Z" transform="translate(-1138.232 -4098.922)" fill="#040405"/>
                <path id="Trazado_26180" data-name="Trazado 26180" d="M1149.762,4119.56c-.065.142.1-.005.215-.068.228-.232.414-.543.249-.453C1150.2,4119.371,1149.9,4119.221,1149.762,4119.56Z" transform="translate(-1145.354 -4096.694)" fill="#040405"/>
                <path id="Trazado_26181" data-name="Trazado 26181" d="M1160.425,4105.83c-.167.2-.394.5-.117.228.5-.618.237-.569.412-.941C1160.233,4105.57,1160.043,4106.162,1160.425,4105.83Z" transform="translate(-1153.265 -4086.148)" fill="#040405"/>
                <path id="Trazado_26182" data-name="Trazado 26182" d="M1179,4090.311c-.156,0-.519.522-.574.667A3.935,3.935,0,0,1,1179,4090.311Z" transform="translate(-1167.105 -4074.919)" fill="#040405"/>
                <path id="Trazado_26183" data-name="Trazado 26183" d="M1177.073,4087.218l-.156.163,0,.332Z" transform="translate(-1165.959 -4072.574)" fill="#040405"/>
                <path id="Trazado_26184" data-name="Trazado 26184" d="M1187.771,4069.029l.236-.573-.489.758Z" transform="translate(-1173.999 -4058.345)" fill="#040405"/>
                <path id="Trazado_26185" data-name="Trazado 26185" d="M1190.8,4065.672l.436-.668-.2.2C1190.795,4065.506,1190.948,4065.45,1190.8,4065.672Z" transform="translate(-1176.49 -4055.727)" fill="#040405"/>
                <path id="Trazado_26186" data-name="Trazado 26186" d="M1194.7,4059.455a.431.431,0,0,1-.147.168l-.328.65Z" transform="translate(-1179.085 -4051.519)" fill="#040405"/>
                <path id="Trazado_26187" data-name="Trazado 26187" d="M1237.084,4030.264c-.156.142.517.005.727.042A.784.784,0,0,0,1237.084,4030.264Z" transform="translate(-1211.572 -4029.33)" fill="#040405"/>
              </g>
            </g>
          </g>
          <g id="Grupo_1330" data-name="Grupo 1330" transform="translate(3.14 2.877)">
            <g id="Grupo_1329" data-name="Grupo 1329">
              <g id="Grupo_1328" data-name="Grupo 1328">
                <path id="Trazado_26188" data-name="Trazado 26188" d="M1178.753,4177.124a2.258,2.258,0,0,0,.188-.172A.456.456,0,0,0,1178.753,4177.124Z" transform="translate(-1170.493 -4143.504)" fill="#040405"/>
                <path id="Trazado_26189" data-name="Trazado 26189" d="M1160.023,4127.7l.058-.075-.043.026Z" transform="translate(-1156.288 -4106.092)" fill="#040405"/>
                <path id="Trazado_26190" data-name="Trazado 26190" d="M1159.922,4127.188l.054-.172C1159.832,4127.221,1159.858,4127.227,1159.922,4127.188Z" transform="translate(-1156.172 -4105.633)" fill="#040405"/>
                <path id="Trazado_26191" data-name="Trazado 26191" d="M1183.45,4170.755a2.172,2.172,0,0,0,.3-.384C1183.658,4170.5,1183.552,4170.625,1183.45,4170.755Z" transform="translate(-1174.055 -4138.514)" fill="#040405"/>
                <path id="Trazado_26192" data-name="Trazado 26192" d="M1176.348,4174.958a.3.3,0,0,0-.115.013A.41.41,0,0,0,1176.348,4174.958Z" transform="translate(-1168.581 -4141.991)" fill="#040405"/>
                <path id="Trazado_26193" data-name="Trazado 26193" d="M1222.818,4124.544l-.019.075A.137.137,0,0,0,1222.818,4124.544Z" transform="translate(-1203.897 -4103.758)" fill="#040405"/>
                <path id="Trazado_26194" data-name="Trazado 26194" d="M1225.492,4119.16c.065-.084.118-.161.168-.237l0-.023A1.02,1.02,0,0,0,1225.492,4119.16Z" transform="translate(-1205.939 -4099.478)" fill="#040405"/>
                <path id="Trazado_26195" data-name="Trazado 26195" d="M1223.959,4120.772l.143-.216A2.542,2.542,0,0,0,1223.959,4120.772Z" transform="translate(-1204.776 -4100.734)" fill="#040405"/>
                <path id="Trazado_26196" data-name="Trazado 26196" d="M1240.964,4090.746l-.039-.075C1240.93,4090.719,1240.944,4090.74,1240.964,4090.746Z" transform="translate(-1217.643 -4078.069)" fill="#040405"/>
                <path id="Trazado_26197" data-name="Trazado 26197" d="M1222.419,4125.063a1.4,1.4,0,0,0,.069-.21C1222.439,4124.958,1222.338,4125.113,1222.419,4125.063Z" transform="translate(-1203.585 -4103.993)" fill="#040405"/>
                <path id="Trazado_26198" data-name="Trazado 26198" d="M1178.6,4177.715a.207.207,0,0,1,.024-.051C1178.586,4177.7,1178.566,4177.72,1178.6,4177.715Z" transform="translate(-1170.363 -4144.044)" fill="#040405"/>
                <path id="Trazado_26199" data-name="Trazado 26199" d="M1186.92,4168.633l-.018.016C1186.83,4168.728,1186.86,4168.7,1186.92,4168.633Z" transform="translate(-1176.641 -4137.195)" fill="#040405"/>
                <path id="Trazado_26200" data-name="Trazado 26200" d="M1178.253,4104.627c.1-.142.2-.282.3-.428C1178.29,4104.5,1178.226,4104.605,1178.253,4104.627Z" transform="translate(-1170.109 -4088.329)" fill="#040405"/>
                <path id="Trazado_26201" data-name="Trazado 26201" d="M1160.668,4113.471c-.29.02.376-.548.173-.632-.161.309-.28.541-.468.6.063-.3.422-.575.349-.794l-.24.464c-.267.216-.123-.24-.289.02-.042.5-.939,1.156-1.185,1.57l.08-.155-.524.532c-.009,0-.007-.005-.013,0a.2.2,0,0,0,.019.055,3.659,3.659,0,0,0-1,1.084c-.019.276-1.081,1.613-1.152,1.906a2.982,2.982,0,0,1,.467-.645l.112.142c-.339.468-.152-.064-.391.445.249.061.468-.647.723-.963a2.426,2.426,0,0,1-.247.564,5.9,5.9,0,0,0,1.125-1.84c.176-.16.192-.012.113.142.229-.562.359-.272.547-.757.079.267-.609,1.059-.8,1.543a12.351,12.351,0,0,0-1.49,2.106c-.148-.07.094-.626-.178-.416-.579.588-.432.7-.656,1.126-.429.409-.238-.118-.865.557.1-.154.194-.316.289-.474-.52.238-.27.435-.584.692.135-.051.178-.01.489-.353.1.023-.123.305-.233.436l.08-.074c-.056.215-.01.354-.489.72.092-.178-.012-.115-.158,0a2.432,2.432,0,0,1-.419.281c.034-.039.069-.077.1-.118a7.337,7.337,0,0,1-.894.719v-.041c-.24.219-.266.438-.727.608.027-.08.443-.492-.008-.239.012-.061.145-.151.319-.262s.393-.245.6-.358c-.41.228-.684.2-.225-.105-.2-.024-.4.333-.692.4.063.012,0,.094.037.12-.047-.075-.283.04-.522.156s-.485.246-.482.308a4.448,4.448,0,0,0,.5-.242c.043.06-.089.168-.213.254s-.234.154-.112.167a2.691,2.691,0,0,0-.9.076,1.452,1.452,0,0,1-.909-.085c.061.049.124.1.189.141a10.7,10.7,0,0,1-1.644-.415,5.25,5.25,0,0,1-1.533-.812,1.585,1.585,0,0,0,.482.167,1.817,1.817,0,0,1,.63.349c-.472-.313-.49-.426-.441-.469s.183-.047.084-.193c-.593-.588-.485-.1-.735-.218.158.128.327.241.492.355a2.705,2.705,0,0,1-1.192-1.032,11.657,11.657,0,0,1-.926-1.672c.045-.11.111.227.211.363-.062-.555-.211-.479-.349-.792a2.752,2.752,0,0,1-.057-.429,1.546,1.546,0,0,1,.006-.368c.025-.2.079-.279.18-.116.028-.6-.113.07-.17-.253l.041-.114a5.122,5.122,0,0,1-.148-.673c.039-.134.081-.273.126-.409s.115-.263.175-.381a1.407,1.407,0,0,1,.393-.489,2.724,2.724,0,0,0,.181-.575.337.337,0,0,0-.042-.234c-.062-.108-.145-.178.053-.6.349-.395.061.152.1.23.128-.236.262-.471.406-.7,0,.343-.4.85-.177.92a1.945,1.945,0,0,1,.3-.762c.133-.216.292-.448.5-.853l-.05.033a6.4,6.4,0,0,1,1.1-1.483,7.277,7.277,0,0,1-.641.992,9.351,9.351,0,0,0,1.52-2.082c.246-.227.786-.71.526-.292.81-.867.109-.561.821-1.293l.091.131c.9-.711,1.262-1.817,2.076-2.522l-.106-.167c.2-.129.522-.477.634-.5l-.284.467c.4-.261.213-.513.642-.888-.047-.03-.432.255-.482.216-1.31,1.862-2.95,3.4-4.35,5.23.075-.049.163-.109.151-.042-.2.157-.471.539-.5.418l.044-.071c-.365.48-.894.756-1.123,1.045-.054.259-.811.985-.469.894l-.347.254c-.008.158.118.162.016.393-.241.346-.317.313-.19,0a9.215,9.215,0,0,0-.664,1.088c-.107.193-.192.4-.287.605a6.008,6.008,0,0,0-.227.665,5.121,5.121,0,0,0-.01,2.738,4.587,4.587,0,0,1-.188-.445,1.832,1.832,0,0,0,.076.412c.051.152.1.315.157.448.111.265.167.447-.017.32a10.71,10.71,0,0,0,.74,1.332c.289.4.578.663.7.591a1.517,1.517,0,0,0,.322.5,4.179,4.179,0,0,0,.624.521,6.061,6.061,0,0,0,1.689.781c-.057-.145.174-.075.471,0a2.107,2.107,0,0,0,.827.086c.077.095-.175.131-.455.125s-.58-.052-.606,0c.324.017.695.064,1.089.086a5.736,5.736,0,0,0,1.2-.044c.783-.115,1.42-.446,1.524-.773.135-.055.145-.042.112,0,.2-.119.5-.213.692-.332.062-.145-.356.111.065-.229.352-.246.236,0,.414-.061a13.531,13.531,0,0,0,.937-1.035c.275-.349.464-.654.44-.766.193-.146.436-.27.291-.044a10.091,10.091,0,0,1,.744-1.009,7.26,7.26,0,0,0,.732-1.016c-.256.365.032.3-.414.772.523-.253,1.1-1.616,1.8-2.355l.1-.429c.33-.518.483-.454.284-.069a18.159,18.159,0,0,0,1.385-1.956c.044-.027.05.022-.034.126l.672-.938c.032-.12.2-.507.066-.5C1161.174,4112.766,1161.082,4113,1160.668,4113.471Z" transform="translate(-1144.563 -4088.987)" fill="#040405"/>
                <path id="Trazado_26202" data-name="Trazado 26202" d="M1213.251,4136.1v-.037l-.026.038A.063.063,0,0,1,1213.251,4136.1Z" transform="translate(-1196.636 -4112.496)" fill="#040405"/>
                <path id="Trazado_26203" data-name="Trazado 26203" d="M1185.035,4168.431a1.15,1.15,0,0,0,.246-.143A.947.947,0,0,0,1185.035,4168.431Z" transform="translate(-1175.257 -4136.934)" fill="#040405"/>
                <path id="Trazado_26204" data-name="Trazado 26204" d="M1218.649,4054.134c-.295-.03-.371.6-.718.968.244-.413.053-.4-.044-.394-.071.675-.473.553-1.049,1.486-.1-.043.189-.484.127-.6-.279.54-.776,1.318-.7,1.536-.588.835-1.061,1.389-1.392,1.908.366-.646-.073-.219.11-.752-.256.736-1.012,2.253-1.429,3.3-.244-.009-.289.019-.362-.2-.821.925-.052.4-.776,1.319l.341-.42a.989.989,0,0,0-.119.841l.768-1.133c.107.091-.4.772-.519,1-.1.43.523-.531.544-.333a5,5,0,0,1,.526-.955l.1-.007a10.527,10.527,0,0,0,.821-1.346c.047-.03.065-.027.069-.012a2.221,2.221,0,0,1,.262-.747l-.148.225c.138-.505.749-1.565.128-1.026l.849-1.1a1.421,1.421,0,0,1-.291,1.309l.014.125c.438-.427.856-1.473.492-1.25-.037-.767,1.215-1.746,1.644-2.694.147.016-.138.506-.208.76-.165.259-.29.44-.392.4-.7,1.116.488.017-.4,1.194-.473.553.344-.843-.29.02l-.15.829c.376-.547.674-1.07.948-1.53a32.068,32.068,0,0,1,2.892-4.148l1.862-2.682a17.029,17.029,0,0,0,1.747-2.884,6.028,6.028,0,0,0,.476-1.72,5.1,5.1,0,0,0-.127-1.808,5.4,5.4,0,0,0-1.933-2.962,4.774,4.774,0,0,0-.834-.492,3.249,3.249,0,0,0-.655-.223,1.5,1.5,0,0,0-.983.077c.138.054.414.119.612.194s.319.145.166.156a1.771,1.771,0,0,1,1.321.455c-.006.073-.154-.006-.281-.086s-.248-.146-.173-.09c.038.025.078.047.115.074a.66.66,0,0,1-.419-.1c.31.259.744.585,1.122.948s.717.733.956.926c.055.156.043.22.015.217s-.087-.068-.167-.153a3.113,3.113,0,0,0-.517-.523,4.8,4.8,0,0,1,.909,2.656,5.273,5.273,0,0,1-.786,2.731c.181.142.017.269-.017.62l-.174.121c.088-.062.048.3.33-.065a3.379,3.379,0,0,0-.7,1.222,4.763,4.763,0,0,1-.38,1.063l-.061-.121c-.417.625-.543.808-.867,1.375-.877.854.581-.884.155-.779l-.16.308a2.432,2.432,0,0,1,.145-.878c-.514,1.052-1.02,1.31-1.625,2.418a6.151,6.151,0,0,1,.714-1.438c-.256.339-.617,1.013-.737.972l.085.165c-.415.623-.068-.169-.295-.03C1218.127,4053.822,1219.43,4052.863,1218.649,4054.134Z" transform="translate(-1196.02 -4039.551)" fill="#040405"/>
                <path id="Trazado_26205" data-name="Trazado 26205" d="M1195.05,4157.66a3.209,3.209,0,0,0,.323-.464C1195.263,4157.348,1195.152,4157.5,1195.05,4157.66Z" transform="translate(-1182.852 -4128.521)" fill="#040405"/>
                <path id="Trazado_26206" data-name="Trazado 26206" d="M1202.369,4146.207a.247.247,0,0,1-.01-.088C1202.334,4146.177,1202.336,4146.209,1202.369,4146.207Z" transform="translate(-1188.382 -4120.12)" fill="#040405"/>
                <path id="Trazado_26207" data-name="Trazado 26207" d="M1202.436,4144.339c.11-.027-.017.157-.025.329C1202.5,4144.452,1202.836,4143.974,1202.436,4144.339Z" transform="translate(-1188.434 -4118.669)" fill="#040405"/>
                <path id="Trazado_26208" data-name="Trazado 26208" d="M1237.786,4042.229c.091-.061.516-.12.412-.156a5.072,5.072,0,0,0-.626.1C1237.645,4042.191,1237.716,4042.207,1237.786,4042.229Z" transform="translate(-1215.1 -4041.213)" fill="#040405"/>
                <path id="Trazado_26209" data-name="Trazado 26209" d="M1230.325,4043.074c-.208.045-.414.1-.619.17-.1.127-.2.253-.287.384a1.389,1.389,0,0,0,.441-.293A.982.982,0,0,1,1230.325,4043.074Z" transform="translate(-1208.917 -4041.972)" fill="#040405"/>
                <path id="Trazado_26210" data-name="Trazado 26210" d="M1226.182,4045.45l.1-.125C1226.175,4045.417,1226.161,4045.448,1226.182,4045.45Z" transform="translate(-1206.456 -4043.68)" fill="#040405"/>
                <path id="Trazado_26211" data-name="Trazado 26211" d="M1225.6,4045.414q-.064.135-.12.273a8.034,8.034,0,0,1,.648-.532c-.1.042-.2.083-.294.13-.033-.047-.222.041-.262.036-.07.089-.137.18-.2.271A.783.783,0,0,1,1225.6,4045.414Z" transform="translate(-1205.849 -4043.551)" fill="#040405"/>
                <path id="Trazado_26212" data-name="Trazado 26212" d="M1223.912,4047.925a.491.491,0,0,1,.075,0C1223.981,4047.911,1223.953,4047.912,1223.912,4047.925Z" transform="translate(-1204.741 -4045.644)" fill="#040405"/>
                <path id="Trazado_26213" data-name="Trazado 26213" d="M1218.092,4048.86c.156-.088-.006.233.016.313.476-.446.327-.638.8-.978-.561.7.292-.16.586-.243-.222-.016-.556.1-1.065.547l.021.122C1218.214,4048.883,1218.3,4048.7,1218.092,4048.86Z" transform="translate(-1200.327 -4045.671)" fill="#040405"/>
                <path id="Trazado_26214" data-name="Trazado 26214" d="M1209.878,4057.1l.16-.531c.108-.04.574-.75.681-.627a4.658,4.658,0,0,0,.223-.558.889.889,0,0,0,.428-.532l-.71.787a6.838,6.838,0,0,0-.573.739c-.015-.039.065-.152.144-.264l-.46.563C1209.9,4056.832,1209.4,4057.626,1209.878,4057.1Z" transform="translate(-1193.938 -4050.904)" fill="#040405"/>
                <path id="Trazado_26215" data-name="Trazado 26215" d="M1206.357,4065.387c.309-.489.357-.834.121-.648l-.57,1.092C1206.1,4065.531,1206.331,4065.156,1206.357,4065.387Z" transform="translate(-1191.087 -4058.365)" fill="#040405"/>
                <path id="Trazado_26216" data-name="Trazado 26216" d="M1203.836,4070.524a1.372,1.372,0,0,0-.633.779C1203.547,4070.742,1203.568,4071.127,1203.836,4070.524Z" transform="translate(-1189.035 -4062.79)" fill="#040405"/>
                <path id="Trazado_26217" data-name="Trazado 26217" d="M1195.647,4077.489l.729-.877c.285-.061-.256.484-.382.821a3.32,3.32,0,0,0,.664-1.228,5.693,5.693,0,0,0,.457-.936C1196.427,4076.577,1195.981,4076.358,1195.647,4077.489Z" transform="translate(-1183.305 -4066.388)" fill="#040405"/>
                <path id="Trazado_26218" data-name="Trazado 26218" d="M1200.881,4076.689l.005-.154-.253.487Z" transform="translate(-1187.087 -4067.349)" fill="#040405"/>
                <path id="Trazado_26219" data-name="Trazado 26219" d="M1182.478,4085.776c-.591.412-.661,1.134-1.212,1.7.039-.074-.012-.04.063-.186l-.375.54-.061-.008c.137.054-.232.629-.324.928.529-.444.068-.377.557-.749-.034.153-.021.294-.062.434a1.989,1.989,0,0,0,.226-.688c.251-.361.237-.207.3-.2.227-.44.063-.571.545-1.141.384-.313-.008.345.433-.348-.421.195.516-.648.582-.99.39-.47.731-.717.723-.563-.152-.087.035-.612.258-1.021l-.472.928-.369.166a6.246,6.246,0,0,1-.848,1.276Z" transform="translate(-1171.87 -4072.615)" fill="#040405"/>
                <path id="Trazado_26220" data-name="Trazado 26220" d="M1182.282,4103.97c-.033.064-.06.122-.108.2A.537.537,0,0,0,1182.282,4103.97Z" transform="translate(-1173.087 -4088.155)" fill="#040405"/>
                <path id="Trazado_26221" data-name="Trazado 26221" d="M1194.515,4087.266l-.106.224.146-.105Z" transform="translate(-1182.365 -4075.487)" fill="#040405"/>
                <path id="Trazado_26222" data-name="Trazado 26222" d="M1181.552,4105.636c.088-.1.065-.186-.024-.08l-.053.227Z" transform="translate(-1172.557 -4089.32)" fill="#040405"/>
                <path id="Trazado_26223" data-name="Trazado 26223" d="M1178.668,4107.736l-.3.2-.055.225Z" transform="translate(-1170.156 -4091.011)" fill="#040405"/>
                <path id="Trazado_26224" data-name="Trazado 26224" d="M1146.473,4152.686c.109-.427-.025-.4-.114-.493C1146.242,4152.88,1146.472,4152.226,1146.473,4152.686Z" transform="translate(-1145.9 -4124.728)" fill="#040405"/>
                <path id="Trazado_26225" data-name="Trazado 26225" d="M1164.65,4176.519a11.169,11.169,0,0,1-1.355-.185A2.274,2.274,0,0,0,1164.65,4176.519Z" transform="translate(-1158.769 -4143.036)" fill="#040405"/>
                <path id="Trazado_26226" data-name="Trazado 26226" d="M1180.44,4170.124c-.061.105-.173.224.035.083-.065.16-.135.319-.212.474C1180.87,4170.332,1180.52,4170.191,1180.44,4170.124Z" transform="translate(-1171.638 -4138.326)" fill="#040405"/>
                <path id="Trazado_26227" data-name="Trazado 26227" d="M1191.071,4157.626l-.327.6.215-.274a2.26,2.26,0,0,1-.152.576C1191.074,4158.1,1191.276,4157.651,1191.071,4157.626Z" transform="translate(-1179.586 -4128.848)" fill="#040405"/>
                <path id="Trazado_26228" data-name="Trazado 26228" d="M1189.587,4162.8l.146-.2A.207.207,0,0,0,1189.587,4162.8Z" transform="translate(-1178.709 -4132.616)" fill="#040405"/>
                <path id="Trazado_26229" data-name="Trazado 26229" d="M1190.354,4161.436l.033-.088c-.065.1-.131.207-.2.3A.351.351,0,0,0,1190.354,4161.436Z" transform="translate(-1179.166 -4131.67)" fill="#040405"/>
                <path id="Trazado_26230" data-name="Trazado 26230" d="M1193.744,4153.137l.665-.982-.3.341C1194.176,4152.666,1193.717,4152.893,1193.744,4153.137Z" transform="translate(-1181.861 -4124.699)" fill="#040405"/>
                <path id="Trazado_26231" data-name="Trazado 26231" d="M1209.121,4129.182l.193-.014c.467-.6.749-1.564,1.209-1.795-.268.217.224-.611-.33.1A7.533,7.533,0,0,1,1209.121,4129.182Z" transform="translate(-1193.523 -4105.756)" fill="#040405"/>
                <path id="Trazado_26232" data-name="Trazado 26232" d="M1216.555,4125.018c-.035.127.1-.006.188-.062.17-.209.284-.49.148-.407C1216.924,4124.844,1216.618,4124.716,1216.555,4125.018Z" transform="translate(-1199.157 -4103.75)" fill="#040405"/>
                <path id="Trazado_26233" data-name="Trazado 26233" d="M1224.32,4112.688c-.125.182-.291.441-.074.2.376-.546.137-.5.247-.835C1224.1,4112.453,1224.013,4112.981,1224.32,4112.688Z" transform="translate(-1204.91 -4094.287)" fill="#040405"/>
                <path id="Trazado_26234" data-name="Trazado 26234" d="M1239.644,4099.7c-.148-.015-.438.427-.472.553A2.56,2.56,0,0,1,1239.644,4099.7Z" transform="translate(-1216.314 -4084.917)" fill="#040405"/>
                <path id="Trazado_26235" data-name="Trazado 26235" d="M1237.368,4096.739l-.132.135.034.295Z" transform="translate(-1214.846 -4082.671)" fill="#040405"/>
                <path id="Trazado_26236" data-name="Trazado 26236" d="M1246.2,4081.552l.189-.485-.417.625Z" transform="translate(-1221.471 -4070.786)" fill="#040405"/>
                <path id="Trazado_26237" data-name="Trazado 26237" d="M1248.848,4078.864l.376-.547-.176.161C1248.832,4078.716,1248.974,4078.681,1248.848,4078.864Z" transform="translate(-1223.652 -4068.7)" fill="#040405"/>
                <path id="Trazado_26238" data-name="Trazado 26238" d="M1252.194,4073.8a.29.29,0,0,1-.123.135c-.084.179-.173.358-.263.537C1251.94,4074.245,1252.071,4074.022,1252.194,4073.8Z" transform="translate(-1225.897 -4065.272)" fill="#040405"/>
                <path id="Trazado_26239" data-name="Trazado 26239" d="M1240.848,4038.637c.09-.054-.032-.085-.2-.1s-.388-.008-.488-.023A.9.9,0,0,0,1240.848,4038.637Z" transform="translate(-1217.059 -4038.514)" fill="#040405"/>
              </g>
            </g>
          </g>
        </g>
      </g>
    </g>
    <path id="Trazado_26240" data-name="Trazado 26240" d="M1159.157,4132.725a8.524,8.524,0,0,0-.548-1.045,13.6,13.6,0,0,0-6.919-5.217,11.49,11.49,0,0,0-1.155-.372,18.848,18.848,0,0,0-3.672,5.138,5.235,5.235,0,0,0,1.813,6.265,4.784,4.784,0,0,0,5.693.467,16.68,16.68,0,0,0,4.517-4.852Z" transform="translate(-11.295 -202.707)" fill="#ada7ac" stroke="#040405" stroke-miterlimit="10" stroke-width="1"/>
    <path id="Trazado_26241" data-name="Trazado 26241" d="M1178.062,4114.059c.724,1.172,1.748,2.149,2.515,3.307.861,1.3,1.3,2.809,2.115,4.121a.165.165,0,0,0,.305-.083,10.765,10.765,0,0,0-4.725-7.556.155.155,0,0,0-.21.21Z" transform="translate(-35.245 -193.41)" fill="#161615" stroke="#040405" stroke-miterlimit="10" stroke-width="1"/>
    <path id="Trazado_26242" data-name="Trazado 26242" d="M1180.634,4114.365a8.837,8.837,0,0,0,2.883.571,22.659,22.659,0,0,0,4.486.3.206.206,0,0,0,.055-.4,18.558,18.558,0,0,0-3.419-.583,11.95,11.95,0,0,0-3.967-.17.158.158,0,0,0-.038.287Z" transform="translate(-37.155 -193.505)" fill="#161615" stroke="#040405" stroke-miterlimit="10" stroke-width="1"/>
    <path id="Trazado_26243" data-name="Trazado 26243" d="M1198.842,4090.049a17.585,17.585,0,0,1,2.573,2.779c.753,1.066,1.128,2.322,1.83,3.4a.189.189,0,0,0,.35-.095c-.13-2.479-2.452-5.2-4.41-6.532-.267-.182-.578.229-.343.445Z" transform="translate(-50.959 -175.003)" fill="#161615" stroke="#040405" stroke-miterlimit="10" stroke-width="1"/>
    <path id="Trazado_26244" data-name="Trazado 26244" d="M1207.75,4090.121a9.849,9.849,0,0,0,2.936.552,25.587,25.587,0,0,0,4.565.322.213.213,0,0,0,.056-.416,19.486,19.486,0,0,0-3.48-.557,13.65,13.65,0,0,0-4.038-.2.165.165,0,0,0-.039.3Z" transform="translate(-57.717 -175.126)" fill="#161615" stroke="#040405" stroke-miterlimit="10" stroke-width="1"/>
    <path id="Trazado_26245" data-name="Trazado 26245" d="M1220.622,4065.028a15.585,15.585,0,0,1,2.076,2c.684.8,1.1,1.791,1.8,2.565.1.113.341.032.32-.133-.245-1.983-2.246-3.87-3.828-4.9-.286-.187-.638.259-.368.477Z" transform="translate(-67.467 -156.003)" fill="#161615" stroke="#040405" stroke-miterlimit="10" stroke-width="1"/>
    <path id="Trazado_26246" data-name="Trazado 26246" d="M1226.486,4059.245a4.514,4.514,0,0,0,2.071-.057,5.766,5.766,0,0,0,1.841-.358.2.2,0,0,0-.048-.368,6.487,6.487,0,0,0-2.083.1,3.959,3.959,0,0,0-1.819.4.159.159,0,0,0,.037.287Z" transform="translate(-71.902 -151.375)" fill="#161615" stroke="#040405" stroke-miterlimit="10" stroke-width="1"/>
    <path id="Trazado_26247" data-name="Trazado 26247" d="M1290.131,3888.049c-4.439,5.037-8.35,10.627-12.461,15.935-4.13,5.333-8.378,10.644-12.274,16.151-.054.076.069.17.129.1,4.219-5.013,8.173-10.307,12.172-15.5,4.213-5.47,8.763-10.814,12.621-16.542.076-.112-.1-.246-.187-.145Z" transform="translate(-101.487 -22.151)" fill="#161615" stroke="#040405" stroke-miterlimit="10" stroke-width="1"/>
  </g>
</svg>
